<svg data-name="Layer 1" xmlns="http://www.w3.org/2000/svg" viewBox="0 0 72 72"><path d="M53.25 57.67V14.82H51v7h-2.7c-.39-2.6-2-3-3.08-3s-2.69.43-3.09 3h-3c-.4-2.6-2-3-3.09-3s-2.69.43-3.08 3H19v-7h-2.24v42.85h-3.83v2.23h9.89v-2.23H19v-8.45h14.27c.46 2.9 2.41 3.16 3.07 3.16s2.61-.26 3.07-3.16h2.76c.46 2.9 2.41 3.16 3.07 3.16s2.61-.26 3.07-3.16H51v8.45h-4v2.23h9.88v-2.23zM45.24 21c.22 0 .62 0 .82.8h-1.64c.19-.8.58-.8.82-.8zm.88 3c-.1.67-.34 1.29-.88 1.29s-.78-.62-.88-1.29zm-10.06-3c.22 0 .62 0 .82.8h-1.64c.2-.8.58-.8.82-.8zm.88 3c-.1.67-.33 1.29-.88 1.29s-.78-.62-.87-1.29zm-4 0c.35 3.24 2.43 3.52 3.11 3.52s2.77-.28 3.12-3.52h2.94c.35 3.24 2.44 3.52 3.12 3.52S48 27.24 48.35 24H51v10.4H36.88c-.37-2.67-2.05-3.11-3.09-3.11s-2.72.44-3.1 3.11H28c-.37-2.67-2.05-3.11-3.09-3.11s-2.72.44-3.1 3.11H19V24.05zm0 10.35c.19-.88.6-.88.85-.88s.65 0 .84.88zm1.71 2.23c-.1.64-.34 1.21-.86 1.21s-.76-.57-.87-1.21zM24 34.4c.19-.88.6-.88.85-.88s.65 0 .84.88zm1.71 2.23c-.1.64-.34 1.21-.86 1.21s-.76-.57-.87-1.21zm10.63 13.52c-.44 0-.68-.42-.81-.93h1.61c-.14.51-.36.93-.8.93zM35.45 47c.16-1.14.62-1.16.89-1.16s.72 0 .88 1.16zm9.79 3.16c-.44 0-.68-.42-.81-.93H46c-.08.5-.32.92-.76.92zM44.35 47c.16-1.14.62-1.16.89-1.16s.72 0 .88 1.16zm4 0c-.29-2.92-2-3.39-3.12-3.39s-2.83.47-3.13 3.39h-2.64c-.29-2.92-2-3.39-3.12-3.39s-2.83.47-3.13 3.39H19V36.63h2.79c.38 3.16 2.43 3.44 3.11 3.44s2.72-.28 3.1-3.44h2.69c.38 3.16 2.43 3.44 3.11 3.44s2.72-.28 3.1-3.44H51V47z" fill="silver"/></svg>