<svg id="Layer_1" data-name="Layer 1" xmlns="http://www.w3.org/2000/svg" viewBox="0 0 72 72"><defs><style>.cls-1{fill:silver}</style></defs><path class="cls-1" d="M40.53 21.63a4.31 4.31 0 10-4.31-4.31 4.32 4.32 0 004.31 4.31zm0-6.62a2.31 2.31 0 11-2.31 2.31A2.32 2.32 0 0140.53 15zM45.23 32.48h-.13l-8 1.37-.23-.38 1.9-2.47c3.16-4.86 1.62-7.54-.21-8.91-.2-.16-6.05-3.38-7.33-3.81a25.2 25.2 0 00-3.1-.74A4.78 4.78 0 0023.34 19l-3 3.39a3.11 3.11 0 00-.7 2.74 3 3 0 001.82 2.16 3.09 3.09 0 003.51-.8l2.47-2.78 2.3.87-2.95 3.75h-.61a12.49 12.49 0 00-7.92 2.79l-.93.75 5.11 4.5.64-.42a6 6 0 018.66 7.63l-.34.69 4.93 4.34.62-1A12.64 12.64 0 0038.83 41v-.39l1.81-.36-1 6.86v.14a3.23 3.23 0 003.24 3.21 3.26 3.26 0 002.32-1 3.19 3.19 0 00.93-2.22l1.17-12.39v-.11a2.27 2.27 0 00-2.07-2.26zm-1.06 14.61v.11a1.16 1.16 0 01-.35.84 1.27 1.27 0 01-.9.38 1.23 1.23 0 01-1.24-1.16l1.13-8.1v-.09a1.14 1.14 0 00-.43-.84 1.11 1.11 0 00-.91-.22l-4.78.99.09.91v1.1a10.65 10.65 0 01-1 4.51l-2-1.74a7.73 7.73 0 00.5-2.78 8 8 0 00-8-8 7.92 7.92 0 00-3.7.92L20.49 32a10.55 10.55 0 015.69-1.65c.33 0 .65 0 1 .05l.54.05L32 25a1.15 1.15 0 00.23-1.1 1.14 1.14 0 00-.72-.77l-3.75-1.42a1.54 1.54 0 00-1.59.46l-2.67 3a1.1 1.1 0 01-1.89-.48 1.07 1.07 0 01.25-1l3-3.4a2.84 2.84 0 012.88-.85 26.68 26.68 0 012.88.69c1 .34 6 3.06 6.79 3.53 1.17.9 2.16 2.42-.25 6.14l-2.7 3.49L36.08 36l9.07-1.55a.28.28 0 01.19.23zM29.23 46.21a6 6 0 01-8.45-7.46l.22-.65-5.16-4.55-.61 1.05A12.64 12.64 0 0033.86 51l1-.74-5-4.39zm-3.05 5.4a10.62 10.62 0 01-9.75-14.9l2.25 2a8.23 8.23 0 00-.32 2.29 8 8 0 0011.19 7.32l2.08 1.83a10.53 10.53 0 01-5.45 1.46z"/></svg>