<svg id="Layer_1" data-name="Layer 1" xmlns="http://www.w3.org/2000/svg" viewBox="0 0 72 72"><defs><style>.cls-1{fill:silver}</style></defs><path class="cls-1" d="M40.37 37.29a7.73 7.73 0 01-2.93-.58 1 1 0 00-.76 1.85 9.7 9.7 0 10-2.81-16.18 1 1 0 001.34 1.48 7.71 7.71 0 115.16 13.43z"/><path class="cls-1" d="M57.2 28.54h-2.72a13.92 13.92 0 00-12.82-12.78v-2.67h-2v2.68a13.81 13.81 0 00-10.77 6.39 1 1 0 00.31 1.38 1 1 0 001.38-.3 11.82 11.82 0 019.08-5.47v1h2v-1a11.93 11.93 0 0110.82 10.77h-1.27v2h1.27a11.91 11.91 0 01-10.82 10.92v-1h-2v1a11.92 11.92 0 01-3.85-1 1 1 0 00-1.32.51 1 1 0 00.51 1.35 13.68 13.68 0 004.66 1.14v3.25h2v-3.25a13.9 13.9 0 0012.82-12.92h2.72z"/><path class="cls-1" d="M42.92 34.61A1.65 1.65 0 0044.56 33v-5.55a1.65 1.65 0 00-1.63-1.65h-1.44v-1.35h-2v1.33l-22.82-.16a1.35 1.35 0 00-1.16.67l-1 1.68-1.76-1-1 1.72 1.77 1.05-1.82 3.08a1.34 1.34 0 00.42 1.8l2.2 1.48a.88.88 0 01.4.91l-2.94 8.29a2.86 2.86 0 00.5 2.47 2.83 2.83 0 002.26 1.11h4.87a2.84 2.84 0 002.77-2.18l1.91-6.84v.62h4.43a5.19 5.19 0 005.19-5.19v-.68zm-22.68 11.6a.85.85 0 01-.83.67h-4.87a.87.87 0 01-.85-1l2.94-8.29a2.89 2.89 0 00-1.2-3.16l-1.69-1.13L17 27.62l25.53.18v4.81h-17a1.94 1.94 0 00-1.89 1.47zm11.47-10.92a3.19 3.19 0 01-3.19 3.19h-4.05l1-3.45 1.5 1.83a1 1 0 00.77.37 1 1 0 00.64-.23 1 1 0 00.14-1.41l-.81-1h4z"/></svg>