<svg id="Layer_1" data-name="Layer 1" xmlns="http://www.w3.org/2000/svg" viewBox="0 0 72 72"><defs><style>.cls-1{fill:silver}</style></defs><path class="cls-1" d="M56.64 19.54a12.92 12.92 0 00-18.25-.41l-2.86 2.69-2.85-2.68A12.91 12.91 0 1014.82 37.8l19.43 18.34a2.94 2.94 0 004.09-.08l17.9-18.26a12.92 12.92 0 00.4-18.26zm-1.8 16.83L36.91 54.66a.92.92 0 01-1.29 0L16.2 36.35a10.92 10.92 0 017.31-18.8h.25a10.81 10.81 0 017.54 3l4.22 4 4.25-4a10.91 10.91 0 1115.07 15.82z"/><path class="cls-1" d="M44 32.61h-4.38L40.94 26a1.11 1.11 0 00-1.94-.91l-9.75 11.2a1.11 1.11 0 00.83 1.83h4.83l-1.36 7.18a1.12 1.12 0 00.67 1.16 1.26 1.26 0 00.43.08 1.12 1.12 0 00.87-.42l9.34-11.71a1.11 1.11 0 00-.88-1.8zM36.21 42l.89-4.62a1.08 1.08 0 00-.23-.9l-.38-.4h-4.42l6.25-7.18-.88 4.33a1.08 1.08 0 00.23.93l.38.41h4.08z"/></svg>