<svg id="Layer_1" data-name="Layer 1" xmlns="http://www.w3.org/2000/svg" viewBox="0 0 72 72"><defs><style>.cls-1{fill:silver}</style></defs><path class="cls-1" d="M51.88 25.23V16h-6.7v2.81a14.76 14.76 0 00-3.37-1.09 5.19 5.19 0 00-10.38.09 14.89 14.89 0 00-2.88 1V16.5h-6.69v8.6H22a14.22 14.22 0 00-1.69 6.75V50.3a5.91 5.91 0 005.9 5.9h21.4a5.91 5.91 0 005.9-5.9V31.85a14.34 14.34 0 00-1.63-6.62zM47.18 18h2.7v4.33a14.33 14.33 0 00-2.7-2.4zm-10.55-3.38a3.19 3.19 0 013.16 2.88H34.7c-.42 0-.83 0-1.24.06a3.2 3.2 0 013.17-2.94zM23.86 18.5h2.69V20a14.41 14.41 0 00-2.69 2.42zm27.65 31.8a3.91 3.91 0 01-3.9 3.9H26.22a3.91 3.91 0 01-3.9-3.9V31.85A12.4 12.4 0 0134.7 19.47h4.43a12.4 12.4 0 0112.38 12.38z"/><path class="cls-1" d="M46.5 37.86H27.92A1.92 1.92 0 0026 39.78v9.47a1.93 1.93 0 001.92 1.93H46.5a1.93 1.93 0 001.92-1.93v-9.47a1.92 1.92 0 00-1.92-1.92zm-.08 2v1.9H28v-1.9zM28 49.18v-5.42h2.63v2h2v-2h13.79v5.42zM32 26.17h.7l3.34 4.17.07 2.21h-.46a1 1 0 100 2h2.66a1 1 0 000-2h-.2l-.06-2.27 3-3.9a1 1 0 00.13-.25h.27a1 1 0 000-2h-2.71a1 1 0 000 2l-1.7 2.22-1.77-2.22h.55a1 1 0 000-2H32a1 1 0 000 2z"/></svg>