<svg id="Layer_1" data-name="Layer 1" xmlns="http://www.w3.org/2000/svg" viewBox="0 0 72 72"><defs><style>.cls-1{fill:silver}</style></defs><path class="cls-1" d="M53.31 50.5l-9.9-19.38a10.16 10.16 0 01-1.11-4.59v-6.3h.49a1 1 0 000-2H32.35a1 1 0 000 2h.56v6.7a10 10 0 01-1 4.43l-9.49 19.32a3.76 3.76 0 001.24 5.12 3.68 3.68 0 002 .57l24.48-.12a3.76 3.76 0 003.74-3.76 3.77 3.77 0 00-.57-1.99zM33.68 32.24a12.06 12.06 0 001.23-5.31v-6.7h5.39v6.3A12.06 12.06 0 0041.63 32l1.61 3.16h-11zm17.69 21.5a1.74 1.74 0 01-1.24.51l-24.48.12a1.49 1.49 0 01-.93-.26 1.76 1.76 0 01-.57-2.42l7.11-14.5h13l7.29 14.27.05.09a1.75 1.75 0 01.28.94 1.78 1.78 0 01-.51 1.25z"/><path class="cls-1" d="M40.36 40A3.59 3.59 0 1044 43.58 3.58 3.58 0 0040.36 40zm0 5.17A1.59 1.59 0 1142 43.58a1.59 1.59 0 01-1.64 1.59zM35.39 16.36a2.79 2.79 0 10-2.79-2.79 2.79 2.79 0 002.79 2.79zm0-3.58a.79.79 0 11-.79.79.8.8 0 01.79-.79zM32.12 45.68a2.79 2.79 0 102.78 2.79 2.79 2.79 0 00-2.78-2.79zm0 3.57a.79.79 0 11.78-.78.78.78 0 01-.78.78zM37.43 34.14a1 1 0 011 1h2a3 3 0 10-6 0h2a1 1 0 011-1z"/></svg>