<svg data-name="Layer 1" xmlns="http://www.w3.org/2000/svg" viewBox="0 0 72 72"><path d="M54.24 28.33a10.41 10.41 0 00-5 1.25l-3-4.7L48.69 21h5a1.48 1.48 0 010 2.95h-1.52v2h1.52a3.48 3.48 0 000-6.95H43.3v2h3.05l-2.27 3.7-15.32.07L26.13 21h4.52v-2h-9.83v2h2.86l2.68 3.78-3.05 4.8a10.5 10.5 0 105.34 10.87h8.12V40l8.31-13.28 2.53 4a10.48 10.48 0 106.63-2.37zm-26.63-1.77l.05.08.1-.07 7.9 11.86h-6.89A10.45 10.45 0 0025 30.72zm-.83 11.91h-6.74l3.84-6.07a8.45 8.45 0 012.9 6.07zm-8.48 8.84a8.49 8.49 0 113.94-16l-4.52 7.13a1.29 1.29 0 00-.22.74 1.35 1.35 0 001.35 1.34h7.77a8.51 8.51 0 01-8.32 6.79zm18.38-10.94l-6.41-9.64 12.48-.06zm17.56 10.94a8.49 8.49 0 01-5.55-14.91l4.57 7.21a1 1 0 00.85.46 1.08 1.08 0 00.54-.15 1 1 0 00.3-1.38l-4.6-7.26a8.32 8.32 0 013.89-1 8.49 8.49 0 010 17z" fill="silver"/></svg>