<svg xmlns="http://www.w3.org/2000/svg" viewBox="0 0 72 72"><path d="M54.5 23.2l.2-.3c.7-1.3.6-2.8-.2-3.9-.8-1.2-2.2-1.8-3.6-1.5-1.1.2-2 .8-2.6 1.8l-.8 1.4c-1.6.4-3.1 1.3-4.1 3.1l-.3.5c0-.1-.1-.2-.1-.4l.4-1.1c.7-1.2.6-2.7-.2-3.9-.8-1.2-2.2-1.8-3.6-1.5-1.1.2-2 .8-2.5 1.7l-1.2 1.7c-3.2 1-5.5 4.1-6.8 5.8-.2.2-.3.4-.5.7L17.7 43.9l.1.1c-.6 1.1-1 2.3-1 3.6 0 4 3.3 7.3 7.3 7.3 3.4 0 6.2-2.3 7.1-5.3l.1-.1c.8 3.1 3.7 5.4 7.1 5.4 3.6 0 6.5-2.5 7.2-5.9 3.6-7.5 9.5-19.7 9.6-19.9.9-2.3.4-4.4-.7-5.9zm-3.3-3.8c.7-.1 1.3.1 1.7.7.4.5.4 1.1.1 1.7-.3-.2-.6-.4-1-.6-.7-.3-1.4-.5-2.2-.6l.2-.3c.3-.5.7-.8 1.2-.9zm-11.4-.1c.7-.1 1.3.1 1.7.7.4.5.4 1.2.1 1.8-.6-.5-1.4-.9-2.2-1.1-.3-.1-.7-.1-1-.2l.3-.4c.2-.4.7-.7 1.1-.8zm-9.7 9.1c.1-.2.3-.4.5-.6 1.6-2.1 4.5-6.1 8.3-5.2 1.3.3 1.9 1.2 2.2 1.9.4 1 .4 2.3-.1 3.5l-.7 1.3c-.8-.1-1.6-.1-2.4.1-2.3.5-4 2.1-4.7 4.1-.1.4 0 .8.2 1.2.2.3.6.5 1.1.5h2.6l-4.5 8.1c-.4.5-.7 1-.9 1.6l-.3.6c-.9-3-3.7-5.3-7-5.3-.7 0-1.3.1-2 .3l7.7-12.1zm5.4 4.7c.6-.9 1.6-1.6 2.7-1.8.4-.1.7-.1 1-.1 1.5 0 2.8.7 3.4 1.8l-7.1.1zM24.2 52.9c-2.9 0-5.3-2.4-5.3-5.3s2.4-5.3 5.3-5.3 5.3 2.4 5.3 5.3c0 .4-.1.9-.2 1.3l-.1.1c-.4 2.2-2.5 3.9-5 3.9zm14.2 0c-2.9 0-5.3-2.4-5.3-5.3 0-.7.1-1.3.4-1.9l.7-1.3c1-1.3 2.5-2.2 4.3-2.2 2.9 0 5.3 2.4 5.3 5.3 0 .3 0 .6-.1.9 0 0 0 .1-.1.1-.4 2.5-2.6 4.4-5.2 4.4zm14.9-24.6c-.2.4-4.7 9.7-8 16.7-1-2.8-3.7-4.8-6.9-4.8-.7 0-1.5.1-2.1.3l3-5.5 4.3-.1c.4 0 .9-.2 1.1-.6.3-.3.3-.8.2-1.2-.4-1.5-1.4-2.6-2.7-3.3l.1-.2c.2-.3.3-.5.4-.8l2.3-4.2c1.5-2.5 4.2-2.6 6-1.7 1.8.9 3.4 2.8 2.3 5.4z" fill="silver"/></svg>