<svg id="Layer_1" data-name="Layer 1" xmlns="http://www.w3.org/2000/svg" viewBox="0 0 72 72"><defs><style>.cls-1{fill:silver}</style></defs><path class="cls-1" d="M49.4 22.48v-1.9H34.82V16.7h-1.9v3.88H18.48v1.9h1.45v18.4h-1.45v1.9h12L24.94 56a1 1 0 00.51 1.25 1 1 0 001.25-.51l5.84-13.91h.68l.12 13.31a1 1 0 00.95.94.94.94 0 00.94-1l-.12-13.29h.71L42 56.21a1 1 0 00.87.55.89.89 0 00.39-.09.94.94 0 00.47-1.26l-5.81-12.63H49.4v-1.9h-1.65v-18.4zm-3.55 18.4h-24v-18.4h24z"/><path class="cls-1" d="M35.39 37.89h7.72v1.9h-7.72z"/></svg>