<svg id="Layer_1" data-name="Layer 1" xmlns="http://www.w3.org/2000/svg" viewBox="0 0 72 72"><defs><style>.cls-1{fill:silver}</style></defs><path class="cls-1" d="M36.53 50.58l-19.38-.25a1.77 1.77 0 01.07-3.54l20 .25 5-3-.22-2.25L36.63 45l-19.36-.25a1.77 1.77 0 11.07-3.54l19.93.25 14.88-8.94v1.8h2l.06-3.07.11-5.57-.1-1.77L33 23.53 15.79 34a3.79 3.79 0 00-2.16 3.34 3.75 3.75 0 001.19 2.81 3.73 3.73 0 00-.11 5.58 3.78 3.78 0 002.41 6.63l19.94.25 5.53-3.24-.14-2.24zm-3-25l16.63.3L36.85 34l-16.65-.33zM16.3 36l.43-.26a1.61 1.61 0 01.73-.14l19.94.4 14.88-9-.07 3.16-15.47 9.3-19.36-.24a1.77 1.77 0 01-1.73-1.81A1.73 1.73 0 0116.3 36zM54.21 44.17l-1.49-.79.05-3.19a1 1 0 00-1-1 1 1 0 00-1 1v3.2a2.09 2.09 0 00.74 1.6l1.83 1a1 1 0 00.45.11 1 1 0 00.49-1.9z"/><path class="cls-1" d="M51.85 36.33a7.41 7.41 0 107.26 7.56 7.41 7.41 0 00-7.26-7.56zm-.26 12.8a5.39 5.39 0 115.51-5.28 5.39 5.39 0 01-5.51 5.28z"/></svg>