<svg data-name="Layer 1" xmlns="http://www.w3.org/2000/svg" viewBox="0 0 72 72"><path d="M54 28.32v-4.15H41.05a5.48 5.48 0 00-4.5 2.35 5.46 5.46 0 00-4.49-2.35H20.23v4.15h-4.15V53.5h42.6V28.32zm-12.95-2.19H52v21.26h-6.14a13.23 13.23 0 00-8.32 3V29.64a1 1 0 000-.17 3.52 3.52 0 013.51-3.34zM27.57 51.54H18V30.28h2.19v19.07h7a11.32 11.32 0 016.66 2.19zm-.39-4.15h-5V26.13h9.87a3.52 3.52 0 013.51 3.34V50.4a13.3 13.3 0 00-8.38-3.01zm29.55 4.15H39.18a11.34 11.34 0 016.68-2.19H54V30.28h2.77z" fill="silver"/></svg>