<svg data-name="Layer 1" xmlns="http://www.w3.org/2000/svg" viewBox="0 0 72 72"><path d="M55.3 24.9L44 24.44v-.12a7.47 7.47 0 00-2.43-5.51 5.5 5.5 0 001.8-.54c1.87-1 2.89-4 3-4.3l.35-1.06-1.1-.23c-.32-.07-3.23-.64-5.08.37a10 10 0 00-3.19 3.82h-.18v-4.49h-2v4.56A7.52 7.52 0 0029 24.32a7.41 7.41 0 00.83 3.41l-12.67 8a2.39 2.39 0 00-.34.21 3.75 3.75 0 00-1.55 3 3.71 3.71 0 001.23 2.75 3.73 3.73 0 00-1.24 2.77 3.69 3.69 0 001.24 2.76 3.74 3.74 0 002.52 6.52l19.76-.14 15.72-9.69a1.79 1.79 0 00.84-1.5V26.64zM41.54 14.81a5.07 5.07 0 012.5-.32 4.85 4.85 0 01-1.57 2 6.38 6.38 0 01-2.79.42 6.35 6.35 0 011.86-2.1zM53.38 31l-15.14 9.56-19.18.14a1.76 1.76 0 01-1.75-1.7 1.73 1.73 0 01.69-1.41l.37-.24a1.8 1.8 0 01.72-.16h19.76l14.56-9.26zM36.54 18.82a5.5 5.5 0 11-5.5 5.5 5.51 5.51 0 015.5-5.5zm0 13a7.51 7.51 0 007.2-5.39l7.75.31-13.25 8.43H21.78l9.22-5.8a7.51 7.51 0 005.54 2.45zm1.71 19.8l-19.2.13a1.76 1.76 0 110-3.51l19.76-.14 14.53-9v.08a.3.3 0 000 .1v3.07zm15.13-15l-15.14 9.47-19.18.13a1.76 1.76 0 110-3.51l19.75-.14 14.56-9.15z" fill="silver"/></svg>