<svg id="Layer_1" data-name="Layer 1" xmlns="http://www.w3.org/2000/svg" viewBox="0 0 72 72"><defs><style>.cls-1{fill:silver}</style></defs><path class="cls-1" d="M40 38.74h-1.14a2 2 0 01-1.47-.52 1 1 0 00-1.36.05 1 1 0 00.06 1.35 3.82 3.82 0 002.5 1v.25a1 1 0 101.92 0v-.28c1.72-.16 2.81-1.12 2.81-2.55 0-1.15-1.14-2.36-3-2.37h-.76c-.83 0-1.09 0-1.39-.21a.39.39 0 01-.14-.17A.44.44 0 0138 35a.46.46 0 01.28-.29 1.11 1.11 0 01.67-.12H39.81a2.13 2.13 0 011.52.54 1 1 0 001.32-.13 1 1 0 00-.09-1.35 4.07 4.07 0 00-2.05-1v-.37a1 1 0 00-1.92 0v.31a2.85 2.85 0 00-1.23.33 2.42 2.42 0 00-1.22 1.37 2.37 2.37 0 00.11 1.83 2.34 2.34 0 00.72.88 3.78 3.78 0 002.58.59h.71c.77 0 1.11.36 1.14.45 0 .64-.97.7-1.4.7z"/><path class="cls-1" d="M49.14 27.69v-4.07H36.49a5.37 5.37 0 00-4.4 2.31 5.39 5.39 0 00-4.41-2.31H16.09v4.07H12v24.67h41.77V27.69zm-12.65-2.15h10.73v20.84h-6a13 13 0 00-8.15 2.88V28.82a3.44 3.44 0 013.42-3.28zm-13.2 24.9H14V29.61h2.14V48.3h6.76a11.09 11.09 0 016.53 2.14zm-.39-4.06H18V25.54h9.67a3.46 3.46 0 013.45 3.28 1 1 0 000 .17v20.33a13 13 0 00-8.22-2.94zm29 4.06H34.66a11 11 0 016.54-2.14h7.94V29.61h2.71z"/></svg>