<svg id="Layer_1" data-name="Layer 1" xmlns="http://www.w3.org/2000/svg" viewBox="0 0 72 72"><defs><style>.cls-1{fill:silver}</style></defs><path class="cls-1" d="M24.88 14a4.71 4.71 0 00-4.7 4.7v32.1a5.2 5.2 0 005.18 4.9h25.25v-2H25.36a3.19 3.19 0 01-3.18-3v-.35a3.19 3.19 0 013.18-3h25.48V14zm24 31.32H25.36a5.2 5.2 0 00-3.18 1.09v-1.5a2.7 2.7 0 012.7-2.7v-2a4.61 4.61 0 00-2.72.89v-1.52a2.71 2.71 0 012.7-2.71v-2a4.69 4.69 0 00-2.72.88v-1.51a2.7 2.7 0 012.7-2.7v-2a4.69 4.69 0 00-2.72.88v-1.51a2.7 2.7 0 012.7-2.7v-2a4.61 4.61 0 00-2.72.89v-1.52a2.71 2.71 0 012.7-2.71v-2a4.69 4.69 0 00-2.72.88v-1a2.71 2.71 0 012.7-2.7h24z"/><path class="cls-1" transform="rotate(-89.92 37.892 50.609)" d="M36.89 37.76h2v25.7h-2z"/><path class="cls-1" d="M32.11 23.76h.6l3 4.69a.7.7 0 00.08.1l.07 3.95h-.36a1 1 0 100 2H38a1 1 0 000-2h-.1l-.07-4.06 2.81-4.55v-.13h.2a1 1 0 000-2h-2.51a1 1 0 000 2l-1.6 2.59-1.68-2.59h.57a1 1 0 000-2h-3.51a1 1 0 000 2z"/></svg>