<svg id="Layer_1" data-name="Layer 1" xmlns="http://www.w3.org/2000/svg" viewBox="0 0 72 72"><defs><style>.cls-1{fill:silver}</style></defs><path class="cls-1" d="M32.1 35.15h6.23v-3.29h3.29v-6.23h-3.29v-3.29H32.1v3.29h-3.29v6.23h3.29zm-1.29-5.29v-2.23h3.29v-3.29h2.23v3.29h3.29v2.23h-3.29v3.29H34.1v-3.29z"/><path class="cls-1" d="M22.84 13.59a4.71 4.71 0 00-4.7 4.7v32.09a5.19 5.19 0 005.18 4.9h25.26v-2H23.33a3.2 3.2 0 01-3.19-3v-.35a3.2 3.2 0 013.19-3H48.8V13.59zm24 31.32H23.33A5.15 5.15 0 0020.14 46v-1.51a2.7 2.7 0 012.7-2.7v-2a4.68 4.68 0 00-2.73.88v-1.52a2.69 2.69 0 012.7-2.7v-2a4.67 4.67 0 00-2.72.88v-1.51a2.69 2.69 0 012.7-2.7v-2a4.67 4.67 0 00-2.72.88v-1.51a2.7 2.7 0 012.7-2.7v-2a4.68 4.68 0 00-2.73.88v-1.52a2.69 2.69 0 012.7-2.7v-2a4.67 4.67 0 00-2.72.88v-1a2.71 2.71 0 012.7-2.7h24z"/><path class="cls-1" transform="rotate(-89.92 35.855 50.185)" d="M34.85 37.33h2v25.7h-2z"/></svg>