<svg id="Layer_1" data-name="Layer 1" xmlns="http://www.w3.org/2000/svg" viewBox="0 0 72 72"><defs><style>.cls-1{fill:silver}</style></defs><path class="cls-1" d="M34.07 45.1h2v12.67h-2zM44.88 41.81h2v17.15h-2z"/><path class="cls-1" d="M28.75 59.72V48.39H26a2.81 2.81 0 01-2.8-2.8V29.4a8.26 8.26 0 014.29-7.24v-5.73a5 5 0 0110.06 0v6.12a8.23 8.23 0 013.66 6.85l.41 30.11zm7.62-35.58l-5 3.91a1.32 1.32 0 00-.5 1l-.11 28.61 8.88-.14-.39-28.14a6.26 6.26 0 00-2.88-5.24zm-4.88-1a6.26 6.26 0 00-6.25 6.25v16.2a.8.8 0 00.8.8h2.76l.07-17.32a3.27 3.27 0 011.27-2.59l4.1-3.21a6.36 6.36 0 00-1.24-.12zm0-2H33a8.22 8.22 0 012.59.41v-5.12a3 3 0 00-6.06 0v4.95a8.48 8.48 0 011.96-.23z"/><path class="cls-1" d="M31.24 12.73h2v9.34h-2zM46.15 43.34A3.48 3.48 0 0143.36 42l-3.91-5L41 35.78l4 4.95a1.5 1.5 0 001.5.58 1.25 1.25 0 001-.87.65.65 0 000-.35l-.08-.09-12-18 1.66-1.11 11.98 17.98a2.33 2.33 0 01.31 2.13 3.21 3.21 0 01-2.56 2.28 3.68 3.68 0 01-.66.06zM30.24 39.32h9.92v2h-9.92z"/><path class="cls-1" d="M34.28 23.72h2v11.67h-2z"/><path class="cls-1" transform="rotate(-28.27 37.866 22.098)" d="M35.84 21.11h4.08v2h-4.08z"/><path class="cls-1" d="M24.65 41.63h5.49v2h-5.49z"/><path class="cls-1" transform="rotate(-39.25 44.026 37.43)" d="M42.13 36.43h3.78v2h-3.78z"/><path class="cls-1" d="M24.53 57.68h25.54v2H24.53z"/></svg>