<svg id="Layer_1" data-name="Layer 1" xmlns="http://www.w3.org/2000/svg" viewBox="0 0 72 72"><defs><style>.cls-1{fill:silver}</style></defs><path class="cls-1" d="M14.57 18.09v35.46h44.71V18.09zM57 20.34v7.19H16.82v-7.19zm-40.21 31V29.78H57v21.48z"/><path class="cls-1" d="M25.21 32.53a3.18 3.18 0 103.18 3.18 3.18 3.18 0 00-3.18-3.18zm0 4.11a.93.93 0 11.93-.93.93.93 0 01-.93.93zM25.21 41.6a3.18 3.18 0 103.18 3.18 3.18 3.18 0 00-3.18-3.18zm0 4.11a.93.93 0 11.93-.93.93.93 0 01-.93.93zM30.83 43.47h20.29v2.25H30.83zM30.83 34.51h20.29v2.25H30.83zM20.33 25.66a1.27 1.27 0 00.34 0 1.28 1.28 0 00.32-.09c.1 0 .19-.1.29-.15A1.83 1.83 0 0022 24a1.93 1.93 0 000-.33 2 2 0 00-.1-.32 1.18 1.18 0 00-.16-.29 1.26 1.26 0 00-.21-.26 1.57 1.57 0 00-.25-.2 2.09 2.09 0 00-.29-.16 2 2 0 00-.32-.1 1.75 1.75 0 00-1.53.46 1.21 1.21 0 00-.2.26 1.18 1.18 0 00-.16.29 1.31 1.31 0 00-.1.32 1.29 1.29 0 000 .33 1.66 1.66 0 00.5 1.19 1.67 1.67 0 001.15.47zM24.62 25.38a2.64 2.64 0 00.29.15 1.21 1.21 0 00.31.09 1.35 1.35 0 00.33 0A1.69 1.69 0 0027.24 24a1.68 1.68 0 00-2-1.66 1.86 1.86 0 00-.31.1 2.18 2.18 0 00-.55.36 1.76 1.76 0 00-.5 1.2 1.68 1.68 0 00.5 1.19 1.78 1.78 0 00.24.19z"/></svg>