<svg id="Layer_1" data-name="Layer 1" xmlns="http://www.w3.org/2000/svg" viewBox="0 0 72 72"><defs><style>.cls-1{fill:silver}</style></defs><path class="cls-1" d="M13.35 54.06h24.28v-41.6H13.35zm13.59-2h-2.63v-5.82h2.63zm-11.59-37.6h20.28v37.6h-6.69v-7.82h-6.63v7.82h-7z"/><path class="cls-1" d="M24.61 17.69H18v6.77h6.57zm-2 4.77H20v-2.77h2.57zM33.36 17.69h-6.57v6.77h6.57zm-2 4.77h-2.57v-2.77h2.57zM24.61 26H18v6.8h6.57zm-2 4.76H20V28h2.57zM33.36 26h-6.57v6.8h6.57zm-2 4.76h-2.57V28h2.57zM24.61 34.38H18v6.77h6.57zm-2 4.77H20v-2.77h2.57zM33.36 34.38h-6.57v6.77h6.57zm-2 4.77h-2.57v-2.77h2.57zM50 31.08a3.15 3.15 0 10-3.15-3.14A3.15 3.15 0 0050 31.08zm0-4.29a1.15 1.15 0 11-1.15 1.15A1.14 1.14 0 0150 26.79zM56.68 43v-7.3a4 4 0 00-4-4h-5.3a4 4 0 00-4 4V43h2v-7.3a2 2 0 011.47-1.91v7.65h-.07v9.67H44.9v2h3.88v-9.59h2.3V53h4v-2h-2V33.74a2 2 0 011.56 1.94V43zm-7.83-1.46v-7.85h2.27v7.82h-2.27z"/></svg>