<svg id="Layer_1" data-name="Layer 1" xmlns="http://www.w3.org/2000/svg" viewBox="0 0 72 72"><defs><style>.cls-1{fill:silver}</style></defs><path class="cls-1" d="M38.3 27.17L37 26.5v-2.8a.88.88 0 00-.88-.88.9.9 0 00-.88.89v2.8a1.85 1.85 0 00.67 1.4l1.63.84a.89.89 0 00.39.09.88.88 0 00.4-1.67z"/><path class="cls-1" d="M56.88 36.57v-5l-20.31-17a1.18 1.18 0 00-1.51 0L15.53 31.65v4.92h4.11v16.84H15.4v1.77h41.46v-1.77H53V36.57zm-21.05-20.3l18.34 15.38H40.43a6.5 6.5 0 10-8.68 0H18.21zm-4.47 10.56a4.73 4.73 0 114.73 4.73 4.74 4.74 0 01-4.73-4.73zM17.3 33.42h37.81v1.38H17.3zM29 36.57v16.84h-4V36.57zm1.77 0h1.77v16.84h-1.8zm3.54 0h4v16.84h-4zm5.8 0h1.76v16.84h-1.79zm3.53 0h4v16.84h-4zm-22.2 0h1.76v16.84h-1.79zm29.74 16.84h-1.77V36.57h1.77z"/></svg>