<svg id="Layer_1" data-name="Layer 1" xmlns="http://www.w3.org/2000/svg" viewBox="0 0 72 72"><defs><style>.cls-1{fill:silver}</style></defs><path class="cls-1" d="M50.94 36a7.41 7.41 0 00-7.4 7.4c0 3 3.83 9.16 6.11 12.53a1.55 1.55 0 001.29.69 1.57 1.57 0 001.3-.69c2.28-3.37 6.11-9.48 6.11-12.53a7.42 7.42 0 00-7.41-7.4zm0 18.27c-3.29-4.94-5.4-9.17-5.4-10.87a5.41 5.41 0 0110.81 0c0 2-2.73 6.81-5.41 10.83z"/><path class="cls-1" d="M50.94 39.71a3.66 3.66 0 103.66 3.65 3.66 3.66 0 00-3.66-3.65zm0 5.31a1.66 1.66 0 111.66-1.66A1.66 1.66 0 0150.94 45zM16.52 56.42H40.8V14.81H16.52zm13.59-2h-2.63v-5.83h2.63zM18.52 16.81H38.8v37.61h-6.69v-7.83h-6.63v7.83h-7z"/><path class="cls-1" d="M27.78 20h-6.57v6.77h6.57zm-2 4.77h-2.57V22h2.57zM36.53 20H30v6.77h6.57zm-2 4.77H32V22h2.57zM27.78 28.39h-6.57v6.77h6.57zm-2 4.77h-2.57v-2.77h2.57zM36.53 28.39H30v6.77h6.57zm-2 4.77H32v-2.77h2.57zM27.78 36.73h-6.57v6.77h6.57zm-2 4.77h-2.57v-2.77h2.57zM36.53 36.73H30v6.77h6.57zm-2 4.77H32v-2.77h2.57z"/></svg>