<svg data-name="Layer 1" xmlns="http://www.w3.org/2000/svg" viewBox="0 0 72 72"><path d="M64.86 38.17l-6.59-1.39V33l.42-.81-17.95-9.28v-.09h-.09l-4.93-2.54-4.75 2.54-17.58 9.41.07.14h-.12v4.37l-6.48 1.44v8.11h58zm-10.13-5.8H44.15l-2.42-6.7zm-27.12 2v10h-5.24v-10zm2 0H35v10h-5.42zM37 23.24l2.12 1.09 2.9 8H37zm-2 9.13h-5.18l2.72-8.11L35 23zm2 2h5.45l-.06 10H37zm7.45 0h5v10h-5zM30 25.64l-2.26 6.73H17.36zM8.86 44.29v-4.51l4.48-1v5.5zm6.48-9.92h5v10h-5zm40.93 10h-4.83v-10h4.83zm6.59 0h-4.59v-5.54l4.59 1z" fill="silver"/></svg>