<svg data-name="Layer 1" xmlns="http://www.w3.org/2000/svg" viewBox="0 0 72 72"><path d="M58.24 48.94L50 44.55v-.94l.95.44.84-1.81-12.09-5.61-.07-2.63H38v-2.8l1.41.68.87-1.8-2.73-1.28-1.41-17.26h-2.25l-1.35 16.51-.08.82-2.2 1 .85 1.81 1-.44V34h-1.58v2.83L19.3 42.6l.92 1.78.91-.47V45l-8.25 3.88.86 1.81 1.38-.65v4.7H56V50l1.34.71zM35.5 28a2 2 0 00-.43 0 3.07 3.07 0 00-.53.06l.48-5.8zm-1.44 2.29l.44-.21a1.48 1.48 0 01.59-.12 1.38 1.38 0 01.62.13l.24.12V34h-1.89zM17.12 49.14l4-1.89v5.53h-4zm20.19 3.62h-3.47v-8A1.74 1.74 0 0135.58 43a1.72 1.72 0 011.73 1.74zm2 0v-8A3.72 3.72 0 0035.58 41a3.74 3.74 0 00-3.74 3.74v8h-8.71v-9.85l9.4-4.82V36h5.15v1.91L48 42.69v10.07zm14.65 0H50v-6l4 2.16z" fill="silver"/></svg>