<svg id="Layer_1" data-name="Layer 1" xmlns="http://www.w3.org/2000/svg" viewBox="0 0 72 72"><defs><style>.cls-1{fill:silver}</style></defs><path class="cls-1" d="M13.33 40.08h3.79v2h-3.79zM54.05 40.08h3.79v2h-3.79z"/><path class="cls-1" d="M64.38 35.65H52l3.63-2.08.09-3.72h-3.47v-6.41h-6.17l-1.1 1H25.47l-1.09-1h-6v6.41h-3.14l-.12 3.75 4.1 1.95H7l-.18 2 2.22 3V51.1h53.3V40.56l2.22-3zm-14.13-5.8h-2.63v-4.41h2.63zm-4.63-3.39v3.39H25v-3.39zm-25.22-1H23v4.41h-2.6zM17.11 49.1v-1.9h-3.78v1.9h-2.26v-9.2l-1.74-2.35h10.35V49.1zm32.71-14.54V49.1h-4.17V35.49h-2V49.1h-2.46V35.49h-2V49.1h-2.47V35.49h-2V49.1h-2.46V35.49h-2V49.1H27.8V35.49h-2V49.1h-4.12V34.51l-4.52-2.15v-.51h36.47v.54zm10.52 5.34v9.2h-2.22v-1.9h-3.78v1.9h-2.52V37.65H62z"/></svg>