<svg id="Layer_1" data-name="Layer 1" xmlns="http://www.w3.org/2000/svg" viewBox="0 0 72 72"><defs><style>.cls-1{fill:silver}</style></defs><path class="cls-1" d="M33.37 19.21a4.08 4.08 0 002.82.64h.8c.92 0 1.3.45 1.33.56 0 .72-1.12.8-1.6.8h-1.28a2.19 2.19 0 01-1.68-.59 1 1 0 00-1.42.05 1 1 0 00.06 1.41 4.28 4.28 0 002.8 1.14v.33a1 1 0 002 0v-.37c1.9-.15 3.12-1.2 3.12-2.77 0-1.25-1.24-2.55-3.32-2.56h-.85c-.93 0-1.23 0-1.58-.24a.58.58 0 01-.17-.21.6.6 0 01.31-.82 1.28 1.28 0 01.79-.14h.94a2.35 2.35 0 011.73.61 1 1 0 101.33-1.5 4.48 4.48 0 00-2.3-1.07V14a1 1 0 00-2 0v.4a3 3 0 00-1.4.37 2.59 2.59 0 00-1.2 3.47 2.56 2.56 0 00.77.97z"/><path class="cls-1" d="M59.9 31.31v-4.63l-23-18.24a1.35 1.35 0 00-1.69 0L13.15 26.73v4.58h4.65v19H13v2h46.88v-2h-4.43v-19zm-23.8-21l19.4 15.44h-38zm-21 17.33l.31-.25v.33H57.9v1.56H15.16zm13.2 3.64v19h-4.51v-19zm2 0h2v19h-2zm4 0h4.56v19h-4.51zm6.56 0h2v19h-2zm4 0h4.56v19H44.9zm-25.1 0h2v19h-2zm33.65 19h-2v-19h2z"/></svg>