<svg version="1.1" id="Layer_1" xmlns="http://www.w3.org/2000/svg" x="0" y="0" viewBox="0 0 72 72" xml:space="preserve"><style>.st0{fill:#bbbdc4}</style><path class="st0" d="M34.5 21.2c-2.3 0-4.2 1.9-4.2 4.2 0 2.3 1.9 4.2 4.2 4.2 2.3 0 4.2-1.9 4.2-4.2 0-2.3-1.9-4.2-4.2-4.2zm0 6.5c-1.2 0-2.2-1-2.2-2.2s1-2.2 2.2-2.2 2.2 1 2.2 2.2-1 2.2-2.2 2.2z"/><path class="st0" d="M42.5 23.4l-1-.2c-.2-.5-.4-1-.7-1.5l.5-.9c.3-.6.2-1.4-.4-1.9l-1.5-1.1c-.5-.4-1.3-.4-1.8 0l-.7.7c-.5-.2-1-.3-1.5-.4h-.1l-.5-.9c-.3-.7-1-1-1.7-.8l-1.8.5c-.7.2-1.1.8-1.1 1.5v1.1c-.2.2-.5.4-.7.6l-1-.3c-.7-.2-1.4.1-1.8.7l-.9 1.6c-.3.6-.2 1.3.3 1.8l.9.8V26l-1 .7c-.6.4-.8 1.2-.5 1.8l.7 1.7c.3.6.9 1 1.6.8l1.2-.3c.3.3.6.6 1 .9v1.1c-.1.7.4 1.4 1.1 1.5l1.8.5h.4c.5 0 1-.3 1.3-.8l.5-1.1c.4 0 .9-.1 1.3-.2l.9.8c.5.5 1.3.5 1.9.1l1.5-1.1c.5-.4.7-1.2.4-1.8l-.5-1c.3-.4.5-.9.7-1.3l1.1-.2c.7-.1 1.2-.7 1.2-1.4v-1.9c.1-.7-.4-1.3-1.1-1.4zm-.8 2.8l-.7.1c-.7.1-1.2.6-1.5 1.2-.1.3-.3.7-.5 1-.4.6-.4 1.4-.1 2l.3.6-.8.6-.6-.5c-.5-.5-1.2-.6-1.9-.4-.3.1-.6.1-1 .2-.7.1-1.3.5-1.6 1.1l-.3.6-1-.2.1-.8c.1-.7-.3-1.4-.8-1.8-.3-.2-.5-.4-.7-.6-.5-.5-1.2-.7-1.9-.6l-.8.2-.4-.9.7-.4c.6-.4.9-1.1.9-1.8v-.6-.3c.1-.7-.2-1.4-.7-1.9l-.6-.5.5-.9.6.2c.7.2 1.4.1 2-.4.2-.1.3-.3.5-.4.6-.4.9-1.1.9-1.8v-.6l.9-.2.3.7c.3.6.9 1 1.5 1h.2c.3 0 .6.1.9.2.7.2 1.4.1 2-.4l.4-.4.8.6-.3.5c-.3.6-.3 1.4.1 2 .2.3.4.7.5 1.1.2.7.8 1.2 1.5 1.3l.5.1.1 1.1z"/><path class="st0" d="M34.3 11.2c-7.7 0-13.9 6.2-13.9 13.9 0 3.8 1.6 7.4 4.3 10 2.2 2.1 3.4 5 3.4 8v9.4c0 1.5 1.2 2.6 2.6 2.6h1.4v.2c0 1.2 1 2.2 2.2 2.2s2.2-1 2.2-2.2v-.2H38c1.4 0 2.6-1.2 2.6-2.6v-9.4c0-3 1.3-5.9 3.4-8 2.7-2.6 4.2-6.2 4.2-10 0-7.7-6.2-13.9-13.9-13.9zm-4.2 35.1h8.4v.9h-8.4v-.9zm0 2.9h8.4v1h-8.4v-1zm4.3 6.2c0 .2-.3.2-.3 0v-.2h.3v.2zm3.5-2.3h-7.2c-.3 0-.6-.3-.6-.6v-.3h8.4v.3c0 .4-.3.6-.6.6zm4.7-19.5c-2.6 2.5-4 5.9-4 9.5v1.2h-8.4v-1.2c0-3.5-1.5-7-4-9.4-2.3-2.2-3.7-5.4-3.7-8.6 0-6.5 5.3-11.9 11.9-11.9 6.5 0 11.9 5.3 11.9 11.9-.1 3.2-1.4 6.3-3.7 8.5z"/></svg>