<svg id="Layer_1" data-name="Layer 1" xmlns="http://www.w3.org/2000/svg" viewBox="0 0 72 72"><defs><style>.cls-1{fill:silver}</style></defs><path class="cls-1" d="M21.87 42A2.16 2.16 0 0024 44.17h25.74A2.16 2.16 0 0051.9 42V23.65a3 3 0 000-.31 3.59 3.59 0 00-3.59-3.59H25.43a3.59 3.59 0 00-3.59 3.59 1.87 1.87 0 000 .34zm27.87.15h-4.09l-6.95-6.1-1.32 1.5 5.24 4.6h-8.83l-6.95-6.1-1.32 1.5 5.24 4.6H24a.15.15 0 01-.15-.15V25.27h26V42a.16.16 0 01-.11.17zm-24.31-20.4h22.88A1.71 1.71 0 0150 23.27l-26.13.07a1.59 1.59 0 011.56-1.59z"/><path class="cls-1" d="M59.45 25.72A2.66 2.66 0 0057 24.08h-1v-.82a7.85 7.85 0 00-7.84-7.84H25.88A7.85 7.85 0 0018 23.26v.82h-1a2.64 2.64 0 00-2.45 1.64 1.72 1.72 0 00-1.14.51 1.69 1.69 0 00-.41 1.22v7a1.72 1.72 0 001.73 1.72 1.73 1.73 0 001.71-1.73v-7.72a.65.65 0 01.65-.64h1v23.29a2.8 2.8 0 001.55 2.49h-.24v1.61a2.86 2.86 0 002.85 2.85h3.41a2.86 2.86 0 002.85-2.85v-1.3H45v1.3a2.85 2.85 0 002.84 2.85h3.42a2.87 2.87 0 002.85-2.85V52A2.79 2.79 0 0056 49.37V26.08h1a.64.64 0 01.64.64v7.74a1.75 1.75 0 001.72 1.72 1.72 1.72 0 001.72-1.73v-7a1.73 1.73 0 00-1.63-1.73zM20 23.26a5.86 5.86 0 015.85-5.84H48.2a5.85 5.85 0 015.8 5.84v26.11a.8.8 0 01-.8.8H20.83a.8.8 0 01-.8-.8zm6.48 30.21a.85.85 0 01-.85.85h-3.38a.85.85 0 01-.85-.85v-1.3h5.11zm24.73.85h-3.39a.85.85 0 01-.84-.85v-1.3h5.11v1.3a.85.85 0 01-.85.85z"/><path class="cls-1" d="M26.79 46.06H23.3a1 1 0 100 2h3.49a1 1 0 000-2zM50.78 46.06H47.3a1 1 0 000 2h3.48a1 1 0 000-2z"/></svg>