<svg id="Layer_1" data-name="Layer 1" xmlns="http://www.w3.org/2000/svg" viewBox="0 0 72 72"><defs><style>.cls-1{fill:silver}</style></defs><path class="cls-1" d="M26.41 32.26a2.65 2.65 0 102.64 2.65 2.65 2.65 0 00-2.64-2.65zm0 3.29a.65.65 0 11.64-.64.64.64 0 01-.64.64zM33.09 32.26a2.65 2.65 0 102.64 2.65 2.65 2.65 0 00-2.64-2.65zm0 3.29a.65.65 0 11.64-.64.64.64 0 01-.64.64zM39.77 32.26a2.65 2.65 0 102.64 2.65 2.65 2.65 0 00-2.64-2.65zm0 3.29a.65.65 0 010-1.29.65.65 0 010 1.29zM26.41 39.31A2.65 2.65 0 1029.05 42a2.65 2.65 0 00-2.64-2.69zm0 3.29a.65.65 0 11.64-.64.64.64 0 01-.64.64zM33.09 39.31A2.65 2.65 0 1035.73 42a2.65 2.65 0 00-2.64-2.69zm0 3.29a.65.65 0 11.64-.64.64.64 0 01-.64.64zM26.41 46.36A2.65 2.65 0 1029.05 49a2.65 2.65 0 00-2.64-2.64zm0 3.29a.65.65 0 11.64-.64.64.64 0 01-.64.64zM33.09 46.36A2.65 2.65 0 1035.73 49a2.65 2.65 0 00-2.64-2.64zm0 3.29a.65.65 0 11.64-.64.64.64 0 01-.64.64z"/><path class="cls-1" d="M45.52 15.48h-24.3a2.43 2.43 0 00-2.44 2.43v35.88a2.44 2.44 0 002.44 2.44h24.3A2.45 2.45 0 0048 53.79V17.92a2.44 2.44 0 00-2.48-2.44zM46 53.79a.44.44 0 01-.44.44H21.22a.44.44 0 01-.44-.44V17.91a.44.44 0 01.44-.43h24.3a.44.44 0 01.44.44z"/><path class="cls-1" d="M23.68 29.94H43.3V20.8H23.68zm2-7.14H41.3v5.14H25.68zM39.73 39.18a2.54 2.54 0 00-2.53 2.54v7.42a2.54 2.54 0 105.07 0v-7.42a2.54 2.54 0 00-2.54-2.54zm.54 10a.54.54 0 11-1.07 0v-7.46a.54.54 0 111.07 0z"/></svg>