<svg id="Layer_1" data-name="Layer 1" xmlns="http://www.w3.org/2000/svg" viewBox="0 0 72 72"><defs><style>.cls-1{fill:silver}</style></defs><path class="cls-1" d="M50.45 21.44h-3v-1.62a3 3 0 10-6.06 0v1.62h-1.9v-1.62a3 3 0 00-6.06 0v1.62h-1.88v-1.62a3 3 0 00-6.06 0v1.62h-4.71a1.6 1.6 0 00-1.6 1.6v15.5h2.07v-6.92H50v23.15H21.25v-6.53h-2.07v7a1.61 1.61 0 001.6 1.61h29.67a1.61 1.61 0 001.61-1.61V23a1.61 1.61 0 00-1.61-1.56zm-7-1.62a1 1 0 011.91 0v1.62h-1.91zm-7.94 0a1 1 0 011.91 0v1.62h-1.91zm-7.94 0a.95.95 0 111.9 0v1.62h-1.9zm-6.32 9.72v-6h4.24v2.16a1 1 0 102.08 0v-2.19h5.86v2.19a1 1 0 102.08 0v-2.19h5.87v2.19a1 1 0 102.07 0v-2.19H50v6z"/><path class="cls-1" d="M27 49.28l1.37 1.56 8.69-7.65-8.68-7.87L27 36.86 32.74 42H14.62v2.07h18.29zm7-6.15z"/></svg>