<svg data-name="Layer 1" xmlns="http://www.w3.org/2000/svg" viewBox="0 0 72 72"><path d="M50.34 20.64h-3.07V19a3.09 3.09 0 00-6.18 0v1.64h-1.92V19A3.09 3.09 0 1033 19v1.64h-1.92V19a3.09 3.09 0 10-6.18 0v1.64h-4.79a1.64 1.64 0 00-1.64 1.64v32.81a1.63 1.63 0 001.64 1.64h30.23A1.64 1.64 0 0052 55.09V22.28a1.65 1.65 0 00-1.66-1.64zM43.21 19a1 1 0 111.94 0v1.64h-1.94zm-8.1 0a1 1 0 112 0v1.64h-2zM27 19a1 1 0 112 0v1.64h-2zm-2.1 3.76V25a1.06 1.06 0 002.1 0v-2.24h6V25a1.06 1.06 0 002.11 0v-2.24h6V25a1.06 1.06 0 002.12 0v-2.24h6.65v6.15h-29.3v-6.15zm9.94 15.05c0-2 .58-2 .89-2s.9 0 .9 2c0 .8-.12 2.15-.9 2.15s-.89-1.35-.89-2.15zm10 9.6v1.86H26.67v-1.86zm-2 4v3.23H28.67v-3.25zm2.11 3.23v-3.25h2v-6.1H36.79v-3.43c.9-.37 2-1.38 2-4 0-3.54-1.89-4.06-3-4.06s-3 .52-3 4.06c0 2.67 1.05 3.68 2 4v3.43H24.55v6.1h2v3.23h-6V31h29.31v23.6z" fill="silver"/></svg>