<svg id="Layer_1" data-name="Layer 1" xmlns="http://www.w3.org/2000/svg" viewBox="0 0 72 72"><defs><style>.cls-1{fill:silver}</style></defs><path class="cls-1" d="M50.47 21.38h-3v-1.62a3 3 0 00-6.08 0v1.62h-1.91v-1.62a3 3 0 10-6.08 0v1.62h-1.89v-1.62a3 3 0 00-6.08 0v1.62h-4.72A1.62 1.62 0 0019.1 23v32.3a1.61 1.61 0 001.61 1.61h29.76a1.62 1.62 0 001.62-1.61V23a1.62 1.62 0 00-1.62-1.62zm-7-1.62a1 1 0 011.92 0v1.62h-1.94zm-8 0a1 1 0 011.92 0v1.62h-1.91zm-8 0a1 1 0 011.92 0v1.62h-1.88zm-2.08 3.71v2.19a1 1 0 002.08 0v-2.19h5.93v2.19a1 1 0 102.08 0v-2.19h5.89v2.19a1 1 0 002.08 0v-2.19H50v6.05H21.18v-6.05zm-4.21 31.36V31.6H50v23.23z"/><path class="cls-1" d="M39.9 39.68a3.29 3.29 0 10-3.29-3.28 3.55 3.55 0 000 .57L31 39.86a3.29 3.29 0 100 5.46l5.62 2.89a3.55 3.55 0 000 .57 3.29 3.29 0 101-2.4l-5.34-2.74a3.15 3.15 0 000-2.1l5.34-2.74a3.26 3.26 0 002.28.88zm0-4.49a1.21 1.21 0 11-1.21 1.21 1.21 1.21 0 011.21-1.21zM29.21 43.8a1.21 1.21 0 111.21-1.21 1.21 1.21 0 01-1.21 1.21zm10.69 3.78a1.21 1.21 0 11-1.21 1.2 1.2 1.2 0 011.21-1.2z"/></svg>