<svg id="Layer_1" data-name="Layer 1" xmlns="http://www.w3.org/2000/svg" viewBox="0 0 72 72"><defs><style>.cls-1{fill:silver}</style></defs><path class="cls-1" d="M33.07 47.33a4.18 4.18 0 01-3.85-2.7l1.83-.79a2.16 2.16 0 002.46 1.45 2.24 2.24 0 001.8-2.23 2.9 2.9 0 00-2.67-2.9l-.84-.09-.09-1.51L34.54 36v-.42h-4.66v-2h6.56l.13 3.26-2 1.87a4.57 4.57 0 012.76 4.44 4.25 4.25 0 01-3.41 4.15 4.76 4.76 0 01-.85.03z"/><path class="cls-1" transform="rotate(-.5 42.224 40.292)" d="M41.66 33.22h2v13.19h-2z"/><path class="cls-1" transform="rotate(-.11 41.625 46.918)" d="M39.36 45.16h6.78v2h-6.78z"/><path class="cls-1" transform="rotate(-6.9 40.738 35.335)" d="M39.12 34.32h3.34v2h-3.34z"/><path class="cls-1" d="M51.82 53.51H23.24A1.55 1.55 0 0121.69 52V21a1.55 1.55 0 011.55-1.55h28.58A1.55 1.55 0 0153.36 21v31a1.55 1.55 0 01-1.54 1.51zm-28.13-2h27.67V21.39H23.69z"/><path class="cls-1" d="M22.7 27.21h30.63v2H22.7zM28.77 24.5a1 1 0 01-1-1v-5.66a2.92 2.92 0 115.84 0v2.27a1 1 0 01-2 0v-2.27a.92.92 0 00-1.84 0v5.66a1 1 0 01-1 1zM36.42 24.5a1 1 0 01-1-1v-5.66a2.92 2.92 0 115.84 0v2.27a1 1 0 01-2 0v-2.27a.92.92 0 00-1.84 0v5.66a1 1 0 01-1 1zM44.08 24.5a1 1 0 01-1-1v-5.66a2.92 2.92 0 115.83 0v2.27a1 1 0 01-2 0v-2.27a.92.92 0 10-1.83 0v5.66a1 1 0 01-1 1z"/></svg>