<svg id="Layer_1" data-name="Layer 1" xmlns="http://www.w3.org/2000/svg" viewBox="0 0 72 72"><defs><style>.cls-1{fill:silver}</style></defs><path class="cls-1" d="M47 20.54h-3.18v-1.71a3.21 3.21 0 00-6.42 0v1.71h-2v-1.71a3.21 3.21 0 00-6.41 0v1.71H27v-1.71a3.21 3.21 0 00-6.41 0v1.71h-5a1.7 1.7 0 00-1.7 1.7v34.07a1.7 1.7 0 001.7 1.7H47a1.7 1.7 0 001.7-1.7V22.24a1.7 1.7 0 00-1.7-1.7zm-7.4-1.71a1 1 0 012 0v1.71h-2zm-8.41 0a1 1 0 012 0v1.71h-2zm-8.4 0a1 1 0 012 0v1.71h-2zm-2.2 3.91v2.31a1.1 1.1 0 102.2 0v-2.31H29v2.31a1.1 1.1 0 102.19 0v-2.31h6.21v2.31a1.1 1.1 0 102.2 0v-2.31h6.91v6.38h-30.4v-6.38zm-4.48 33.07V31.32h30.4v24.49z"/><path class="cls-1" d="M31.19 38.47a3.27 3.27 0 103.27 3.27 3.28 3.28 0 00-3.27-3.27zm0 4.35a1.08 1.08 0 111.07-1.08 1.08 1.08 0 01-1.07 1.08z"/><path class="cls-1" d="M31 33.18a9.93 9.93 0 109.93 9.93A9.94 9.94 0 0031 33.18zM27.54 50h.31v-.7a1.4 1.4 0 011.4-1.39h3.87a1.4 1.4 0 011.4 1.39v.7a7.71 7.71 0 01-7 .05zm9-1.61a3.58 3.58 0 00-3.46-2.68h-3.83a3.57 3.57 0 00-3.53 3 7.73 7.73 0 1110.86-.34z"/></svg>