<svg id="Layer_1" data-name="Layer 1" xmlns="http://www.w3.org/2000/svg" viewBox="0 0 72 72"><defs><style>.cls-1{fill:silver}</style></defs><path class="cls-1" d="M35.85 29.47a7.82 7.82 0 107.82 7.82 7.82 7.82 0 00-7.82-7.82zm0 13.29a5.47 5.47 0 115.47-5.47 5.48 5.48 0 01-5.47 5.47z"/><path class="cls-1" d="M53.55 27.44h-6.5a.55.55 0 01-.46-.22l-1.51-3.38A2.3 2.3 0 0043 22.47H28.69a2.3 2.3 0 00-2.2 1.62l-.94 3a.57.57 0 01-.53.36h-7.35a1.29 1.29 0 00-1.29 1.29v20.53a1.29 1.29 0 001.29 1.29h35.88a1.29 1.29 0 001.29-1.29V28.73a1.29 1.29 0 00-1.29-1.29zm-1.06 20.78H18.73V29.79H25a3 3 0 002.75-1.94l.92-3h14.25l1.54 3.45a2.91 2.91 0 002.57 1.54h5.44z"/><path class="cls-1" d="M45.84 33.87a2 2 0 102-2 2 2 0 00-2 2z"/></svg>