<svg id="Layer_1" data-name="Layer 1" xmlns="http://www.w3.org/2000/svg" viewBox="0 0 72 72"><defs><style>.cls-1{fill:silver}</style></defs><path class="cls-1" d="M60.05 41.6a7.53 7.53 0 00-1.87-8.48h.51a2 2 0 001.45-.64 3 3 0 00.72-2.47l-.13-.95a2.79 2.79 0 00-3-2.14l-2.26.29A2.78 2.78 0 0054 28l-1.8-5.12a4.57 4.57 0 00-4.4-3.26H26.74a4.6 4.6 0 00-4.27 2.89L20 28.05a2.77 2.77 0 00-1.54-.8L16.17 27a2.8 2.8 0 00-3 2.23l-.11.86a3 3 0 00.71 2.47 2 2 0 001.46.64h.46a7.55 7.55 0 00-1.41 8.8l1.14 2.24H15a1 1 0 000 2h1v1.48a3 3 0 003 3h3.73a3 3 0 003-3v-1.56H48v1.48a3 3 0 003 3h3.72a3 3 0 003-3v-1.48h1.31a1 1 0 000-2h-.32l1-1.93q.21-.31.34-.63zm-4.8-12.06a.75.75 0 01.5-.31L58 29a.76.76 0 01.82.5l.11.86a1.06 1.06 0 01-.19.85l-2.83-.27a.82.82 0 01-.75-.76.73.73 0 01.09-.64zm-30.94-6.31a2.61 2.61 0 012.43-1.66H47.8a2.6 2.6 0 012.5 1.88l2.52 7.19a24.85 24.85 0 00-3.85-.7v-1.19H38.88v1.07h-4v-1H24.75V30a25.5 25.5 0 00-3.68.63zm-9.07 7.93a.92.92 0 01-.21-.84l.1-.77a.77.77 0 01.74-.61h.07l2.22.28a.8.8 0 01.64.94.81.81 0 01-.77.72zm8.48 16.48a1 1 0 01-.3.72 1 1 0 01-.72.29H19a1 1 0 01-1-1v-1.49h5.75zm16.53-3.48h-6.76v-1.58l6.72.05zm14.47 4.49H51a1 1 0 01-1-1v-1.49h5.75v1.48a1 1 0 01-1.03 1.01zm-12.47-4.49v-1.53a2.05 2.05 0 00-2-2.05h-6.72a2.06 2.06 0 00-2.06 2.05v1.53H17.66L16.05 41a5.57 5.57 0 012.42-7.47 6.71 6.71 0 01.78-.32L20 33a22.59 22.59 0 017.06-1.14h19.5a22.27 22.27 0 018.67 1.75 5.55 5.55 0 013 7.25c-.07.16-.14.31-.22.47l-1.53 2.87z"/><path class="cls-1" d="M25.52 35.63L21.77 35h-.47a2.84 2.84 0 00-2 .84 2.77 2.77 0 00-.8 2v.88l.05.28a3.25 3.25 0 003.34 2.31h3.38a3.16 3.16 0 003.13-2.69v-.28a3.09 3.09 0 00-2.88-2.71zm-.37 3.65h-3.33a1.28 1.28 0 01-1.3-.78v-.7a.83.83 0 01.23-.57.84.84 0 01.56-.24h.14l3.82.61h.14a1.08 1.08 0 011 .8 1.2 1.2 0 01-1.26.88zM52.62 35a3.88 3.88 0 00-.48 0l-3.75.61a3.07 3.07 0 00-2.9 2.68v.27a3.16 3.16 0 003.13 2.7h3.3A3.29 3.29 0 0055.35 39v-1.15a2.78 2.78 0 00-.8-2 2.83 2.83 0 00-1.93-.85zm.77 3.52a1.33 1.33 0 01-1.38.77h-3.24a1.18 1.18 0 01-1.27-.86 1.07 1.07 0 011-.8l4-.62h.14a.8.8 0 01.79.82z"/></svg>