<svg id="Layer_1" data-name="Layer 1" xmlns="http://www.w3.org/2000/svg" viewBox="0 0 72 72"><defs><style>.cls-1{fill:silver}</style></defs><path class="cls-1" d="M30.29 37.89h-6a4.88 4.88 0 00-4.89 4.88v1.09h2v-1.09a2.89 2.89 0 012.89-2.88h6a2.89 2.89 0 012.89 2.88v1.09h2v-1.09a4.9 4.9 0 00-4.89-4.88zM27.27 36.37a3.94 3.94 0 10-3.93-3.93 3.94 3.94 0 003.93 3.93zm0-5.87a1.94 1.94 0 11-1.93 1.94 1.94 1.94 0 011.93-1.94z"/><path class="cls-1" d="M54.61 23.35H15.37a2.43 2.43 0 00-2.43 2.43v21.44a2.43 2.43 0 002.43 2.44h39.24A2.43 2.43 0 0057 47.22V25.78a2.43 2.43 0 00-2.39-2.43zM55 47.22a.44.44 0 01-.43.44h-39.2a.44.44 0 01-.43-.44V25.78a.43.43 0 01.43-.43h39.24a.43.43 0 01.43.43z"/><path class="cls-1" d="M39.52 30.45h10.36v2H39.52zM39.52 35.39h10.36v2H39.52zM39.52 40.34h10.36v2H39.52z"/></svg>