<svg version="1.1" id="Layer_1" xmlns="http://www.w3.org/2000/svg" x="0" y="0" viewBox="0 0 72 72" xml:space="preserve"><style>.st0{fill:silver}</style><path class="st0" d="M50.8 53.5c-8.8 7.4-21.9 6.2-29.3-2.6-7.4-8.8-6.2-21.9 2.7-29.3 4.2-3.5 9.7-5.2 15.2-4.7 5.2.5 10 2.8 13.4 6.7h-5.2c-.6 0-1 .4-1 1s.4 1 1 1l6.8-.1c.8 0 1.5-.5 1.6-1.3l1.2-6.7c.1-.6-.3-1.1-.8-1.2s-1.1.3-1.2.8l-1 5.2C45.8 13 31.4 12.2 22 20.7s-10.1 22.8-1.6 32.2c8.3 9 22.3 10 31.6 2.1.4-.4.5-1 .1-1.4-.3-.4-.9-.5-1.3-.1z"/><path class="st0" d="M36.4 40.8h-4c-2 0-3.6 1.6-3.6 3.6v.6h2v-.7c0-.9.7-1.6 1.6-1.6h4c.9 0 1.6.7 1.5 1.6v.7h2v-.7c0-2-1.6-3.5-3.5-3.5zM34.4 40c1.8 0 3.2-1.4 3.2-3.2 0-1.8-1.4-3.2-3.2-3.2-1.8 0-3.2 1.4-3.2 3.2-.1 1.7 1.4 3.2 3.2 3.2zm-1.2-3.2c0-.7.6-1.2 1.2-1.2.7 0 1.2.5 1.2 1.2s-.5 1.2-1.2 1.2-1.2-.5-1.2-1.2c-.1 0-.1 0 0 0z"/><path class="st0" d="M57.2 31.1c0-1.3-1.1-2.4-2.4-2.4h-29c-1.3 0-2.4 1.1-2.4 2.4v15.5c0 1.3 1.1 2.4 2.4 2.4h29c1.3 0 2.4-1.1 2.4-2.4V31.1zm-2 15.5c0 .2-.2.4-.4.4h-29c-.2 0-.4-.2-.4-.4V31.1c0-.2.2-.4.4-.4h29c.2 0 .4.2.4.4v15.5z"/><path class="st0" d="M42.6 34h9.2v2h-9.2zM42.6 37.9h9.2v2h-9.2zM42.6 41.7h9.2v2h-9.2z"/></svg>