<svg id="Layer_1" data-name="Layer 1" xmlns="http://www.w3.org/2000/svg" viewBox="0 0 72 72"><defs><style>.cls-1{fill:silver}</style></defs><path class="cls-1" d="M54.6 24.47H13.68A2.54 2.54 0 0011.14 27v22.38a2.54 2.54 0 002.54 2.54H54.6a2.54 2.54 0 002.54-2.54V27a2.54 2.54 0 00-2.54-2.53zm.45 24.91a.45.45 0 01-.45.45H13.68a.46.46 0 01-.46-.45V27a.46.46 0 01.46-.45H54.6a.45.45 0 01.45.45z"/><path class="cls-1" d="M26.16 40.67h-4.8a4.14 4.14 0 00-4.14 4.14v.87h2.08v-.87a2.05 2.05 0 012.06-2.05h4.8a2.05 2.05 0 012.05 2.05v.87h2.09v-.87a4.15 4.15 0 00-4.14-4.14zM23.76 39.13A3.74 3.74 0 1020 35.39a3.75 3.75 0 003.76 3.74zm0-5.39a1.65 1.65 0 11-1.65 1.65 1.65 1.65 0 011.65-1.65zM42.4 30.18a8.11 8.11 0 108.11 8.11 8.12 8.12 0 00-8.11-8.11zm6 7.35h-2.19a12.75 12.75 0 00-1-4.56 6 6 0 013.16 4.56zm-6 6.6c-.45 0-1.48-1.59-1.7-4.54h3.41c-.23 2.95-1.25 4.54-1.71 4.54zm-1.71-6.62c.19-3.08 1.25-4.74 1.71-4.74s1.53 1.66 1.71 4.74zM39.62 33a12.75 12.75 0 00-1 4.56h-2.18A6 6 0 0139.62 33zm-3.09 6.64h2.08a13.42 13.42 0 00.83 3.94 6 6 0 01-2.91-3.99zm8.84 3.94a13.42 13.42 0 00.83-3.94h2.08a6 6 0 01-2.91 3.89z"/></svg>