<svg id="Layer_1" data-name="Layer 1" xmlns="http://www.w3.org/2000/svg" viewBox="0 0 72 72"><defs><style>.cls-1{fill:silver}</style></defs><path class="cls-1" d="M33.52 29.44h7v-3.9h3.89v-7h-3.86v-3.93h-7v3.91h-3.9v7h3.9zm-1.9-5.9v-3h3.9v-3.93h3v3.91h3.89v3h-3.86v3.9h-3v-3.9zM50.61 40.54H49.2l-4.61-4.61a6.76 6.76 0 00-4.81-2H32.9A6.79 6.79 0 0027.21 37l-2.31 3.54h-4.55a2 2 0 00-2 2v2.34a5.74 5.74 0 005.74 5.74h.3a5 5 0 009.74 0h5.46a5 5 0 009.74 0h5.28a2 2 0 002-2v-2.09a6 6 0 00-6-5.99zm-21.72-2.43a4.75 4.75 0 014-2.17H33v4.54h2v-4.54h4.8a4.78 4.78 0 013.4 1.41l3.19 3.19h-19.1zm.4 14.54a3 3 0 113-3 3 3 0 01-3 3zm15.2 0a3 3 0 113-3 3 3 0 01-3 3zm4.83-4.06a5 5 0 00-9.67 0h-5.52a5 5 0 00-9.67 0h-.34a3.75 3.75 0 01-3.74-3.74v-2.31h30.23a4 4 0 014 4v2z"/></svg>