<svg id="Layer_1" data-name="Layer 1" xmlns="http://www.w3.org/2000/svg" viewBox="0 0 72 72"><defs><style>.cls-1{fill:silver}</style></defs><path class="cls-1" d="M23 26.09l-1-2.71A2.08 2.08 0 0020.07 22h-4.91a1 1 0 100 2.1h4.67v.13l7.67 19.41a1.47 1.47 0 001.38.94H48.3a1 1 0 100-2.1h-19L28 39.14h22.3l2.75-13zm11.1 7.57h6.69V37H34.1zM32 37h-4.82l-1.28-3.34H32zm2.1-5.47v-3.34h6.69v3.38zM32 28.19v3.38h-6.72V32l-1.45-3.82zM42.89 37v-3.34h6.42L48.6 37zm6.86-5.47h-6.86v-3.34h7.58zM30.13 46.65a3.95 3.95 0 103.94 3.94 3.95 3.95 0 00-3.94-3.94zm0 5.79A1.85 1.85 0 1132 50.59a1.85 1.85 0 01-1.87 1.85zM46.09 46.9A3.94 3.94 0 1050 50.84a3.94 3.94 0 00-3.91-3.94zm0 5.78a1.85 1.85 0 111.84-1.84 1.85 1.85 0 01-1.84 1.84z"/></svg>