<svg id="Layer_1" data-name="Layer 1" xmlns="http://www.w3.org/2000/svg" viewBox="0 0 72 72"><defs><style>.cls-1{fill:silver}</style></defs><path class="cls-1" d="M52.08 13.68h-32a2.49 2.49 0 00-2.49 2.48v7.38A2.49 2.49 0 0020.07 26h32a2.49 2.49 0 002.49-2.48v-7.36a2.49 2.49 0 00-2.48-2.48zm.49 9.86a.48.48 0 01-.49.48h-32a.48.48 0 01-.49-.48v-7.38a.49.49 0 01.49-.48h32a.49.49 0 01.49.48z"/><path class="cls-1" d="M46.82 18.93H25.61a1 1 0 000 2h21.21a1 1 0 000-2zM52.08 29.55h-32a2.5 2.5 0 00-2.5 2.45v7.37a2.49 2.49 0 002.49 2.48h32a2.49 2.49 0 002.49-2.48V32a2.5 2.5 0 00-2.48-2.45zm.49 9.86a.48.48 0 01-.49.48h-32a.48.48 0 01-.49-.48V32a.49.49 0 01.49-.49h32a.49.49 0 01.49.49z"/><path class="cls-1" d="M46.82 34.8H25.61a1 1 0 000 2h21.21a1 1 0 100-2zM52.08 46h-32a2.49 2.49 0 00-2.49 2.48v7.37a2.5 2.5 0 002.49 2.49h32a2.5 2.5 0 002.49-2.49v-7.34A2.49 2.49 0 0052.08 46zm.49 9.85a.49.49 0 01-.49.49h-32a.49.49 0 01-.49-.49v-7.34a.48.48 0 01.49-.48h32a.48.48 0 01.49.48z"/><path class="cls-1" d="M46.82 51.27H25.61a1 1 0 100 2h21.21a1 1 0 000-2z"/></svg>