<svg id="Layer_1" data-name="Layer 1" xmlns="http://www.w3.org/2000/svg" viewBox="0 0 72 72"><defs><style>.cls-1{fill:silver}</style></defs><path class="cls-1" d="M35 40.38a2.84 2.84 0 102.83 2.84A2.84 2.84 0 0035 40.38zm0 3.67a.84.84 0 01-.84-.83.85.85 0 01.84-.84.84.84 0 01.83.84.83.83 0 01-.83.83zM32.22 28.61v7.94a2.77 2.77 0 105.53 0v-7.94a2.77 2.77 0 10-5.53 0zm2 0a.77.77 0 111.53 0v7.94a.77.77 0 11-1.53 0z"/><path class="cls-1" d="M53.37 47.49l-17-30.21a2 2 0 00-2.8-.63 2 2 0 00-.65.66L16.56 47.58A1.87 1.87 0 0016.5 49a1.83 1.83 0 001 1.06 1.91 1.91 0 00.77.18h33.27a1.91 1.91 0 001.37-.43 1.82 1.82 0 00.67-1.26 1.94 1.94 0 00-.21-1.06zm-34.91.77L34.6 18.31l16.9 29.93z"/></svg>