<svg id="Layer_1" data-name="Layer 1" xmlns="http://www.w3.org/2000/svg" viewBox="0 0 72 72"><defs><style>.cls-1{fill:silver}</style></defs><path class="cls-1" d="M27.14 21.58H42.8v2H27.14zM27.14 25.85H42.8v2H27.14zM27.14 30.13h6.87v2h-6.87zM27.14 38.68h4.62v2h-4.62zM27.14 42.95h4.62v2h-4.62zM27.14 34.4h4.62v2h-4.62z"/><path class="cls-1" d="M48 48.51V20.95a4.62 4.62 0 00-4.61-4.62H19.52v.05a4 4 0 00-3.62 4v5.42l6 .05-.09 25.8a4.63 4.63 0 004.37 4.61h21.71a4.23 4.23 0 004.2-4.2v-3.55zM21.94 23.85h-4v-3.47a2 2 0 114 0zm7.14 27.8a2.62 2.62 0 01-2.47 2.61h-.29a2.63 2.63 0 01-2.47-2.61L24 20.38a3.93 3.93 0 00-.57-2h20.06a2.61 2.61 0 012.61 2.61v27.57H29.08zm21 .41a2.21 2.21 0 01-2.2 2.2H30.27a4.54 4.54 0 00.81-2.61v-1.14h19z"/><path class="cls-1" d="M43.25 35.91a4 4 0 00-8.06 0A4 4 0 0037 39.28l-1 4.85 3-1.69 3.21 2.11-1-5.14a4 4 0 002.04-3.5zm-4 2a2 2 0 112-2 2 2 0 01-2.03 2.03z"/></svg>