<svg version="1.1" id="Layer_1" xmlns="http://www.w3.org/2000/svg" x="0" y="0" viewBox="0 0 72 72" xml:space="preserve"><style>.st0{fill:#bbbdc4}</style><path class="st0" d="M42.3 33.6h-.1l-14.3.1-.2.1c-1 .5-1.5 1.1-1.6 1.9 0 .4 0 1.2 1 1.9 1.1.8 4.5 1.4 7.9 1.4 2.5 0 5.9-.2 7.6-1.1 1-.5 1.6-1.5 1.5-2.5-.2-.9-.9-1.6-1.8-1.8zm-.7 2.4c-.5.3-2.1.8-6.6.8-3.5 0-6.2-.7-6.7-1-.1 0-.1-.1-.1-.1s.1-.1.2-.1l13.5-.1h.1c0 .2-.1.4-.4.5z"/><path class="st0" d="M48.6 38.7c.3-.8 0-2.1-.5-4.6-.3-1.4-.6-3-.9-4.7-.9-5.7-1.4-12.4-1.4-12.5v-.1c-.5-2.2-2.6-3.8-4.8-3.6H30.1c-2.2-.1-4.3 1.4-4.9 3.5v.1c0 .1-.8 6.4-2 12.2-.3 1.4-.7 2.8-1 4.1-.8 3.1-1.2 4.8-.7 5.8.8 1.6 3.3 2.8 6.6 3.6l-5.6 16 1.9.7 1.6-4.6 9.1-4.8 9.1 4.3 1.8 5 1.9-.7-5.6-16c3.4-.8 5.8-2.1 6.3-3.7zm-21.7 13l1.8-5 4.1 2-5.9 3zm10.3-3.2l4.2-2.2 1.8 5-6-2.8zm3.5-4.1l-5.8 3-5.6-2.7.7-2c1.5.2 3.2.4 5 .4 1.8 0 3.6-.1 5.2-.3l.5 1.6zm6-6.4c-.4 1.1-4.2 3.1-11.7 3.1-6.9 0-11.1-1.9-11.8-3.2-.2-.5.4-2.8.8-4.4.3-1.3.7-2.7 1-4.2 1.1-5.5 1.9-11.5 2-12.2.4-1.2 1.5-2 2.9-2H41c1.3-.1 2.5.8 2.8 2 .1.8.6 7.1 1.4 12.6.3 1.8.6 3.4.9 4.8.4 1.4.7 3.1.6 3.5z"/></svg>