<svg data-name="Layer 1" xmlns="http://www.w3.org/2000/svg" viewBox="0 0 72 72"><path d="M43 17.74l-.08 2.65-11.85-4.05v-2.43h-2V34.2L18.94 40a1.17 1.17 0 00-.62 1.06 1.14 1.14 0 00.22.63v13.77h2V52L30 46.22l1.52.57v12h2v-5l8.63-6-.15 4.42 2 .06 1-34.47zm-.85 14.47l-2.59-.8v-6.1l2.59.87zm-4.58-1.41l-2.36-.72v-6.25l2.36.8zm-4.36-1.33l-2.14-.66v-6.38l2.14.73zm-2.14 1.43l11.45 3.51-.1 3.37-11.35-3.56zm11.8-8.42v1.81l-11.75-4v-1.83zM30 36l11 3.44-8.3 5.68-11.24-4.26zm-9.46 13.67v-7l7.07 2.68zm13 1.69V47l8.83-6.06-.12 4.36z" fill="silver"/></svg>