<svg id="Layer_1" data-name="Layer 1" xmlns="http://www.w3.org/2000/svg" viewBox="0 0 72 72"><defs><style>.cls-1{fill:silver}</style></defs><path class="cls-1" d="M55.11 51.28l-2.82-8.51A20.25 20.25 0 1045 51.24L52.27 54a2.19 2.19 0 002.81-1.27 2.15 2.15 0 00.03-1.45zm-10.52-3.2l-.61.43A17.39 17.39 0 1149.51 42l-.26.53L52 50.89z"/><path class="cls-1" d="M26.82 33a2.33 2.33 0 102.33 2.33A2.33 2.33 0 0026.82 33zM33.87 33a2.33 2.33 0 102.33 2.33A2.33 2.33 0 0033.87 33zM40.92 33a2.33 2.33 0 102.33 2.33A2.33 2.33 0 0040.92 33z"/></svg>