<svg id="Layer_1" data-name="Layer 1" xmlns="http://www.w3.org/2000/svg" viewBox="0 0 72 72"><defs><style>.cls-1{fill:silver}</style></defs><path class="cls-1" d="M48.39 35.79V14.62a2.93 2.93 0 00-2.93-2.92h-9.28a4 4 0 00-6.81 0h-9.13a2.91 2.91 0 00-2.91 2.91v37.87a2.92 2.92 0 002.91 2.92h3.56v9.08h27.11V38.82zm-7.66-6.07l5.66 6.79 1.34 1.6h-7zm-2-11.9a2.26 2.26 0 012.24 2.25v.05H24.18v-.05a2.25 2.25 0 012.25-2.25zm-5.91-6a2 2 0 11-2 2 2 2 0 011.95-2.04zM20.24 53.4a.92.92 0 01-.91-.92V14.61a.91.91 0 01.91-.91h8.53v.09a3.88 3.88 0 00.58 2h-2.92a4.26 4.26 0 00-4.25 4.25v2.05h20.75v-2.04a4.25 4.25 0 00-4.24-4.23h-2.48a4 4 0 00.57-2v-.09h8.69a.93.93 0 01.93.92v18.74L40.2 26H23.8v27.4zm5.56 9.08V28h12.93v12.13h10.19v22.35z"/><path class="cls-1" d="M30.61 44.91H43.8v2H30.61zM30.61 50.57H43.8v2H30.61zM30.61 55.83H43.8v2H30.61z"/></svg>