<svg id="Layer_1" data-name="Layer 1" xmlns="http://www.w3.org/2000/svg" viewBox="0 0 72 72"><defs><style>.cls-1{fill:silver}</style></defs><path class="cls-1" d="M26.38 30.69a2.83 2.83 0 102.82 2.83 2.83 2.83 0 00-2.82-2.83zm0 3.65a.83.83 0 11.82-.82.83.83 0 01-.82.82zM26.38 38.74a2.83 2.83 0 102.82 2.82 2.83 2.83 0 00-2.82-2.82zm0 3.65a.83.83 0 11.82-.83.83.83 0 01-.82.83zM26.38 46.45a2.82 2.82 0 102.82 2.82 2.83 2.83 0 00-2.82-2.82zm0 3.64a.82.82 0 11.82-.82.83.83 0 01-.82.82zM30.42 40.41h11.52v2H30.42zM30.42 32.45h11.52v2H30.42zM30.42 48.25h11.52v2H30.42z"/><path class="cls-1" d="M44.89 17h-8.56a3.77 3.77 0 00-6.4 0h-8.42a2.77 2.77 0 00-2.77 2.77v35.1a2.78 2.78 0 002.77 2.78h23.38a2.78 2.78 0 002.78-2.78V19.76A2.77 2.77 0 0044.89 17zm-6.28 5.8a2 2 0 012 2H25.24a2 2 0 012-2zm-5.48-5.6a1.79 1.79 0 11-1.79 1.8 1.79 1.79 0 011.79-1.8zm12.54 37.65a.78.78 0 01-.78.78H21.51a.78.78 0 01-.77-.78v-35.1a.78.78 0 01.77-.77h7.83a3.7 3.7 0 00.48 1.81h-2.57a4 4 0 00-4 4v2h19.36v-2a4 4 0 00-4-4h-2.17a3.81 3.81 0 00.48-1.79h8a.78.78 0 01.78.78z"/></svg>