<svg id="Layer_1" data-name="Layer 1" xmlns="http://www.w3.org/2000/svg" viewBox="0 0 72 72"><defs><style>.cls-1{fill:silver}</style></defs><path class="cls-1" d="M53.54 50.53l-1.41-.71v-3a1 1 0 00-.94-.95 1 1 0 00-.94 1v3a2 2 0 00.72 1.5l1.73.89a1 1 0 00.43.1.95.95 0 00.42-1.79z"/><path class="cls-1" d="M51.18 43.22a7 7 0 107 7 7 7 0 00-7-7zm0 12a5.06 5.06 0 115.06-5.06 5.07 5.07 0 01-5.06 5.07zM33.75 28.74a2.67 2.67 0 102.68 2.67 2.68 2.68 0 00-2.68-2.67zm0 3.45a.78.78 0 11.78-.78.78.78 0 01-.78.78zM33.75 36.36A2.67 2.67 0 1036.43 39a2.68 2.68 0 00-2.68-2.64zm0 3.45a.78.78 0 11.78-.78.78.78 0 01-.78.78zM33.75 43.65a2.68 2.68 0 102.68 2.68 2.68 2.68 0 00-2.68-2.68zm0 3.46a.79.79 0 11.78-.78.78.78 0 01-.78.78zM37.58 37.93h10.91v1.89H37.58zM37.58 30.4h10.91v1.89H37.58zM37.58 45.36h4.59v1.89h-4.59z"/><path class="cls-1" d="M28.41 51.61V18.38a.74.74 0 01.74-.73h7.41a3.54 3.54 0 00.44 1.72h-2.42a3.8 3.8 0 00-3.8 3.79V25h18.34v-1.84a3.79 3.79 0 00-3.79-3.79h-2a3.54 3.54 0 00.45-1.71h7.55a.74.74 0 01.74.74v22.8h1.89V18.39a2.64 2.64 0 00-2.63-2.64h-8.16a3.56 3.56 0 00-6.05 0h-8a2.63 2.63 0 00-2.63 2.63v33.23a2.63 2.63 0 002.63 2.63h13.45v-1.9H29.15a.73.73 0 01-.74-.73zm18.82-28.47H32.68a1.9 1.9 0 011.9-1.88h10.75a1.9 1.9 0 011.9 1.88zM40.14 16a1.7 1.7 0 11-1.69 1.7 1.7 1.7 0 011.69-1.7z"/></svg>