<svg id="Layer_1" data-name="Layer 1" xmlns="http://www.w3.org/2000/svg" viewBox="0 0 72 72"><defs><style>.cls-1{fill:silver}</style></defs><path class="cls-1" d="M26.67 31.11h14.54v2H26.67z"/><path class="cls-1" d="M58 27l-4.52-4.12L49 28.05v-9.63a2.79 2.79 0 00-2.78-2.78h-8.6a3.76 3.76 0 00-6.39 0h-8.42A2.78 2.78 0 0020 18.41v35.1a2.79 2.79 0 002.78 2.78h23.41A2.79 2.79 0 0049 53.51V37.26zm-4.34-1.3l1.55 1.42-17.67 20.13-1.87.39.49-1.75 5-5.82h.33v-.39zm-13.75-4.24a2 2 0 012 2H26.54a2 2 0 012-2zm-5.49-5.6a1.79 1.79 0 11-1.79 1.79 1.79 1.79 0 011.79-1.79zM47 53.51a.78.78 0 01-.78.78H22.81a.78.78 0 01-.78-.78v-35.1a.78.78 0 01.78-.77h7.82a3.81 3.81 0 00.48 1.81h-2.57a4 4 0 00-4 4v2h19.37v-2a4 4 0 00-4-4h-2.18a3.7 3.7 0 00.48-1.81h8a.78.78 0 01.78.78v11.94l-6.68 7.71H26.67v2h11.88l-4 4.68-.15.17-1.48 5.36 5.73-1.21L47 39.54z"/></svg>