<svg id="Layer_1" data-name="Layer 1" xmlns="http://www.w3.org/2000/svg" viewBox="0 0 72 72"><defs><style>.cls-1{fill:silver}</style></defs><path class="cls-1" d="M27.18 33A2.82 2.82 0 1030 35.84 2.83 2.83 0 0027.18 33zm0 3.64a.82.82 0 11.82-.82.83.83 0 01-.82.84zM27.18 41.06A2.83 2.83 0 1030 43.89a2.83 2.83 0 00-2.82-2.83zm0 3.65a.83.83 0 11.82-.82.83.83 0 01-.82.82zM27.18 48.77A2.83 2.83 0 1030 51.59a2.83 2.83 0 00-2.82-2.82zm0 3.65a.83.83 0 11.82-.83.83.83 0 01-.82.83zM31.22 34.77h9.5v2h-9.5z"/><path class="cls-1" d="M57.51 30.62L53 26.5l-4.53 5.21v-9.63a2.78 2.78 0 00-2.78-2.78h-8.57a3.76 3.76 0 00-6.39 0h-8.42a2.77 2.77 0 00-2.77 2.77v35.1A2.78 2.78 0 0022.31 60h23.38a2.78 2.78 0 002.78-2.78v-16.3zm-4.35-1.26l1.56 1.42L37 50.91l-1.87.39.49-1.76zm-13.75-4.24a2 2 0 012 2H26a2 2 0 012-2zm-5.48-5.6a1.79 1.79 0 11-1.79 1.79 1.8 1.8 0 011.79-1.79zm12.54 37.65a.78.78 0 01-.78.78H22.31a.78.78 0 01-.77-.78v-35.1a.78.78 0 01.77-.77h7.83a3.7 3.7 0 00.48 1.81h-2.57a4 4 0 00-4 4v2h19.36v-2a4 4 0 00-4-4h-2.17a3.81 3.81 0 00.48-1.81h8a.78.78 0 01.78.78V34l-7.55 8.71h-7.7v2h6L34 48.4l-.15.18-1.48 5.36 5.73-1.21 8.37-9.54z"/></svg>