<svg id="Layer_1" data-name="Layer 1" xmlns="http://www.w3.org/2000/svg" viewBox="0 0 72 72"><defs><style>.cls-1{fill:silver}</style></defs><path class="cls-1" d="M41.45 40.14l-5.08-2.55a2.19 2.19 0 01-.71-1.59V26a1.22 1.22 0 00-1.22-1.22 1.23 1.23 0 00-1.22 1.23l.05 10a4.66 4.66 0 001.7 3.51l5.44 2.77a1.34 1.34 0 00.55.13 1.23 1.23 0 00.55-2.32z"/><path class="cls-1" d="M34.36 19.84a17.3 17.3 0 1017.29 17.3 17.32 17.32 0 00-17.29-17.3zm0 32.15a14.85 14.85 0 1114.85-14.85A14.86 14.86 0 0134.36 52z"/></svg>