<svg data-name="Layer 1" xmlns="http://www.w3.org/2000/svg" viewBox="0 0 72 72"><path d="M46.31 27.81a5.65 5.65 0 00-2.78-4.14 10.26 10.26 0 00.38-2.59 10 10 0 00-9.69-10.3 10 10 0 00-10 9.94 10.36 10.36 0 00.42 3.05 5.62 5.62 0 001.88 10.3c1.58 5.8 4.21 13.37 6.09 18.64a1.69 1.69 0 001 1 1.63 1.63 0 00.57.1 1.71 1.71 0 001.62-1.15c2.84-8 4.87-14.23 6.07-18.68a5.58 5.58 0 004.39-6.22zM34.23 51.3C33 47.84 30.25 40 28.6 34.09a5.62 5.62 0 002.28-1 5.6 5.6 0 006.57 0 5.48 5.48 0 002.38 1c-1.16 4.21-3.04 9.98-5.6 17.21zM43.42 31a3.64 3.64 0 01-5.11.26 1.25 1.25 0 00-1.7 0 3.61 3.61 0 01-4.87 0 1.25 1.25 0 00-1.7 0 3.6 3.6 0 01-2.44.94 3.63 3.63 0 01-3-5.65 3.9 3.9 0 01.82-.85A10.15 10.15 0 0029 29.56l1-1.69a8.18 8.18 0 01-3.53-4.82 8.69 8.69 0 01-.28-2.28 8 8 0 018-8A8 8 0 0141.91 21a8.2 8.2 0 01-3.59 6.68l1.12 1.66a10.16 10.16 0 003.34-3.8 3.61 3.61 0 01.64 5.46z" fill="silver"/></svg>