<svg data-name="Layer 1" xmlns="http://www.w3.org/2000/svg" viewBox="0 0 72 72"><path d="M51.93 28.43a5.42 5.42 0 00-4.54-.43l-26.71 7.68a6.9 6.9 0 00-5.25 8.84 3.63 3.63 0 001 1.87 7.09 7.09 0 001.23 1.35A6.87 6.87 0 0022 49.38h.61a6.87 6.87 0 003.3-1.17l9.71-3.83L35.3 49l6 3.57-.12-6.73 4.42 6 3-4.93-4.56-5.85 7-2.76a5.47 5.47 0 00.85-9.86zm-13.8 5.14c2.65 2 3.56 4.79 2.32 6.89l-1.62.64a8.54 8.54 0 00-3.39-7.71l1.68-.48a7.29 7.29 0 011.01.66zm-11.66 3.6a7 7 0 00-1.25-.83l7.86-2.27a7.91 7.91 0 011.05.69c2.55 2 3.58 5.06 2.46 7.22l-8.24 3.25a6.91 6.91 0 00-1.88-8.06zm-8.3 2.06a5.05 5.05 0 017.09-.62 5.16 5.16 0 01.91 1l-5.9 1.44.47 2.46a1.8 1.8 0 01-1.43 2.09 1.78 1.78 0 01-1.51-.43 5.1 5.1 0 01-.8-2.27 5 5 0 011.17-3.67zm4.29 8.24a4.78 4.78 0 01-2-.24 3.68 3.68 0 002.16-4l-.14-.7 4.48-1.09A4.49 4.49 0 0127 42a5 5 0 01-4.57 5.44zm16.93 1.74L37.26 48l.33-4.35 1.54-.65.14.2zm7-2.18l-.88 1.42-4.34-5.88v-.36l1.12-.44zm6.39-13.56a3.53 3.53 0 01-2.34 3.06l-7.61 3c.47-2.48-.72-5.2-3.33-7.3l8.5-2.45a3.59 3.59 0 014.78 3.69z" fill="silver"/></svg>