<svg id="Layer_1" data-name="Layer 1" xmlns="http://www.w3.org/2000/svg" viewBox="0 0 72 72"><defs><style>.cls-1{fill:silver}</style></defs><path class="cls-1" d="M40.89 30.82L38.77 33A7.75 7.75 0 1040 34.66l2.37-2.44a1 1 0 10-1.43-1.4zm-2 7.49a5.82 5.82 0 11-1.49-3.87l-4.09 4.21-1.39-1.44a1 1 0 00-1.44 1.38l2 2.08a1.23 1.23 0 001.71-.05l4.3-4.42a5.87 5.87 0 01.37 2.11z"/><path class="cls-1" d="M46 13.23h-7.27l-1.5-1.81H19.48v41.8h9.07v5.22H54V23.12zm-8.23 1.95l7.91 9.5h-7.92zm-16.29-1.76h14.28v13.26h11.1v24.54H21.48zM52 56.44H30.55v-3.22h18.3V25.38L40.4 15.23H45l7 8.6z"/></svg>