<svg id="Layer_1" data-name="Layer 1" xmlns="http://www.w3.org/2000/svg" viewBox="0 0 72 72"><defs><style>.cls-1{fill:silver}</style></defs><path class="cls-1" d="M54.75 50.93l-1.53-.77v-3.22a1 1 0 00-1-1 1 1 0 00-1 1v3.23a2.1 2.1 0 00.78 1.62l1.87 1a1.07 1.07 0 00.46.11 1 1 0 00.46-1.94z"/><path class="cls-1" d="M52.2 43.05a7.5 7.5 0 107.5 7.5 7.5 7.5 0 00-7.5-7.5zm0 13a5.46 5.46 0 115.45-5.46A5.47 5.47 0 0152.2 56z"/><path class="cls-1" d="M28.8 16.87h15.08v11.51h9.64V40h2V27L45.38 14.83H26.76v40.82h15.12v-2H28.8zm17.13 1.8l6.39 7.67h-6.39z"/><path class="cls-1" d="M33.27 32.76h15.48v2.04H33.27zM33.27 38.11h15.48v2.04H33.27zM33.27 43.09h8.38v2.04h-8.38z"/></svg>