<svg id="Layer_1" data-name="Layer 1" xmlns="http://www.w3.org/2000/svg" viewBox="0 0 72 72"><defs><style>.cls-1{fill:silver}</style></defs><path class="cls-1" d="M40.75 29.14l-1.7 1.74a6.73 6.73 0 101.19 1.65l1.94-2a1 1 0 10-1.43-1.39zM39 35.61a4.81 4.81 0 11-1.32-3.29l-3.28 3.36-1.06-1.11a1 1 0 00-1.42 0 1 1 0 000 1.41l1.65 1.72a1.19 1.19 0 00.86.37 1.17 1.17 0 00.84-.37l3.47-3.57a4.75 4.75 0 01.26 1.48z"/><path class="cls-1" d="M45.27 14.13h-6.18l-1.28-1.54H22.5v35.84h7.71v4.43h21.92V22.64zm-6.93 2.22l6.26 7.52h-6.26zM24.5 14.59h11.84v11.28h9.44v20.56H24.5zm25.63 36.27H32.21v-2.43h15.56V24.55l-7-8.42h3.55l5.82 7.21z"/></svg>