<svg id="Layer_1" data-name="Layer 1" xmlns="http://www.w3.org/2000/svg" viewBox="0 0 72 72"><defs><style>.cls-1{fill:silver}</style></defs><path class="cls-1" d="M40.38 13.25h-17V29.1a10.73 10.73 0 00-3.56 16.29L11.91 52a1.11 1.11 0 00.71 2 1.08 1.08 0 00.7-.26l8.1-6.74a10.7 10.7 0 002 1.3v8.15h28V26.5zm.62 4.17l6.93 8.32H41zM28.26 30.16a8.51 8.51 0 016.23 14.33 4.16 4.16 0 00-3.77-2.43H26a4.16 4.16 0 00-3.84 2.57 8.52 8.52 0 016.12-14.47zM32.64 46a8.47 8.47 0 01-8.59.1A1.94 1.94 0 0126 44.27h4.74a2 2 0 011.9 1.73zm-7 8.22V49.1a10.74 10.74 0 102.62-21.16 10.28 10.28 0 00-2.62.34V15.47h13.11V28h10.46v26.22z"/><path class="cls-1" d="M40.26 33.59h5.72v2.22h-5.72zM41.47 39.4h4.51v2.22h-4.51zM39.93 44.8h6.05v2.22h-6.05zM28.35 40.71A3.76 3.76 0 1024.59 37a3.77 3.77 0 003.76 3.71zm0-5.3A1.54 1.54 0 1126.81 37a1.54 1.54 0 011.54-1.59z"/></svg>