<svg id="Layer_1" data-name="Layer 1" xmlns="http://www.w3.org/2000/svg" viewBox="0 0 72 72"><defs><style>.cls-1{fill:silver}</style></defs><path class="cls-1" d="M42.85 13.42h-18V56.3H53.3V25.93zm.55 3.93l6.6 7.86h-6.6zM26.92 54.21v-38.7h14.39v11.8h9.87v26.88z"/><path class="cls-1" d="M30.72 31.79h14.79v2.09H30.72zM30.72 36.76h10.55v2.09H30.72zM30.72 41.73h6.62v2.09h-6.62zM30.72 46.7h6.62v2.09h-6.62zM45.63 44.51h-.83c-.91 0-1.19 0-1.52-.23a.7.7 0 01-.15-.19.51.51 0 010-.4.5.5 0 01.31-.32 1.16 1.16 0 01.73-.13H45.1a2.29 2.29 0 011.66.58 1 1 0 101.39-1.57 4.41 4.41 0 00-2.23-1.06v-.4a1.05 1.05 0 00-2.1 0v.33a3.19 3.19 0 00-1.34.37A2.57 2.57 0 0041.13 43a2.62 2.62 0 00.11 2 2.68 2.68 0 00.76 1 4.12 4.12 0 002.82.64h.77c.84 0 1.21.39 1.24.49 0 .65-1 .72-1.5.72h-1.24a2.2 2.2 0 01-1.6-.57 1 1 0 10-1.42 1.53 4.16 4.16 0 002.73 1.09v.28a1.05 1.05 0 002.1 0v-.31c1.86-.17 3.1-1.22 3.1-2.78 0-1.26-1.29-2.57-3.37-2.58z"/></svg>