<svg id="Layer_1" data-name="Layer 1" xmlns="http://www.w3.org/2000/svg" viewBox="0 0 72 72"><defs><style>.cls-1{fill:silver}</style></defs><path class="cls-1" d="M25.89 35.7a2.7 2.7 0 102.69 2.7 2.7 2.7 0 00-2.69-2.7zm0 3.4a.7.7 0 010-1.4.7.7 0 010 1.4z"/><path class="cls-1" d="M46 17.47h-.08V16.1a6.33 6.33 0 00-6.06-6.57 6.33 6.33 0 00-6 6.57v1.37h-.11a2.8 2.8 0 00-2.8 2.8v.49H19.21V54h20.56V32.57h6.42A2.59 2.59 0 0048.77 30v-9.73a2.81 2.81 0 00-2.77-2.8zM35.78 16.1a4.34 4.34 0 014-4.57 4.34 4.34 0 014.06 4.57v1.37h-8.06zm2 35.94H21.21V22.76h9.66V30a2.59 2.59 0 002.58 2.58h4.32zm9-22a.58.58 0 01-.58.58H33.45a.58.58 0 01-.58-.58v-9.77a.8.8 0 01.8-.8H46a.8.8 0 01.8.8z"/><path class="cls-1" d="M39.72 22.25a1.86 1.86 0 00-.85 3.51v2.53h2v-2.72a1.86 1.86 0 00-1.15-3.32z"/></svg>