<svg id="Layer_1" data-name="Layer 1" xmlns="http://www.w3.org/2000/svg" viewBox="0 0 72 72"><defs><style>.cls-1{fill:silver}</style></defs><path class="cls-1" d="M36.6 31.15h-1.19a2 2 0 01-1.5-.53 1 1 0 00-1.41.05 1 1 0 000 1.41 4 4 0 002.57 1.07v.25a1 1 0 002 0v-.28C38.88 33 40 32 40 30.48c0-1.17-1.2-2.48-3.14-2.48h-.78c-.87 0-1.12 0-1.42-.21a.43.43 0 01-.14-.16.47.47 0 01.26-.67 1 1 0 01.68-.12h.88a2.18 2.18 0 011.55.55 1 1 0 001.42-.09 1 1 0 00-.09-1.41 4.15 4.15 0 00-2.1-1v-.36a1 1 0 00-2 0v.3a3 3 0 00-1.26.34 2.47 2.47 0 00-1.26 1.43 2.45 2.45 0 00.86 2.78 3.82 3.82 0 002.66.61h.73a1.33 1.33 0 011.15.45c0 .65-1 .71-1.4.71z"/><path class="cls-1" d="M44.86 22v-8.73H27.07v9.42L19 29.48v24h34.23v-24zm-14.2 18.8L21 50.52V32.18zm1.5 1.33l2.35 2.1a2.41 2.41 0 003.18 0l2.43-2.16 9.66 9.41h-27zm9.45-1.4l9.62-8.56v17.95zM50.73 30l-5.87 5.23V24.69zm-7.87-14.73V37l-6.5 5.78a.37.37 0 01-.52 0l-6.77-6V15.27zM27.07 34.94L21.5 30l5.57-4.67z"/></svg>