<svg id="Layer_1" data-name="Layer 1" xmlns="http://www.w3.org/2000/svg" viewBox="0 0 72 72"><defs><style>.cls-1{fill:silver}</style></defs><path class="cls-1" d="M55.47 24.75l-1.32 1.5 6.36 5.6H49.64v2h10.68l-6.18 5.61 1.34 1.48 9.05-8.21zm5.89 7.85l.17.15-.17.16zM36.78 19.76a4.31 4.31 0 10-4.31 4.32 4.32 4.32 0 004.31-4.32zm-6.62 0a2.31 2.31 0 112.31 2.32 2.32 2.32 0 01-2.31-2.32z"/><path class="cls-1" d="M41.54 11.74H22.28a1.84 1.84 0 00-1.84 1.83v6.34a1 1 0 002 0v-6.17h18.93v17l-3 1.22-1.57-1.91a15.2 15.2 0 00-15.07-6.91l-5.12.76a4.77 4.77 0 00-3.85 3.21L11.3 31.4a3.11 3.11 0 00.42 2.8 3.05 3.05 0 002.51 1.29 3.09 3.09 0 002.93-2.09l1.21-3.55 3.86-.42-2.16 6.72-.56 5.42h-4.24a3.21 3.21 0 100 6.42l8.45.01A2.28 2.28 0 0026 45.85l.24-2.92L35 53.48H22.44v-2.67a1 1 0 00-2 0v2.83a1.85 1.85 0 001.84 1.84h19.26a1.84 1.84 0 001.83-1.84V13.57a1.83 1.83 0 00-1.83-1.83zM30.46 37.6a1.17 1.17 0 01-.22-1.11l.84-2.66 3.66 4a3.72 3.72 0 004.38.83l2.25-1.08v13zm-4.2 2.25l-.45-.44-1.33.25-.49 6a.3.3 0 01-.29.26l-8.42.08a1.31 1.31 0 01-.86-.35 1.21 1.21 0 01.85-2.07h6.06l.67-6.89 2.52-7.83a1.18 1.18 0 00-1.25-1.53l-5.41.59a1.57 1.57 0 00-1.29 1l-1.3 3.82a1.09 1.09 0 11-2.07-.71l1.45-4.28a2.79 2.79 0 012.26-1.88l5.09-.72a13.18 13.18 0 0113.15 6.05l2 2.41a1.38 1.38 0 001.59.41l2.65-1.09v2.41l-3.12 1.5a1.73 1.73 0 01-2-.39l-4.63-5a1.17 1.17 0 00-2 .44l-1.27 4a3.16 3.16 0 00.6 3l12.25 14.59H37.6z"/></svg>