<svg id="Layer_1" data-name="Layer 1" xmlns="http://www.w3.org/2000/svg" viewBox="0 0 72 72"><defs><style>.cls-1{fill:silver}</style></defs><path class="cls-1" d="M35 44.16a3.19 3.19 0 103.18 3.18A3.18 3.18 0 0035 44.16zm0 4.37a1.19 1.19 0 111.18-1.19A1.18 1.18 0 0135 48.53zM35 18.66a9.76 9.76 0 00-9.7 9.24 1.61 1.61 0 001.6 1.65h2.18a1.59 1.59 0 001.59-1.48 6.28 6.28 0 01.12-.84 4.41 4.41 0 018.59.4v.41a4.38 4.38 0 01-3.16 4.44h-.15a5 5 0 00-4.25 5v3.59a1.34 1.34 0 001.34 1.34h2.93a1.34 1.34 0 001.34-1.34V38.1a.33.33 0 01.24-.32 9.8 9.8 0 007.07-9.36A9.76 9.76 0 0035 18.66zm2.14 17.19a2.33 2.33 0 00-1.7 2.24v2.3h-1.57v-2.94a3 3 0 012.51-3 2.37 2.37 0 00.42-.08 6.39 6.39 0 004.62-6.51c0-.2 0-.4-.07-.62a6.41 6.41 0 00-12.5-.54c-.06.27-.1.54-.14.81h-1.38A7.76 7.76 0 0135 20.66a7.77 7.77 0 017.75 7.76 7.79 7.79 0 01-5.57 7.43z"/><path class="cls-1" d="M35 12.87a21.84 21.84 0 1021.88 21.84A21.86 21.86 0 0035 12.87zm0 41.67a19.84 19.84 0 1119.88-19.83A19.85 19.85 0 0135 54.54z"/></svg>