<svg id="Layer_1" data-name="Layer 1" xmlns="http://www.w3.org/2000/svg" viewBox="0 0 72 72"><defs><style>.cls-1{fill:silver}</style></defs><path class="cls-1" d="M28.15 32.78v-5.66A1.08 1.08 0 0027.07 26h-3.45v-3.41a1.09 1.09 0 00-1.09-1.09h-5.66a1.08 1.08 0 00-1.08 1.09V26h-3.45a1.08 1.08 0 00-1.09 1.08v5.66a1.08 1.08 0 001.09 1.08h3.45v3.45a1.08 1.08 0 001.08 1.09h5.66a1.09 1.09 0 001.09-1.09v-3.41h3.45a1.08 1.08 0 001.08-1.08zm-2-.92H22.7A1.1 1.1 0 0021.62 33v3.4h-3.83V33a1.09 1.09 0 00-1.09-1.09h-3.45V28h3.94l.6-.64V23.5h3.83V27a1.1 1.1 0 001.08 1h3.45zM51.79 30.45a7.1 7.1 0 01-.53-1.45c-.2-.85-.15-.94.49-2l.34-.56a1.6 1.6 0 00.08-1.44l-1.05-2.32a1.15 1.15 0 00-1.54-.57l-.21.11-.13.13a2.26 2.26 0 01-1.65.69 2 2 0 01-1.72-.76 1.16 1.16 0 00-.74-.52 1.18 1.18 0 00-.89.17l-.19.14-.1.13a2.4 2.4 0 01-1.89.94 2.35 2.35 0 01-1.71-.78 1.14 1.14 0 00-1.61-.08l-1.58 2.57a1.55 1.55 0 00.11 1.77l.19.24c1 1.25 1.1 1.66.73 2.76a9.11 9.11 0 01-.35.86 5.3 5.3 0 00-.55 2.35c0 3.3 5.86 6.89 7 7.57l.5.3.5-.3c1.18-.68 7.05-4.27 7.05-7.57a5.55 5.55 0 00-.55-2.38zm-7 7.89c-2.45-1.52-5.54-4.05-5.54-5.54a3.31 3.31 0 01.35-1.47 8.84 8.84 0 00.4-1.11c.66-2 .19-3.06-1-4.63l.7-1.18a4.21 4.21 0 002.29.71 4.41 4.41 0 002.9-1 4 4 0 002.77.94 4.18 4.18 0 002.08-.56l.52 1.14L50 26a3.78 3.78 0 00-.7 3.48 9.08 9.08 0 00.7 1.85 3.42 3.42 0 01.35 1.47c-.01 1.49-3.1 4.02-5.56 5.54zM33.91 35.07l-.35-1.22-1.1.61c-1.69.94-4.24 3.22-4.55 6.27-1 .87-4.4 4.1-3.37 8.85a7.14 7.14 0 006.64 5.25h.08c3.17 0 6.84-1.45 7.74-5.46a8.32 8.32 0 00-2.28-8.48c-1.34-1.36-2.49-4.67-2.81-5.82zm3.16 13.79c-.83 3.67-4.59 4-5.79 4h-.05a5.12 5.12 0 01-4.75-3.73 6.69 6.69 0 011.71-5.84c0 .17.12.34.19.52h.07l1.18 2.87a1 1 0 001.85-.76l-1.34-3.32-.24-1c-.16-2.17 1.41-3.81 2.5-4.69a16.3 16.3 0 002.92 5.41 6.37 6.37 0 011.75 6.54z"/></svg>