<svg id="Layer_1" data-name="Layer 1" xmlns="http://www.w3.org/2000/svg" viewBox="0 0 72 72"><defs><style>.cls-1{fill:silver}</style></defs><path class="cls-1" d="M54.19 51.15l-6.78-11.76L54.1 26a1.31 1.31 0 00.22-1.28 1.48 1.48 0 00-1.44-1l-7.88.41a16 16 0 01-10.1-3.07 18.27 18.27 0 00-13.77-3.25l-7.85 1.33V14.8a1.1 1.1 0 00-2.19 0v47.74a1.1 1.1 0 102.19 0V49.42L18 48.33a14.33 14.33 0 0112.3 2.87 16.59 16.59 0 0010.5 3.72 17 17 0 002.2-.15l10.1-1.39a1.45 1.45 0 001.29-.9 1.33 1.33 0 00-.2-1.33zm-11.45 1.46a14.47 14.47 0 01-11-3.1 16.48 16.48 0 00-14.2-3.31l-4.26 1V21.35L21.49 20a16.13 16.13 0 0112.13 2.87 18.25 18.25 0 0011.51 3.49l6.53-.36-6.28 12.57a1.34 1.34 0 00-.29.79 1.39 1.39 0 00.29.88l6.41 11.12z"/><path class="cls-1" d="M30.55 26.76a8.5 8.5 0 108.45 8.5 8.5 8.5 0 00-8.45-8.5zm6.25 7.7h-2.27a13.34 13.34 0 00-1.07-4.77 6.31 6.31 0 013.34 4.77zm-6.25 6.91c-.48 0-1.55-1.66-1.79-4.75h3.57c-.23 3.09-1.33 4.75-1.78 4.75zm-1.79-6.93c.19-3.22 1.3-5 1.79-5s1.59 1.75 1.79 5zm-1.13-4.77a13.34 13.34 0 00-1.07 4.77H24.3a6.3 6.3 0 013.33-4.77zm-3.24 6.95h2.18a13.86 13.86 0 00.88 4.12 6.32 6.32 0 01-3.06-4.12zm9.26 4.12a13.86 13.86 0 00.87-4.12h2.18a6.33 6.33 0 01-3.05 4.12z"/></svg>