<svg id="Layer_1" data-name="Layer 1" xmlns="http://www.w3.org/2000/svg" viewBox="0 0 72 72"><defs><style>.cls-1{fill:silver}</style></defs><path class="cls-1" d="M20.85 40.58a1.75 1.75 0 01-1.28.6l-3 .08.06 2 3-.08a3.79 3.79 0 002.72-1.28 1.78 1.78 0 011.32-.6 1.8 1.8 0 011.33.62l.54.65a3.81 3.81 0 002.73 1.31 3.68 3.68 0 002.81-1.11l1-1a1.75 1.75 0 011.34-.52 1.71 1.71 0 011.28.65l.53.65a3.77 3.77 0 005.54.31l1.52-1.48a1.78 1.78 0 012.39-.06l2 1.72a3.77 3.77 0 002.43.93h2.25v-2h-2.24A1.77 1.77 0 0148 41.5l-1.56-1.36-2.87-10.08 2.64 1.12.79-1.84L39.2 26l-1.72-4.42-1.87.73 1 2.59-7.51-3.18-10 14.94 1.66 1.11 1.69-2.52 1 4a3.77 3.77 0 00-2.6 1.33zm12.71-1.37a4.16 4.16 0 00-.86.07l-1-3.58 2.65-.84 2 5.81-.08-.08a3.74 3.74 0 00-2.71-1.38zm-3.7-15l11.35 4.82L44 38.89a3.72 3.72 0 00-3.08 1l-1.53 1.48a1.62 1.62 0 01-.57.36l-3.21-9.39-6.34 2 1.58 5.82c-.06.05-.12.08-.17.13l-1 1a1.77 1.77 0 01-1.32.52 1.69 1.69 0 01-1.27-.61l-.55-.65a4 4 0 00-.83-.7L24 33.05z"/><path class="cls-1" d="M48 46.39l-2-1.73a3.78 3.78 0 00-5.1.14l-1.53 1.48a1.73 1.73 0 01-1.32.5 1.76 1.76 0 01-1.27-.65l-.54-.65a3.78 3.78 0 00-2.73-1.38 3.83 3.83 0 00-2.85 1.11l-1 1a1.78 1.78 0 01-1.32.53 1.73 1.73 0 01-1.27-.62l-.55-.64a3.75 3.75 0 00-2.82-1.28 3.75 3.75 0 00-2.82 1.27 1.75 1.75 0 01-1.28.6l-3 .08.06 2 3-.08a3.76 3.76 0 002.72-1.28 1.77 1.77 0 011.32-.59 1.76 1.76 0 011.33.61l.54.65a3.77 3.77 0 002.73 1.31 3.68 3.68 0 002.81-1.11l1-1a1.79 1.79 0 011.34-.52 1.75 1.75 0 011.28.65l.53.65a3.77 3.77 0 005.54.31l1.52-1.48a1.78 1.78 0 012.39-.06l2 1.72a3.77 3.77 0 002.43.93h2.25v-2h-2.24a1.77 1.77 0 01-1.15-.47z"/></svg>