<svg version="1.1" id="Layer_1" xmlns="http://www.w3.org/2000/svg" x="0" y="0" viewBox="0 0 72 72" xml:space="preserve"><style>.st0{fill:silver}</style><path class="st0" d="M50.3 33c-.9-1.5-2.5-2.5-4.3-2.8l-.2-.2c-1-2.3-3.2-3.9-5.8-4.1-.2 0-.4-.1-.5-.2l-.6-.5c-2.1-1.8-5.1-2.1-7.5-.8l-.6.3v-.1c-.1-.7-.2-1.5-.3-2.2-.2-1.4-.4-2.9-.5-3.9 0-2.3-.4-4.5-1.2-6.6-.6-1.9-1.8-2.9-3.2-3-1.5.1-2.8 1-3.3 2.4-.6 1.6-1 3.3-1 5v21l-.5 2.6c-.3 1.5-.1 3.1.6 4.5l2.1 4.4c.5 1 .7 2.2.4 3.4l-.6 1.8c-.3 1.1-.1 2.3.6 3.2.9 1.1 2.2 1.8 3.6 1.7h.1l18.1-.2c1.4 0 2.8-.7 3.6-1.8.7-.9.9-2.1.5-3.2l-.9-2.7c-.8-2.4-.7-4.9.1-7.3l.3-.9c.4-1 .6-2.1.7-3.2l.7-2.2c.5-1.5.3-3.1-.4-4.4zm-18-7c1.7-.9 3.7-.7 5.2.5l.6.5c.5.4 1 .6 1.7.7 1.8.1 3.4 1.3 4.1 2.9l.1.2c.3.6.9 1.1 1.6 1.2 1.2.2 2.3.8 3 1.8.3.6.4 1.2.4 1.8-.6 1.8-1.2 3.6-2 5.3-.7 1.3-1.6 1.8-1.9 1.7s-.5-.5-.5-1.7c0-.6.1-1.1.2-1.7 0-.2.1-.3.1-.5l1-3.3c.3-.4.2-1.1-.2-1.4-.4-.3-1.1-.2-1.4.2-.2.4-.3.6-.3.8l-1.1 3.5-.8 1c-.7.8-1.5 1.2-1.9 1.2-.2-.1-.4-.5-.5-1.1-.1-.7-.1-1.4 0-2.1l1.6-4.1c.2-.5-.1-1.1-.6-1.3-.5-.2-1 .1-1.2.5L37.8 37c0 .1-.1.1-.1.2-.3.4-.6.7-1 1.1-.4.4-.9.6-1.5.5-.2-.1-.4-.3-.4-.6 0-.7.1-1.5.3-2.2l.5-.3c1.9-1.5 2-4.2 1-6-.3-.7-1-1.2-1.8-1.4-1-.2-1.9.1-2.7.7l-1.2 1.1v-3.3l1.4-.8zm-8.2-14c.3-.8.9-1.2 1.3-1.2.5 0 1.1.6 1.4 1.7.6 1.9.8 2.4 1.1 6 .1 1.1.3 2.6.5 4 .2 1.2.3 2.4.4 3.4 0 .1 0 .2.1.4v5.5l-5.8 4.8V16.2c.1-1.4.4-2.9 1-4.2zm23.5 43.8c-.5.6-1.2 1-2 1l-18.1.2c-.8 0-1.5-.3-2-.9-.3-.4-.4-.9-.3-1.4l.6-1.9c.3-1.6.1-3.3-.6-4.7l-2.1-4.4c-.5-1-.6-2.2-.4-3.3l.2-.9c.1 0 .2-.1.3-.2l10.3-8.7c.3-.2.6-.3 1-.3.2 0 .3.1.4.3.7 1.1.5 2.6-.5 3.5l-2.8 2.1c-.6.4-1 1-1.2 1.7v.1c0 .2-.1.4-.2.6-.2.9-.7 1.7-1.3 2.4-.4.4-.4 1 0 1.4.2.2.4.3.7.3.3 0 .5-.1.7-.3.8-.9 1.4-1.9 1.7-3.1.1-.2.2-.5.2-.8v-.1c.1-.2.2-.5.4-.6v.7c0 1 .7 1.9 1.7 2.3 1.1.4 2.4.1 3.2-.7.1 1.2.8 2.2 2 2.6 1 .2 2.1-.1 2.9-.8.2 2.2 1.4 2.8 1.9 2.9.2.1.4.1.6.1.6 0 1.1-.2 1.6-.5-.5 2.4-.4 5 .4 7.3l.9 2.7c.2.4.1 1-.2 1.4z"/><path class="st0" d="M42.6 52.5l-.1-7.3h-2v1.2l-1.3.2.3 2 1-.2.1 4.1h-1.1v2h4.2v-2zM35.5 44.9h-2v2H32v-2h-2v2h-1.6v2H30v1.5h-1.6v2H30v1.7h2v-1.7h1.5v1.7h2v-1.7h1.6v-2h-1.6v-1.5h1.6v-2h-1.6v-2zm-2 5.5H32v-1.5h1.5v1.5z"/></svg>