<svg id="Layer_1" data-name="Layer 1" xmlns="http://www.w3.org/2000/svg" viewBox="0 0 72 72"><defs><style>.cls-1{fill:silver}</style></defs><path class="cls-1" d="M56.65 24.63v-4.54H34.91l-1.52-3.15H17.74a2.25 2.25 0 00-2.24 2.24V55a1.49 1.49 0 001.5 1.49h41.2A1.49 1.49 0 0059.68 55V24.63zm-2-2.54v2.54H37.1l-1.23-2.54zm3 32.4H17.5V19.18a.24.24 0 01.24-.24h14.39l3.71 7.69h21.84z"/><path class="cls-1" d="M29 40.73a7.83 7.83 0 1015.65 0 7.7 7.7 0 00-.92-3.66l2.39-2.45a1 1 0 00-1.44-1.39l-2.18 2.19A7.81 7.81 0 0029 40.73zm7.82-5.82a5.82 5.82 0 014.34 2L37 41.08l-1.39-1.45A1 1 0 0034.16 41l2 2.08a1.22 1.22 0 00.83.32 1.18 1.18 0 00.88-.37l4.31-4.44a5.76 5.76 0 01.41 2.12 5.83 5.83 0 11-5.83-5.82z"/></svg>