<svg id="Layer_1" data-name="Layer 1" xmlns="http://www.w3.org/2000/svg" viewBox="0 0 72 72"><defs><style>.cls-1{fill:silver}</style></defs><path class="cls-1" d="M51.14 59.18h-.24l-5.88-1A6.09 6.09 0 0141 55.46l-5.62-8.7a4.83 4.83 0 00-1.94-1.7l-5-2.42a4.09 4.09 0 01-1.93-5.37l2.14-4.65 1.65-9.49 13.46 5.27.17 11.75 5.83 12.77 3.82 1.55.17.2c.49.61.4 1.55-.25 2.64-.27.46-1.2 1.87-2.36 1.87zM31.8 25.88l-1.33 7.46-2.19 4.76a2.09 2.09 0 001 2.74l5 2.42A6.7 6.7 0 0137 45.68l5.62 8.69a4.09 4.09 0 002.73 1.8l5.71 1A3.53 3.53 0 0052 56l-3.69-1.49-6.37-13.91-.16-10.83z"/><path class="cls-1" transform="rotate(-20.65 43.324 49.831)" d="M39.73 48.84h7.23v2h-7.23z"/><path class="cls-1" transform="rotate(-19.69 31.833 38.558)" d="M30.84 32.81h2v11.52h-2z"/><path class="cls-1" transform="rotate(-27.52 38.845 41.283)" d="M33.47 40.3h10.77v2H33.47z"/><path class="cls-1" transform="rotate(-68.21 30.367 28.695)" d="M29.36 19.23h2v18.93h-2z"/><path class="cls-1" transform="rotate(-68.02 36.053 35.747)" d="M35.05 28.58h2v14.34h-2z"/><path class="cls-1" transform="rotate(-67.22 28.728 23.291)" d="M27.73 14.13h2v18.31h-2z"/><path class="cls-1" transform="rotate(-66.93 27.845 18.601)" d="M26.84 8.27h2v20.67h-2z"/></svg>