<svg data-name="Layer 1" xmlns="http://www.w3.org/2000/svg" viewBox="0 0 72 72"><path d="M58.21 51.45l-23.74-19 3-3.92.45.35a1.7 1.7 0 001.08.38 1.72 1.72 0 001.35-.65l2.19-2.73a1.73 1.73 0 00-.28-2.43L28.8 12.79a1.74 1.74 0 00-2.43.28l-2.19 2.73a1.74 1.74 0 00.28 2.44l.72.57L15 32.15l-.44-.35a1.74 1.74 0 00-2.43.27l-2.2 2.73a1.73 1.73 0 00.22 2.39l13.51 10.73a1.74 1.74 0 001.07.37h.2a1.71 1.71 0 001.16-.63l2.18-2.73a1.74 1.74 0 00-.22-2.4l-.74-.59 3-3.89 23.55 18.84a3.48 3.48 0 004.35-5.44zM27.76 14.53l13 10.34L39 27.18 26 16.84zm-3.07 31.66l-13-10.35 1.85-2.31 13 10.35zm-8.14-12.8l10.19-13.34 9.16 7.27-10.19 13.34zm40.64 21.7a1.48 1.48 0 01-2.08.24l-23.65-18.9 1.79-2.36L57 53a1.49 1.49 0 01.19 2.09z" fill="silver"/></svg>