<svg id="Layer_1" data-name="Layer 1" xmlns="http://www.w3.org/2000/svg" viewBox="0 0 72 72"><defs><style>.cls-1{fill:silver}</style></defs><path class="cls-1" d="M26.5 32a8.42 8.42 0 00.73 16.81h.73A8.42 8.42 0 1026.5 32zm5.65 12.52a6.42 6.42 0 111.48-4.69 6.45 6.45 0 01-1.48 4.66z"/><path class="cls-1" d="M40.87 33.22a1.8 1.8 0 00-2-1.08l-1.9.38a.78.78 0 01-.72-.24 12.66 12.66 0 00-1.82-1.69.76.76 0 01-.3-.67l.16-1.92A1.81 1.81 0 0033 26.06l-3.14-.85a1.81 1.81 0 00-2.1.92l-.78 1.57a.78.78 0 01-.65.43 11.51 11.51 0 00-2.61.45.77.77 0 01-.72-.18l-1.3-1.2a1.81 1.81 0 00-2.35-.14l-2.61 2a1.82 1.82 0 00-.55 2.22l.75 1.57a.79.79 0 010 .69 7.51 7.51 0 00-1.2 2.16l-.15.47a.35.35 0 01-.28.23l-2 .33a1.81 1.81 0 00-1.55 1.77l-.06 3.26a1.83 1.83 0 001.42 1.8l1.83.39a.78.78 0 01.56.5 11 11 0 00.49 1.32.79.79 0 010 .76l-1.1 1.63a1.82 1.82 0 00.25 2.34l2.36 2.25a1.82 1.82 0 002.29.18l1.68-1.19a.83.83 0 01.78-.07c.22.1.45.19.69.28a12.16 12.16 0 001.43.4.76.76 0 01.57.5l.69 2a1.81 1.81 0 001.73 1.26 1.23 1.23 0 00.27 0l3.23-.48A1.81 1.81 0 0032.41 54l.12-2.19a.77.77 0 01.39-.64 11.84 11.84 0 001.79-1.19.72.72 0 01.72-.13l2.12.74a1.82 1.82 0 002.2-.82l1.6-2.84a1.81 1.81 0 00-.35-2.31l-1.61-1.39a.75.75 0 01-.26-.72 11.07 11.07 0 00.19-2.23.78.78 0 01.35-.65l1.79-1.16a1.8 1.8 0 00.71-2.24zM38.54 38a2.77 2.77 0 00-1.26 2.34 10.53 10.53 0 01-.15 1.86 2.76 2.76 0 00.87 2.55L39.53 46l-1.45 2.58-2-.7a2.74 2.74 0 00-2.63.46 10 10 0 01-1.5 1 2.8 2.8 0 00-1.43 2.3l-.1 2-2.94.43-.65-1.91a2.77 2.77 0 00-2-1.81 10.47 10.47 0 01-1.18-.34 7 7 0 01-.55-.22 2.8 2.8 0 00-1.13-.24 2.84 2.84 0 00-1.61.5l-1.55 1.1-2.14-2.05 1-1.52a2.79 2.79 0 00.17-2.74 9.48 9.48 0 01-.48-1.14 2.77 2.77 0 00-2-1.8l-1.68-.36.06-3 1.88-.31a2.31 2.31 0 001.85-1.57l.15-.43a5.47 5.47 0 01.93-1.65 2.79 2.79 0 00.19-2.74L18 30.52l2.37-1.77 1.21 1.12a2.79 2.79 0 002.64.63 10.06 10.06 0 012.17-.37 2.77 2.77 0 002.33-1.53l.71-1.42 2.85.77-.16 1.79a2.74 2.74 0 001.08 2.44 10.3 10.3 0 011.53 1.42 2.76 2.76 0 002.62.88l1.73-.35 1.14 2.73zM44.54 16.76a5.28 5.28 0 00-4.8 5.72A5.29 5.29 0 0045 27.3h.46a5.28 5.28 0 10-.92-10.52zm.75 8.52a3.28 3.28 0 113-3.55 3.29 3.29 0 01-3 3.55z"/><path class="cls-1" d="M54.07 21.37l1.29-.83a1.59 1.59 0 00.62-2l-.9-2.17a1.58 1.58 0 00-1.77-.94l-1.31.32a.26.26 0 01-.26-.09 8.9 8.9 0 00-1.35-1.25.27.27 0 01-.1-.23l.12-1.38a1.59 1.59 0 00-1.17-1.7l-2.26-.62a1.59 1.59 0 00-1.83.82l-.56 1.12a.28.28 0 01-.24.15 9.76 9.76 0 00-1.93.34.29.29 0 01-.26-.06l-.99-.85a1.58 1.58 0 00-2.05-.12l-1.87 1.4a1.59 1.59 0 00-.49 2l.54 1.12a.45.45 0 010 .2 5.87 5.87 0 00-.91 1.64 3 3 0 00-.09.32l-1.44.24a1.59 1.59 0 00-1.36 1.54v2.35a1.59 1.59 0 001.24 1.58l1.32.28a.28.28 0 01.2.18 9.1 9.1 0 00.42 1 .24.24 0 010 .26l-.77 1.17a1.59 1.59 0 00.22 2.05l1.7 1.61a1.58 1.58 0 002 .16l1.17-.9a.27.27 0 01.29 0c.16.07.33.14.51.2a9.82 9.82 0 001.06.3.28.28 0 01.21.18l.49 1.46a1.6 1.6 0 001.51 1.1h.25l2.32-.35A1.59 1.59 0 0049 31.45l.08-1.58a.24.24 0 01.14-.22 9.77 9.77 0 001.32-.88.28.28 0 01.27-.05l1.51.52a1.58 1.58 0 001.93-.71l1.15-2.05a1.58 1.58 0 00-.34-2l-1.16-1a.27.27 0 01-.09-.25A9.3 9.3 0 0054 21.6a.29.29 0 01.07-.23zM52.59 25l.9.77-.81 1.45-1.22-.41a2.24 2.24 0 00-2.17.36 7.12 7.12 0 01-1 .69 2.3 2.3 0 00-1.18 1.89L47 31l-1.65.25-.35-1.16a2.27 2.27 0 00-1.67-1.48 5.54 5.54 0 01-.82-.24l-.38-.14a2.12 2.12 0 00-.92-.2 2.31 2.31 0 00-1.32.41l-.93.65-1.2-1.15.59-.9a2.27 2.27 0 00.14-2.24 6.13 6.13 0 01-.33-.8 2.3 2.3 0 00-1.67-1.47l-1-.21v-1.67l1.12-.18a2 2 0 001.56-1.34l.09-.29a4.2 4.2 0 01.64-1.13 2.25 2.25 0 00.16-2.24l-.38-.81 1.33-1 .7.65a2.3 2.3 0 002.17.52 6.93 6.93 0 011.5-.26 2.28 2.28 0 001.91-1.25l.4-.82 1.61.44-.05 1.06a2.22 2.22 0 00.89 2 7.48 7.48 0 011 1 2.28 2.28 0 002.16.73l1-.21L54 19l-1 .66a2.27 2.27 0 00-1 1.92 7 7 0 01-.11 1.29 2.31 2.31 0 00.7 2.13z"/></svg>