<svg id="Layer_1" data-name="Layer 1" xmlns="http://www.w3.org/2000/svg" viewBox="0 0 72 72"><defs><style>.cls-1{fill:silver}</style></defs><path class="cls-1" d="M53.11 29.42L50.82 29a1.39 1.39 0 01-1-.92 15.91 15.91 0 00-1.44-3.14 1.39 1.39 0 010-1.34l1.11-2.1a2.09 2.09 0 00-.55-2.65l-3.43-2.69a2.11 2.11 0 00-2.63 0l-1.75 1.51a1.36 1.36 0 01-1.24.29 9.61 9.61 0 00-3.11-.78h-.64a.8.8 0 01-.68-.47l-1.12-2.49a2.09 2.09 0 00-2.5-1.22l-4.22 1A2.09 2.09 0 0026 16.14l.12 2.5a1.37 1.37 0 01-.6 1.19A15.83 15.83 0 0024 21a1.38 1.38 0 01-1.32.27l-2.47-.82a2.09 2.09 0 00-2.53 1l-2.08 3.83a2.09 2.09 0 00.48 2.59l2.11 1.76a1.41 1.41 0 01.47 1.3c0 .31-.08.63-.1.95a15.67 15.67 0 000 1.94 1.37 1.37 0 01-.6 1.22l-2.39 1.59a2.1 2.1 0 00-.78 2.6l1.74 4a2.12 2.12 0 002.34 1.22l2.86-.63a1.34 1.34 0 011.27.4 17.69 17.69 0 002.11 1.85 1.33 1.33 0 01.55 1.19l-.22 3A2.11 2.11 0 0027 52.44l4.22 1.08a2.37 2.37 0 00.52.06 2.09 2.09 0 001.82-1l1.44-2.1.1-.16a1.34 1.34 0 011-.76 15.81 15.81 0 005.53-1.08l3.5 5.22a4.42 4.42 0 006.11 1.21l.15-.11a4.41 4.41 0 001-6.15 3.25 3.25 0 00-.23-.29l-4.31-5a17.15 17.15 0 002-3.67c.06-.14.12-.3.18-.46a4.2 4.2 0 01.39-.92l2.58-.42a2.08 2.08 0 001.75-2.06v-4.36a2.11 2.11 0 00-1.64-2.05zM50.8 49.83a2.37 2.37 0 01.44 1.79 2.41 2.41 0 01-4.38 1l-10-14.87-.73.25a5 5 0 01-6.43-6.17L32.3 35a1.25 1.25 0 001.76.19l2.44-2a1.26 1.26 0 00.18-1.76l-2.57-3.19a5 5 0 012.58.46A5 5 0 0139 35.34l-.28.59 11.96 13.74zm-7.7-11.95l-2-2.3a7 7 0 00-8.59-9 1.36 1.36 0 00-.86 1.73 1.5 1.5 0 00.23.41l2.77 3.43-1.27 1-2.75-3.42a1.34 1.34 0 00-.91-.51 1.37 1.37 0 00-1 .28 1.41 1.41 0 00-.35.41 7 7 0 007.69 10.18l1.56 2.32a9.62 9.62 0 115.47-4.52zm9.64-2.06a.1.1 0 01-.09.1l-2.55.45c-1.23.22-1.66 1.42-1.94 2.22 0 .13-.09.27-.14.39a14.81 14.81 0 01-1.5 2.84l-2.05-2.36a11.59 11.59 0 00-5.4-17 11.63 11.63 0 10-.29 21.61l1.78 2.66a13.94 13.94 0 01-4.49.8 3.36 3.36 0 00-2.7 1.8l-1.48 2-.08.13a.11.11 0 01-.11 0l-4.22-.96a.09.09 0 01-.07-.11l.22-3a3.36 3.36 0 00-1.36-3 13.67 13.67 0 01-1.85-1.62 3.37 3.37 0 00-3.14-1l-2.84.61a.1.1 0 01-.11-.05l-1.73-4a.1.1 0 010-.13l2.41-1.6a3.39 3.39 0 001.48-3 16 16 0 010-1.7c0-.27.05-.55.09-.8a3.44 3.44 0 00-1.16-3.13l-2.1-1.75a.09.09 0 010-.12l2.08-3.82a.1.1 0 01.13 0l2.48.83a3.38 3.38 0 003.26-.67 15.13 15.13 0 011.35-1 3.36 3.36 0 001.48-2.93l-.1-2.44a.1.1 0 01.1-.07l4.22-1.05a.1.1 0 01.12.06l1.12 2.5A2.79 2.79 0 0036 19.14h.6a8 8 0 012.53.65 3.38 3.38 0 003.27-.63l1.73-1.49a.11.11 0 01.12 0l3.43 2.68a.11.11 0 010 .14l-1.12 2.11a3.37 3.37 0 00.1 3.3 14.75 14.75 0 011.26 2.74 3.37 3.37 0 002.52 2.25l2.26.46a.09.09 0 01.08.09z"/><path class="cls-1" d="M47.86 51.8a1 1 0 00.8.4 1 1 0 00.6-.19 1 1 0 00.21-1.4l-.57-.77a1 1 0 00-1.4-.22 1 1 0 00-.21 1.4z"/></svg>