<svg id="Layer_1" data-name="Layer 1" xmlns="http://www.w3.org/2000/svg" viewBox="0 0 72 72"><defs><style>.cls-1{fill:silver}</style></defs><path class="cls-1" d="M33.18 25.8a9 9 0 001.57 17.91 9.44 9.44 0 001.57-.14 9 9 0 00-3.14-17.77zM36 41.6a7 7 0 115.69-8.14A7 7 0 0136 41.6z"/><path class="cls-1" d="M50.09 33.94l-1.76-.69a.91.91 0 01-.57-.73 13.29 13.29 0 00-.76-2.75 1 1 0 01.13-.89l1.18-1.51a1.89 1.89 0 00-.07-2.44l-2.36-2.62a1.9 1.9 0 00-2.35-.38l-1.6 1a.92.92 0 01-.83.06 8.11 8.11 0 00-2.42-1.09l-.52-.12a.47.47 0 01-.34-.33l-.54-2.14a1.87 1.87 0 00-2-1.44l-3.51.25a1.87 1.87 0 00-1.73 1.63l-.26 2a.91.91 0 01-.53.71 16 16 0 00-1.42.74.9.9 0 01-.9 0l-1.85-1a1.88 1.88 0 00-2.39.47l-2.2 2.76a1.9 1.9 0 000 2.38l1.51 1.7a.93.93 0 01.16.91c-.08.25-.16.5-.22.76a14 14 0 00-.3 1.57.9.9 0 01-.54.72l-2.1.94a1.89 1.89 0 00-1.1 2.18l.82 3.41a1.87 1.87 0 001.85 1.45l2.37-.1a.88.88 0 01.8.41 13.06 13.06 0 001.44 1.8.87.87 0 01.22.84l-.59 2.35a1.89 1.89 0 001 2.21l3.22 1.45a1.9 1.9 0 00.76.17 1.92 1.92 0 001.53-.77L32.73 48a.92.92 0 01.82-.38 12.83 12.83 0 002.4 0 .9.9 0 01.8.34l1.43 1.82a1.88 1.88 0 002.38.54l3.12-1.65a1.88 1.88 0 00.94-2.18l-.6-2a.89.89 0 01.22-.88 13.82 13.82 0 001.63-2.11.91.91 0 01.76-.42h2.12a1.88 1.88 0 001.85-1.55l.63-3.53a1.87 1.87 0 00-1.14-2.06zM48.65 39h-2a2.88 2.88 0 00-2.45 1.36 11.44 11.44 0 01-1.39 1.79 2.89 2.89 0 00-.7 2.85l.55 1.89-2.95 1.55-1.38-1.77a2.92 2.92 0 00-2.57-1.11 10.59 10.59 0 01-2 0 3 3 0 00-2.63 1.2l-1.27 1.78-3-1.37.58-2.29a2.9 2.9 0 00-.73-2.72 11.13 11.13 0 01-1.22-1.52 2.92 2.92 0 00-2.54-1.3l-2.25.09-.78-3.24 2.06-.91A2.92 2.92 0 0023.63 33a12.48 12.48 0 01.26-1.33 5.43 5.43 0 01.18-.61 3 3 0 00-.53-2.84l-1.36-1.62 2.07-2.6 1.8 1a2.93 2.93 0 002.88-.07 9.82 9.82 0 011.2-.63 3 3 0 001.7-2.3l.24-1.9 3.32-.24.53 2.07a2.46 2.46 0 001.9 1.81l.38.09a6.13 6.13 0 011.89.86 2.93 2.93 0 002.91-.08l1.51-.9 2.24 2.48-1.14 1.47a2.91 2.91 0 00-.41 2.83 11.66 11.66 0 01.61 2.32 2.92 2.92 0 001.81 2.3l1.66.64z"/></svg>