<svg data-name="Layer 1" xmlns="http://www.w3.org/2000/svg" viewBox="0 0 72 72"><path d="M53.63 27.51h-11c2.76-1.4 4.56-3.4 5.06-5.29a3.83 3.83 0 00-1.77-4.45 3.4 3.4 0 00-2.79-.37c-2.66.77-5.31 4.5-7 7.32-1.67-2.82-4.32-6.55-7-7.32a3.4 3.4 0 00-2.79.37 3.83 3.83 0 00-1.78 4.45c.51 1.89 2.3 3.89 5.06 5.29h-11v9.61h1.56v14h31.45v-14h2zm-2 7.61H38.92v-5.61h12.71zm-17.63 0v-5.61h3v5.61zm3 2v12h-3v-12zm6.72-17.79a1.65 1.65 0 01.47-.08 1.27 1.27 0 01.7.21 1.85 1.85 0 01.91 2.24c-.58 2.19-3.81 4.62-8.3 5.38a3.37 3.37 0 00-.17-.32c1.51-2.83 4.14-6.76 6.31-7.43zM26.51 21.7a1.86 1.86 0 01.91-2.24 1.3 1.3 0 01.7-.21 1.6 1.6 0 01.47.08c2.17.62 4.8 4.6 6.39 7.43a3.37 3.37 0 00-.17.32c-4.49-.76-7.71-3.19-8.3-5.38zm-5.85 7.81H32v5.61H20.66zm1.56 7.61H32v12h-9.78zm27.41 12H38.92v-12h10.71z" fill="silver"/></svg>