<svg id="Layer_1" data-name="Layer 1" xmlns="http://www.w3.org/2000/svg" viewBox="0 0 72 72"><defs><style>.cls-1{fill:silver}</style></defs><path class="cls-1" d="M35.69 48.39A19.89 19.89 0 0121 15.13a1 1 0 011.48 1.34 17.89 17.89 0 1027.42 23 1 1 0 011.4-.19 1 1 0 01.18 1.41 19.78 19.78 0 01-15.79 7.7z"/><path class="cls-1" d="M34.18 53.92a1 1 0 01-1-1v-5.44a1 1 0 012 0v5.44a1 1 0 01-1 1z"/><path class="cls-1" d="M39.76 58.53H29.4a1.44 1.44 0 01-1.28-2.1 7.22 7.22 0 0112.92 0 1.49 1.49 0 01-.04 1.42 1.45 1.45 0 01-1.24.68zm-.51-1.2zm-8.85-.8h8.36a5.21 5.21 0 00-8.36 0zM25 19.69a1 1 0 01-.71-.29L18.91 14a1 1 0 010-1.41 1 1 0 011.41 0L25.69 18a1 1 0 01-.7 1.71zM53.08 43.27a1 1 0 01-.71-.29L47 37.6a1 1 0 010-1.41 1 1 0 011.42 0l5.37 5.37a1 1 0 01-.7 1.71zM40.78 23.9h-2.94a1 1 0 010-2h2.94a1 1 0 010 2zM37.46 36.26h-2.83a1 1 0 010-2h2.83a1 1 0 010 2zM34.77 23.9h-4.09a1 1 0 010-2h4.09a1 1 0 010 2z"/><path class="cls-1" d="M35.83 29.82a1 1 0 01-.84-.45l-3.63-5.61A1 1 0 0133 22.67l3.63 5.61a1 1 0 01-.3 1.38 1 1 0 01-.5.16z"/><path class="cls-1" d="M36.09 30.13a1 1 0 01-.52-.15 1 1 0 01-.33-1.38l3.42-5.53a1 1 0 111.7 1.05l-3.42 5.53a1 1 0 01-.85.48z"/><path class="cls-1" d="M36.21 36a1 1 0 01-1-1l-.12-6.17a1 1 0 011-1 1 1 0 011 1l.12 6.17a1 1 0 01-1 1z"/><path class="cls-1" d="M36 43.89A15.6 15.6 0 1151.58 28.3 15.61 15.61 0 0136 43.89zm0-29.19a13.6 13.6 0 1013.6 13.6A13.61 13.61 0 0036 14.7z"/></svg>