<svg data-name="Layer 1" xmlns="http://www.w3.org/2000/svg" viewBox="0 0 72 72"><path d="M59.57 25.93l-22.71-9a2.41 2.41 0 00-1.79 0l-23 9a1.43 1.43 0 00-.07 2.64l5.3 2.4v7.71l18.72 8.94 11.4-5.41.22 5.19a2.6 2.6 0 00-1.52 2.51l.12 5.58 5.27.08-.13-6a2.64 2.64 0 00-1.75-2.3l-.24-6L54.27 39v-8l5.37-2.46a1.43 1.43 0 00-.07-2.63zM48.25 53.51l-.08-3.69a.63.63 0 01.59-.68.61.61 0 01.67.55l.08 3.84zm-12.17-8.12l-16.73-8v-5.52L35 39a2.45 2.45 0 002 0l10.17-4.67.22 5.67zm16.19-7.67l-2.92 1.38-.24-5.71 3.16-1.45zm-3.89-6.2l-12.17-5.44a1 1 0 00-.81 1.83L46 32.63l-9.82 4.51a.45.45 0 01-.36 0L14.1 27.29l21.7-8.55a.44.44 0 01.32 0l21.47 8.55z" fill="silver"/></svg>