<svg data-name="Layer 1" xmlns="http://www.w3.org/2000/svg" viewBox="0 0 72 72"><path d="M52.21 38a3.49 3.49 0 00-2.51-1h-1.93a1.36 1.36 0 00-1.35 1.35v1.1a5.6 5.6 0 01-4.08-4.28l-2-12.59a4.91 4.91 0 00-4.78-3.85 2 2 0 00-.87.21 2 2 0 00-.88-.21 4.94 4.94 0 00-4.79 3.91l-1.91 12.5A5.63 5.63 0 0123 39.46v-1.09A1.36 1.36 0 0021.65 37h-1.94a3.52 3.52 0 00-3.53 3.54l.19 9.84a3.54 3.54 0 003.51 3.56h1.93a1.38 1.38 0 001.37-1.36v-1.15h4.59a8.13 8.13 0 007.18-4.35 8 8 0 006.75 4.35h4.59v1.15A1.36 1.36 0 0047.62 54h1.93a3.53 3.53 0 003.51-3.53l.19-9.89A3.5 3.5 0 0052.21 38zM19.9 51.8a1.42 1.42 0 01-1.39-1.43l-.19-9.85a1.38 1.38 0 011.4-1.38h1.16L21 51.8zm7.85-2.51h-4.61l-.09-7.65a7.78 7.78 0 006.17-6.13l1.93-12.46a2.77 2.77 0 012.42-2.15v21.35a8.64 8.64 0 00.13 1.51 6 6 0 01-5.95 5.53zm13.93 0c-2.91 0-5.25-2.82-5.83-5.69V20.9a2.77 2.77 0 012.42 2.1l1.95 12.57a7.78 7.78 0 006.16 6.09l-.09 7.65zm9.24 1.11a1.38 1.38 0 01-.4 1 1.4 1.4 0 01-1 .42h-1.11l.14-12.66h1.17a1.38 1.38 0 011.39 1.36z" fill="silver"/></svg>