<svg id="Layer_1" data-name="Layer 1" xmlns="http://www.w3.org/2000/svg" viewBox="0 0 72 72"><defs><style>.cls-1{fill:silver}</style></defs><path class="cls-1" d="M58.65 29.28l-5.54-7a3.45 3.45 0 00-4.2-1q-.44.21-1 .51c-1.75 1-4.14 2.29-7.06 1.25-4.64-1.65-8.82 1-10.86 2.35l-4.35 3.12a2.11 2.11 0 00-.31.21 2.4 2.4 0 00-.87 1.6A2.34 2.34 0 0025 32.1a4.46 4.46 0 00.72.72 2.44 2.44 0 00-.49.58l-7 5c-1.47.95-2.88 3.28-1.82 4.92a2.15 2.15 0 00.72.69c-1.27 1.09-2.28 3.09-1.35 4.55a2.71 2.71 0 00.86.83h-.05a5.51 5.51 0 00-1.76 2 2.89 2.89 0 00-.07 2.95 2.68 2.68 0 002.38 1.23 4 4 0 00.75-.07 2.49 2.49 0 00.31 1.75 2.71 2.71 0 002.38 1.23 4.32 4.32 0 00.7-.06 6.58 6.58 0 001.41-.42 2.37 2.37 0 00.36 1.25 2.69 2.69 0 002.38 1.24 4.41 4.41 0 00.7-.06 7.19 7.19 0 002.42-1L42.37 53a16.44 16.44 0 004.54-3.12 16.47 16.47 0 002.82-4.61 12.31 12.31 0 011.14-2.12 24.35 24.35 0 014.32-3.46 4.73 4.73 0 002-3 4.66 4.66 0 00-.18-2.43l.68-.37a3.09 3.09 0 00.92-4.6zM19.38 40l5.86-4.16a2.4 2.4 0 00.18.26 4.47 4.47 0 001.83 1.38l-5.34 3.39a1.57 1.57 0 00-.23.09c-1.91 1.23-3.36 1.53-3.56 1.22s.43-1.63 1.26-2.18zm35.89-3.72a2.78 2.78 0 01-1.18 1.76 26.15 26.15 0 00-4.73 3.81 12.58 12.58 0 00-1.44 2.59 14.66 14.66 0 01-2.41 4 14.43 14.43 0 01-4 2.73l-13.85 6.46-.12.06a4.9 4.9 0 01-1.74.71c-.8.14-1-.15-1.07-.27a1.12 1.12 0 01.16-1 3.47 3.47 0 011-1.16l9.73-6.24a1 1 0 00-1.08-1.69l-9.71 6.23-.06.05-2.1 1.34a4.9 4.9 0 01-1.74.71c-.81.14-1-.15-1.06-.27s-.06-.54.16-.95A3.36 3.36 0 0121.14 54l12.17-7.81a1 1 0 00-1.08-1.68l-1.08.69-11.87 7.58c-.69.43-2.34 1.15-2.81.43a1.1 1.1 0 01.17-1 3.36 3.36 0 011.06-1.2l12.17-7.81 1.75-1.12a1 1 0 00-1.08-1.68L20.3 47c-.68.44-2.34 1.16-2.8.43-.27-.41.43-1.64 1.22-2.15l16.69-10.62a1 1 0 00.44-1 .94.94 0 00-.14-.51 1 1 0 00-1.38-.3l-4.15 2.68a2.5 2.5 0 01-3.2-.64.31.31 0 01-.07-.2l1.09-.81a1.52 1.52 0 00.25-.26L35 29.78a6.31 6.31 0 015.49-.78c2.78.85 7-.53 9.21-1.43a.44.44 0 01.53.16l4.62 6.47a2.76 2.76 0 01.42 2.09zm1.49-4.16l-.68.37-4.22-5.91a2.46 2.46 0 00-2.9-.86c-3.36 1.35-6.31 1.86-7.88 1.38a8.27 8.27 0 00-7.07.95l-6.33 3.6a2.47 2.47 0 01-1.11-.81.33.33 0 01-.08-.27c0-.06 0-.17.2-.3l4.46-3.2c2.65-1.69 5.79-3.27 9.07-2.11 3.78 1.34 6.86-.37 8.7-1.39.31-.18.6-.33.85-.45a1.41 1.41 0 011.77.41l5.54 7a1 1 0 01.21.87 1.07 1.07 0 01-.53.73zM20.46 29.5c0-1.95-2.76-8.7-3.6-10.73l-.29-.64h-1.36l-.25.6c-.84 2-3.6 8.76-3.6 10.73a4.55 4.55 0 109.1 0zm-7.1 0c0-.93 1.17-4.3 2.55-7.76 1.37 3.46 2.55 6.84 2.55 7.76a2.55 2.55 0 11-5.1 0zM23.65 24.4a3.26 3.26 0 003.25-3.26c0-1.21-1.45-4.87-2.31-6.93l-.27-.64h-1.36l-.25.61c-.87 2.07-2.32 5.72-2.32 6.94a3.26 3.26 0 003.26 3.28zm0-7.17a20.75 20.75 0 011.25 3.91 1.26 1.26 0 11-2.51 0 20.09 20.09 0 011.26-3.91z"/></svg>