<svg data-name="Layer 1" xmlns="http://www.w3.org/2000/svg" viewBox="0 0 72 72"><path d="M50.28 29.85h-3.21a1 1 0 00-.72 1.69l-1.11-.32a14 14 0 00-8.36 1 5.33 5.33 0 00-5.18-5V20.5h.74a2.48 2.48 0 012.47 2.5 1 1 0 002 0 4.48 4.48 0 00-4.47-4.47h-.74V14a1 1 0 00-2 0v4.51a5.32 5.32 0 000 10.64v4.59h-.21A5.24 5.24 0 0026.07 35v-1.91a1 1 0 00-2 0V38a1 1 0 00.15.51v.15l-6.52-1.9a9 9 0 00-7.81.85 2.27 2.27 0 00-1 1.42 2.22 2.22 0 00.29 1.72 2.16 2.16 0 001 .86l16.2 7.6a7.44 7.44 0 003.17.71 7.31 7.31 0 001.91-.25l14.77-4.21a1 1 0 00-.09.41 1 1 0 001 1h3.21a4.59 4.59 0 004.58-4.58v-7.86a4.59 4.59 0 00-4.65-4.58zm-23.78-6a3.33 3.33 0 013.2-3.32v6.64a3.33 3.33 0 01-3.2-3.33zm5.2 5.35a3.34 3.34 0 013.21 3.32.93.93 0 00.24.63l-.46.31-.11.07a1.75 1.75 0 01-1 .32h-1.83zm13.86 14.31l-14.7 4.19a5.38 5.38 0 01-3.7-.34L11 39.76a.29.29 0 01-.12-.1.3.3 0 010-.22.26.26 0 01.12-.17 7.09 7.09 0 013.72-1.06 7.35 7.35 0 012.43.42L26 41.22a2.32 2.32 0 00.47.13 2.74 2.74 0 00.5 0l10.5-.22a1 1 0 001-1 1 1 0 00-1-1l-10.5.22h-.17l-.17-.05a.62.62 0 01-.29-.24.7.7 0 01-.12-.53 3.32 3.32 0 013.25-2.81h1a.75.75 0 00.26 0 .71.71 0 00.21 0l2.58.06a3.84 3.84 0 002.24-.68l.12-.08c.22-.17.46-.32.68-.46a12.15 12.15 0 018.24-1.46l.79.23zm7.3-1.26a2.59 2.59 0 01-2.58 2.58h-2.72V31.89h-.15 2.87a2.59 2.59 0 012.58 2.58z" fill="silver"/></svg>