<svg id="Layer_1" data-name="Layer 1" xmlns="http://www.w3.org/2000/svg" viewBox="0 0 72 72"><defs><style>.cls-1{fill:silver}</style></defs><path class="cls-1" d="M47.71 34.32H46.5a2.11 2.11 0 01-1.5-.54 1 1 0 00-1.36 1.47 4 4 0 002.61 1.07v.26a1 1 0 002 0v-.29c1.79-.17 2.93-1.17 2.93-2.66 0-1.2-1.19-2.45-3.17-2.47h-.8c-.87 0-1.14 0-1.45-.22a.44.44 0 01-.15-.18.53.53 0 01.27-.69 1.23 1.23 0 01.7-.12H47.48a2.21 2.21 0 011.59.55 1 1 0 001.41-.08 1 1 0 00-.12-1.42 4.25 4.25 0 00-2.14-1v-.38a1 1 0 00-2 0V28a3 3 0 00-1.28.35 2.5 2.5 0 00-1.16 3.33 2.63 2.63 0 00.75.92 3.93 3.93 0 002.69.61H48a1.36 1.36 0 011.19.47c-.04.57-1.05.64-1.48.64z"/><path class="cls-1" d="M62.43 22.75H32.11v3a7.47 7.47 0 00-1.1-.37 6.69 6.69 0 00-5.07.94l-6.79 4.27a1 1 0 00-1-1H15A4.47 4.47 0 0010.56 34v7.61A4.47 4.47 0 0015 46.09h3.12a1 1 0 001-1 1 1 0 00-.23-.62l.91.27h.1a13.55 13.55 0 002.53.24 13.81 13.81 0 007-1.88c.27-.17.54-.34.79-.53l.12-.08a1.57 1.57 0 011-.3l3.93.09a5.15 5.15 0 002.83-.88h24.33zM15 44.09a2.48 2.48 0 01-2.48-2.48V34a2.49 2.49 0 01.72-1.75 2.47 2.47 0 011.76-.73h2.62v12.57zm20.28-3.79l-3.9-.09a3.76 3.76 0 00-2.2.67l-.11.08-.67.44a11.78 11.78 0 01-8 1.4l-.69-.2v-10L27 28a4.72 4.72 0 013.54-.67 5.07 5.07 0 011 .35 1 1 0 00.56.06v7.23l-4.6.03a1 1 0 000 2l10.25-.22h.12a.6.6 0 01.51.69 3.24 3.24 0 01-3.1 2.83zm25.15-.88H39.88a5 5 0 00.53-1.63 2.61 2.61 0 00-2.19-2.95 3 3 0 00-.5 0l-3.61.08V24.75h26.32z"/></svg>