<svg id="Layer_1" data-name="Layer 1" xmlns="http://www.w3.org/2000/svg" viewBox="0 0 72 72"><defs><style>.cls-1{fill:silver}</style></defs><path class="cls-1" d="M34.09 19.05a1.12 1.12 0 00.31.05 1 1 0 001-.69l1.09-3.32a1 1 0 00-.64-1.27 1 1 0 00-1.26.64l-1.09 3.33a1 1 0 00.59 1.26zM29.8 18.15h.05a1 1 0 001-1l.15-3.44a1 1 0 10-2-.1l-.17 3.5a1 1 0 00.97 1.04zM38.1 21.69a1 1 0 00.72-.3l2.44-2.5a1 1 0 10-1.43-1.4L37.39 20a1 1 0 000 1.41 1 1 0 00.71.28zM24.4 18a1 1 0 00.92.59 1.14 1.14 0 00.4-.08 1 1 0 00.51-1.32L24.82 14a1 1 0 10-1.83.81zM58.5 44.23c-.22-.22-.5-.45-.81-.72-1.51-1.3-3.58-3.08-3.63-6.18-.06-4.93-4-7.91-6-9.38l-4.44-3-.31-.22a2.37 2.37 0 00-3.25.82 4.09 4.09 0 00-.42.93 2.4 2.4 0 00-.72-.26l-7.03-4.82c-1.39-1-4.06-1.56-5.24 0a2.23 2.23 0 00-.39.93 5.55 5.55 0 00-2-.65 2.84 2.84 0 00-2.79 1 2.56 2.56 0 00-.47 1.03 5.23 5.23 0 00-3.52-1 2.53 2.53 0 00-1.72 1 2.85 2.85 0 000 3.33 2.46 2.46 0 00-1.53.91c-1.07 1.41-.43 3.12.84 4.44a2.4 2.4 0 00-1.05.77 2.83 2.83 0 000 3.29 7.16 7.16 0 001.74 2L26.49 49.1A16.18 16.18 0 0031 52.27a16.06 16.06 0 005.29 1 11.82 11.82 0 012.39.34 24.36 24.36 0 014.75 2.85 4.71 4.71 0 002.79.92 4.87 4.87 0 00.76-.06 4.65 4.65 0 002.22-1l.58.51a3.09 3.09 0 002 .74 2.7 2.7 0 00.49 0 3 3 0 002.14-1.44L59 48.52a3.47 3.47 0 00-.5-4.29zM28.25 22.6c.3-.4 1.69-.17 2.48.42l5.93 4.06a2.27 2.27 0 00-.18.25 4.54 4.54 0 00-.66 2.2l-5-3.83a1 1 0 00-.17-.19c-1.83-1.36-2.65-2.62-2.4-2.91zm18.42 32.79a2.74 2.74 0 01-2.06-.49 25.4 25.4 0 00-5.22-3.11 12 12 0 00-2.93-.46 14.32 14.32 0 01-4.61-.87 14 14 0 01-4-2.78L17.08 36.89 17 36.8a5 5 0 01-1.27-1.38c-.4-.7-.19-1-.1-1.09s.48-.24.94-.18a3.42 3.42 0 011.43.54l9.23 7h.06a1 1 0 00.21.1 1 1 0 001.13-.33 1 1 0 00-.2-1.4l-9.21-6.95h-.07l-2-1.5c-.65-.49-1.9-1.79-1.38-2.48.12-.17.49-.23.94-.18a3.48 3.48 0 011.5.58l11.54 8.71A1 1 0 1031 36.63l-1-.78-11.28-8.5c-.65-.48-1.89-1.79-1.38-2.48a.63.63 0 01.41-.18 3.29 3.29 0 012 .59L31.33 34 33 35.26a1 1 0 001.4-.19 1 1 0 00-.2-1.4l-9.75-7.36c-.65-.49-1.89-1.79-1.38-2.48.13-.17.49-.23.94-.18a3.38 3.38 0 011.5.58l15.75 12a1 1 0 00.61.21.89.89 0 00.47-.14 1 1 0 00.47-.32 1 1 0 00-.2-1.4l-4-3a2.51 2.51 0 01-.5-3.23.34.34 0 01.16-.13l1.13.78.33.15 5.95 5A6.3 6.3 0 0148.36 39c.16 2.9 2.91 6.35 4.53 8.14a.47.47 0 010 .56l-4.47 6.57a2.7 2.7 0 01-1.75 1.12zm10.67-7.92l-4.64 7.62a1 1 0 01-.75.51 1.08 1.08 0 01-.86-.25l-.59-.51 4.08-6a2.45 2.45 0 00-.2-3c-2.46-2.72-3.93-5.24-4-6.91A8.31 8.31 0 0047 32.6l-5.57-4.69a2.51 2.51 0 01.37-1.32.39.39 0 01.58-.09l4.55 3.08c1.64 1.24 5.07 3.83 5.12 7.77s2.73 6.31 4.33 7.68c.27.23.52.44.71.64a1.43 1.43 0 01.25 1.8z"/></svg>