<svg id="Layer_1" data-name="Layer 1" xmlns="http://www.w3.org/2000/svg" viewBox="0 0 72 72"><defs><style>.cls-1{fill:silver}</style></defs><path class="cls-1" d="M28.86 42.12l-.6-.32h-.1a.93.93 0 01-.41-.4l-1.3-2.48a3.94 3.94 0 00-4.75-1.8l-1-4.23a6.5 6.5 0 00-3.25-4.62 1.85 1.85 0 00-2.52.7 1.76 1.76 0 00-.23 1l.83 12.31a5.38 5.38 0 001.5 3.39L22.38 51l.67.65c1.15 1.11 1.54 1.49 1.53 3v2.23a1.42 1.42 0 00.41 1 1.45 1.45 0 001 .42h7a1.43 1.43 0 001-.44 1.41 1.41 0 00.41-1l-.15-5.48a12.17 12.17 0 00-5.39-9.26zM16.54 29.91zm10 26.5v-1.74c0-2.36-.88-3.22-2.12-4.42-.2-.19-.42-.4-.64-.63l-5.3-5.31a3.54 3.54 0 01-1-2.17L16.66 30a4.63 4.63 0 012.19 3.24l1.4 6.18a1.89 1.89 0 00.1.41 1.37 1.37 0 00.17.37l3.64 6.27 1.67-1-3.65-6.28v-.09a.19.19 0 010-.08.22.22 0 01.12-.11 2 2 0 012.45.89L26 42.25a2.94 2.94 0 001.36 1.29c.18.08.34.17.49.25a10.34 10.34 0 014.43 7.64l.13 5zM56.9 28.93a1.86 1.86 0 00-2.52-.71 6.5 6.5 0 00-3.25 4.57l-1 4.29a4 4 0 00-4.77 1.83l-1.28 2.45a.93.93 0 01-.41.4h-.1c-.2.1-.41.21-.63.34a12.12 12.12 0 00-5.36 9.23l-.15 5.5a1.36 1.36 0 00.41 1 1.41 1.41 0 001 .44h7a1.43 1.43 0 001-.42 1.47 1.47 0 00.42-1v-2.23c0-1.53.37-1.91 1.53-3l.67-.65 5.32-5.34a5.46 5.46 0 001.49-3.38L57.13 30a2 2 0 00-.23-1.07zm-2.53 13.21a3.42 3.42 0 01-.94 2.16l-5.31 5.32-.64.63c-1.25 1.2-2.14 2.06-2.12 4.42v1.74h-6l.14-5A10.33 10.33 0 0144 43.8l.49-.25h.1a2.84 2.84 0 001.29-1.25l1.27-2.42a2 2 0 012.47-.92.21.21 0 01.13.23v.07L46 45.47l1.67 1 3.64-6.27a2 2 0 00.17-.36 2.73 2.73 0 00.1-.41L53 33.17A4.58 4.58 0 0155.19 30zM45 22.76h-.1l.06-.05-9.52-7.07-9.44 7h-.1v10.64l9.36 7 9.69-7zm-9.51-4.71l6.28 4.66-6.28 4.66-6.29-4.66zm-7.61 6.08l6.47 4.8v8.26l-6.47-4.88zm8.4 13.1v-8l6.79-5v8.07z"/></svg>