<svg version="1.1" id="Layer_1" xmlns="http://www.w3.org/2000/svg" x="0" y="0" viewBox="0 0 72 72" xml:space="preserve"><style>.st0{fill:silver}</style><path class="st0" d="M56.7 24.7H35.6c-1.5 0-2.8 1.1-3 2.6l-.9-.3c-1.6-.3-3.3 0-4.6.9l-5.9 3.7c-.1-.5-.5-.8-1-.8h-2.8c-2.3 0-4.1 1.8-4.1 4.1v6.8c0 2.3 1.8 4.1 4.1 4.1h2.8c.6 0 1-.4 1-1 0-.1 0-.2-.1-.4l.5.2h.1c.8.1 1.5.2 2.3.2 2.2 0 4.3-.5 6.2-1.6l.7-.5.1-.1c.2-.2.5-.3.8-.2l3.5.1h.1c.9 0 1.7-.3 2.5-.8h18.7c1.7 0 3-1.3 3.1-3v-11c0-1.6-1.3-3-3-3zM15.4 41.6v-6.8c0-1.2.9-2.1 2.1-2.1h2.2v11h-2.2c-1.2 0-2.1-1-2.1-2.1zm20.1-1.3l-3.5-.1c-.7 0-1.4.2-2 .6l-.1.1c-.2.1-.4.3-.6.4-2.1 1.2-4.6 1.7-7.1 1.2l-.5-.2v-8.7l6.5-4.1c.9-.6 2-.8 3.1-.6l.9.3c.1.1.3.1.4.1v6.2l-4 .1c-.6 0-1 .4-1 1s.4 1 1 1l9.1-.2c.1 0 .3 0 .4.2.1.1.1.2.1.3-.3 1.3-1.3 2.3-2.7 2.4zm22.2-1.8c0 .6-.5 1-1.1 1H39.7c.2-.4.3-.9.4-1.3.1-.7-.1-1.4-.6-1.9-.5-.6-1.2-.9-1.9-.8l-3.1.1v-7.7c0-.6.5-1 1.1-1h21.1c.6 0 1 .4 1.1 1v10.6z"/><path class="st0" d="M51.2 32.4l-.7.6c-.1-2.6-2.3-4.7-5-4.6-2.6.1-4.7 2.3-4.6 5C41 36 43.1 38 45.7 38c.6 0 1-.4 1-1s-.4-1-1-1c-1.6 0-2.8-1.3-2.8-2.8 0-1.6 1.3-2.8 2.8-2.8 1.5 0 2.8 1.2 2.8 2.8l-.9-.8c-.4-.4-1.1-.3-1.4.1s-.3 1.1.1 1.4l2.3 1.9c.2.2.5.3.8.3.3 0 .6-.1.8-.3l2.3-1.9c.4-.4.5-1 .1-1.4-.3-.4-.9-.5-1.4-.1z"/></svg>