<svg data-name="Layer 1" xmlns="http://www.w3.org/2000/svg" viewBox="0 0 72 72"><path d="M61.81 30.52l-5.68-7.32a4.06 4.06 0 00-5.72-.47l-1.81 1.55a1.34 1.34 0 00-.32 1.63 10.68 10.68 0 01-5.69-.17 11.36 11.36 0 00-10 1.69l-.09.07a.24.24 0 00-.09 0 10.33 10.33 0 00-1.76-.07 9.32 9.32 0 01-5.51-1.46 1.24 1.24 0 00.22-.77 1.35 1.35 0 00-.46-.93l-1.7-1.5a3.86 3.86 0 00-2.83-1 3.91 3.91 0 00-2.71 1.34l-6.65 8a3.91 3.91 0 00.35 5.52l1.7 1.5a1.34 1.34 0 00.89.34H14a1.56 1.56 0 00.52-.15l5.47 6a.53.53 0 00.15.11 3.67 3.67 0 00-.1 3 2.64 2.64 0 002.6 1.27A3.28 3.28 0 0024 51.31a3.23 3.23 0 003 .36 2.41 2.41 0 00.73 1.17 4 4 0 003.35.68A3.1 3.1 0 0033.85 56H34a4.26 4.26 0 003.09-1.49 9.09 9.09 0 001.88.76 3.94 3.94 0 001 .14 4.07 4.07 0 002.58-.92 3.05 3.05 0 001.18-2.54 4.2 4.2 0 002.92-.85 2.85 2.85 0 001-2.74 3.27 3.27 0 003.15-1.85 2.92 2.92 0 00.19-1.53 2.89 2.89 0 003.27-1.21 3.24 3.24 0 00-.09-3l3.46-3a1.36 1.36 0 00.76.34h.11a1.33 1.33 0 00.88-.33l1.82-1.54a4.05 4.05 0 00.61-5.72zm-49.14 4.57a1.89 1.89 0 01-.67-1.31 1.93 1.93 0 01.49-1.41l6.65-8a1.92 1.92 0 011.44-.65 1.89 1.89 0 011.26.48l1.22 1.08L14 36a.39.39 0 00-.11.06v.06zm9.17 11.36c-.3-.57.67-2.59 1.59-3.62.76-.86 1.62-1.07 1.94-.89s.34.63.09 1.5a4.48 4.48 0 01-.49.94 6.3 6.3 0 00-.34.58l-.06.15-1 1.52h-.34c-.97.1-1.33-.07-1.39-.18zm3.3 3.25a1.37 1.37 0 01-.43-1.19l1.07-1.62.49-.8a3.45 3.45 0 01.46-.62l.16-.16.07-.07a1.92 1.92 0 011.88-.62c.36.17.4.67.38 1a8.8 8.8 0 01-.72 1.79l-.6.9-.7 1c-.88.56-1.65.69-2.06.39zm6.74.55a7.26 7.26 0 00-.55.93 2.72 2.72 0 00-.12.25 2.76 2.76 0 01-2.21-.08 1 1 0 01-.1-.87l1.52-2.25.95-1c.39-.38.76-.48 1.11-.29a.86.86 0 01.5.78 13 13 0 01-1.1 2.53zM34 54c-.67 0-1-.68-1.1-1.34l.06-.12c.13-.21.39-.65.68-1.2a8.36 8.36 0 011.76-1.86.82.82 0 01.88.13.93.93 0 01.45.92 6.85 6.85 0 01-.34.94 6 6 0 00-.39 1.01A2.19 2.19 0 0134 54zm18.64-11.27c-.19.32-.85.36-1.7.11a16.53 16.53 0 01-1.79-.84 3.94 3.94 0 00-1-.54l-1.55-1a1 1 0 00-1.09 1.68l2.83 1.83c.66.58.94 1.23.74 1.71a1.44 1.44 0 01-1.51.63A10.11 10.11 0 0146 45.5a1 1 0 00-.22-.12l-1.14-.69a1 1 0 00-1.37.34 1 1 0 00.34 1.37l1.37.83.2.16a3.12 3.12 0 01.48.77c.35.76.08 1.12-.18 1.33a2 2 0 01-2.08.24l-.63-.45a2.2 2.2 0 00-.76-.5l-.17-.1h-.22a1 1 0 00-1.23.88 1 1 0 00.82 1.09l.25.17a2.31 2.31 0 01.32 1.18 1.08 1.08 0 01-.45.92 2.08 2.08 0 01-1.78.4 6.69 6.69 0 01-1.55-.65c0-.14.11-.3.18-.47a9.13 9.13 0 00.43-1.2 2.89 2.89 0 00-1.22-3.09 2.93 2.93 0 00-2.41-.5 2.9 2.9 0 00-1.57-2.24 2.7 2.7 0 00-2.17-.17 2.69 2.69 0 00-1.52-2.23 3.19 3.19 0 00-2.12-.13 2.59 2.59 0 00-1.26-2.49c-1.29-.71-3.1-.16-4.41 1.32a10 10 0 00-.78 1.07l-5.22-5.74 8-9.37a1.37 1.37 0 00.17.17 11.35 11.35 0 005.9 1.81l-5.6 4.15a2.57 2.57 0 00-.3 3.93 5.07 5.07 0 003.53 1.43 4.74 4.74 0 002.92-1l2.91-2.26a1.54 1.54 0 01.9-.32h1.03a16.68 16.68 0 011.67-.07 6.9 6.9 0 004.43-1.18c3.83 2.29 9.31 5.66 10.21 6.48s1.14 1.81.94 2.16zm.4-3.67c-1.4-1.28-10.14-6.48-11.13-7.06a1 1 0 00-1.19.15h-.07c-1.13 1-2.07 1-3.62 1.06a17.19 17.19 0 00-1.82.08h-.9a3.58 3.58 0 00-2.08.74l-2.9 2.26a3 3 0 01-3.84-.31.59.59 0 01-.17-.44.57.57 0 01.26-.43l8.2-6.11A9.38 9.38 0 0142 27.65a12.57 12.57 0 007.58 0l6.88 8.58-3.38 2.87a.08.08 0 00-.08-.04zm7-4.38l-1.31 1.11-8.36-10.39 1.34-1.14a2 2 0 011.5-.49 2 2 0 011.37.69l5.68 7.32a2.09 2.09 0 01.48 1.5 2 2 0 01-.74 1.4z" fill="silver"/></svg>