<svg data-name="Layer 1" xmlns="http://www.w3.org/2000/svg" viewBox="0 0 72 72"><path d="M12.4 35.36l11.78 12.82a18.18 18.18 0 005 3.87 18.72 18.72 0 006 1.47 13.34 13.34 0 012.71.5 27.31 27.31 0 015.28 3.5 5.42 5.42 0 004 1.16 5.33 5.33 0 002.58-1l.65.61a3.48 3.48 0 002.8.93 3.49 3.49 0 002.52-1.53l5.69-8.48a3.92 3.92 0 00-.41-4.96c-.24-.26-.55-.55-.89-.87-1.66-1.56-3.94-3.7-3.83-7.25.18-5.64-4.19-9.25-6.29-11l-5-3.68a3.75 3.75 0 00-.33-.26 2.74 2.74 0 00-3.79.77 5.53 5.53 0 00-.52 1 2.94 2.94 0 00-.8-.33l-7.88-5.91c-1.5-1.24-4.53-2-5.95-.25a2.61 2.61 0 00-.5 1c-1.63-1-4.17-1.43-5.43.11a3 3 0 00-.62 1.21 6.17 6.17 0 00-2.75-1.23 3.28 3.28 0 00-3.25.95 3.29 3.29 0 00-.17 3.88 2.72 2.72 0 00-1.79.94 3.25 3.25 0 00-.21 3.76 7.19 7.19 0 001 1.37 2.69 2.69 0 00-1.26.82c-1.6 1.9-.32 4.41 1.66 6.08zm24.53-11.83a2.31 2.31 0 00-.24.29 5.12 5.12 0 00-.85 2.46l-5.56-4.63a1.32 1.32 0 00-.18-.22c-2-1.65-2.84-3.13-2.56-3.46s1.94-.1 2.77.59zM51.33 56l5-6.66a2.81 2.81 0 00-.08-3.46C53.59 42.66 52 39.62 52 37.74a9.55 9.55 0 00-3.55-7.42l-6.08-5.6a2.8 2.8 0 01.48-1.48.43.43 0 01.61-.13l.18.15 5 3.68c1.78 1.47 5.57 4.6 5.42 9.12s2.8 7.34 4.55 9c.31.28.58.54.79.77a1.64 1.64 0 01.18 2.07l-5.69 8.48a1.19 1.19 0 01-.88.54 1.23 1.23 0 01-1-.33zM12.47 30.74c.35-.42 1.86-.11 2.71.54l10.19 8.43A1.14 1.14 0 0026.88 38L16.7 29.56h-.06l-2.21-1.83A5.46 5.46 0 0113.05 26c-.43-.82-.18-1.12-.07-1.25.36-.44 1.94-.1 2.77.58l12.76 10.59A1.14 1.14 0 1030 34.16l-1.14-.95L16.4 22.93c-.72-.59-2.08-2.15-1.45-2.9.15-.19.57-.25 1.08-.16a3.91 3.91 0 011.69.74l12.76 10.55h.05l1.84 1.51a1.14 1.14 0 101.45-1.76L23.05 22a5.71 5.71 0 01-1.38-1.65c-.43-.82-.18-1.13-.07-1.25.36-.44 1.94-.11 2.77.58l17.4 14.52a1.14 1.14 0 00.86.25 1 1 0 00.42-.13 1.25 1.25 0 00.5-.33 1.14 1.14 0 00-.16-1.61L39 28.74a2.85 2.85 0 01-.36-3.65.35.35 0 01.19-.16l1.23.93a1.56 1.56 0 00.39.19l6.51 6a7.25 7.25 0 012.77 5.72c0 3.32 3 7.4 4.77 9.53a.51.51 0 010 .64L49 55.25a3.15 3.15 0 01-2.1 1.16 3.14 3.14 0 01-2.32-.68 29.66 29.66 0 00-5.81-3.81 13.2 13.2 0 00-3.32-.67A16.93 16.93 0 0130.23 50a16.08 16.08 0 01-4.36-3.39l-12-13c-.67-.55-2.03-2.11-1.4-2.87z" fill="silver"/></svg>