<svg data-name="Layer 1" xmlns="http://www.w3.org/2000/svg" viewBox="0 0 72 72"><path d="M56.28 31.48h-3.34a1 1 0 00-1 1 1 1 0 00.46.82l-1.4-.4a15.49 15.49 0 00-2.62-.25v-9.13h-32.3v15.12a9.1 9.1 0 00-1.84.87A2.38 2.38 0 0013.19 41a2.35 2.35 0 001.28 2.65l16.87 7.91a7.71 7.71 0 005.26.44l15.49-4.41a1 1 0 00-.15.5 1 1 0 001 1h3.34A4.74 4.74 0 0061 44.35v-8.14a4.72 4.72 0 00-4.72-4.73zm-38.2-6H46.4v7.27a14.92 14.92 0 00-5.49 1.87c-.28.17-.57.36-.84.55l-.07.13a1.83 1.83 0 01-1.12.34l-2.63-.07a2.55 2.55 0 00.12-.74c0-1.26-1.25-2.56-3.33-2.58h-.85c-.95 0-1.24 0-1.59-.24a.6.6 0 01-.18-.21.64.64 0 010-.47.7.7 0 01.35-.37 1.28 1.28 0 01.79-.14h.95a2.44 2.44 0 011.74.62A1 1 0 0035.5 30a4.48 4.48 0 00-2.31-1.08v-.46a1 1 0 00-2 0v.4a3.36 3.36 0 00-1.42.37 2.61 2.61 0 00-.42 4.43 4.12 4.12 0 002.83.64H33c.93 0 1.31.46 1.34.58 0 .73-1.13.81-1.61.81h-1.31a2.24 2.24 0 01-1.69-.6 1 1 0 10-1.36 1.47 4.32 4.32 0 002 1 5.51 5.51 0 00-1.18 2.62 3.55 3.55 0 000 .46l-6.84-2a9.38 9.38 0 00-4.25-.47zM51.4 45.69l-15.33 4.37a5.71 5.71 0 01-3.88-.35L15.32 41.8a.34.34 0 01-.18-.38.32.32 0 01.15-.2 7.32 7.32 0 013.89-1.12 7.8 7.8 0 012.54.44l9.55 2.79a.76.76 0 00.21 0 2.24 2.24 0 00.51 0l10.94-.23a1 1 0 000-2L32 41.4h-.15a.78.78 0 01-.63-.9 3.49 3.49 0 013.43-3l4.18.1a4 4 0 002.31-.71l.12-.08c.24-.17.49-.33.72-.47a12.52 12.52 0 018.61-1.53l.85.24zm7.6-1.34a2.74 2.74 0 01-2.72 2.73H53.4V33.6l-.4-.12h3.27A2.72 2.72 0 0159 36.21z" fill="silver"/></svg>