<svg data-name="Layer 1" xmlns="http://www.w3.org/2000/svg" viewBox="0 0 72 72"><path d="M46.83 44.44l-.06-14.93a13.49 13.49 0 10-27 0l.05 15a1.71 1.71 0 001.78 1.72l1.59-.06a4.4 4.4 0 004.39-4.39V35.4a4.4 4.4 0 00-4.35-4.4h-1.42v-1.5a11.49 11.49 0 1123 0V31h-1.65a4.4 4.4 0 00-4.4 4.4v6.38a4.39 4.39 0 004.39 4.39h1a9.62 9.62 0 01-5.39 5.18 2.68 2.68 0 00-2.55-1.87h-4.56a2.7 2.7 0 00-2.7 2.7v.3a2.7 2.7 0 002.7 2.69h4.55a2.71 2.71 0 002.5-1.68 11.67 11.67 0 007.79-8 1.75 1.75 0 00.34-1.05zM23.23 33a2.39 2.39 0 012.39 2.39v6.38a2.4 2.4 0 01-2.43 2.39h-1.34V32.95zM36.9 52.48a.69.69 0 01-.7.69h-4.55a.69.69 0 01-.7-.69v-.3a.7.7 0 01.7-.7h4.55a.7.7 0 01.7.7zm6.25-8.31a2.39 2.39 0 01-2.39-2.39V35.4a2.4 2.4 0 012.4-2.4h1.63v11.17z" fill="silver"/></svg>