<svg id="Layer_1" data-name="Layer 1" xmlns="http://www.w3.org/2000/svg" viewBox="0 0 72 72"><defs><style>.cls-1{fill:silver}</style></defs><path class="cls-1" d="M35.74 28.37a1.81 1.81 0 10-1.8-1.8 1.8 1.8 0 001.8 1.8z"/><path class="cls-1" d="M33.65 18.68a15.51 15.51 0 1015.5 15.51 15.52 15.52 0 00-15.5-15.51zm0 29a13.51 13.51 0 1113.5-13.51 13.52 13.52 0 01-13.5 13.53z"/><path class="cls-1" d="M34.13 41.49a.62.62 0 01-.81-.06.65.65 0 01-.18-.5l2.54-10.56-1.68-.85-3.68 1.55.78 1.84 2.13-.91-2 8.53A2.62 2.62 0 0035.45 43l2.21-2.28-1.44-1.39z"/></svg>