<svg id="Layer_1" data-name="Layer 1" xmlns="http://www.w3.org/2000/svg" viewBox="0 0 72 72"><defs><style>.cls-1{fill:silver}</style></defs><path class="cls-1" d="M52 59.35h-.52l-3-5.69.74-3.59h.43a1 1 0 000-2h-2.74a1 1 0 000 2h.18l-.46 2.19-2.89-2.19a1 1 0 000-2h-4.08a1 1 0 000 2h.82s.06.09.11.12l5.91 4.48a1.19 1.19 0 00.22.12l2.44 4.56h-.06a1 1 0 000 2H52a1 1 0 000-2zM61.78 33.34l-2.17-4a4 4 0 00-3.51-2.04H32.18a12.46 12.46 0 10-.62 13.93h1.66a4 4 0 001.45-.23L39 37.81 43.57 41a1.77 1.77 0 002 0l4.65-2.95 3.41 3.17h4.2L61 38.16a4 4 0 00.78-4.82zm-2.13 3.37L57 39.23h-2.62l-3-2.75a1.78 1.78 0 00-2.16-.2l-4.68 3L40 36.07a1.79 1.79 0 00-2.06 0l-4.07 3a2.11 2.11 0 01-.61.1h-2.7l-.3.44A10.6 10.6 0 0126.58 43a10.46 10.46 0 11-5-19.63 10.6 10.6 0 012.94.42 10.37 10.37 0 016.24 5l.29.52H56.1a2 2 0 011.75 1l.63 1.15H31.25v2h28.33l.45.81a2 2 0 01-.38 2.44z"/><path class="cls-1" d="M18.05 30a3.63 3.63 0 103.62 3.63A3.64 3.64 0 0018.05 30zm0 5.25a1.63 1.63 0 111.62-1.62 1.63 1.63 0 01-1.62 1.58z"/></svg>