<svg id="Layer_1" data-name="Layer 1" xmlns="http://www.w3.org/2000/svg" viewBox="0 0 72 72"><defs><style>.cls-1{fill:silver}</style></defs><path class="cls-1" d="M53.82 23.78a11 11 0 00-20.27.44 11 11 0 00-.74 4.57l-1.05.88a3.53 3.53 0 00-.84 1l-1.1 4.43-4.74.46a1.69 1.69 0 00-1.45 1.16l-1.41 4.47-4-.2-2.88 2.42-.44 3.9a3.62 3.62 0 002.28 3.79l3.66 1.43a3.74 3.74 0 001.31.24 3.62 3.62 0 002.32-.77l15.9-13.34a11 11 0 0013.45-14.88zm-1.69 7.66a9 9 0 01-11.6 5.11l-.53-.22-16.82 14.09a1.58 1.58 0 01-1.6.27l-.85-.33 18-15.08-1.29-1.55-18.85 15.79-.68-.26a1.61 1.61 0 01-1-1.68l.36-3.11 1.65-1.39 3.46.17a1.67 1.67 0 001.69-1.17l1.43-4.5 4.76-.46a1.68 1.68 0 001.48-1.28l1-4.27a1.74 1.74 0 01.31-.36l1.86-1.56-.06-.53a9.12 9.12 0 01.57-4.12 9 9 0 0116.71 6.49z"/><path class="cls-1" d="M44.12 23.86a3.3 3.3 0 104.64.41 3.3 3.3 0 00-4.64-.41zm2.94 3.5a1.28 1.28 0 01-1.64-2 1.24 1.24 0 01.82-.3h.11a1.28 1.28 0 01.87.45 1.35 1.35 0 01.3.94 1.21 1.21 0 01-.46.91z"/></svg>