<svg id="Layer_1" data-name="Layer 1" xmlns="http://www.w3.org/2000/svg" viewBox="0 0 72 72"><defs><style>.cls-1{fill:silver}</style></defs><path class="cls-1" d="M35.8 27.86v-3.3h-6.23v3.3h-3.29v6.23h3.29v3.29h6.24v-3.29h3.29v-6.23zm-2 4.23v3.29h-2.23v-3.29h-3.29v-2.23h3.29v-3.3h2.23v3.3h3.29v2.23z"/><path class="cls-1" d="M57.91 47.46l-8-7.36V21.41a1.4 1.4 0 00-1.4-1.4H17a1.57 1.57 0 00-1.12.46 1.61 1.61 0 00-.46 1.11v19.88h.07l9.31 8.12a1.41 1.41 0 00.92.35H57a1.45 1.45 0 001-2.52zM17.43 22h30.43v17.46H17.43zm8.49 26l-7.47-6.52h29.94L55.52 48z"/></svg>