<svg data-name="Layer 1" xmlns="http://www.w3.org/2000/svg" viewBox="0 0 72 72"><path d="M65.63 54.17a2.38 2.38 0 00-.87-1.59L60.27 49V19.16a1.55 1.55 0 00-1.56-1.55h-44.9a1.8 1.8 0 00-1.8 1.8v28.76l-4.8 4.54a2.37 2.37 0 00-.74 1.73 2.32 2.32 0 00.69 1.67 2.37 2.37 0 001.68.7h54.43a2.36 2.36 0 002.36-2.64zm-26.88-5.38c0 .68-.57 1.16-1.59 1.86l-.11.08v-3.27c.95.33 1.66.74 1.7 1.33zm-1.7-7.22c1.71.39 3.26.92 3.26 1.7s-1.72 1.31-3.26 1.73zm-2 .09v3.15c-1.37-.37-2.7-.82-2.71-1.54s1.25-1.22 2.71-1.61zm0 6.06v3.09l-.14-.08c-1-.6-1.68-1-1.63-1.64s.79-1.01 1.77-1.37zm28.52 7a.39.39 0 01-.3.14H37.05v-1.17a1 1 0 00.13-.45c0-.21.74-.69 1.11-.94 1.09-.75 2.59-1.77 2.46-3.65a2.93 2.93 0 00-1.37-2.27c1.6-.6 2.91-1.47 2.93-3.1a3 3 0 00-2.1-2.79c1.8-.53 3.16-1.28 3.3-2.77.23-2.57-2.49-3.67-4-3.88a1 1 0 10-.29 2s2.37.41 2.25 1.72c-.06.73-2.79 1.29-4.46 1.64v-8.57l4.67 2.29a1 1 0 00.44.1 1 1 0 00.44-1.9L39 29.38a6.11 6.11 0 00.75-.5l.37-.29 6.79 2.81a1.09 1.09 0 00.39.08 1 1 0 00.38-1.93L42 27.19l.68-.52a.3.3 0 01.3-.05l8.65 3.24a1 1 0 00.7-1.87l-8.65-3.24a2.29 2.29 0 00-2.23.34l-2.91 2.21a4.06 4.06 0 01-1.49.76v-1.44a.8.8 0 000-.15 2.11 2.11 0 001.11-1.86 2.14 2.14 0 10-3.06 1.92.24.24 0 000 .09v1.48a4.28 4.28 0 01-1.63-.77L30.23 25a2.31 2.31 0 00-2.23-.37l-8.21 3.24a1 1 0 10.73 1.86l8.21-3.24a.33.33 0 01.31.06l.92.68-5.61 2.32a1 1 0 10.76 1.85l6.71-2.78.41.31c.19.14.4.26.6.39L29.43 31a1 1 0 00.44 1.89 1 1 0 00.44-.1l4.74-2.31v8.66c-1.68-.34-4.32-.9-4.38-1.58-.12-1.31 2.22-1.71 2.26-1.72a1 1 0 10-.3-2c-1.47.21-4.19 1.31-4 3.88.14 1.55 1.64 2.3 3.61 2.82a3 3 0 00-1.95 2.74c0 1.69 1.32 2.51 2.89 3.06a3.21 3.21 0 00-1.9 2.66c-.14 1.93 1.53 2.88 2.63 3.51a5 5 0 011.13.77v1.54H8.84a.35.35 0 01-.26-.11.37.37 0 01-.11-.26.39.39 0 01.11-.28l4.67-4.4H29v-2H14V19.61h44.27v28.15h-15v2H58l5.49 4.38a.46.46 0 01.14.25.45.45 0 01-.06.28z" fill="silver"/></svg>