<svg id="Layer_1" data-name="Layer 1" xmlns="http://www.w3.org/2000/svg" viewBox="0 0 72 72"><defs><style>.cls-1{fill:silver}</style></defs><path class="cls-1" d="M30.35 38.82h-.48l-2.93-5.48.71-3.42H28a1 1 0 000-2h-2.52a1 1 0 000 2h.13l-.42 2-2.69-2a1 1 0 00-.05-2h-4a1 1 0 000 2h.79a.81.81 0 00.09.1l5.72 4.33a.78.78 0 00.2.11l2.33 4.36a1 1 0 000 2h2.75a1 1 0 000-2zM43.13 34.08h2v-2.9h2.9v-2h-2.9v-2.89h-2v2.89h-2.89v2h2.89v2.9z"/><path class="cls-1" d="M67.93 51a2.35 2.35 0 00-.88-1.59l-4.49-3.59V16A1.55 1.55 0 0061 14.41H12.11a1.8 1.8 0 00-1.8 1.8V45L5.5 49.51a2.41 2.41 0 00-.74 1.73 2.38 2.38 0 002.37 2.37h58.44A2.38 2.38 0 0067.93 51zm-7.37-34.59v28.15h-6.32a2.15 2.15 0 00-.68-1.86l-5.67-4.88A8.44 8.44 0 1036 27.6l-6.31-5.44c-3.31-2.56-6.77-3.62-10-3.07a10.73 10.73 0 00-7.2 5l-.2.32v-8zM12.31 44.56V28.2c.72-1.17 1.37-2.19 1.88-3A8.76 8.76 0 0120 21.07c2.69-.46 5.61.46 8.42 2.64l7.15 6.16v.44A8.47 8.47 0 0044 38.76a8.16 8.16 0 001.86-.22l-.1.12 6.44 5.55a.29.29 0 010 .24.27.27 0 01.21-.09v.2zm25.27-14.25A6.46 6.46 0 1144 36.76a6.46 6.46 0 01-6.42-6.45zm28.28 21.16a.37.37 0 01-.29.14H7.13a.38.38 0 01-.25-.61l4.66-4.4h48.77l5.49 4.38a.4.4 0 01.14.25.45.45 0 01-.08.24z"/></svg>