<svg version="1.1" id="Layer_1" xmlns="http://www.w3.org/2000/svg" x="0" y="0" viewBox="0 0 72 72" xml:space="preserve"><style>.st0{fill:silver}</style><path class="st0" d="M36.8 32.1v-.2c1.6-.2 2.6-1.1 2.6-2.5 0-1.1-1.1-2.3-2.9-2.3h-.7c-.8 0-1 0-1.2-.2-.1 0-.1-.1-.1-.2 0-.2.1-.3.3-.4.1-.1.2-.1.4-.1h.8c.5 0 1 .1 1.4.5.4.4 1 .4 1.4 0 .4-.4.4-1 0-1.4l-.1-.1c-.5-.5-1.2-.8-1.9-.9V24c0-.6-.4-1-1-1s-1 .4-1 1v.2c-.4 0-.8.1-1.2.4-.7.4-1.2 1.2-1.2 2s.3 1.5.9 1.9c.7.5 1.6.7 2.5.6h.7c.3 0 .7.1 1 .3 0 .5-.9.5-1.2.5h-1c-.5 0-.9-.1-1.3-.3-.3-.4-1-.5-1.4-.2-.2.2-.4.5-.4.8 0 1 1.4 1.6 2.6 1.7v.1c0 .6.4 1 1 1s1-.4 1-.9z"/><path class="st0" d="M56.8 34.7c0-.5-.3-.9-.7-1.1l-3.5-1.8 3.5-1.8c.4-.2.7-.6.7-1.1 0-.5-.3-.9-.7-1.1L36.2 17.7c-.4-.2-.8-.2-1.1 0L15.2 27.8c-.6.3-.9 1-.5 1.7.1.2.3.4.5.5l3.5 1.8-3.6 1.8c-.6.3-.9 1.1-.5 1.7.1.2.3.4.5.5l3.3 1.7-3.3 1.7c-.4.2-.7.6-.7 1.1 0 .5.3.9.7 1.1L35 51.5c.2.1.4.1.6.1.2 0 .4-.1.6-.1l19.9-10.1c.4-.2.7-.6.7-1.1 0-.5-.3-.9-.7-1.1l-3.3-1.7 3.3-1.7c.4-.2.7-.6.7-1.1zM35.7 19.6l18.2 9.3-18.2 9.3-18.2-9.3 18.2-9.3zm18.2 20.7l-18.2 9.3-18.2-9.3 3.2-1.7L35.1 46c.2.1.4.1.6.1.2 0 .4-.1.6-.1l14.4-7.3 3.2 1.6zM35.7 44l-18.2-9.3 3.5-1.8 14.1 7.2c.2.1.4.1.6.1.2 0 .4 0 .6-.1l14.1-7.2 3.5 1.8L35.7 44z"/></svg>