<svg data-name="Layer 1" xmlns="http://www.w3.org/2000/svg" viewBox="0 0 72 72"><path d="M42 23.78l.87-1.09.12-3.55h-4.42v-3.39h1.88v-2h-1.88a4.9 4.9 0 00-4.47-5 4.92 4.92 0 00-5.34 4.47 4.35 4.35 0 000 .5h-1.6v2h1.61v3.39h-4.1v3.61l1.43 1.35v3.47h1.14l-1.8 30.91h17.24l-2.12-30.88H42zm-1.08-2.64v.82l-.35.42h-1.99v-1.24zm-1.4 19.8L27.85 51.39l.15-2.07 11.35-10.16zm-11.06.82l10.5-9 .27 3.87-11 9.85zm10.28-11.48L28.57 39l.12-2.1.07.08 9.86-8.44zM40 25.57H28.08v-1.19H40zm-5.29-3.19v-1.24h1.92v1.24zm-2 0h-1.96v-1.24h1.91zm3.92-3.24h-1.97v-3.39h1.92zm0-5.39h-1.97V11a3 3 0 011.91 2.75zm-5.82-.32A2.92 2.92 0 0132.66 11v2.8h-1.91c0-.16-.01-.26 0-.37zm0 2.32h1.91v3.39h-1.97zm-4.1 5.39h2.1v1.24h-1.64l-.52-.49zm10 6.43l-7.82 6.7.38-6.7zM35 56.45h-1.5v-2.24a.75.75 0 011.5 0zm2 0v-2.24a2.75 2.75 0 00-5.5 0v2.24h-3.94l.13-2.22 12-10.75.89 13z" fill="silver"/></svg>