<svg id="Layer_1" data-name="Layer 1" xmlns="http://www.w3.org/2000/svg" viewBox="0 0 72 72"><defs><style>.cls-1{fill:silver}</style></defs><path class="cls-1" d="M38.68 31.71a1.26 1.26 0 00-2.29 1.06 5.75 5.75 0 01.55 2.48A5.91 5.91 0 0131 41.16h-9.2a5.91 5.91 0 010-11.81h8a1.26 1.26 0 000-2.51h-8a8.42 8.42 0 000 16.83H31a8.43 8.43 0 008.42-8.42 8.31 8.31 0 00-.74-3.54z"/><path class="cls-1" d="M47.31 26.73h-9a8.21 8.21 0 00-8.2 8.21A8 8 0 0031 38.6a1.25 1.25 0 001.68.56 1.27 1.27 0 00.57-1.69 5.54 5.54 0 01-.6-2.53 5.69 5.69 0 015.69-5.69h9a5.69 5.69 0 110 11.38H40a1.26 1.26 0 100 2.51h7.32a8.21 8.21 0 000-16.41z"/></svg>