<svg data-name="Layer 1" xmlns="http://www.w3.org/2000/svg" viewBox="0 0 72 72"><path d="M47.68 45.77a7.11 7.11 0 00-5.43 2.56l-15.61-8a6.82 6.82 0 000-6.54l15.62-8a7.09 7.09 0 10-1.7-4.57 6.92 6.92 0 00.37 2.14l-16.07 8.23a7.13 7.13 0 100 10.93l16.05 8.24a6.92 6.92 0 00-.37 2.14 7.13 7.13 0 107.13-7.13zm0-28.93a4.37 4.37 0 11-4.36 4.36 4.37 4.37 0 014.36-4.36zM20.34 41.42a4.37 4.37 0 114.36-4.36 4.37 4.37 0 01-4.36 4.36zm27.34 15.85a4.37 4.37 0 114.37-4.37 4.37 4.37 0 01-4.37 4.37z" fill="silver"/></svg>