<svg id="Layer_1" data-name="Layer 1" xmlns="http://www.w3.org/2000/svg" viewBox="0 0 72 72"><defs><style>.cls-1{fill:silver}</style></defs><path class="cls-1" d="M34.06 13.15a14.71 14.71 0 00-14.7 14.7c0 6.43 8.94 20.34 12.79 26a2.3 2.3 0 003.81 0c3.85-5.69 12.8-19.61 12.8-26a14.72 14.72 0 00-14.7-14.7zm.07 39.48H34c-6-8.86-12.42-20-12.42-24.78a12.49 12.49 0 1125 0c-.04 4.74-6.45 15.91-12.45 24.78z"/><path class="cls-1" d="M34.39 22.94a3.3 3.3 0 103.3 3.3 3.3 3.3 0 00-3.3-3.3zm0 4.38a1.09 1.09 0 111.09-1.08 1.09 1.09 0 01-1.09 1.08z"/><path class="cls-1" d="M34.18 17.59a10 10 0 1010 10 10 10 0 00-10-10zm-3.46 17H31v-.71a1.41 1.41 0 011.41-1.4h3.91a1.4 1.4 0 011.4 1.4v.66a7.74 7.74 0 01-7 .05zM39.84 33a3.62 3.62 0 00-3.49-2.71h-3.91a3.63 3.63 0 00-3.57 3.05 7.81 7.81 0 1111-.34z"/></svg>