<svg id="Layer_1" data-name="Layer 1" xmlns="http://www.w3.org/2000/svg" viewBox="0 0 72 72"><defs><style>.cls-1{fill:silver}</style></defs><path class="cls-1" d="M45.76 32h-.65v-2.79a10.2 10.2 0 00-9.64-10.6h-.11a10.19 10.19 0 00-9.64 10.57V32H25a4.21 4.21 0 00-4.21 4.2v16.4a3.84 3.84 0 003.84 3.83h21.52A3.84 3.84 0 0050 52.59V36.21A4.22 4.22 0 0045.76 32zM35.41 21a7.86 7.86 0 017.36 8.21V32H28.06v-2.88A7.83 7.83 0 0135.41 21zm12.23 31.59a1.5 1.5 0 01-1.49 1.51H24.66a1.5 1.5 0 01-1.5-1.5V36.21A1.87 1.87 0 0125 34.34h20.76a1.88 1.88 0 011.88 1.87z"/><path class="cls-1" d="M35.39 38.74a3.07 3.07 0 00-1.17 5.92v6.14h2.34v-6.14a3.08 3.08 0 00-1.17-5.92z"/></svg>