<svg version="1.1" id="Layer_1" xmlns="http://www.w3.org/2000/svg" x="0" y="0" viewBox="0 0 72 72" xml:space="preserve"><style>.st0{fill:silver}</style><path class="st0" d="M42.1 28.6c0-2.9-2.4-5.3-5.3-5.3s-5.3 2.4-5.3 5.3 2.4 5.3 5.3 5.3 5.3-2.4 5.3-5.3zm-8.7 0c0-1.8 1.5-3.3 3.3-3.3s3.3 1.5 3.3 3.3-1.5 3.3-3.3 3.3-3.3-1.5-3.3-3.3z"/><path class="st0" d="M49.2 43.4h-7.4c3.1-5 6.5-11.3 6.5-14.9v-1C47.8 21.6 42.9 17 36.9 17c-6.3 0-11.5 5.1-11.5 11.5 0 3.5 3.4 9.9 6.5 14.9H25l-5.5 10.4h35.2l-5.5-10.4zM36.8 19.1c5.2 0 9.5 4.2 9.5 9.5v.3c-.2 3.8-5 12-9.5 18.6-4.6-6.8-9.5-15.3-9.5-18.9 0-5.2 4.3-9.5 9.5-9.5zM26.2 45.4H33c.8 1.3 1.6 2.4 2.1 3.3.1.2.3.4.5.5.3.2.7.3 1.1.3h.4c.5-.1.9-.4 1.2-.8.6-.9 1.3-2 2.1-3.3H48l3.4 6.4H22.9l3.3-6.4z"/></svg>