<svg id="Layer_1" data-name="Layer 1" xmlns="http://www.w3.org/2000/svg" viewBox="0 0 72 72"><defs><style>.cls-1{fill:silver}</style></defs><path class="cls-1" d="M63.86 27.23a6.15 6.15 0 00-4.37-4.65 5.35 5.35 0 00-5.34 1.81l-4.46 5.14a3.59 3.59 0 00-.47 0h-2.87a6.82 6.82 0 01-5-2.16A7.13 7.13 0 0031.3 27l-.7.65A6.73 6.73 0 0126 29.5h-4.22l-4.44-5.13A5.37 5.37 0 0012 22.58a6.14 6.14 0 00-4.36 4.65 19.8 19.8 0 00.61 9.64 11.48 11.48 0 0011 8.28h4a16 16 0 0012.53 6h.32a16 16 0 0012.23-6h3.89a11.47 11.47 0 0011-8.28 19.7 19.7 0 00.64-9.64zM19.25 43.15a9.45 9.45 0 01-9.08-6.83 17.68 17.68 0 01-.6-8.62 4.11 4.11 0 012.89-3.17 3.35 3.35 0 013.37 1.17l3.89 4.49a4.4 4.4 0 00-1.56 5.74l3.28 6.42c.14.27.29.54.45.8zm16.82 6a14.06 14.06 0 01-11.79-6 14 14 0 01-1-1.72L19.94 35a2.41 2.41 0 012.15-3.52H26a8.78 8.78 0 006-2.38l.69-.65a5.13 5.13 0 017.27.24 8.84 8.84 0 006.42 2.79h2.87a2.37 2.37 0 012 1.11 2.4 2.4 0 01.16 2.32l-2.8 6a13.73 13.73 0 01-1.28 2.2h-.13v.19a14 14 0 01-11.13 5.83zm25.25-12.83a9.46 9.46 0 01-9.09 6.83h-2.51c.25-.44.5-.89.72-1.36l2.79-6a4.41 4.41 0 00-.23-4.25 4.49 4.49 0 00-1.25-1.28l4-4.56A3.33 3.33 0 0159 24.53a4.08 4.08 0 012.89 3.17 17.66 17.66 0 01-.57 8.62z"/><path class="cls-1" d="M27.41 33.83h17.03v2H27.41zM26.26 37.68h19.21v2H26.26zM29.74 41.53H42.1v2H29.74z"/></svg>