<svg id="Layer_1" data-name="Layer 1" xmlns="http://www.w3.org/2000/svg" viewBox="0 0 72 72"><defs><style>.cls-1{fill:silver}</style></defs><path class="cls-1" d="M49.92 20.32H18.53a3.63 3.63 0 00-3.63 3.62v20.93a3.63 3.63 0 003.63 3.62h31.39a3.63 3.63 0 003.63-3.62V23.94a3.63 3.63 0 00-3.63-3.62zm-3.78 2v24.17H22.32V22.32zM16.9 44.87V23.94a1.62 1.62 0 011.63-1.62h1.79v24.17h-1.79a1.63 1.63 0 01-1.63-1.62zm34.65 0a1.63 1.63 0 01-1.63 1.62h-1.78V22.32h1.78a1.62 1.62 0 011.63 1.62z"/><path class="cls-1" d="M31 38.25v3.93h7.05v-3.93H42v-7h-3.93v-3.98H31v3.93h-3.91v7.05zm-1.93-5H33v-3.98h3v3.93h4v3h-3.93v3.93H33v-3.88h-3.91z"/></svg>