<svg id="Layer_1" data-name="Layer 1" xmlns="http://www.w3.org/2000/svg" viewBox="0 0 72 72"><defs><style>.cls-1{fill:silver}</style></defs><path class="cls-1" d="M60.47 21.13a4.59 4.59 0 00-3.82-1l-44.33 8.55a1 1 0 00-1-1 1 1 0 00-1 1v13.4a1 1 0 001 1 1 1 0 001-1v-.28L22 43.47l-.36 2a2.37 2.37 0 001.88 2.74l12.28 2.37a2.28 2.28 0 00.45 0 2.32 2.32 0 001.33-.41 2.39 2.39 0 001-1.53L39 46.4l17.55 3a4.43 4.43 0 00.81.07 4.64 4.64 0 002.95-1.06 4.59 4.59 0 001.69-3.5l.16-20.21a4.6 4.6 0 00-1.69-3.57zM36.61 48.32a.38.38 0 01-.43.3l-12.25-2.38a.38.38 0 01-.29-.42l.36-2 13 2.25zM60 44.9a2.59 2.59 0 01-.94 2 2.65 2.65 0 01-2.14.56L14.2 40.1l.08-9.76L57 22.09a2.61 2.61 0 012.15.57 2.57 2.57 0 01.94 2z"/><path class="cls-1" d="M44.66 27.7l-3 .54a1 1 0 00-.81 1.16 1 1 0 001 .82H42l.24-.05L40 34l-2.26-3.4h.17a1 1 0 10-.37-2l-2.54.49a1 1 0 00-.8 1.17 1 1 0 001 .81h.46l3.34 5 .09.11-.09 3.67h-.13a1 1 0 00-1.14.84 1 1 0 00.84 1.14l2.39.36h.15a1 1 0 00.15-2H41l.06-4 3.75-6.49h.2a1 1 0 00-.35-2zM56 26.09l-1.88.3a1 1 0 00-.83 1.14 1 1 0 001 .84v11.4a1.7 1.7 0 01-3.39 0V28.92a1 1 0 00.79-1.13 1 1 0 00-1.21-.79l-1.88.3a1 1 0 00.16 2h.07v10.47a3.7 3.7 0 007.39 0V28.08h.07a1 1 0 00-.31-2zM32.22 34.72a3.18 3.18 0 00.61-2.28 3.26 3.26 0 00-3.16-2.85 1.77 1.77 0 00-.23 0H29.2l-2.2.29-3 .36a1 1 0 00.12 2H24.46V38h-.34a1 1 0 10-.19 2l1.9.18 4 .39h.33a3.32 3.32 0 003.3-3 3.25 3.25 0 00-.73-2.41 3.41 3.41 0 00-.51-.44zM26.47 32l1-.12 2-.25a1.26 1.26 0 011.37 1.08 1.16 1.16 0 01-.26.9 1.25 1.25 0 01-.85.48h-3.28zM30 38.56l-.55-.06h-.05l-2.93-.28v-2.14h4a1.38 1.38 0 01.67.41 1.28 1.28 0 01.28.94A1.34 1.34 0 0130 38.56z"/></svg>