<svg id="Layer_1" data-name="Layer 1" xmlns="http://www.w3.org/2000/svg" viewBox="0 0 72 72"><defs><style>.cls-1{fill:silver}</style></defs><path class="cls-1" d="M49.67 36.69a1 1 0 00-1.2 1.61l5.12 3.8a1 1 0 00.6.2 1 1 0 00.8-.4 1 1 0 00-.2-1.4zM49.48 28l4.14-4a1 1 0 00-1.38-1.44l-4.14 4a1 1 0 000 1.41 1 1 0 00.72.31 1 1 0 00.66-.28zM57 31.47l-6.38-.15a1 1 0 00-1 1 1 1 0 001 1l6.38.15a1 1 0 001-1 1 1 0 00-1-1zM43 19.88a1.88 1.88 0 00-2 .21c-2.72 2.13-10 7.08-18.6 7.08h-4.65a5.32 5.32 0 00-1.42 10.45l2.77 9.06a2.31 2.31 0 002.25 1.81h3.41a2.28 2.28 0 001.82-.9 2.32 2.32 0 00.4-2l-2.91-7.31a.37.37 0 01.15-.33c7.78.68 14.24 5.16 16.78 7.18a1.86 1.86 0 002 .21 1.86 1.86 0 001.06-1.69V21.57A1.88 1.88 0 0043 19.88zM14.42 32.51a3.34 3.34 0 013.33-3.34h4.88v6.68h-4.88a3.34 3.34 0 01-3.33-3.34zm10.63 13.65a.29.29 0 01-.06.21.27.27 0 01-.23.12h-3.41c-.14 0-.26-.1-.31-.31l-2.55-8.34h3.62a2.26 2.26 0 000 1zm17-2.76c-2.81-2.18-9.45-6.63-17.42-7.4v-6.94c8.06-.7 14.66-5.09 17.44-7.23z"/></svg>