<svg data-name="Layer 1" xmlns="http://www.w3.org/2000/svg" viewBox="0 0 72 72"><path d="M39.69 16.26a16.36 16.36 0 00-9.26 1.47l.05-2.79a3.28 3.28 0 00-1.05-2.28h.37v-2h-5.32v2H25a3.22 3.22 0 00-1.07 2.48L23.65 30a3.29 3.29 0 002.25 3v1.23h2.2v-1.32a3.25 3.25 0 002.14-3.15l.08-5 .06.07a10.72 10.72 0 0115.82 1.3A10.62 10.62 0 0148.32 34a10.69 10.69 0 01-18.41 6h2.66v-2H21.18v2h1.56a16.42 16.42 0 009.41 8.28A6.55 6.55 0 0028.79 54v3.27h18.67V54a6.55 6.55 0 00-3.87-6 16.52 16.52 0 00-3.9-31.76zM28.24 29.79A1.3 1.3 0 0127 31.14 1.29 1.29 0 0125.65 30l.23-14.83a1.32 1.32 0 011.25-1.35h.05a1.3 1.3 0 011.3 1.18zM45.46 54v1.27H30.79V54a4.54 4.54 0 014.54-4.54h5.6A4.54 4.54 0 0145.46 54zM52 34.54A14.51 14.51 0 0125 40h2.3a12.7 12.7 0 008.72 5.27 13.51 13.51 0 001.67.11 12.72 12.72 0 10-7.36-23.09v-2.28A14.52 14.52 0 0152 34.54z" fill="silver"/></svg>