<svg id="Layer_1" data-name="Layer 1" xmlns="http://www.w3.org/2000/svg" viewBox="0 0 72 72"><defs><style>.cls-1{fill:silver}</style></defs><path class="cls-1" d="M44.78 35.11h-2a8.71 8.71 0 11-17.42 0h-2a10.72 10.72 0 009.41 10.63v5.4h-5.16v2h12.31v-2h-5.15v-5.35a10.72 10.72 0 0010.01-10.68z"/><path class="cls-1" d="M34.05 42a6.62 6.62 0 006.63-6.64V23.83a6.63 6.63 0 00-6.63-6.63 6.57 6.57 0 00-4.68 1.94 6.65 6.65 0 00-1.95 4.69v11.5A6.64 6.64 0 0034.05 42zm-4.63-18.17a4.63 4.63 0 014.63-4.63 4.63 4.63 0 014.63 4.63v1.23h-4.44v2h4.44v1.88h-4.44v2h4.44v1.88h-4.44v2h4.44v.52A4.63 4.63 0 0134.05 40a4.64 4.64 0 01-4.63-4.64z"/></svg>