<svg id="Layer_1" data-name="Layer 1" xmlns="http://www.w3.org/2000/svg" viewBox="0 0 72 72"><defs><style>.cls-1{fill:silver}</style></defs><path class="cls-1" d="M58.39 44a.93.93 0 00-1.33 0l-2 2a7.24 7.24 0 101.12 1.56l2.23-2.3a.93.93 0 00-.02-1.26zm-3.25 7.07a5.48 5.48 0 11-1.4-3.64l-3.85 4L48.58 50a.94.94 0 10-1.36 1.31l1.88 1.99a1.16 1.16 0 001.62 0l4-4.17a5.3 5.3 0 01.42 1.95zM34.92 32.5H33.8a1.89 1.89 0 01-1.42-.5.95.95 0 10-1.29 1.39 3.84 3.84 0 002.43 1v.24a.95.95 0 001.89 0v-.27c1.67-.15 2.73-1.09 2.73-2.49 0-1.1-1.14-2.3-3-2.31h-.74c-.81 0-1.06 0-1.35-.2a.51.51 0 01-.05-.16.48.48 0 010-.35.46.46 0 01.27-.28 1 1 0 01.64-.11h.84a2 2 0 011.46.52 1 1 0 001.34-.08 1 1 0 00-.08-1.33 4 4 0 00-2-.95v-.34a.95.95 0 10-1.89 0v.28a2.81 2.81 0 00-1.19.32 2.4 2.4 0 00-1.19 1.35 2.35 2.35 0 00.12 1.8 2.38 2.38 0 00.69.83 3.72 3.72 0 002.52.58h.69a1.25 1.25 0 011.09.42c-.06.57-.99.64-1.39.64z"/><path class="cls-1" d="M32.94 44.86a2.28 2.28 0 001.51.57 2.25 2.25 0 001.5-.57l2.29-2 2.94 3.23 1.4-1.27-2.93-3.22 9.09-8.09v8.32h1.89V30.94l-7.91-7.08V15.6h-16.8v8.9l-7.66 6.42V53.6h21v-1.89H21.9l8.82-8.83zm15.33-13.5l-5.55 4.94v-9.91zm-7.44-13.87V38l-6.13 5.44a.37.37 0 01-.5 0l-6.39-5.69V17.49zM25.92 36.07l-5.27-4.69L25.92 27zm-5.77 14.72V33.47l9.16 8.15z"/></svg>