<svg data-name="Layer 1" xmlns="http://www.w3.org/2000/svg" viewBox="0 0 72 72"><path d="M42.26 20.74a1.67 1.67 0 00-1.22-.5l-13.19.21a1.14 1.14 0 00-1.14 1.14v16.37h-1.3a4 4 0 00-4 4v.6a4 4 0 004 4h1.71a1.63 1.63 0 001.16-.56 1.59 1.59 0 00.47-1.16v-18l12-.06L40.7 38h-1.38a4 4 0 00-4 4v.6a4 4 0 004 4H41a1.64 1.64 0 001.64-1.64l.09-22.94a1.68 1.68 0 00-.47-1.28zM25.41 44.52a2 2 0 01-1.4-.58 1.93 1.93 0 01-.58-1.4v-.6a2 2 0 012-2h1.33v4.56zm15.26 0h-1.35a2 2 0 01-2-2v-.6a2 2 0 012-2h1.37zm-12-19.61v-2.47l12-.19v2.6z" fill="silver"/></svg>