<svg id="Layer_1" data-name="Layer 1" xmlns="http://www.w3.org/2000/svg" viewBox="0 0 72 72"><defs><style>.cls-1{fill:silver}</style></defs><path class="cls-1" d="M50.64 42.55a4.06 4.06 0 00-2.75 1.16l-4.28-2.87a9.48 9.48 0 001.27-4.76 9.67 9.67 0 00-.58-3.28l4.22-2.35a4.12 4.12 0 002.86 1.18 4.6 4.6 0 00.64-.05 4.12 4.12 0 10-4.71-3.44 2.31 2.31 0 00.12.47l-4.08 2.27a9.68 9.68 0 00-7.07-4.41v-5.59a4.12 4.12 0 10-2.14 0v5.59A9.62 9.62 0 0027 31.06l-3.62-2.42a4.14 4.14 0 00.28-1.58 4.09 4.09 0 00-1.28-2.88A4 4 0 0019.4 23a4.11 4.11 0 00-2.89 1.28 4.07 4.07 0 00-1.13 2.94 4.12 4.12 0 004.12 4h.1a4.05 4.05 0 002.47-.92L26 33a9.67 9.67 0 00-.5 3.06 9.5 9.5 0 00.92 4.09l-4 2.22a4.11 4.11 0 10-2.74 7.18 3.63 3.63 0 00.65 0 4.11 4.11 0 003.43-4.71 4 4 0 00-.16-.62L27.58 42a9.66 9.66 0 006.56 3.69v3.73a4.12 4.12 0 102.14 0v-3.73a9.71 9.71 0 006.27-3.33l-.16.24 4.4 2.95a4.07 4.07 0 004 5.24h.1a4.11 4.11 0 002.89-1.28 4.12 4.12 0 00-3.09-7zm.43-17a2 2 0 012.27 1.66 2 2 0 11-2.27-1.66zm-31.52 3.6a2 2 0 11-.1-4h.05a2 2 0 011.37.55 1.94 1.94 0 01.61 1.38 2 2 0 01-1.93 2.06zm1.79 17.48a2 2 0 01-3.56-.86 2 2 0 011.65-2.27h.31a2 2 0 011.6 3.15zm11.89-29.7a2 2 0 112 2 2 2 0 01-2-2.01zm5.43 25.85a7.58 7.58 0 01-3.45.84 7.47 7.47 0 01-3.34-.79h.3v-.68a1.36 1.36 0 011.36-1.36h3.77a1.36 1.36 0 011.36 1.36zm-1.47 10.6a2 2 0 11-2-2 2 2 0 012 2zm3.48-12.13a3.51 3.51 0 00-3.37-2.61h-3.77a3.5 3.5 0 00-3.45 2.94 7.53 7.53 0 1110.59-.33zM52.18 48a2 2 0 01-1.39.61 2 2 0 01-1.43-3.35 2 2 0 011.39-.61 2 2 0 012 1.93 2 2 0 01-.57 1.42z"/><path class="cls-1" d="M35.41 31.56a3.19 3.19 0 103.19 3.19 3.18 3.18 0 00-3.19-3.19zm0 4.23a1 1 0 010-2.09 1 1 0 110 2.09z"/></svg>