<svg id="Layer_1" data-name="Layer 1" xmlns="http://www.w3.org/2000/svg" viewBox="0 0 72 72"><defs><style>.cls-1{fill:silver}</style></defs><path class="cls-1" d="M47.84 46.9h-7v-7.09h7zm-5-2h3v-3.09h-3zM34.7 32.7h-7v-7.09h7zm-5-2h3v-3.09h-3zM27.78 44.94h10.65v2H27.78zM27.78 40.14h10.65v2H27.78zM27.78 35.34h20.24v2H27.78zM36.99 25.73h11.03v2H36.99zM36.99 30.53h11.03v2H36.99z"/><path class="cls-1" d="M50 51.55H21a3.22 3.22 0 01-3.06-3.22V22.44h2v25.89a1.22 1.22 0 002.44 0l-.15-29H53v29.3a3 3 0 01-3 2.92zm-25.89-2H50a1 1 0 001-1V21.29H24.19l.14 27a3.27 3.27 0 01-.24 1.26z"/></svg>