<svg id="Layer_1" data-name="Layer 1" xmlns="http://www.w3.org/2000/svg" viewBox="0 0 72 72"><defs><style>.cls-1{fill:silver}</style></defs><path class="cls-1" d="M37.41 20a2 2 0 10-1.95 2 2 2 0 001.95-2z"/><circle class="cls-1" cx="17.72" cy="48.21" r="1.95"/><path class="cls-1" d="M33.17 48.21a1.95 1.95 0 101.94-1.94 1.94 1.94 0 00-1.94 1.94zM52.62 46.27a1.95 1.95 0 102 1.94 2 2 0 00-2-1.94z"/><path class="cls-1" d="M54.48 42.47v-5.85a2.25 2.25 0 00-2.25-2.25h-16v-5.65h-.06a7.41 7.41 0 10-1.19 0h-.75v5.65h-16a2.25 2.25 0 00-2.25 2.25v5.85a7.42 7.42 0 102-.21v-5.64a.25.25 0 01.25-.25h16v5.94a7.41 7.41 0 102 0v-6h16a.25.25 0 01.25.25v5.64a7.38 7.38 0 102 .21zM20 54.51a5.33 5.33 0 01-2.36.56 5.23 5.23 0 01-2.06-.42v-.48a.81.81 0 01.8-.81h2.81a.81.81 0 01.81.81zm3-4.85a5.32 5.32 0 01-1.26 3.45 2.81 2.81 0 00-2.6-1.75h-2.73a2.81 2.81 0 00-2.67 2 5.4 5.4 0 013.93-9.11 5.41 5.41 0 015.41 5.41zm8.53-24.61a5.4 5.4 0 013.93-9.12 5.4 5.4 0 014.15 8.87 2.81 2.81 0 00-2.6-1.75h-2.73a2.81 2.81 0 00-2.67 2zm1.86 1.29v-.48a.81.81 0 01.81-.81h2.81a.81.81 0 01.81.81v.34a5.32 5.32 0 01-2.36.55 5.5 5.5 0 01-1.99-.41zm4 28.17a5.33 5.33 0 01-4.43.15v-.49a.81.81 0 01.81-.81h2.81a.82.82 0 01.81.81zm3-4.85a5.32 5.32 0 01-1.26 3.45 2.8 2.8 0 00-2.59-1.75h-2.67a2.81 2.81 0 00-2.68 2 5.36 5.36 0 01-1.48-3.7 5.41 5.41 0 0110.82 0zm14.53 4.85a5.4 5.4 0 01-2.37.56 5.23 5.23 0 01-2.06-.42v-.48a.81.81 0 01.81-.81h2.81a.82.82 0 01.81.81zm1.79-1.4a2.83 2.83 0 00-2.6-1.75h-2.67a2.81 2.81 0 00-2.68 2 5.36 5.36 0 01-1.48-3.7 5.41 5.41 0 119.57 3.45z"/></svg>