<svg data-name="Layer 1" xmlns="http://www.w3.org/2000/svg" viewBox="0 0 72 72"><path d="M54.68 42.72v-5.85a2.25 2.25 0 00-2.25-2.25h-16V29a7.41 7.41 0 10-1.2 0h-.75v5.65h-16a2.25 2.25 0 00-2.25 2.25v5.85a7.38 7.38 0 102-.22v-5.66a.25.25 0 01.25-.25h16v5.94a7.41 7.41 0 102 0v-6h16a.25.25 0 01.25.25v5.69a7.42 7.42 0 102 .22zM30.33 21.59A5.41 5.41 0 1135.74 27a5.42 5.42 0 01-5.41-5.41zm-7 28.31a5.41 5.41 0 11-5.41-5.41 5.41 5.41 0 015.36 5.41zm17.45 0a5.41 5.41 0 11-5.41-5.41 5.41 5.41 0 015.36 5.41zm12.16 5.41a5.41 5.41 0 115.36-5.41 5.41 5.41 0 01-5.41 5.41z" fill="silver"/></svg>