<svg version="1.1" id="Layer_1" xmlns="http://www.w3.org/2000/svg" x="0" y="0" viewBox="0 0 72 72" xml:space="preserve"><style>.st0{fill:silver}</style><path class="st0" d="M26.6 37.4c.2-1.2 0-2.5-.6-3.6-1.3-2.6-3.8-3.8-5.8-2.8s-2.5 3.8-1.3 6.3c.5 1.1 1.4 2 2.5 2.6.6.3 1.2.5 1.9.5.5 0 1-.1 1.5-.3.9-.5 1.6-1.5 1.8-2.7zm-2-.3c-.1.5-.4 1-.8 1.3-.5.2-1 .1-1.5-.1-.7-.4-1.3-1-1.6-1.8-.7-1.5-.6-3.2.4-3.6.2-.1.4-.1.6-.1 1.1.2 2.1.9 2.6 2 .3.6.4 1.5.3 2.3zM49.4 31.8c-1-.7-2.2-.8-3.2-.3-1.2.4-2.2 1.2-2.9 2.2-1.7 2.3-1.8 5.1 0 6.4.5.4 1.2.6 1.9.6.5 0 .9-.1 1.4-.2 1.2-.4 2.2-1.2 2.9-2.2 1.6-2.4 1.6-5.2-.1-6.5zM47.8 37c-.5.7-1.2 1.2-2 1.5-.4.2-1 .2-1.4-.1-.7-.5-.7-2.1.5-3.6.5-.7 1.2-1.2 2-1.5.2-.1.5-.1.7-.1.2 0 .5.1.7.2.6.5.6 2.1-.5 3.6zM38.2 32.9c.3.1.6.2.9.2.9 0 1.7-.4 2.3-.9 1-.9 1.8-2 2.2-3.2.5-1.2.7-2.6.5-3.9-.1-1.7-1.4-3-3.1-2.9-.8 0-1.5.3-2 .9-2 1.8-3 4.4-2.7 7.1.1 1.1.8 2.2 1.9 2.7zm.5-5.9c.3-.9.9-1.7 1.6-2.4.3-.3.6-.4 1-.5h.2c.3.1.5.6.6 1.2.1 1 0 1.9-.4 2.8-.3.9-.9 1.7-1.6 2.4-.5.4-.9.6-1.2.4-.3-.1-.5-.6-.6-1.2-.1-.8 0-1.8.4-2.7zM27.8 32.4c.7.8 1.7 1.4 2.8 1.4.2 0 .4 0 .6-.1 1.2-.3 2.2-1.3 2.5-2.5.4-1.4.5-2.8.2-4.2-.7-3.3-3-5.6-5.2-5.2-2.2.5-3.4 3.4-2.7 6.8.3 1.4.9 2.7 1.8 3.8zm1.3-8.6h.2c.9 0 2.2 1.5 2.7 3.6.2 1.1.2 2.2-.1 3.2-.2.7-.6 1.1-1 1.2-.6 0-1.1-.3-1.5-.7-.7-.8-1.2-1.8-1.4-2.9-.5-2.3.2-4.2 1.1-4.4zM41 40.1c-1.6-3.5-5.8-5.1-9.3-3.5-1.3.6-2.3 1.5-3.1 2.7l-4.1 6.5c-.8 1.3-.9 3-.2 4.5.7 1.4 2.1 2.3 3.6 2.4.6 0 1.3-.1 1.8-.4l1.1-.6c2.4-1.4 5.3-1.2 7.6.3 1.5 1.1 3.5 1 4.8-.3 1.5-1.2 1.9-3.3 1-5L41 40.1zm1 10.1c-.7.6-1.7.7-2.4.1-2.9-2-6.7-2.2-9.7-.4l-1.1.6c-.2.1-.5.2-.7.2-.8-.1-1.6-.5-1.9-1.3-.4-.8-.4-1.7.1-2.5l4.1-6.5c.9-1.6 2.7-2.5 4.5-2.4 1.9.1 3.5 1.2 4.3 3l3.3 6.7c.4.8.2 1.9-.5 2.5z"/></svg>