<svg id="Layer_1" data-name="Layer 1" xmlns="http://www.w3.org/2000/svg" viewBox="0 0 72 72"><defs><style>.cls-1{fill:silver}</style></defs><path class="cls-1" d="M38.87 28.45h-6.23v3.29h-3.29V38h3.29v3.29h6.23V38h3.29v-6.26h-3.29zm1.29 5.29V36h-3.29v3.29h-2.23V36h-3.29v-2.26h3.29v-3.29h2.23v3.29zM35.76 21.21A5.21 5.21 0 1030.55 16a5.22 5.22 0 005.21 5.21zm0-8.42A3.21 3.21 0 1132.55 16a3.21 3.21 0 013.21-3.21z"/><path class="cls-1" d="M41 22.55H30.48A6.44 6.44 0 0024.05 29v13.57a2.63 2.63 0 002.62 2.62h1.69V53A2.62 2.62 0 0031 55.6h10.1a2.62 2.62 0 002.62-2.6v-7.8h1a2.62 2.62 0 002.62-2.59L47.46 29A6.44 6.44 0 0041 22.55zm4.3 20a.61.61 0 01-.62.61h-1.63a1.34 1.34 0 00-1.33 1.33V53a.62.62 0 01-.62.62H31a.62.62 0 01-.62-.62v-8.48A1.33 1.33 0 0029 43.19h-2.33a.62.62 0 01-.62-.62V29a4.44 4.44 0 014.43-4.43H41A4.43 4.43 0 0145.46 29z"/></svg>