<svg id="Layer_1" data-name="Layer 1" xmlns="http://www.w3.org/2000/svg" viewBox="0 0 72 72"><defs><style>.cls-1{fill:silver}</style></defs><path class="cls-1" d="M49.74 20a4.5 4.5 0 10-4.51-4.5 4.51 4.51 0 004.51 4.5zm0-7a2.5 2.5 0 11-2.51 2.5 2.5 2.5 0 012.51-2.5zM60.51 49l-2.14-5.43a1 1 0 00-.07-.42L57.05 40h2.19V29.61c0-4.93-2.51-8-6.56-8h-5.41c-4.17 0-7 3.22-7 8V40l2.6-.09-2.78 8.74 3.81.05v9.43h12.2v-9.24zm-3.27-19.39V38h-1l-1.61-4 1.64-8.51a8.22 8.22 0 01.97 4.12zm-4.57-6a4.71 4.71 0 011.87.38l-.46 2.4h-4.42v2h4l-1.12 5.86L54.09 38l3.51 8.9-14.67-.19 4.25-12.4-2.49-10a4.63 4.63 0 012.62-.74zM42.31 38v-8.4a7.8 7.8 0 01.74-3.41l2 8-1.27 3.69zm3.63 10.79h3.27v7.37h-3.27zm8.2 7.41h-2.93v-7.37h2.93zM24.66 20a4.5 4.5 0 10-4.5-4.5 4.51 4.51 0 004.5 4.5zm0-7a2.5 2.5 0 11-2.5 2.5 2.51 2.51 0 012.5-2.5zM29.17 21.61h-9a6.06 6.06 0 00-6 6.05V41h4.41v16.63h.07v.13h12.2V41h4.37V27.65a6 6 0 00-6.05-6.04zM20.64 41h8v14.76h-3V44.1h-2v11.66h-3zm12.57-2h-2.58v-7.59h-2V39h-8.06v-7.59h-2V39h-2.41V27.66a4.05 4.05 0 014-4.05h3.46v11h2v-6.2h4v-2h-4v-2.8h3.51a4 4 0 014 4z"/></svg>