<svg id="Layer_1" data-name="Layer 1" xmlns="http://www.w3.org/2000/svg" viewBox="0 0 72 72"><defs><style>.cls-1{fill:silver}</style></defs><path class="cls-1" d="M27 21.75a5.21 5.21 0 10-5.21-5.21A5.21 5.21 0 0027 21.75zm0-8.41a3.21 3.21 0 11-3.21 3.2 3.21 3.21 0 013.21-3.2zM60.79 49.71a3.84 3.84 0 103.84 3.84 3.84 3.84 0 00-3.84-3.84zm0 5.68a1.84 1.84 0 111.84-1.84 1.84 1.84 0 01-1.84 1.84zM32.91 44.73a2.63 2.63 0 002.62-2.6l.12-12.61a6.44 6.44 0 00-6.43-6.42h-4.41a6.43 6.43 0 00-6.42 6.42v12.59A2.62 2.62 0 0021 44.73h.68v9.79a2.63 2.63 0 002.63 2.63h6a2.61 2.61 0 00.93-.18h23.91v-6.44H32.91zm-2 9.79a.63.63 0 01-.62.63h-6a.63.63 0 01-.63-.63V44.06a1.32 1.32 0 00-1.33-1.33H21a.62.62 0 01-.62-.62V29.52a4.42 4.42 0 014.42-4.42h4.42a4.43 4.43 0 014.43 4.41l-.12 12.6a.62.62 0 01-.62.62h-.68a1.33 1.33 0 00-1.33 1.33zm2.18-2h20.06V55H33.09z"/></svg>