<svg id="Layer_1" data-name="Layer 1" xmlns="http://www.w3.org/2000/svg" viewBox="0 0 72 72"><defs><style>.cls-1{fill:silver}</style></defs><path class="cls-1" d="M20.07 29.77a5.16 5.16 0 10-5.16-5.16 5.16 5.16 0 005.16 5.16zm0-8.32a3.16 3.16 0 11-3.16 3.16 3.16 3.16 0 013.16-3.16zM53.21 32.62h-7.42a5.81 5.81 0 00-5.34 3.58H29.11a5.82 5.82 0 00-5.34-3.57h-7.41a5.78 5.78 0 00-5.77 5.77v2.67h2v-2.68a3.77 3.77 0 013.77-3.77h7.41a3.8 3.8 0 013.32 2 7.51 7.51 0 00-5 7.06v2h2v-2a5.5 5.5 0 015.5-5.5H39.7a5.5 5.5 0 015.5 5.5v2h2v-2a7.52 7.52 0 00-4.76-7 3.77 3.77 0 013.35-2.07h7.42A3.77 3.77 0 0157 38.39v3.51h2v-3.51a5.78 5.78 0 00-5.79-5.77zM49.5 29.77a5.16 5.16 0 10-5.16-5.16 5.17 5.17 0 005.16 5.16zm0-8.32a3.16 3.16 0 11-3.16 3.16 3.17 3.17 0 013.16-3.16z"/><path class="cls-1" d="M35.27 32.88a6 6 0 10-6-6 6 6 0 006 6zm0-10.09a4 4 0 11-4 4.05 4.05 4.05 0 014-4.05z"/></svg>