<svg id="Layer_1" data-name="Layer 1" xmlns="http://www.w3.org/2000/svg" viewBox="0 0 72 72"><defs><style>.cls-1{fill:silver}</style></defs><path class="cls-1" d="M20.11 33.26A6.22 6.22 0 1013.89 27a6.23 6.23 0 006.22 6.26zm0-10.44A4.22 4.22 0 1115.89 27a4.22 4.22 0 014.22-4.18zM51.16 33.26A6.22 6.22 0 1045 27a6.23 6.23 0 006.16 6.26zm0-10.44A4.22 4.22 0 1147 27a4.22 4.22 0 014.16-4.18zM36 39.64A4.61 4.61 0 1031.42 35 4.61 4.61 0 0036 39.64zm0-7.22A2.61 2.61 0 1133.42 35 2.61 2.61 0 0136 32.42z"/><path class="cls-1" d="M59.69 37.48a5.9 5.9 0 00-4.2-1.74h-7.34a4.65 4.65 0 00-4.64 4.64v.94H29.25v-.94a4.64 4.64 0 00-4.64-4.64h-7.75a5.94 5.94 0 00-5.93 5.93v8.74h50.5v-8.73a5.9 5.9 0 00-1.74-4.2zm-15.62 5.88a3.43 3.43 0 013 3.39v1.64H25v-1.64a3.44 3.44 0 013.43-3.43h15.08zm-31.16-1.72a3.88 3.88 0 011.16-2.78 4.06 4.06 0 012.78-1.14h7.76a2.64 2.64 0 012.64 2.64v1.07A5.43 5.43 0 0023 46.75v1.64H13zm46.52 6.76H49.11v-1.65a5.42 5.42 0 00-3.6-5.1v-1.27a2.65 2.65 0 012.64-2.64h7.35a3.94 3.94 0 013.93 3.94z"/></svg>