<svg id="Layer_1" data-name="Layer 1" xmlns="http://www.w3.org/2000/svg" viewBox="0 0 72 72"><defs><style>.cls-1{fill:silver}</style></defs><g id="Group_1354" data-name="Group 1354"><path id="Path_1535" data-name="Path 1535" class="cls-1" d="M34.89 51.55a1.44 1.44 0 011 .43 1.46 1.46 0 01.43 1 1.48 1.48 0 01-.91 1.36 1.45 1.45 0 01-1.12 0 1.47 1.47 0 01.56-2.83z"/><path class="cls-1" d="M43.45 57.86H25.29a4.2 4.2 0 01-4.19-4.19V18a4.2 4.2 0 014.19-4.2h18.16a4.2 4.2 0 014.2 4.2v35.67a4.2 4.2 0 01-4.2 4.19zm-18.16-42A2.2 2.2 0 0023.1 18v35.67a2.2 2.2 0 002.19 2.19h18.16a2.21 2.21 0 002.2-2.2V18a2.21 2.21 0 00-2.2-2.2z"/><path class="cls-1" d="M37.2 20.13h-5.66a1 1 0 010-2h5.66a1 1 0 010 2zM21.61 21.91h24.36v2H21.61zM21.61 48.07h24.36v2H21.61zM35.2 43.06a1.49 1.49 0 01-1-.41l-5.3-5a4.2 4.2 0 01-1.32-3 4.27 4.27 0 011.18-3l.13-.13a4.26 4.26 0 015.89 0l.27.26.28-.26a4.26 4.26 0 016 .13 4.26 4.26 0 01-.14 6l-4.87 5a1.53 1.53 0 01-1.12.41zm-5.08-10a2.26 2.26 0 00.11 3.14l5 4.68 4.56-4.66A2.25 2.25 0 1036.67 33L35 34.51 33.36 33a2.38 2.38 0 00-1.61-.63 2.24 2.24 0 00-1.58.69z"/></g></svg>