<svg data-name="Layer 1" xmlns="http://www.w3.org/2000/svg" viewBox="0 0 72 72"><path d="M52.49 44.06l-4.21-5.21a2.84 2.84 0 00-3.74-.52c-2.7 1.72-6.65 2.88-10.08-1.36s-1.76-8 .19-10.48a3.51 3.51 0 00.05-4.4l-4-4.94a3.33 3.33 0 00-4.53-.49 10.9 10.9 0 00-4.35 7.65c-.72 5.34 1.58 11.75 6.3 17.58 6.11 7.55 12.38 9.11 15.58 9.3h1.06a10.63 10.63 0 007.3-2.57 3.41 3.41 0 00.43-4.56zM27.36 18.27a1.36 1.36 0 01.82-.28 1.31 1.31 0 011 .44l4 4.9a1.51 1.51 0 010 1.91 14.08 14.08 0 00-.87 1.25l-5.91-7.3a7.69 7.69 0 01.96-.92zM43.84 49.2c-4.88-.36-10.05-3.48-14.17-8.57-4.38-5.4-6.51-11.25-5.87-16.05a10.18 10.18 0 011.25-3.76L31 28.13a.89.89 0 00.29.22 9.46 9.46 0 001.64 9.88c3 3.7 6.36 4 9 3.38a.2.2 0 000 .08l5.77 7.13a10.88 10.88 0 01-3.86.38zm6.87-2a7.28 7.28 0 01-1.09.8l-5.71-7a13.32 13.32 0 001.73-1 .85.85 0 011.1.13l4.17 5.15a1.4 1.4 0 01-.2 1.9z" fill="silver"/></svg>