<svg id="Layer_1" data-name="Layer 1" xmlns="http://www.w3.org/2000/svg" viewBox="0 0 72 72"><defs><style>.cls-1{fill:silver}</style></defs><path class="cls-1" d="M34.45 50.46a1.38 1.38 0 101.37 1.37 1.37 1.37 0 00-1.37-1.37z"/><path class="cls-1" d="M42.45 15.13h-17a4 4 0 00-4 4v33.3a4 4 0 004 4h17a4 4 0 004-4V19.12a4 4 0 00-4-3.99zm-17 2h17a2 2 0 012 2v3.57H23.49v-3.58a2 2 0 011.98-1.99zm19 7.56v22.45H23.49V24.69zm-2 29.73h-17a2 2 0 01-2-2v-3.28h20.98v3.29a2 2 0 01-1.98 1.99z"/><path class="cls-1" d="M31.32 21.16h5.28a1 1 0 000-2h-5.28a1 1 0 000 2zM26.26 43.49a1.21 1.21 0 001 .58h13.8a1.22 1.22 0 001-.59 1.57 1.57 0 00.1-1.48l-7-13.89a1.24 1.24 0 00-1.1-.7 1.24 1.24 0 00-1.09.72L26.19 42a1.56 1.56 0 00.07 1.49zm7.82-13.08L40 42.07H28.38z"/><path class="cls-1" d="M34.1 38.33a1 1 0 001-1v-2.39a1 1 0 00-2 0v2.39a1 1 0 001 1zM34.86 39.21a1 1 0 00-1.09-.21.93.93 0 00-.33.21 1.06 1.06 0 00-.22.33 1.07 1.07 0 000 .76 1.19 1.19 0 00.22.33 1.11 1.11 0 00.32.21 1 1 0 00.39.08 1 1 0 00.71-.29 1.15 1.15 0 00.21-.33 1 1 0 00.08-.38 1.05 1.05 0 00-.29-.71z"/></svg>