<svg id="Layer_1" data-name="Layer 1" xmlns="http://www.w3.org/2000/svg" viewBox="0 0 72 72"><defs><style>.cls-1{fill:silver}</style></defs><path class="cls-1" d="M35.32 34.64a4.19 4.19 0 10-4.19-4.19 4.2 4.2 0 004.19 4.19zm0-6.26a2.07 2.07 0 11-2.06 2.07 2.07 2.07 0 012.06-2.07z"/><path class="cls-1" d="M55.36 16H13.14A1.18 1.18 0 0012 17.13v33.81l-.21.3.21.15v8a1.18 1.18 0 001.18 1.18h42.18a1.18 1.18 0 001.18-1.18V17.13A1.18 1.18 0 0055.36 16zm-41.28 2.07h40.33v32.14l-9.15-9.49a5.46 5.46 0 00-7.59-.07l-1.1 1c-1.66-2-3.06-3.53-3.86-4.34a7.88 7.88 0 00-6.46-2.42 8.13 8.13 0 00-5.93 3.77c-1 1.56-4.07 6-6.24 9.16zm0 33.53c1.72-2.48 6.64-9.63 8-11.75A6 6 0 0126.47 37a5.84 5.84 0 014.74 1.82C33.9 41.55 43.87 53.8 47.59 58.4H14.08zm36.24 6.8C48.8 56.51 42.7 49 38 43.31l1.18-1.11a3.34 3.34 0 014.62 0l10.61 11.07v5.13z"/></svg>