<svg id="Layer_1" data-name="Layer 1" xmlns="http://www.w3.org/2000/svg" viewBox="0 0 72 72"><defs><style>.cls-1{fill:silver}</style></defs><path class="cls-1" d="M36.87 29.4a4.49 4.49 0 10-4.49-4.49 4.49 4.49 0 004.49 4.49zm0-6.69a2.21 2.21 0 11-2.21 2.2 2.21 2.21 0 012.21-2.2z"/><path class="cls-1" d="M59.57 9.4H11.86v39.7h47.71zm-2.28 2.27V46.1l-9.8-10.2a5.84 5.84 0 00-8.12-.07L38.18 37c-1.56-1.88-3-3.58-4.11-4.66a8.41 8.41 0 00-6.91-2.59 8.68 8.68 0 00-6.35 4l-6.67 10.3V11.67zM43.13 46.82H15.06c1.82-2.82 6.26-9.7 7.66-11.82a6.43 6.43 0 014.67-3 6.22 6.22 0 015.07 1.94c2.66 2.62 8.09 9.55 10.67 12.88zm-3.5-8.1l1.3-1.23a3.58 3.58 0 015 0l8.95 9.32H46c-.95-1.23-3.63-4.72-6.37-8.09zM11.34 53.24h48.58v2.28H11.34zM11.34 58.25h48.58v2.28H11.34z"/></svg>