<svg data-name="Layer 1" xmlns="http://www.w3.org/2000/svg" viewBox="0 0 72 72"><path d="M53.86 26a4.19 4.19 0 00-6-.66l-5.81 4.86-13.9-5.9a3.39 3.39 0 00-3.53.54L23.23 26a1.57 1.57 0 000 2.41L34 37l-7.67 6.5a2.45 2.45 0 01-1.86.56l-3.61-.4a2.41 2.41 0 00-1.86.61l-1.09 1.06a1.49 1.49 0 00-.43 1.31 1.52 1.52 0 00.86 1.14l6 2.65a.58.58 0 01.35.41l1.54 6.26a1.53 1.53 0 001 1 1.51 1.51 0 001.36-.2l1.44-1a2.4 2.4 0 00.85-1.77l.06-3.42a2.46 2.46 0 01.87-1.82l7.59-6.43L46 55.27a1.57 1.57 0 002.37.43l1.39-1.18a3.42 3.42 0 001.11-3.4l-3.48-14.46 5.7-4.83a4.29 4.29 0 00.77-5.83zm-2.11 4.26l-5.93 5a1.63 1.63 0 00-.52 1.61l3.55 14.74a1.3 1.3 0 01-.43 1.32l-.91.77L41 42a1.71 1.71 0 00-2.6-.47l-7.92 6.71a4.52 4.52 0 00-1.6 3.37l-.07 3.42a.41.41 0 010 .16l-.69.5-1.32-5.37a2.74 2.74 0 00-1.53-1.82L20 46.24l.44-.43a.28.28 0 01.22-.07l3.61.41a4.57 4.57 0 003.44-1l8-6.78a1.72 1.72 0 000-2.64l-10.66-8.54.91-.77a1.35 1.35 0 011.38-.21l14.17 6a1.6 1.6 0 001.66-.21l6-5.08a2.1 2.1 0 011.6-.48 2.06 2.06 0 011.45.82 2.23 2.23 0 01-.47 2.98z" fill="silver"/></svg>