<svg data-name="Layer 1" xmlns="http://www.w3.org/2000/svg" viewBox="0 0 72 72"><path d="M48.62 21.88c-.25 0-6.28.12-9.27 2.74a14.36 14.36 0 00-3.29 5.45V18.65h-2v20.2a11.55 11.55 0 00-3.31-4.21c-2.46-1.61-6.8-.89-7.29-.8l-1.1.19.32 1.08c.06.18 1.34 4.43 3.83 6 1.83 1.19 5.08 1.38 6.91 1.38a1.76 1.76 0 00.64-.11v4.89A8.21 8.21 0 0029 49.82l-.47.48a1.7 1.7 0 00.07 2.38 1.67 1.67 0 001.14.45h10.8a1.67 1.67 0 001.67-1.67 1.7 1.7 0 00-.67-1.35l-1.6-1.2a8.39 8.39 0 00-3.88-1.57V35.28a1.7 1.7 0 00.5.09h.24c2.46-.34 6.91-1.21 9.16-3.19 3-2.64 3.65-8.92 3.67-9.19l.11-1.11zm-21 17.6A8.75 8.75 0 0125 35.66c1.44-.12 3.52-.09 4.66.65a10.94 10.94 0 013 4.22 10.93 10.93 0 01-5.06-1.05zm12 11.65h-9a6.26 6.26 0 018.22-.61zm5.09-20.47c-1.27 1.12-4.07 2.08-7.57 2.63 1-3.39 2.32-6.05 3.59-7.16 1.74-1.53 5-2 6.81-2.18-.41 2.05-1.26 5.28-2.89 6.71z" fill="silver"/></svg>