<svg version="1.1" id="Layer_1" xmlns="http://www.w3.org/2000/svg" x="0" y="0" viewBox="0 0 72 72" xml:space="preserve"><style>.st0{fill:#bbbdc4}</style><path class="st0" d="M55.3 41.8l-2.5-.5c-.5-.1-1.1.2-1.2.8v.2l-.4-.2c-2.6-1-5.4-1.1-8.1-.2-.2.1-.5.2-.7.3h-.1c-.2.1-.5.1-.7.1l-3.2-.7c-2.2-.4-4.3.8-5.1 2.8v.1L28.7 42c-2-1.2-4.3-1.4-6.4-.6-1 .4-1.6 1.6-1.2 2.6.1.4.4.7.7.9l11.5 8.5c1.1.8 2.3 1.2 3.7 1.2h.4l11.9-.9c-.1.5.2 1.1.8 1.2l2.5.5c.3.1.5.1.8.1 1.8 0 3.4-1.3 3.8-3.1l1.2-6.1c.3-2-1-4.1-3.1-4.5zM37.1 52.7c-1 .1-1.9-.2-2.7-.8l-11.5-8.6c.6-.2 1.3-.3 1.9-.3 1 0 2 .3 2.9.8l6.5 3.4c.1.1.3.2.4.2.1.1.3.1.4.1l8.3 1.5c.5.1 1.1-.3 1.2-.8.1-.5-.3-1.1-.8-1.2l-8.3-1.5-.1-.1c-.1 0-.1-.1-.1-.1 0-.1-.1-.2 0-.3.4-1.1 1.6-1.8 2.8-1.6l3.1.7c.7.2 1.4.1 2-.2h.1c.2-.1.4-.2.6-.2 2.2-.7 4.5-.7 6.5.2l.5.2-1.6 7.6-12.1 1zM56.3 46l-1.2 6.1c-.2 1-1.2 1.7-2.2 1.5l-1.9-.4 2-9.8 1.9.4c1 .2 1.7 1.1 1.4 2.2zM57.8 38c0-.6-.4-1-1-1H55c-.2-9.1-6.9-16.6-15.6-17.9v-.6c0-.8-.3-1.5-.9-2-.6-.5-1.3-.8-2-.8-1.5 0-2.8 1.3-2.8 2.8v.5c-8.8 1.3-15.5 8.9-15.7 18h-1.4c-.6 0-1 .4-1 1s.4 1 1 1h40.2c.6 0 1-.4 1-1zm-22-19.5c0-.5.4-.8.8-.8.3 0 .4.1.6.2s.3.4.3.6v.4H35.8v-.4zm.8 2.3c7.5 0 13.9 5.1 15.9 12H20.7c2-6.9 8.3-12 15.9-12zm-16.3 14h32.6c.1.7.2 1.5.2 2.2h-33c0-.7.1-1.5.2-2.2z"/></svg>