<svg id="Layer_1" data-name="Layer 1" xmlns="http://www.w3.org/2000/svg" viewBox="0 0 72 72"><defs><style>.cls-1{fill:silver}</style></defs><path class="cls-1" d="M24.09 39.45h2v-4.12h21.55v4.12h2v-4.12h3.52v-6.61H37.37v-6.28c1.14-.36 2.54-1.52 2.54-5 0-4.05-1.93-4.9-3.54-4.9s-3.54.85-3.54 4.9c0 3.51 1.39 4.67 2.54 5v6.28H20.58v6.61h3.51zm12.28-24.94c.5 0 1.54 0 1.54 2.9 0 1.45-.27 3.18-1.54 3.18s-1.54-1.73-1.54-3.18c0-2.9 1.04-2.9 1.54-2.9zM22.58 30.72h28.58v2.61H22.58zM32.89 47.87A3.88 3.88 0 1036.76 44a3.88 3.88 0 00-3.87 3.87zm5.75 0A1.88 1.88 0 1136.76 46a1.88 1.88 0 011.88 1.87zM45.29 45.53a3.88 3.88 0 103.87-3.87 3.88 3.88 0 00-3.87 3.87zm5.75 0a1.88 1.88 0 11-1.88-1.87A1.88 1.88 0 0151 45.53zM24.26 49.41a3.88 3.88 0 10-3.88-3.88 3.88 3.88 0 003.88 3.88zm0-5.75a1.88 1.88 0 11-1.88 1.87 1.88 1.88 0 011.88-1.87z"/><path class="cls-1" d="M52.27 50.8h-5.85a3.9 3.9 0 00-3.61 2.45H31.28a3.9 3.9 0 00-3.62-2.45h-6.18a4.92 4.92 0 00-4.93 4.93v4.16H57.2v-4.16a4.93 4.93 0 00-4.93-4.93zm-6.89 7.08H28.14v-.09a2.53 2.53 0 012.53-2.53h12.18a2.53 2.53 0 012.53 2.53zm-26.84-2.17a2.92 2.92 0 012.93-2.93h6.18a1.9 1.9 0 011.49.73 4.53 4.53 0 00-3 4.25v.09h-7.6zm36.66 2.17h-7.82v-.1a4.51 4.51 0 00-2.57-4.07 1.87 1.87 0 011.61-.91h5.85a2.93 2.93 0 012.93 2.93z"/></svg>