<svg id="Layer_1" data-name="Layer 1" xmlns="http://www.w3.org/2000/svg" viewBox="0 0 72 72"><defs><style>.cls-1{fill:silver}</style></defs><path class="cls-1" d="M47.83 51.86a9.13 9.13 0 00-9.13-9.16H26.2a9.15 9.15 0 00-9.08 8.18A20.67 20.67 0 0144 20.08l1.15-1.83A22.82 22.82 0 0017.07 54v.1h.12a22.8 22.8 0 0038.36-13.41l-2.15-.29a20.46 20.46 0 01-5.57 11.46zM19.24 53v-1.2a7 7 0 017-7H38.7a7 7 0 017 7v2a20.55 20.55 0 01-26.46-.8z"/><path class="cls-1" d="M24.36 31.74a8.1 8.1 0 108.09-8.1 8.1 8.1 0 00-8.09 8.1zm14 0a5.93 5.93 0 11-5.93-5.93 5.94 5.94 0 015.95 5.93zM53.81 23.67A4.49 4.49 0 0052 31.78a4.46 4.46 0 002.57.82 5.27 5.27 0 00.79-.07 4.5 4.5 0 00-1.56-8.86zM55 30.39a2.25 2.25 0 01-1.75-.39 2.33 2.33 0 01.93-4.21 2.33 2.33 0 11.82 4.6z"/><path class="cls-1" d="M64.61 27.17l-1.11-.43a.12.12 0 01-.07-.11 9.23 9.23 0 00-.43-1.82.11.11 0 010-.11l.74-.94a1.65 1.65 0 00-.06-2.13L62.16 20a1.62 1.62 0 00-2-.32l-1 .6s-.08 0 0 0a5.72 5.72 0 00-1.64-.73l-.25-.06-.32-1.24a1.65 1.65 0 00-1.8-1.25l-2.2.16a1.63 1.63 0 00-1.51 1.41l-.16 1.27a.13.13 0 01-.07.09 8.39 8.39 0 00-.94.49.13.13 0 01-.12 0L49 19.83a1.63 1.63 0 00-2.08.41L45.54 22a1.64 1.64 0 000 2.07l.9 1.06a.14.14 0 010 .14 4.28 4.28 0 00-.15.51 9.09 9.09 0 00-.2 1 .1.1 0 01-.07.1l-1.32.59a1.62 1.62 0 00-1 1.89l.52 2.15a1.64 1.64 0 001.62 1.25l1.49-.06s.08 0 .1.06a10 10 0 001 1.19.11.11 0 010 .11l-.37 1.47a1.62 1.62 0 00.91 1.91l2 .91a1.56 1.56 0 00.67.15 1.67 1.67 0 001.32-.67l.84-1.18a.16.16 0 01.11 0 8.55 8.55 0 001.6 0 .1.1 0 01.1 0l.89 1.14a1.62 1.62 0 002.07.46l2-1a1.65 1.65 0 00.82-1.9l-.38-1.26a.13.13 0 010-.11 14 14 0 001.18-1.44h1.33a1.64 1.64 0 001.61-1.35l.48-2.19a1.65 1.65 0 00-1-1.83zm-1.45 3.18h-.88a2.26 2.26 0 00-1.93 1.06 6.38 6.38 0 01-.81 1.05 2.27 2.27 0 00-.54 2.22l.24.83-1.18.62-.64-.81a2.28 2.28 0 00-2-.87 6.86 6.86 0 01-1.2 0 2.28 2.28 0 00-2.05.94l-.59.81-1.22-.55.27-1.06a2.28 2.28 0 00-.57-2.14 6.16 6.16 0 01-.71-.89 2.29 2.29 0 00-2-1h-1L46 29.29l.95-.42a2.3 2.3 0 001.34-1.81 6.53 6.53 0 01.14-.77c0-.13.07-.25.11-.36a2.32 2.32 0 00-.41-2.22L47.5 23l.84-1.05.79.43a2.28 2.28 0 002.26-.06 6.7 6.7 0 01.7-.37 2.29 2.29 0 001.33-1.79l.11-.82 1.34-.1.24.93a2 2 0 001.49 1.46l.27.06a3.25 3.25 0 011.08.5 2.3 2.3 0 002.26 0l.63-.38.9 1-.49.62a2.33 2.33 0 00-.32 2.22 6.5 6.5 0 01.36 1.35 2.28 2.28 0 001.42 1.8l.69.27z"/></svg>