<svg id="Layer_1" data-name="Layer 1" xmlns="http://www.w3.org/2000/svg" viewBox="0 0 72 72"><defs><style>.cls-1{fill:silver}</style></defs><path class="cls-1" d="M36.61 22.87a6.32 6.32 0 106.32 6.32 6.33 6.33 0 00-6.32-6.32zm0 10.64a4.32 4.32 0 114.32-4.32 4.32 4.32 0 01-4.32 4.32z"/><path class="cls-1" d="M36.42 16.11a17.5 17.5 0 1017.5 17.5 17.52 17.52 0 00-17.5-17.5zm-9.66 29.6v-1.27a5.11 5.11 0 015.11-5.11h9.48a5.11 5.11 0 015.11 5.11v1a15.43 15.43 0 01-19.7.31zm21.62-2.25a7.1 7.1 0 00-7-6.13h-9.51a7.12 7.12 0 00-7.08 6.49 15.49 15.49 0 1123.59-.36z"/></svg>