<svg id="Layer_1" data-name="Layer 1" xmlns="http://www.w3.org/2000/svg" viewBox="0 0 72 72"><defs><style>.cls-1{fill:silver}</style></defs><path class="cls-1" d="M62.35 23.6a1.09 1.09 0 00-1.54 0l-2.3 2.4a8.43 8.43 0 00-6.2-2.72h-.73a23 23 0 10-34.91 29.46v.11h.12a22.93 22.93 0 0038.53-13.19 8.48 8.48 0 004.48-11.88l2.57-2.65a1.08 1.08 0 00-.02-1.53zm-43.5 28.19v-1.21a7 7 0 017-7h12.57a7 7 0 017 7v2a20.65 20.65 0 01-26.58-.77zm28.76-1.17a9.19 9.19 0 00-9.19-9.18H25.85a9.19 9.19 0 00-9.13 8.23A20.79 20.79 0 1149.3 23.84a8.47 8.47 0 003 16.38h.7a20.75 20.75 0 01-5.39 10.4zm11-18.88A6.33 6.33 0 1157 27.55l-4.44 4.56-1.5-1.56a1.09 1.09 0 00-1.57 1.5l2.17 2.25a1.3 1.3 0 00.9.36h.05a1.38 1.38 0 00.91-.41l4.66-4.79a6.21 6.21 0 01.43 2.28z"/><path class="cls-1" d="M32.14 22.23a8.14 8.14 0 108.14 8.14 8.15 8.15 0 00-8.14-8.14zm0 14.11a6 6 0 116-6 6 6 0 01-6 6z"/></svg>