<svg id="Layer_1" data-name="Layer 1" xmlns="http://www.w3.org/2000/svg" viewBox="0 0 72 72"><defs><style>.cls-1{fill:silver}</style></defs><path class="cls-1" d="M29 38.73H17.28a1 1 0 000 2H29a1 1 0 000-2zM29 33.22H17.28a1 1 0 000 2H29a1 1 0 000-2zM40.55 30.49a6.74 6.74 0 106.73 6.73 6.74 6.74 0 00-6.73-6.73zm0 11.46a4.73 4.73 0 114.72-4.73A4.72 4.72 0 0140.55 42z"/><path class="cls-1" d="M54.61 27.89h-4.14a10.43 10.43 0 01-5.24-1.31 9.79 9.79 0 00-9.65 0 10.58 10.58 0 01-5.27 1.32H13.48A2.48 2.48 0 0011 30.36v13.31a2.46 2.46 0 002.13 2.43 1 1 0 00-.15.5 1 1 0 001 1h3.44a1 1 0 001-1 1 1 0 00-.13-.46h12a10.37 10.37 0 015.25 1.31 9.75 9.75 0 009.64 0 10.62 10.62 0 014.94-1.31 1 1 0 00.88 1.47h3.44a1 1 0 001-1 1.06 1.06 0 00-.2-.57 2.45 2.45 0 001.79-2.36V30.35a2.47 2.47 0 00-2.42-2.46zM44.23 45.7a7.79 7.79 0 01-7.68 0 12.58 12.58 0 00-6.08-1.58h-17a.46.46 0 01-.46-.45V30.36a.47.47 0 01.46-.46h16.82a12.36 12.36 0 006.27-1.58 7.76 7.76 0 017.68 0 12.4 12.4 0 006.24 1.57h4.13a.46.46 0 01.45.46v13.32a.45.45 0 01-.45.45H50.5a12.54 12.54 0 00-6.27 1.58z"/></svg>