<svg id="Layer_1" data-name="Layer 1" xmlns="http://www.w3.org/2000/svg" viewBox="0 0 72 72"><defs><style>.cls-1{fill:silver}</style></defs><path class="cls-1" d="M36.34 39a1 1 0 00-1-1h-.6l-3-4.86.8-3.85h.5a1 1 0 000-2h-2.76a1 1 0 000 2h.26L30 31.8l-3.29-2.49H27a1 1 0 000-2h-4.41a1 1 0 000 2h.9a1.42 1.42 0 00.12.13l6.27 4.76a.89.89 0 00.29.15L32.4 38h-.08a1 1 0 000 2h3a1 1 0 001.02-1z"/><path class="cls-1" d="M66.21 35.76c-3.91-3.17-10.72-8.67-12.52-10-3.6-2.63-6.9-3.23-9.52-1.73-1.22.69-2.73 1.61-3.69 2.22l-5-4.3c-3.56-2.76-7.3-3.9-10.79-3.3A11.47 11.47 0 0017 24.08C14.28 28.2 8.47 37.83 5.24 43.2a4.17 4.17 0 000 4.16 2.9 2.9 0 002.56 1.55l3.76-.06L32 49v-2l-20.44-.12-3.78.06a1 1 0 01-.79-.55 2.2 2.2 0 010-2.13c3.22-5.36 9-15 11.67-19.06A9.6 9.6 0 0125 20.64c2.94-.5 6.13.51 9.2 2.88L60 45.69a2.26 2.26 0 01-.06 1.42h-6.81v2h7.09c.34 0 1.17-.14 1.62-1.37.35-1 .44-2.71-.49-3.51l-2.28-2h5.46a3 3 0 002.78-2.16 3.94 3.94 0 00-1.1-4.31zm-.83 3.67c-.08.25-.35.83-.89.83h-7.78L42.07 27.63c.92-.57 2.11-1.29 3.09-1.84 2.39-1.37 5.32.12 7.35 1.61 1.76 1.28 8.55 6.76 12.44 9.91a2 2 0 01.43 2.12z"/><path class="cls-1" d="M42 46.31a1.12 1.12 0 00-.47 1.19l2.17 11.73a1.09 1.09 0 00.74.85l.65.16 1.82-1.7 2 3.11a1.65 1.65 0 001.07.73 2 2 0 00.35 0 1.61 1.61 0 00.92-.28L53 61a1.72 1.72 0 00.73-1.1 1.7 1.7 0 00-.3-1.29l-2-2.76 1.79-.65a1.09 1.09 0 00.72-.89v-.7l-10.63-7.26a1.15 1.15 0 00-1.31-.04zM50.86 54l-1.19.43a1.16 1.16 0 00-.54 1.76l2.45 3.4-1.13.75L48 56.6a1.17 1.17 0 00-.83-.51h-.14a1.13 1.13 0 00-.78.31l-.91.85-1.48-8.07zM38.36 50.4l-1.4.7a1 1 0 00.45 1.9 1 1 0 00.44-.1l1.41-.7a1 1 0 00.44-1.34 1 1 0 00-1.34-.46zM43.9 44.37h.2a1 1 0 001-.8l.3-1.57a1 1 0 00-2-.39l-.32 1.59a1 1 0 00.82 1.17zM38.08 48.27h.09a1 1 0 001-.92 1 1 0 00-.91-1.08l-1.47-.13a1 1 0 00-.17 2zM47.22 46.68a1 1 0 00.56-.17l1.41-1a1 1 0 10-1.13-1.65l-1.4 1a1 1 0 00-.27 1.39 1 1 0 00.83.43zM40.35 42a1 1 0 10-1.68 1.09l1 1.46a1 1 0 00.84.46 1 1 0 00.54-.17 1 1 0 00.29-1.38z"/></svg>