<svg id="Layer_1" data-name="Layer 1" xmlns="http://www.w3.org/2000/svg" viewBox="0 0 72 72"><defs><style>.cls-1{fill:silver}</style></defs><path class="cls-1" d="M38.43 26.17h-1.9v-1.62a1 1 0 10-2 0v1.62h-2v-1.26a1.69 1.69 0 00-.59-1.28V12.35a1 1 0 00-2 0v11.11a1.68 1.68 0 00-.83 1.45v1.26h-.4A3.69 3.69 0 0025 29.86v7.61A4.93 4.93 0 0026.45 41a3 3 0 01.87 2.11v6.7a1.58 1.58 0 001.58 1.58h9.3a1.58 1.58 0 001.58-1.58v-6.7a3 3 0 01.88-2.11 5 5 0 001.46-3.53v-7.61a3.69 3.69 0 00-3.69-3.69zm1.69 11.3a2.93 2.93 0 01-.88 2.11 5 5 0 00-1.46 3.53v6.28h-8.46v-6.28a5 5 0 00-1.46-3.53 3 3 0 01-.86-2.11v-7.61a1.68 1.68 0 011.68-1.69h9.76a1.69 1.69 0 011.69 1.69z"/><path class="cls-1" d="M30.2 30.55h-1v6.06h8.7v-6.03zm5.74 4.12h-4.78v-2.12h4.78zM31.48 41.84h4.32v2h-4.32zM31.48 45.43h4.32v2h-4.32z"/></svg>