<svg id="Layer_1" data-name="Layer 1" xmlns="http://www.w3.org/2000/svg" viewBox="0 0 72 72"><defs><style>.cls-1{fill:silver}</style></defs><path class="cls-1" d="M33.45 30.42a3.54 3.54 0 10-3.53-3.54 3.55 3.55 0 003.53 3.54zm0-5.07a1.54 1.54 0 11-1.53 1.53 1.54 1.54 0 011.53-1.53z"/><path class="cls-1" d="M42.65 36.08l-1.28-1.34.7-3A19.73 19.73 0 0039.66 18l-4.09-6.9a2.2 2.2 0 00-3.8 0L28.29 17a23.37 23.37 0 00-2.85 16l.56 2-1 1.08a10.9 10.9 0 00-3.07 8.27 11.24 11.24 0 001 3.85l1.37 3a1.48 1.48 0 00.86.69 1.45 1.45 0 00.41.06 1.42 1.42 0 00.69-.18 1.41 1.41 0 00.68-.85l.64-4.06a10.68 10.68 0 011-2.91l1.46 5.39h1.55a.5.5 0 01-.08.07 3.62 3.62 0 00-1.2 2.59c0 1.55 2.09 6.42 2.73 7.88l.96 2.05.92-2.08c.64-1.46 2.73-6.33 2.73-7.88a3.64 3.64 0 00-1.08-2.57h-.06H38l1.2-5.4a10 10 0 01.9 2.81l.61 3.94v.14a1.47 1.47 0 00.69.84 1.37 1.37 0 00.68.17 1.5 1.5 0 001.31-.81l1.34-2.92a10.93 10.93 0 00-2.11-12.11zM35.61 52A25 25 0 0134 56.88 25 25 0 0132.31 52 1.66 1.66 0 0134 50.31a1.63 1.63 0 011.16.48 1.68 1.68 0 01.45 1.21zm-2.12-39.9a.24.24 0 01.29-.07l3.45 5.8h-7.11zm-4.42 7.73h9.3a17.65 17.65 0 011.75 11.49l-2.79 12h-7l-2.94-10.81a21.26 21.26 0 011.68-12.68zm-3.55 26.69l-.32 2-.54-1.18a9.29 9.29 0 01-.78-3.15 8.87 8.87 0 012.51-6.75l.22-.23 1.1 4a12.36 12.36 0 00-2.19 5.31zm5.35-1.24h6l-.48 2h-5zm12.85-1.06a9.18 9.18 0 01-.78 3.14l-.55 1.2-.31-2a12.44 12.44 0 00-2.22-5.3l1-4.15.39.4a8.9 8.9 0 012.47 6.71z"/></svg>