<svg data-name="Layer 1" xmlns="http://www.w3.org/2000/svg" viewBox="0 0 72 72"><path d="M56.94 42.37l-6.66-20.09a1.33 1.33 0 00-.84-.84 1.31 1.31 0 00-.83 0h-12v-5.05h-2v5.07h-12a1.33 1.33 0 00-1.68.84l-6.7 20.09a1.75 1.75 0 00.84 2.1 14.71 14.71 0 006.76 1.65 17.14 17.14 0 007.31-1.66 1.74 1.74 0 00.9-2.11L23.8 23.46h10.78v26.73a11.12 11.12 0 00-8 4.31h-1v2h19.5v-2h-.87a11.09 11.09 0 00-7.63-4.28V23.46h10.8l-6.27 18.93a1.74 1.74 0 00.83 2.1 14.7 14.7 0 006.75 1.65 17.08 17.08 0 007.36-1.66 1.74 1.74 0 00.89-2.11zM22.15 24.85l4.39 13.25h-8.78zm-.32 19.29a12.76 12.76 0 01-5.63-1.32l.9-2.72h10.11l.88 2.68a15.46 15.46 0 01-6.26 1.36zM41.5 54.5H29.25a9.19 9.19 0 0111.25-.79 10.84 10.84 0 011 .79zm11.92-16.4h-8.78L49 24.86zm-4.69 6a12.75 12.75 0 01-5.62-1.32L44 40.1h10.08l.92 2.68a15.11 15.11 0 01-6.27 1.36z" fill="silver"/></svg>