<svg id="Layer_1" data-name="Layer 1" xmlns="http://www.w3.org/2000/svg" viewBox="0 0 72 72"><defs><style>.cls-1{fill:silver}</style></defs><path class="cls-1" d="M60.66 30.57a5.8 5.8 0 00-1.09-3.95l-5.83-8a6.83 6.83 0 00-5.28-2.79L43 15.66a6 6 0 00-4.33 1.71 18.58 18.58 0 01-8.7 4.9l-8.28 2a16.85 16.85 0 00-10.41 7.56 4 4 0 00.35 4.72v3.55h2v-2.24a4.36 4.36 0 00.89.15v2.82h2V38h.89v2.29h2V38h1v2.36l-1.11.71h-2v1.3l-.54.34v-1.1h-2V44l-.6.38v-1.75h-2v5.46h.09a4.41 4.41 0 00.61 2.23 4.53 4.53 0 003.85 2.18h.43L47 49.58a9.67 9.67 0 006.89-4l4.95-8.23a7.2 7.2 0 001.58-3.91zM13 32.9a14.9 14.9 0 019.19-6.67l8.28-2a20.57 20.57 0 009.64-5.42 3.84 3.84 0 012.73-1.14h.12l5.48.16a4.78 4.78 0 013.72 2l5.83 8a3.88 3.88 0 01.72 2.6l-.25 2.9a5.26 5.26 0 01-.86 2.41l-.3.5a4.9 4.9 0 01-.64.65A5.2 5.2 0 0152.79 38h-.32l-13.18-2h-24.6a2.05 2.05 0 01-2-2.05A2.08 2.08 0 0113 32.9zm12.83 9.29v3.09l-.88.48v-2.11h-2v2.93l-.93.1v-2.86H20v3.06l-.65.06V45.2h-2v1.94l-1 .1v-1.12H15.2l.11-.09 5.25-3.33h1.94v-1.19l1.42-.9v.82h2v-2.12l.88-.56v1.6h2V38h1v1.14h2V38h5.68l-6.67 4.51v-1.73h-2v2.9l-1 .52v-2zm14.85-3.93l4.82.72-4.93 3.11a7.59 7.59 0 01-2.49.52l-4 .16zM22.42 38h1.48v.18l-1.46.93zm29.8 6.48a7.69 7.69 0 01-5.42 3.08L17 50.49a2.48 2.48 0 01-2.28-1.08l9.37-.93 6.63-3.59 7.4-.28a9.79 9.79 0 003.24-.69l7-4.39-.1-.14 4 .58.44.05h.63a6.87 6.87 0 001.8-.26z"/><path class="cls-1" d="M34.55 33.49l4.58-.49A2 2 0 0041 30.83l-.78-4.71a2 2 0 00-2.33-1.67l-3.5.91a2.59 2.59 0 00-1.52 1.29 2.55 2.55 0 00-.17 2zm0-5.93a.63.63 0 01.31-.28l3.27-.85.74 4.6-3.08.3L34.56 28a.61.61 0 01.03-.44zM46.08 33.87l.12.06a1.25 1.25 0 00.46.09 1.29 1.29 0 00.48-.1 1.23 1.23 0 00.65-.66 1.2 1.2 0 00.09-.59L46.73 21.4a1.22 1.22 0 00-1.35-1.08h-.18l-4.09 2.28 1.39 9.19zM44.86 22.8l.87 8.56-1.4-.8-1-6.87zM49.34 30.85c0 2.09 1.11 3.66 2.58 3.66s2.58-1.57 2.58-3.66c0-1.91-2.13-4.55-3.68-4.55a1.44 1.44 0 00-1 .44c-.62.66-.56 1.77-.49 3.06-.01.36.01.72.01 1.05zm3.16 0a2.11 2.11 0 01-.57 1.67c-.15 0-.59-.62-.59-1.67 0-.36 0-.76-.05-1.16s0-.71 0-1.05a3.9 3.9 0 011.21 2.21zM26.68 32.19a1.89 1.89 0 00.7 1.26 1.85 1.85 0 001.16.41h.44l1-.23a1.9 1.9 0 001.41-2.24l-.51-1.89a1.89 1.89 0 00-2.09-1.26l-.75.12c-1.23.2-1.57 1.89-1.47 2.7zm2.8-.58zm-.87-1.37l.36-.06.4 1.48-.72.17-.12-1a1.41 1.41 0 01.08-.59zM16.92 34.09l1.68.2h.22a1.83 1.83 0 001.83-1.63v-.33l.1-2.33a1.28 1.28 0 00-1.23-1.33 1.14 1.14 0 00-.79.24l-2.78 2-.14.12a1.79 1.79 0 00-.52 1.31 1.82 1.82 0 00.57 1.29 1.86 1.86 0 001.06.46zm1.78-2.74v.93l-1.08-.13z"/></svg>