<svg version="1.1" id="Layer_1" xmlns="http://www.w3.org/2000/svg" x="0" y="0" viewBox="0 0 72 72" xml:space="preserve"><style>.st0{fill:silver}</style><path class="st0" d="M30.6 45.9c3.1 0 5.4-1.4 5.4-3.3s-2.3-3.3-5.4-3.3-5.4 1.4-5.4 3.3 2.3 3.3 5.4 3.3zm0-4.7c2.1 0 3.4.9 3.4 1.3s-1.3 1.3-3.4 1.3-3.4-.9-3.4-1.3 1.3-1.3 3.4-1.3z"/><path class="st0" d="M57 32.3c-3.8-5.4-11.1-7-16.9-3.8-.2-1.4-.7-2.9-1.3-4.2l-.1-.1c-.5-.7-.8-1.2-1.2-1.6-.8-.8-1.2-2-1-3.1v-2.7h2v-2h-2v-.2c.3-.4.5-.9.4-1.4 0-2-2.7-3.5-6.3-3.5s-6.3 1.5-6.3 3.5c0 .4.1.7.3 1.1v5.2c.2 1.1-.2 2.3-1 3.1-.3.4-.7.9-1.1 1.6l-.1.1c-.8 1.6-1.3 3.4-1.5 5.3h-.1v23.1c.3 3.1 4.4 5.5 9.7 5.5s9.5-2.5 9.7-5.6h.1v-1.2c6.3 3.4 14.2 1 17.6-5.4 2.3-4.4 1.9-9.7-.9-13.7zm-26.4 3.2c2.8.1 5.5-.7 7.8-2.3v13.1c0 1.8-3.2 3.8-7.7 3.8s-7.7-2-7.7-3.8V33.2c2.2 1.6 4.9 2.4 7.6 2.3zm0-18c-2.3 0-3.7-.6-3.9-.9V16c1.3.5 2.6.8 4 .8 1.3 0 2.6-.2 3.8-.7v.5c-.2.3-1.5.9-3.9.9zm-3.9-.8zm4-4.9c2.6 0 4.3 1 4.3 1.5s-1.7 1.5-4.3 1.5-4.3-1-4.3-1.5 1.7-1.5 4.3-1.5zm-6.5 13.5c.4-.6.7-1 1-1.4 1.1-1.2 1.6-2.8 1.5-4.4v-.7c1.2.4 2.6.7 3.9.6 1.3 0 2.7-.2 3.9-.6v.7c-.2 1.6.4 3.2 1.5 4.4.3.4.6.8 1 1.4.7 1.4 1.1 3 1.3 4.6-.3 1.8-3.3 3.6-7.7 3.6s-7.3-1.8-7.7-3.5c.1-1.6.6-3.2 1.3-4.7zm6.4 30.9c-4.6 0-7.7-2-7.7-3.8v-2.6c2.3 1.6 5 2.4 7.7 2.3 2.8.1 5.5-.7 7.8-2.3v2.6c-.1 1.8-3.2 3.8-7.8 3.8zm22.2-7.4c-3.7 2.6-8.6 2.7-12.4.2v.1V31v-.3c5.3-3 12-1.1 15 4.2 2.5 4.7 1.5 10.5-2.6 13.9z"/><path class="st0" d="M46.1 32.7c-.9 0-1.6.7-1.6 1.6s.7 1.6 1.6 1.6c.9 0 1.6-.7 1.6-1.6-.1-.9-.8-1.6-1.6-1.6zM50.7 39.5c-.9 0-1.6.7-1.6 1.6 0 .9.7 1.6 1.6 1.6.9 0 1.6-.7 1.6-1.6 0-.9-.7-1.6-1.6-1.6zM46 44.8c-.9 0-1.6.7-1.6 1.6 0 .9.7 1.6 1.6 1.6.9 0 1.6-.7 1.6-1.6 0-.9-.7-1.6-1.6-1.6z"/></svg>