<svg id="Layer_1" data-name="Layer 1" xmlns="http://www.w3.org/2000/svg" viewBox="0 0 72 72"><defs><style>.cls-1{fill:silver}</style></defs><path class="cls-1" d="M59 47.58l-1.23-2.78 1.36-1.93-1.46-2.44 1.26-1.76v-1l-1.11-1.27L59 34.08v-1.55H42.3V25a9 9 0 00-.54-3l-3.46-6.13V13.1a2.22 2.22 0 00-2.22-2.21h-2.94a2.21 2.21 0 00-2.21 2.21v2.39l-3.91 6-.07.13a9 9 0 00-.84 3.78v7.14h-8.83v1.55l1.2 2.32-1.08 1.3v1l1.25 1.76-1.45 2.4 1.36 1.93-1.25 2.78-.07 1.35h8.87v1.28a4.23 4.23 0 004.22 4.21h7.75a4.22 4.22 0 004.22-4.21v-1.28h16.78zm-30.9-1.07h12.2V48H28.11zm0-2v-1.45h12.2v1.45zm0-3.45v-6.44h12.2v6.44zm0-8.44v-6h12.2v6zm5-19.73h2.94a.21.21 0 01.22.21v1.25h-3.33V13.1a.21.21 0 01.21-.21zm-.38 3.46h3.51l3.64 6.37a7.4 7.4 0 01.36 1.92H28.16a6.88 6.88 0 01.58-2.13zm-13 30.58l1.05-2.36-1.27-1.79 1.5-2.44-1.49-2.09 1.35-1.58-1.11-2.14h6.32v12.4zM38 52.42h-7.67a2.22 2.22 0 01-2.22-2.21V50H40.3v.26a2.21 2.21 0 01-2.22 2.16zm4.3-13.68H47a.31.31 0 01.25.1v4.37a.33.33 0 01-.26.1H42.3zm14.44 4l-1.27 1.79 1.06 2.36H42.3v-1.58H47a2.17 2.17 0 002.25-2.09v-4.38a2.18 2.18 0 00-2.25-2.1h-4.7v-2.21h14.23l-1.11 2.14 1.35 1.58-1.48 2.09z"/><path class="cls-1" d="M51.84 36.56a1 1 0 00-1 1V44a1 1 0 002 0v-6.44a1 1 0 00-1-1zM23.68 36.65a1 1 0 00-1 1v6.48a1 1 0 002 0v-6.48a1 1 0 00-1-1z"/></svg>