<svg version="1.1" id="Layer_1" xmlns="http://www.w3.org/2000/svg" x="0" y="0" viewBox="0 0 72 72" xml:space="preserve"><style>.st0{fill:#babbc3}</style><path class="st0" d="M40.8 38.8c.2-.7-.2-1.4-.9-1.7l-3.1-.9c-3.1-.9-5.5-3.4-6.1-6.6l-.5-2.2c-.1-.5-.4-.8-.9-1-.3-.1-.7-.1-1 .1-.3.2-.6.4-.7.8l-1.1 3.3c-.9 2.7-3 4.8-5.6 5.6l-3.1 1c-.5.1-.8.5-.9 1-.1.3 0 .7.2 1 .2.3.5.5.8.6l2 .4c3.2.6 5.8 3 6.7 6.1l1 3.3c.1.5.5.9 1 .9h.2c.6 0 1.2-.5 1.3-1.1l.4-2.3c.7-3.6 3.5-6.4 7.1-7l2.1-.4c.6 0 1-.4 1.1-.9zm-12.1 7.5l-.2-.6c-1.1-3.7-4-6.5-7.7-7.4l.7-.2c3.3-1 5.9-3.6 6.9-6.9l.3-.9c.9 3.8 3.7 6.8 7.5 7.9l.4.1c-3.9 1-7 4.1-7.9 8zM50.9 48.2c-.1-.3-.4-.5-.7-.6l-1.4-.4c-1.2-.3-2.1-1.3-2.4-2.5l-.2-1c-.1-.4-.4-.7-.8-.9-.6-.2-1.2.1-1.5.7l-.5 1.5c-.3 1-1.1 1.8-2.2 2.2l-1.4.4c-.4.1-.7.5-.8.9-.1.6.3 1.2.9 1.3l.9.2c1.2.2 2.2 1.1 2.6 2.4l.4 1.5v.1c.1.3.4.6.8.6h.3c.2 0 .4-.1.6-.2.3-.2.4-.4.5-.8l.2-1c.3-1.4 1.3-2.5 2.7-2.7l1-.2c.4-.1.8-.4.9-.8.2-.1.2-.4.1-.7zM45 50.8c-.5-.9-1.2-1.6-2.1-2.1.9-.5 1.6-1.2 2.1-2.1.5.9 1.2 1.6 2.1 2.1-.9.5-1.6 1.2-2.1 2.1zM32.4 21.4l1.1.2c1.6.3 2.8 1.4 3.2 3l.5 1.8c.1.4.5.7.9.8h.2c.6 0 1.1-.4 1.2-1l.2-1.2c.3-1.7 1.7-3.1 3.4-3.4l1.1-.2c.4-.1.8-.4.9-.8.2-.6-.2-1.3-.8-1.4l-1.7-.5c-1.5-.4-2.7-1.7-3-3.2l-.2-1.2c-.1-.4-.4-.8-.8-.9-.6-.2-1.3.2-1.5.8l-.6 1.8c-.4 1.3-1.4 2.3-2.7 2.7l-1.7.5c-.4.1-.7.5-.8.9-.1.3 0 .6.2.9.4.1.6.3.9.4zm5.9-4.2c.6 1.3 1.6 2.3 2.9 2.9-1.3.6-2.3 1.6-2.9 2.9-.6-1.3-1.6-2.3-2.9-2.9 1.3-.6 2.3-1.6 2.9-2.9z"/></svg>