<svg id="Layer_1" data-name="Layer 1" xmlns="http://www.w3.org/2000/svg" viewBox="0 0 72 72"><defs><style>.cls-1{fill:silver}</style></defs><path class="cls-1" d="M36.77 25.74a2.76 2.76 0 00-1.85.71l-5.34 4.81h-4.77a3.69 3.69 0 00-3.68 3.68v4.45a3.67 3.67 0 003.68 3.67h4.88l5.25 4.68a2.74 2.74 0 001.83.69h.16a2.76 2.76 0 002.6-2.75V28.5a2.77 2.77 0 00-2.76-2.76zm.76 19.94a.78.78 0 01-.19.5.76.76 0 01-.52.25.69.69 0 01-.55-.19l-5.82-5.18h-5.64a1.67 1.67 0 01-1.68-1.67v-4.45a1.7 1.7 0 011.68-1.68h5.54l5.91-5.32a.74.74 0 01.51-.2.76.76 0 01.76.76zM48.39 31a8.31 8.31 0 00-5.91-2.45v2a6.38 6.38 0 010 12.75v2A8.37 8.37 0 0048.39 31z"/><path class="cls-1" d="M42.7 38.21v2a3.28 3.28 0 000-6.55v2a1.28 1.28 0 010 2.55z"/></svg>