<svg data-name="Layer 1" xmlns="http://www.w3.org/2000/svg" viewBox="0 0 72 72"><path d="M43.75 52.2a1.19 1.19 0 01-.68-.21l-8.34-5.81L26.39 52a1.2 1.2 0 01-1.83-1.34l2.94-9.72-8.1-6.14a1.2 1.2 0 01.7-2.15l10.16-.21 3.34-9.59a1.19 1.19 0 012.26 0l3.34 9.59 10.15.21a1.22 1.22 0 011.12.83 1.2 1.2 0 01-.42 1.33L42 40.93l2.94 9.73a1.19 1.19 0 01-.48 1.34 1.16 1.16 0 01-.71.2zm-.85-.94zm-16.34 0zM22.7 34.68l6.55 5a1.2 1.2 0 01.43 1.3l-2.38 7.83 6.7-4.69a1.19 1.19 0 011.37 0l6.75 4.69L39.78 41a1.21 1.21 0 01.43-1.31l6.54-5-8.21-.17a1.2 1.2 0 01-1.11-.8l-2.7-7.77L32 33.7a1.2 1.2 0 01-1.11.81zm12.54 11.15zM28 41.31zm13.48 0zm7.32-8.17zm-28.13 0zm10.22-.71zm7.69 0zm-3-8.9z" fill="silver"/></svg>