<svg version="1.1" id="Layer_1" xmlns="http://www.w3.org/2000/svg" x="0" y="0" viewBox="0 0 72 72" xml:space="preserve"><style>.st0{fill:#babbc3}</style><path class="st0" d="M24.1 35.4l1 1.2 3.2-2.2 2.3 1.6.5.3 1.4-.5-1.1-3.7 2.3-1.8.4-.3v-1.5l-3.9-.1-1.1-3.2-1.5-.4-1.3 3.6-2.9.1h-.5l-1 1.2 3.1 2.4-.9 3.3zm2.9-5l.7-.1.5-1.4.5 1.4h1.5l-1.2 1 .4 1.4-1.2-.7-1.2.8.4-1.5-1.2-.9h.8zM47.1 28.5l-3.3-.1-1.1-3.2-1.5-.4-1.3 3.6-3.4.1-.5.7.1.9 2.6 2-1 3.2.6.8.9.1 2.7-1.9 2.8 1.9 1.5-.5-1.2-3.6 2.3-1.7.4-.3v-.9l-.6-.7zM43.2 31l-.5.5.4 1.4-1.3-.9-1.2.9.4-1.5-1.2-.9h1.5l.5-1.4.5 1.4h1.5l-.6.5z"/><path class="st0" d="M35.1 16.9c-10.2 0-18.6 8.3-18.6 18.6s8.3 18.6 18.6 18.6 18.6-8.3 18.6-18.6-8.4-18.6-18.6-18.6zm0 35.2c-9.1 0-16.6-7.4-16.6-16.6s7.4-16.6 16.6-16.6 16.6 7.4 16.6 16.6-7.5 16.6-16.6 16.6z"/><path class="st0" d="M23.4 40.3C25 45.5 29.8 49 35.1 49c1.1 0 2.3-.2 3.4-.5 4-1.2 7.1-4.2 8.2-8.2l.4-1.3H23l.4 1.3zm20.9.7c-1.2 2.7-3.5 4.7-6.4 5.6C33 48 27.8 45.5 25.8 41h18.5z"/></svg>