<svg id="Layer_1" data-name="Layer 1" xmlns="http://www.w3.org/2000/svg" viewBox="0 0 72 72"><defs><style>.cls-1{fill:silver}</style></defs><path class="cls-1" d="M32.71 29.01h7.08v2h-7.08zM32.71 34.44h9.36v2h-9.36zM32.71 39.88h9.36v2h-9.36zM55.2 28.69h-2.7a1 1 0 000 2h.13l-1.77 2.87L49 30.69h.22a1 1 0 000-2H46a1 1 0 000 2h.66l3.21 5 .1.11.03 4.42h-.44a1 1 0 000 2h2.59a1 1 0 100-2H52l-.09-4.56 3-4.82c0-.05 0-.1.06-.15h.25a1 1 0 000-2zM24.3 37.73h-5.09A4.28 4.28 0 0014.93 42v.91h2V42a2.28 2.28 0 012.28-2.28h5.09A2.28 2.28 0 0126.58 42v.91h2V42a4.28 4.28 0 00-4.28-4.27zM21.76 35.88A3.86 3.86 0 1017.9 32a3.86 3.86 0 003.86 3.88zm0-5.71A1.86 1.86 0 1119.9 32a1.85 1.85 0 011.86-1.83z"/><path class="cls-1" d="M60.62 20.14H10.81A2.87 2.87 0 007.94 23v25.57a2.87 2.87 0 002.87 2.86h49.81a2.87 2.87 0 002.87-2.86V23a2.87 2.87 0 00-2.87-2.86zm.87 28.43a.86.86 0 01-.87.86H10.81a.86.86 0 01-.87-.86V23a.86.86 0 01.87-.86h49.81a.86.86 0 01.87.86z"/></svg>