<svg id="Layer_1" data-name="Layer 1" xmlns="http://www.w3.org/2000/svg" viewBox="0 0 72 72"><defs><style>.cls-1{fill:silver}</style></defs><path class="cls-1" d="M60.58 40.93a1 1 0 00-1.49 0l-2.22 2.28a8.18 8.18 0 102.19 5.56 8.07 8.07 0 00-1-3.82l2.49-2.56a1.05 1.05 0 00.03-1.46zM57 48.79a6.11 6.11 0 11-1.56-4l-4.28 4.41-1.45-1.51a1.06 1.06 0 00-1.49 0 1 1 0 000 1.48l2.09 2.17a1.31 1.31 0 00.88.35 1.22 1.22 0 00.92-.4l4.5-4.63a6 6 0 01.39 2.13z"/><path class="cls-1" d="M15.84 49.86V24.47h36.44V37h2.1V23.62a1.23 1.23 0 00-1.23-1.23H42.71v-2.24a2.81 2.81 0 00-2.8-2.8H28.76a2.79 2.79 0 00-2.76 2.8v2.23H15a1.24 1.24 0 00-.87.36 1.21 1.21 0 00-.35.87V51a1.35 1.35 0 001.35 1.34h24.24v-2.1H15.84zm12.23-29.71a.69.69 0 01.69-.7h11.15a.69.69 0 01.69.7v2.24H28.07z"/></svg>