<svg data-name="Layer 1" xmlns="http://www.w3.org/2000/svg" viewBox="0 0 72 72"><path d="M58 25.39a1.32 1.32 0 00-1.32-1.32H45.46v-2.42a3 3 0 00-3-3h-12a3 3 0 00-3 3v2.4H15.6a1.32 1.32 0 00-1.32 1.33v8.87a10.86 10.86 0 001.9 6.1v14.13A1.76 1.76 0 0018 56.23h36.89a1.75 1.75 0 001.75-1.75V39.42A10.83 10.83 0 0058 34.2zm-28.28-3.74a.75.75 0 01.75-.75h12a.76.76 0 01.75.75v2.41h-13.5zm26 4.67v7.88a8.65 8.65 0 01-7.45 8.55v-.7a1.81 1.81 0 00-1.8-1.8H43a1.8 1.8 0 00-1.79 1.8v1H32.3v-1a1.81 1.81 0 00-1.8-1.8H27a1.8 1.8 0 00-1.79 1.8v.79a8.65 8.65 0 01-8.62-8.61V26.3zM46 42.51v2.08a1.29 1.29 0 01-2.58 0v-2.08zm-16 0v2.08a1.29 1.29 0 01-2.58 0v-2.08zM18.48 54V42.75a10.84 10.84 0 006.74 2.35 3.55 3.55 0 007 .22h9a3.55 3.55 0 007-.28 10.83 10.83 0 006.14-2.77V54z" fill="silver"/></svg>