<svg id="Layer_1" data-name="Layer 1" xmlns="http://www.w3.org/2000/svg" viewBox="0 0 72 72"><defs><style>.cls-1{fill:silver}</style></defs><path class="cls-1" d="M53.67 49.09l-1.54-.78v-3.25a1 1 0 00-1-1 1 1 0 00-1 1v3.26a2.13 2.13 0 00.73 1.68l1.88 1a1.11 1.11 0 00.46.11 1.05 1.05 0 00.93-.57 1 1 0 00-.46-1.45z"/><path class="cls-1" d="M51.1 41.13a7.57 7.57 0 107.56 7.57 7.58 7.58 0 00-7.56-7.57zm0 13.07a5.51 5.51 0 115.5-5.5 5.51 5.51 0 01-5.5 5.5z"/><path class="cls-1" d="M17.23 24.6h35.71v14H55V23.77a1.2 1.2 0 00-1.2-1.2H43.59v-2.2a2.74 2.74 0 00-2.74-2.74H29.92a2.74 2.74 0 00-2.74 2.74v2.19H16.37a1.21 1.21 0 00-1.2 1.21v26.82a1.31 1.31 0 001.31 1.31h23.83v-2.08h-23c-.05-8.47-.07-21.69-.08-25.22zm12-4.24a.69.69 0 01.68-.68h10.94a.69.69 0 01.68.68v2.2H29.24z"/></svg>