<svg data-name="Layer 1" xmlns="http://www.w3.org/2000/svg" viewBox="0 0 72 72"><path d="M61.51 17a1.19 1.19 0 00-.68-.63l-2.55-1 1.72-1.2a1 1 0 00.26-1.39 1 1 0 00-1.39-.25l-1.7 1.17.11-2.1a1.27 1.27 0 00-.25-.88 1.22 1.22 0 00-.82-.46 1.15 1.15 0 00-.87.22l-5.94 4.13-.77 4.62a1 1 0 000 .35l-1.44 1a19.37 19.37 0 10-30.47 23.91.91.91 0 00-.08.13l-4.38 11.11a1 1 0 00.57 1.27.92.92 0 00.36.07 1 1 0 00.93-.63l1.8-4.56h31.26L49 56.46a1 1 0 00.93.63 1 1 0 00.37-.07 1 1 0 00.56-1.29L46.61 45a19.3 19.3 0 001.73-22.77l2.09-1.45L54.14 22l6.76-3.34a1.23 1.23 0 00.61-1.66zM18.18 46.15a19.86 19.86 0 005.34 3.75h-6.81zm22 3.75a19.15 19.15 0 004.86-3.33l1.31 3.33zm9-17.48a17.45 17.45 0 11-3.71-10.7l-3.39 2.35a13.45 13.45 0 101.13 1.64l3.4-2.35a17.27 17.27 0 012.65 9.06zm-18.59.81a1 1 0 001.39.25l4.18-2.89a4.64 4.64 0 01.37 1.83 4.74 4.74 0 11-4.74-4.74A4.68 4.68 0 0135.08 29l-4.16 2.88a1 1 0 00-.25 1.35zm1.2-7.55a6.75 6.75 0 106 3.76l3.73-2.59a11.12 11.12 0 011.49 5.57 11.28 11.28 0 11-2.62-7.21l-3.63 2.59a6.71 6.71 0 00-4.89-2.12zM55.17 13l-.11 2.13-4.21 2.91.38-2.28zM54 19.81l-1.47-.47 3.8-2.63 2.19.88z" fill="silver"/></svg>