<svg id="Layer_1" data-name="Layer 1" xmlns="http://www.w3.org/2000/svg" viewBox="0 0 72 72"><defs><style>.cls-1{fill:silver}</style></defs><path class="cls-1" d="M55.84 43.91V14.6H23.25v4.86h2.15v-2.71h28.29v27.16H30.61v2.15h27.93v-2.15h-2.7z"/><path class="cls-1" d="M41.08 39.57h8.32v2.15h-8.32zM21 30a4.65 4.65 0 10-4.65-4.65A4.65 4.65 0 0021 30zm0-7.14a2.5 2.5 0 11-2.49 2.49A2.5 2.5 0 0121 22.89z"/><path class="cls-1" d="M36.85 31.05l8.41-7-1.38-1.65-7.83 6.55-.18.06c-.06 0-5.72 1.9-9.21 1.9-3.7 0-8.56.31-8.54.31a5.69 5.69 0 00-5.68 5.68v10.65A2.45 2.45 0 0014.89 50h1.39v8.1a2.46 2.46 0 002.46 2.45h5.07a2.45 2.45 0 002.46-2.44s.1-12.77.11-19.35a.1.1 0 01.09-.11 14.13 14.13 0 0010.38-7.6zm-10.68 5.47a2.26 2.26 0 00-2 2.23c0 6.58-.11 19.34-.11 19.35a.3.3 0 01-.3.3h-5.02a.3.3 0 01-.3-.3v-8.9a1.36 1.36 0 00-1.36-1.35h-2.19a.3.3 0 01-.3-.3V36.86a3.55 3.55 0 013.6-3.53S23 33 26.66 33a30.73 30.73 0 007.16-1.2 11.65 11.65 0 01-7.65 4.72z"/></svg>