<svg data-name="Layer 1" xmlns="http://www.w3.org/2000/svg" viewBox="0 0 72 72"><path d="M55.55 43.79c0-2.7-8.45-3.55-14.77-3.82v-1.9h.4v-2h-2.79V29h.72v-2H36.4v-7.43h.7v-2h-.7v-.44a1.48 1.48 0 00-.06-2.25v-2.45L39 10.67 37.86 9l-1.41.92a1.16 1.16 0 10-1.76 1.38 2 2 0 00-.35 1.13V15a1.49 1.49 0 00-.44 1 1.45 1.45 0 00.5 1.1v.44h-.56v2h.56V27h-2.63v2h.63v7.06h-2.82v2H30V40c-6.33.26-14.86 1.11-14.86 3.83v9.74a1.14 1.14 0 00.48.93 1.12 1.12 0 001 .16l2.38-.8v1.24a1.38 1.38 0 001.38 1.39h28a1.38 1.38 0 001.38-1.39v-1.66l.3.07 4.1 1.15a1.76 1.76 0 00.31 0 1.12 1.12 0 00.7-.24 1.16 1.16 0 00.46-.92zm-35.72 7.75c-.4.11-.8.21-1.19.34l-1.49.49V44a7.45 7.45 0 012.68-.9zm23.27-9.42c.79.05 1.55.11 2.26.18v8.49H43.1zm-4.25-.21q1.15 0 2.25.09v8.76h-2.25zM34.4 29h2v7.06h-2zM32 38.07h6.77v1.83H32zm4.84 3.8v8.89h-2.25v-8.89h2.26zm-6.5.13l2.25-.07v8.87h-2.25zm-4.26.27a66.8 66.8 0 012.26-.16v8.69h-2.26zm-4.25.5q1-.16 2.25-.3v8.39c-.76.06-1.51.15-2.25.28zm25.94 11.72H21V53.3a19.83 19.83 0 014.61-.54h18.96a20.12 20.12 0 013.2.26zm1.84-3.15c-.75-.17-1.5-.3-2.25-.4v-8.42q1.23.15 2.25.33zm2 .53v-8.61a5.48 5.48 0 011.94.73l.08 8.44z" fill="silver"/></svg>