<svg version="1.1" id="Layer_1" xmlns="http://www.w3.org/2000/svg" x="0" y="0" viewBox="0 0 72 72" xml:space="preserve"><style>.st0{fill:silver}</style><path class="st0" d="M52 27.7h1.1c.6 0 1-.4 1-1s-.4-1-1-1H52c-.6 0-1 .4-1 1s.4 1 1 1zM52 31.9h1.1c.6 0 1-.4 1-1s-.4-1-1-1H52c-.6 0-1 .4-1 1s.4 1 1 1zM52 36h1.1c.6 0 1-.4 1-1s-.4-1-1-1H52c-.6 0-1 .4-1 1s.4 1 1 1zM52 40.2h1.1c.6 0 1-.4 1-1s-.4-1-1-1H52c-.6 0-1 .4-1 1s.4 1 1 1zM33.7 38c-.1.4 0 .9.4 1.2 0 0 .6.4 1.3 0s2.8-1.9 2.8-1.9l2.9 2c.4.2 1 .2 1.2 0s.6-.5.4-1.1-1-3.4-1-3.4l2.7-2.1c.4-.3.5-.7.4-1.2 0 0-.2-.7-1-.7s-3.5-.1-3.5-.1l-1.1-3.3c-.1-.4-.4-.7-1-.7-.9 0-1.1.9-1.1.9l-1.1 3-3.5.1c-.5 0-.9.3-1 .7 0 0-.3.6.4 1.1s2.8 2.1 2.8 2.1l-1 3.4zm3.7-5.4l.7-2 .5 1.3.3.7H41l-1.7 1.3.6 2-1.8-1.2-1.7 1.3.6-2.1-1.7-1.3h2.1z"/><path class="st0" d="M60 31.7c.7-.3 1.1-.9 1.1-1.7v-5.7c0-1-.8-1.8-1.8-1.8H23c-1 0-1.8.8-1.8 1.8v2.4h-3.3c-1 0-1.8.8-1.8 1.8v5.8c0 .7.4 1.4 1.1 1.7.8.4 1.2 1.3.9 2.1-.2.4-.5.7-.9.9-.7.3-1.1.9-1.1 1.7v5.2c0 1 .8 1.8 1.8 1.8h36.2c1 0 1.8-.8 1.8-1.8v-2.5h3.3c1 0 1.8-.8 1.8-1.8v-5.2c0-.7-.4-1.4-1.1-1.7-.8-.4-1.2-1.3-.8-2.2.2-.3.5-.6.9-.8zm-6 13.9H18.1v-4.9c1.8-.9 2.6-3 1.7-4.8-.4-.8-1-1.4-1.7-1.7v-5.5h3.1V30c0 .7.4 1.4 1.1 1.7.8.4 1.2 1.3.9 2.1-.2.4-.5.7-.9.9-.7.3-1.1.9-1.1 1.7v5.2c0 1 .8 1.8 1.8 1.8h31v2.2zm5.1-15.7c-1.8.8-2.7 3-1.8 4.8.4.8 1 1.5 1.8 1.8v4.9H23.2v-4.9c1.8-.9 2.6-3 1.7-4.8-.4-.8-1-1.4-1.7-1.7v-5.5h35.9v5.4z"/></svg>