<svg data-name="Layer 1" xmlns="http://www.w3.org/2000/svg" viewBox="0 0 72 72"><path d="M50.29 24.91a7.1 7.1 0 00-4.71 1.79 15 15 0 00-13.26-8h-.5v-.09h-3.58a15.07 15.07 0 000 30.13h4.68a15 15 0 0010.27-4.66v4.73h14.19V32a7.1 7.1 0 00-7.09-7.09zm-35.11 8.82a13.08 13.08 0 018.42-12.2 15 15 0 00-.16 24.34 13.08 13.08 0 01-8.26-12.14zM32.31 46.8a13 13 0 1113-13 13.05 13.05 0 01-13 13zm15-13a15 15 0 00-.9-5.09 5.07 5.07 0 013.84-1.76 4.59 4.59 0 011 .1 4.87 4.87 0 01.41 1.92v14.32h-6.47v-1.81a14.9 14.9 0 002.15-7.72zm8 13.08H45.19v-1.59h8.49V28.93a6.27 6.27 0 000-.74 5.09 5.09 0 011.7 3.81z" fill="silver"/></svg>