<svg id="Layer_1" data-name="Layer 1" xmlns="http://www.w3.org/2000/svg" viewBox="0 0 72 72"><defs><style>.cls-1{fill:silver}</style></defs><path class="cls-1" d="M54.64 27.79H36.11a4.61 4.61 0 00-4.6 4.61v4.16a12.7 12.7 0 01-5.09-3.41 24.9 24.9 0 003.21-7.9h4v-2.18h-6.47V20.2H25v2.87h-7.13v2.18h9.52a23.53 23.53 0 01-2.46 6.11 19.75 19.75 0 01-2.09-3.64l-2 .79a20.42 20.42 0 002.79 4.75 10 10 0 01-7 4l.19 2.17A12 12 0 0025.09 35a14.45 14.45 0 006.42 3.88v4.53H15.74a2.66 2.66 0 01-2.66-2.66V19.22a2.66 2.66 0 012.66-2.66h20a2.66 2.66 0 012.66 2.66v8.48h2.18v-8.48a4.84 4.84 0 00-4.84-4.84h-20a4.84 4.84 0 00-4.84 4.84V40.7a4.84 4.84 0 004.84 4.84h15.77v5a4.6 4.6 0 004.6 4.6h4.22v6.34A2 2 0 0044 62.54l4.83-7.43h5.8a4.6 4.6 0 004.6-4.6V32.4a4.61 4.61 0 00-4.59-4.61zm2.42 22.72a2.43 2.43 0 01-2.42 2.43h-6.17a1.49 1.49 0 00-1.26.68l-4.7 7.24v-6.42a1.51 1.51 0 00-1.51-1.5h-4.89a2.43 2.43 0 01-2.43-2.43V32.4a2.43 2.43 0 012.43-2.4h18.53a2.43 2.43 0 012.42 2.43z"/><path class="cls-1" d="M44.19 32.68l-6.46 16 2 .81 2-5.07h6.74l1.86 5.34 2.12-.76-5.7-16.34zm-1.51 9.54l2.74-6.76 2.36 6.76z"/></svg>