<svg id="Layer_1" data-name="Layer 1" xmlns="http://www.w3.org/2000/svg" viewBox="0 0 72 72"><defs><style>.cls-1{fill:silver}</style></defs><path class="cls-1" d="M49.62 24H41v-2.74a1.88 1.88 0 00-1.88-1.88H28.69a1.88 1.88 0 00-1.87 1.88V24h-8.59v2h3.09l1.84 26.21a3.13 3.13 0 003.11 2.9H42a3.13 3.13 0 003.11-2.9L46.9 26h2.72zm-20.77-2.6H39V24H28.85zM43 52.1a1.08 1.08 0 01-1.08 1H26.27a1.08 1.08 0 01-1.08-1L23.37 26h21.49z"/><path class="cls-1" d="M28.78 48.36a1 1 0 001-1V31.92a1 1 0 00-2 0v15.42a1 1 0 001 1.02zM33.92 48.36a1 1 0 001-1V31.92a1 1 0 00-2 0v15.42a1 1 0 001 1.02zM39.06 48.36a1 1 0 001-1V31.92a1 1 0 00-2 0v15.42a1 1 0 001 1.02z"/></svg>