<svg data-name="Layer 1" xmlns="http://www.w3.org/2000/svg" viewBox="0 0 72 72"><path d="M53.1 16.61l-.1-.89-37.86-.37v1c0 .39-.14 9.78 5.27 15.25A12.55 12.55 0 0028 35.23a19.55 19.55 0 00-4.61 10.37 29.74 29.74 0 000 8.82l.14.82h10.49c3.82 0 4.49-.09 4.64-.61l.09.06 3.6-5.49.48-9.13h-.1c.61-.71 1.27-1.44 1.95-2.18 2.83-3.12 6-6.64 7.38-10.51a26.61 26.61 0 001.04-10.77zM36.84 28.83c2.28-4.16 2.33-8.76 2.25-11.24h4.45l-.64.05c.02.36.28 5.9-6.06 11.19zm-3.75 1.77a47.06 47.06 0 00.22-13.07h3.77c.12 4.09-.34 9.28-3.99 13.07zm-2-.35c-2.72-3.73-3.34-10.51-3.47-12.78h3.64a46 46 0 01-.14 12.78zm-1 2c-6.64-3.3-7.6-11.75-7.72-14.8h3.21c.19 2.46.88 10.61 4.57 14.77zm-13-14.85h3.28a26.9 26.9 0 001 6.45 16.12 16.12 0 006.4 9.33 10.5 10.5 0 01-6-3c-3.77-3.89-4.5-10.35-4.62-12.81zm21.52 33.8c0-2.61.23-5.92 2-8.49l-.32 5.93zm11.52-24.4c-1.2 3.45-4.26 6.82-7 9.79A50.92 50.92 0 0039 41.53c-2.46 3.56-2.39 8-2.35 11v.75H25.19c-.36-3.19-1-14.81 7.92-19.58 11.72-6.28 11.78-14.91 11.74-16l6.29.07a24.52 24.52 0 01-1.01 9.03z" fill="silver"/></svg>