<svg data-name="Layer 1" xmlns="http://www.w3.org/2000/svg" viewBox="0 0 72 72"><path d="M33.91 20.49v-2.4a1 1 0 00-2 0v2.42a16 16 0 00-14.68 15.76v1l2.64-.06.25-.6a3.29 3.29 0 012.92-2 4.56 4.56 0 014 2.25l.29.5H29l.28-.5A4.47 4.47 0 0132 34.84v13.4a1.41 1.41 0 11-2.81 0v-1.65a1 1 0 00-2 0v1.65a3.41 3.41 0 106.81 0V34.72a4.5 4.5 0 013.31 2.19l.29.5H39l.29-.5a4.7 4.7 0 018 0l.29.5h1.58v-1a16 16 0 00-15.25-15.92zm9.34 12.17a6.64 6.64 0 00-5 2.21 6.75 6.75 0 00-10.1.12A6.67 6.67 0 0023 32.66a4.94 4.94 0 00-3.6 1.54 14 14 0 0112.51-11.69V24a1 1 0 002 0v-1.52a14 14 0 0113 11.22 6.74 6.74 0 00-3.66-1.04z" fill="silver"/></svg>