<svg id="Layer_1" data-name="Layer 1" xmlns="http://www.w3.org/2000/svg" viewBox="0 0 72 72"><defs><style>.cls-1{fill:silver}</style></defs><path class="cls-1" d="M33.84 18.64a17.72 17.72 0 1017.72 17.71 17.74 17.74 0 00-17.72-17.71zm0 33.19a15.48 15.48 0 1115.48-15.48 15.49 15.49 0 01-15.48 15.48z"/><path class="cls-1" d="M31.56 28.3a1.35 1.35 0 00-1-.26 1.37 1.37 0 00-1.2 1.36v14.45a1.39 1.39 0 00.41 1 1.35 1.35 0 00.95.39 1.43 1.43 0 00.84-.27l9.35-7.34a1.4 1.4 0 00.23-2zm0 13.79v-11l7.08 5.4z"/></svg>