<svg id="Layer_1" data-name="Layer 1" xmlns="http://www.w3.org/2000/svg" viewBox="0 0 72 72"><defs><style>.cls-1{fill:silver}</style></defs><g id="Group_584" data-name="Group 584"><path class="cls-1" d="M32.18 44.65A1.23 1.23 0 0131 43.43V30.5a1.2 1.2 0 01.26-.75 1.23 1.23 0 011.74-.24l8.56 6.57a1.25 1.25 0 01-.21 1.75L33 44.39a1.13 1.13 0 01-.82.26zM33 32v9.8l6.33-5zm7.11 4.22z"/><path class="cls-1" d="M52.14 50.91H17.65a4 4 0 01-4-4V26.82a4 4 0 014-4h34.49a4 4 0 014 4v20.09a4 4 0 01-4 4zM17.65 24.82a2 2 0 00-2 2v20.09a2 2 0 002 2h34.49a2 2 0 002-2V26.82a2 2 0 00-2-2z" id="Rectangle_212" data-name="Rectangle 212"/></g></svg>