<svg id="Layer_1" data-name="Layer 1" xmlns="http://www.w3.org/2000/svg" viewBox="0 0 72 72"><defs><style>.cls-1{fill:silver}</style></defs><path class="cls-1" d="M34.2 52.34A5.36 5.36 0 1139.56 47a5.36 5.36 0 01-5.36 5.34zm0-8.45A3.1 3.1 0 1037.3 47a3.1 3.1 0 00-3.1-3.11z" id="Group_1671" data-name="Group 1671"/><path class="cls-1" d="M25.08 41.57l-1.95-1.15a12.9 12.9 0 0117.65-4.51 12.66 12.66 0 013.11 2.59l-1.7 1.5a10.32 10.32 0 00-2.57-2.13 10.62 10.62 0 00-14.54 3.7z" id="Group_1672" data-name="Group 1672"/><path class="cls-1" d="M20.5 35.12l-1.71-1.48a20.41 20.41 0 0128.76-2.07c.31.27.61.54.89.82L46.86 34c-.25-.25-.52-.49-.79-.73a18.15 18.15 0 00-25.57 1.85z" id="Group_1673" data-name="Group 1673"/><path class="cls-1" d="M16.32 29.1l-1.6-1.6a27.54 27.54 0 0138-1l-1.52 1.68a25.28 25.28 0 00-34.88.92z" id="Group_1674" data-name="Group 1674"/></svg>