<svg id="Layer_1" data-name="Layer 1" xmlns="http://www.w3.org/2000/svg" viewBox="0 0 72 72"><defs><style>.cls-1{fill:silver}</style></defs><path class="cls-1" d="M31.45 37.09l.73-3.57h.42a1 1 0 000-2H30a1 1 0 000 2h.17l-.45 2.17-2.85-2.17a1 1 0 000-2h-4.11a1 1 0 000 2h.81s.06.09.1.12l5.89 4.46a1.55 1.55 0 00.22.12l2.42 4.53h-.05a1 1 0 000 2H35a1 1 0 100-2h-.52z"/><path class="cls-1" d="M64.56 39.91c-4.63-3.75-10.48-8.46-12.08-9.63-3.49-2.55-6.68-3.12-9.23-1.67-1.17.66-2.61 1.54-3.55 2.12l-4.79-4.13c-3.45-2.66-7.06-3.77-10.45-3.19A11.12 11.12 0 0017 28.65c-2.59 3.94-8.22 13.26-11.35 18.46a4 4 0 000 4 2.81 2.81 0 002.45 1.52h.05l50.6-.84a1.85 1.85 0 001.69-1.28 2.25 2.25 0 00-.58-2.47l-2.12-1.83h5.17a2.92 2.92 0 002.71-2.11 3.85 3.85 0 00-1.06-4.19zm-6 9.93l-50.46.84a1 1 0 01-.74-.52 2.1 2.1 0 010-2C10.49 43 16.1 33.65 18.64 29.74a9.22 9.22 0 016.16-4.36 8.45 8.45 0 011.43-.12 12.31 12.31 0 017.41 2.89L58.53 49.6a.35.35 0 01.02.24zm5.16-6.36c-.08.23-.33.78-.82.78h-7.5L41.29 32.11c.89-.55 2-1.23 3-1.76 2.29-1.31 5.1.12 7.06 1.55 1.24.9 5.39 4.21 12 9.57a1.84 1.84 0 01.36 2.01z"/></svg>