<svg id="Layer_1" data-name="Layer 1" xmlns="http://www.w3.org/2000/svg" viewBox="0 0 26.89 28.94"><defs><style>.cls-1{fill:#676767;}.cls-2{fill:none;stroke:#676767;stroke-miterlimit:10;stroke-width:0.5px;}</style></defs><title>icons</title><path class="cls-1" d="M26.89,6.1V9.38H0V6.1a2,2,0,0,1,2-2H5V6A1.74,1.74,0,0,0,6.73,7.68,1.71,1.71,0,0,0,8.43,6V4.08h10V6a1.73,1.73,0,1,0,3.45,0V4.08h3A2,2,0,0,1,26.89,6.1Z"/><path class="cls-1" d="M24.8,11.48l.06,15.36L2.1,26.91V11.48H24.8m2.09-2.1H0V26.91a2,2,0,0,0,2,2H24.86a2,2,0,0,0,2-2V9.38Z"/><path class="cls-1" d="M6.73,8.89A2.6,2.6,0,0,1,4.1,6.34V2.55a2.62,2.62,0,0,1,5.23,0V6.34A2.58,2.58,0,0,1,6.73,8.89Zm0-7.09a.79.79,0,0,0-.83.75V6.34a.79.79,0,0,0,.83.75.77.77,0,0,0,.8-.75V2.55A.77.77,0,0,0,6.73,1.8Z"/><path class="cls-1" d="M20.16,8.89a2.6,2.6,0,0,1-2.63-2.55V2.55a2.63,2.63,0,0,1,5.25,0V6.34A2.59,2.59,0,0,1,20.16,8.89Zm0-7.09a.79.79,0,0,0-.83.75V6.34a.83.83,0,0,0,1.66,0V2.55A.79.79,0,0,0,20.16,1.8Z"/><line class="cls-2" x1="1.67" y1="16.31" x2="25.51" y2="16.31"/><line class="cls-2" x1="1.32" y1="22.05" x2="25.64" y2="22.05"/><line class="cls-2" x1="7.42" y1="11.24" x2="7.42" y2="27.73"/><line class="cls-2" x1="13.44" y1="11.24" x2="13.44" y2="27.73"/><line class="cls-2" x1="19.54" y1="11.24" x2="19.54" y2="27.73"/></svg>