<svg id="Layer_1" data-name="Layer 1" xmlns="http://www.w3.org/2000/svg" viewBox="0 0 52.45 52.44"><defs><style>.cls-1{fill:#676767;}</style></defs><title>icons</title><path class="cls-1" d="M34.14,37.62C21.75,46.1,9.71,40.91,4.35,33.84A21,21,0,0,1,34,4.45c6.92,5.31,12.12,17.23,3.72,29.6l11.78,11.7c.59.58,1.16,1.17,1.75,1.74,1.29,1.25,1.8,2.66.41,4.08s-2.79,1-4.07-.31c-2.38-2.39-4.78-4.75-7.14-7.15C38.29,42,36.2,39.76,34.14,37.62Zm-13.22-.89A15.77,15.77,0,1,0,21,5.2,15.92,15.92,0,0,0,5.2,20.86,15.75,15.75,0,0,0,20.92,36.73Z"/></svg>