<svg id="Layer_1" data-name="Layer 1" xmlns="http://www.w3.org/2000/svg" viewBox="0 0 56.91 54.85"><defs><style>.cls-1{fill:#19315b;}</style></defs><title>icons</title><path class="cls-1" d="M44.37,39.46H32V27.91h-7V39.45H11.64V21.6a1.47,1.47,0,0,1,.5-1.17L25,8.7l3.36-3,.53.42a3.3,3.3,0,0,1,.27.22l.27.24L44.73,20.45a1.51,1.51,0,0,1,.47,1.06q0,8.4,0,16.81a2.35,2.35,0,0,1,0,.26l0,.78ZM33.62,37.81h9.94q0-8.1,0-16.2L28.43,7.85,26.15,9.93,13.29,21.61q0,7.16,0,14.24V37.8h10V26.26H33.62Zm10-16.14h0Zm-.06-.15Z"/><polygon class="cls-1" points="5.63 22.54 4.53 21.31 28.43 0 52.32 21.31 51.22 22.54 28.43 2.21 5.63 22.54"/><path class="cls-1" d="M0,54.71V46.12H3a7.34,7.34,0,0,1,1.53.12,2.87,2.87,0,0,1,1.26.62,3.46,3.46,0,0,1,1,1.46,5.69,5.69,0,0,1,.34,2,5.71,5.71,0,0,1-.23,1.73,4.14,4.14,0,0,1-.58,1.25,3.07,3.07,0,0,1-.79.78,3.17,3.17,0,0,1-1,.43,5.72,5.72,0,0,1-1.38.15Zm1.14-1H3a4.63,4.63,0,0,0,1.33-.15,1.92,1.92,0,0,0,.77-.45A2.68,2.68,0,0,0,5.7,52a5.25,5.25,0,0,0,.23-1.65,4,4,0,0,0-.44-2.07,2.26,2.26,0,0,0-1.08-1,4.31,4.31,0,0,0-1.47-.18H1.14Z"/><path class="cls-1" d="M12.59,53.94a3.71,3.71,0,0,1-1.13.7,3.19,3.19,0,0,1-1.16.21,2.3,2.3,0,0,1-1.58-.5,1.74,1.74,0,0,1,.21-2.72,2.31,2.31,0,0,1,.76-.35,8.12,8.12,0,0,1,.93-.16,9.59,9.59,0,0,0,1.88-.36c0-.15,0-.24,0-.28a1.13,1.13,0,0,0-.3-.9,1.76,1.76,0,0,0-1.2-.36,1.82,1.82,0,0,0-1.1.26,1.54,1.54,0,0,0-.52.92l-1-.14a2.45,2.45,0,0,1,.46-1.07,2,2,0,0,1,.93-.63,4.35,4.35,0,0,1,1.41-.22,3.93,3.93,0,0,1,1.3.19,1.77,1.77,0,0,1,.73.47,1.6,1.6,0,0,1,.33.72,6.77,6.77,0,0,1,.05,1V52.1A13.75,13.75,0,0,0,13.64,54a2.31,2.31,0,0,0,.26.75H12.8A2.23,2.23,0,0,1,12.59,53.94Zm-.09-2.35a8.1,8.1,0,0,1-1.72.39,5.15,5.15,0,0,0-.92.21.89.89,0,0,0-.41.35.87.87,0,0,0-.15.5.91.91,0,0,0,.32.7,1.34,1.34,0,0,0,.93.28,2.28,2.28,0,0,0,1.09-.26,1.62,1.62,0,0,0,.69-.73A2.46,2.46,0,0,0,12.5,52Z"/><path class="cls-1" d="M14.78,52.85l1.05-.16a1.44,1.44,0,0,0,.49,1,1.7,1.7,0,0,0,1.12.33,1.72,1.72,0,0,0,1.08-.29.9.9,0,0,0,.35-.7.65.65,0,0,0-.31-.56,5.28,5.28,0,0,0-1.08-.36,8.8,8.8,0,0,1-1.61-.51,1.52,1.52,0,0,1-.68-.59,1.6,1.6,0,0,1-.23-.83,1.54,1.54,0,0,1,.19-.77,1.65,1.65,0,0,1,.52-.59,2.09,2.09,0,0,1,.67-.31,3.33,3.33,0,0,1,.91-.13,3.63,3.63,0,0,1,1.29.22,1.69,1.69,0,0,1,.81.57,2.22,2.22,0,0,1,.37,1l-1,.14a1.16,1.16,0,0,0-.41-.75,1.49,1.49,0,0,0-1-.27,1.73,1.73,0,0,0-1,.24A.69.69,0,0,0,16,50a.56.56,0,0,0,.13.37.9.9,0,0,0,.4.29l.93.26a13.85,13.85,0,0,1,1.56.49,1.63,1.63,0,0,1,.7.56,1.52,1.52,0,0,1,.25.9,1.73,1.73,0,0,1-.31,1,2,2,0,0,1-.88.72,3.27,3.27,0,0,1-1.32.26,2.91,2.91,0,0,1-1.85-.51A2.35,2.35,0,0,1,14.78,52.85Z"/><path class="cls-1" d="M21.21,54.71V46.12h1.05V49.2a2.35,2.35,0,0,1,1.86-.86,2.53,2.53,0,0,1,1.2.28,1.56,1.56,0,0,1,.73.75,3.41,3.41,0,0,1,.22,1.39v4H25.22v-4a1.68,1.68,0,0,0-.34-1.15,1.29,1.29,0,0,0-1-.36,1.67,1.67,0,0,0-.89.25,1.33,1.33,0,0,0-.58.66,2.92,2.92,0,0,0-.18,1.14v3.41Z"/><path class="cls-1" d="M28.85,54.71h-1V46.12h1.06v3.06a2.07,2.07,0,0,1,1.7-.84,2.52,2.52,0,0,1,1.09.24,2.17,2.17,0,0,1,.84.65,3,3,0,0,1,.52,1,4,4,0,0,1,.19,1.26A3.57,3.57,0,0,1,32.48,54a2.48,2.48,0,0,1-1.9.87,2,2,0,0,1-1.73-.92Zm0-3.16a3.27,3.27,0,0,0,.3,1.62,1.52,1.52,0,0,0,2.55.21,2.77,2.77,0,0,0,.5-1.79,2.81,2.81,0,0,0-.48-1.8,1.49,1.49,0,0,0-1.17-.58,1.53,1.53,0,0,0-1.2.6A2.67,2.67,0,0,0,28.84,51.55Z"/><path class="cls-1" d="M34.16,51.6a3.19,3.19,0,0,1,1-2.56,2.92,2.92,0,0,1,2-.7,2.83,2.83,0,0,1,2.1.85A3.2,3.2,0,0,1,40,51.51a4.13,4.13,0,0,1-.36,1.89,2.58,2.58,0,0,1-1.05,1.07,3.1,3.1,0,0,1-1.5.38A2.78,2.78,0,0,1,35,54,3.33,3.33,0,0,1,34.16,51.6Zm1.08,0a2.66,2.66,0,0,0,.53,1.79,1.67,1.67,0,0,0,1.31.59,1.64,1.64,0,0,0,1.3-.6,2.67,2.67,0,0,0,.53-1.82,2.58,2.58,0,0,0-.53-1.75,1.74,1.74,0,0,0-2.61,0A2.62,2.62,0,0,0,35.24,51.6Z"/><path class="cls-1" d="M45.29,53.94a3.83,3.83,0,0,1-1.13.7,3.19,3.19,0,0,1-1.16.21,2.29,2.29,0,0,1-1.58-.5,1.65,1.65,0,0,1-.55-1.28,1.69,1.69,0,0,1,.21-.84,1.74,1.74,0,0,1,.54-.6,2.51,2.51,0,0,1,.76-.35,8.38,8.38,0,0,1,.94-.16,9.59,9.59,0,0,0,1.88-.36c0-.15,0-.24,0-.28a1.13,1.13,0,0,0-.3-.9,1.76,1.76,0,0,0-1.2-.36,1.8,1.8,0,0,0-1.1.26,1.6,1.6,0,0,0-.53.92l-1-.14a2.57,2.57,0,0,1,.46-1.07,2.11,2.11,0,0,1,.94-.63,4.26,4.26,0,0,1,1.41-.22,3.82,3.82,0,0,1,1.29.19,1.71,1.71,0,0,1,.73.47,1.6,1.6,0,0,1,.33.72,5.26,5.26,0,0,1,.06,1V52.1A16.75,16.75,0,0,0,46.33,54a2.6,2.6,0,0,0,.27.75H45.5A2.23,2.23,0,0,1,45.29,53.94Zm-.09-2.35a8.25,8.25,0,0,1-1.72.39,4.93,4.93,0,0,0-.92.21,1,1,0,0,0-.42.35A.87.87,0,0,0,42,53a.91.91,0,0,0,.32.7,1.39,1.39,0,0,0,.94.28,2.24,2.24,0,0,0,1.08-.26A1.64,1.64,0,0,0,45,53,2.62,2.62,0,0,0,45.2,52Z"/><path class="cls-1" d="M47.89,54.71V48.49h1v.94a2.48,2.48,0,0,1,.67-.87,1.17,1.17,0,0,1,.68-.22,2.13,2.13,0,0,1,1.08.34l-.36,1a1.56,1.56,0,0,0-.78-.23,1,1,0,0,0-.62.21,1.15,1.15,0,0,0-.39.58,4,4,0,0,0-.18,1.23v3.26Z"/><path class="cls-1" d="M55.93,54.71v-.79a1.92,1.92,0,0,1-1.74.93,2.44,2.44,0,0,1-1.36-.41,2.68,2.68,0,0,1-1-1.15,3.92,3.92,0,0,1-.34-1.69,4.39,4.39,0,0,1,.31-1.69,2.39,2.39,0,0,1,.93-1.16,2.47,2.47,0,0,1,1.39-.41,2.05,2.05,0,0,1,1,.24,2.14,2.14,0,0,1,.71.62V46.12h1v8.59ZM52.6,51.6a2.73,2.73,0,0,0,.5,1.79,1.55,1.55,0,0,0,1.19.59,1.52,1.52,0,0,0,1.18-.56A2.65,2.65,0,0,0,56,51.69a2.89,2.89,0,0,0-.49-1.87,1.51,1.51,0,0,0-1.21-.6,1.48,1.48,0,0,0-1.18.57A2.86,2.86,0,0,0,52.6,51.6Z"/></svg>