<svg id="Layer_1" data-name="Layer 1" xmlns="http://www.w3.org/2000/svg" viewBox="0 0 65.02 65.47"><defs><style>.cls-1{fill:#19315b;}</style></defs><title>icons</title><path class="cls-1" d="M0,50.93V42.34H1.71l2,6.08c.19.56.33,1,.41,1.27.1-.31.25-.77.46-1.38l2.06-6H8.2v8.59H7.1V43.74L4.61,50.93h-1L1.1,43.61v7.32Z"/><path class="cls-1" d="M9.85,53.32l-.12-1a2.49,2.49,0,0,0,.61.1,1.13,1.13,0,0,0,.56-.12,1,1,0,0,0,.34-.33,5.13,5.13,0,0,0,.33-.78l.09-.26L9.3,44.7h1.14l1.29,3.61a13.53,13.53,0,0,1,.45,1.44,13,13,0,0,1,.44-1.42L14,44.7H15L12.63,51A11.52,11.52,0,0,1,12,52.44a2.1,2.1,0,0,1-.64.77,1.56,1.56,0,0,1-.87.24A2,2,0,0,1,9.85,53.32Z"/><path class="cls-1" d="M18.82,50.93V42.34h5.8v1H20V46h4v1H20v3.91Z"/><path class="cls-1" d="M26,43.55V42.34H27v1.21Zm0,7.38V44.7H27v6.23Z"/><path class="cls-1" d="M28.63,50.93V44.7h.95v.89a2.21,2.21,0,0,1,2-1,2.66,2.66,0,0,1,1,.2,1.81,1.81,0,0,1,.71.53,2.1,2.1,0,0,1,.32.78,6,6,0,0,1,.06,1v3.83h-1V47.14a2.59,2.59,0,0,0-.13-1,.94.94,0,0,0-.43-.51,1.38,1.38,0,0,0-.74-.19,1.73,1.73,0,0,0-1.16.42,2.12,2.12,0,0,0-.49,1.63v3.4Z"/><path class="cls-1" d="M39.36,50.16a4,4,0,0,1-1.13.7,3.19,3.19,0,0,1-1.16.21,2.3,2.3,0,0,1-1.58-.5,1.77,1.77,0,0,1-.34-2.12,1.79,1.79,0,0,1,.55-.61,2.57,2.57,0,0,1,.75-.34,6.55,6.55,0,0,1,.94-.16A9.59,9.59,0,0,0,39.27,47c0-.15,0-.24,0-.28a1.17,1.17,0,0,0-.3-.91,1.76,1.76,0,0,0-1.2-.35,1.82,1.82,0,0,0-1.1.26,1.54,1.54,0,0,0-.52.92l-1-.14a2.58,2.58,0,0,1,.47-1.07,2,2,0,0,1,.93-.63,4.3,4.3,0,0,1,1.41-.22,3.68,3.68,0,0,1,1.3.19,1.68,1.68,0,0,1,.73.47,1.84,1.84,0,0,1,.33.72,6.67,6.67,0,0,1,.05,1v1.41a13.75,13.75,0,0,0,.07,1.86,2.31,2.31,0,0,0,.26.75h-1.1A2.23,2.23,0,0,1,39.36,50.16Zm-.09-2.36a7.43,7.43,0,0,1-1.72.4,3.82,3.82,0,0,0-.92.21,1,1,0,0,0-.42.34,1,1,0,0,0-.14.51.88.88,0,0,0,.32.7,1.34,1.34,0,0,0,.93.28A2.18,2.18,0,0,0,38.41,50a1.62,1.62,0,0,0,.69-.73,2.41,2.41,0,0,0,.17-1.05Z"/><path class="cls-1" d="M42,50.93V44.7h1v.89a2.23,2.23,0,0,1,2-1,2.71,2.71,0,0,1,1,.2,1.71,1.71,0,0,1,.7.53,2,2,0,0,1,.33.78,6,6,0,0,1,.06,1v3.83H46V47.14a2.82,2.82,0,0,0-.13-1,1,1,0,0,0-.43-.51,1.38,1.38,0,0,0-.74-.19,1.71,1.71,0,0,0-1.16.42A2.12,2.12,0,0,0,43,47.53v3.4Z"/><path class="cls-1" d="M52.71,48.65l1,.13a2.73,2.73,0,0,1-.87,1.68,2.58,2.58,0,0,1-1.72.61,2.67,2.67,0,0,1-2.06-.84,3.37,3.37,0,0,1-.77-2.39,4.44,4.44,0,0,1,.33-1.77,2.3,2.3,0,0,1,1-1.13,3,3,0,0,1,1.48-.38,2.54,2.54,0,0,1,1.66.52,2.37,2.37,0,0,1,.83,1.45l-1,.16a1.69,1.69,0,0,0-.52-.94,1.36,1.36,0,0,0-.9-.32,1.63,1.63,0,0,0-1.29.57,2.72,2.72,0,0,0-.5,1.81,2.81,2.81,0,0,0,.48,1.82,1.56,1.56,0,0,0,1.25.57,1.5,1.5,0,0,0,1-.38A1.94,1.94,0,0,0,52.71,48.65Z"/><path class="cls-1" d="M54.65,43.55V42.34h1.06v1.21Zm0,7.38V44.7h1.06v6.23Z"/><path class="cls-1" d="M61.37,50.16a4,4,0,0,1-1.12.7,3.24,3.24,0,0,1-1.17.21,2.26,2.26,0,0,1-1.57-.5A1.67,1.67,0,0,1,57,49.29a1.7,1.7,0,0,1,.75-1.45,2.63,2.63,0,0,1,.76-.34,6.3,6.3,0,0,1,.94-.16A9.75,9.75,0,0,0,61.29,47V46.7a1.17,1.17,0,0,0-.3-.91,1.76,1.76,0,0,0-1.2-.35,1.84,1.84,0,0,0-1.1.26,1.59,1.59,0,0,0-.52.92l-1-.14a2.57,2.57,0,0,1,.46-1.07,2.13,2.13,0,0,1,.93-.63,4.35,4.35,0,0,1,1.41-.22,3.61,3.61,0,0,1,1.3.19,1.62,1.62,0,0,1,.73.47,1.6,1.6,0,0,1,.33.72,6.67,6.67,0,0,1,.05,1v1.41a15.8,15.8,0,0,0,.07,1.86,2.12,2.12,0,0,0,.27.75H61.58A2.79,2.79,0,0,1,61.37,50.16Zm-.08-2.36a7.67,7.67,0,0,1-1.73.4,3.82,3.82,0,0,0-.92.21.91.91,0,0,0-.56.85.91.91,0,0,0,.32.7,1.34,1.34,0,0,0,.93.28A2.18,2.18,0,0,0,60.42,50a1.59,1.59,0,0,0,.7-.73,2.57,2.57,0,0,0,.17-1.05Z"/><path class="cls-1" d="M64,50.93V42.34H65v8.59Z"/><path class="cls-1" d="M21.53,62.31l1.14.29a3.86,3.86,0,0,1-1.29,2.14,3.53,3.53,0,0,1-2.27.73,4.16,4.16,0,0,1-2.26-.56,3.55,3.55,0,0,1-1.32-1.64,5.9,5.9,0,0,1-.45-2.3,5.12,5.12,0,0,1,.51-2.35,3.49,3.49,0,0,1,1.46-1.51,4.2,4.2,0,0,1,2.08-.52,3.52,3.52,0,0,1,2.17.66,3.4,3.4,0,0,1,1.22,1.84l-1.12.26A2.63,2.63,0,0,0,20.54,58a2.29,2.29,0,0,0-1.43-.43,2.76,2.76,0,0,0-1.66.48,2.49,2.49,0,0,0-.93,1.27,5.52,5.52,0,0,0,.05,3.56,2.3,2.3,0,0,0,1,1.22A2.8,2.8,0,0,0,19,64.5,2.45,2.45,0,0,0,20.64,64,2.79,2.79,0,0,0,21.53,62.31Z"/><path class="cls-1" d="M28.19,63.32l1.09.14a2.68,2.68,0,0,1-1,1.48,2.89,2.89,0,0,1-1.78.53,2.84,2.84,0,0,1-2.17-.85,3.28,3.28,0,0,1-.8-2.35,3.44,3.44,0,0,1,.81-2.44,2.74,2.74,0,0,1,2.1-.87,2.69,2.69,0,0,1,2,.85,3.36,3.36,0,0,1,.79,2.39c0,.06,0,.16,0,.28H24.67a2.41,2.41,0,0,0,.58,1.57,1.71,1.71,0,0,0,1.3.55,1.56,1.56,0,0,0,1-.31A1.93,1.93,0,0,0,28.19,63.32Zm-3.46-1.7h3.48a2.11,2.11,0,0,0-.4-1.18,1.61,1.61,0,0,0-1.31-.61,1.66,1.66,0,0,0-1.22.49A1.92,1.92,0,0,0,24.73,61.62Z"/><path class="cls-1" d="M30.61,65.33V59.1h.95V60a2.21,2.21,0,0,1,2-1,2.66,2.66,0,0,1,1,.2,1.74,1.74,0,0,1,.71.53,2.3,2.3,0,0,1,.33.78,6,6,0,0,1,.06,1v3.83H34.61V61.54a2.87,2.87,0,0,0-.12-1,1,1,0,0,0-.44-.51,1.35,1.35,0,0,0-.73-.19,1.75,1.75,0,0,0-1.17.42,2.16,2.16,0,0,0-.49,1.63v3.4Z"/><path class="cls-1" d="M39.58,64.38l.16.93a3.56,3.56,0,0,1-.8.1,1.82,1.82,0,0,1-.89-.18,1.09,1.09,0,0,1-.45-.48,4.06,4.06,0,0,1-.12-1.25V59.92H36.7V59.1h.78V57.56l1-.63V59.1h1.06v.82H38.52v3.64a1.69,1.69,0,0,0,.06.58.46.46,0,0,0,.18.21.74.74,0,0,0,.36.07A3,3,0,0,0,39.58,64.38Z"/><path class="cls-1" d="M44.88,63.32l1.09.14a2.69,2.69,0,0,1-1,1.48,2.87,2.87,0,0,1-1.78.53,2.84,2.84,0,0,1-2.17-.85,3.28,3.28,0,0,1-.8-2.35,3.44,3.44,0,0,1,.81-2.44,2.74,2.74,0,0,1,2.1-.87,2.69,2.69,0,0,1,2,.85A3.36,3.36,0,0,1,46,62.2v.28H41.35a2.41,2.41,0,0,0,.58,1.57,1.73,1.73,0,0,0,1.31.55,1.6,1.6,0,0,0,1-.31A2,2,0,0,0,44.88,63.32Zm-3.47-1.7h3.48a2.11,2.11,0,0,0-.4-1.18,1.61,1.61,0,0,0-1.31-.61,1.66,1.66,0,0,0-1.22.49A1.92,1.92,0,0,0,41.41,61.62Z"/><path class="cls-1" d="M47.28,65.33V59.1h.95v.95a2.44,2.44,0,0,1,.67-.88,1.16,1.16,0,0,1,.68-.21,2.13,2.13,0,0,1,1.08.34l-.36,1a1.56,1.56,0,0,0-.78-.23,1,1,0,0,0-.62.21,1.15,1.15,0,0,0-.39.58,4,4,0,0,0-.18,1.23v3.26Z"/><path class="cls-1" d="M15.5,15.8c0-8.06,7.81-14.37,17.78-14.37a19.39,19.39,0,0,1,8.95,1.93l.78.41.71-.51A11.38,11.38,0,0,1,48,1.32a.17.17,0,0,1,.16.06.17.17,0,0,1,0,.17,18.65,18.65,0,0,0-1.63,5.32,1.3,1.3,0,0,0,.11.65c1.13,2.64,3.53,5.32,5.93,5.32h.83a.63.63,0,0,1,.63.62V18c0,2.38,0,2.38-1.66,3.81a47,47,0,0,1-5.93,4.48l-2,6a.7.7,0,0,1-.66.47H41.63a.69.69,0,0,1-.67-.52l-.83-3.22a25.61,25.61,0,0,1-6.85.89,21.59,21.59,0,0,1-6.47-1L26,32.28a.69.69,0,0,1-.67.52H23.2a.69.69,0,0,1-.66-.47l-2.36-7A12.67,12.67,0,0,1,15.5,15.8ZM14,16.46c.11,2.29.1,1.68,1,4.18a14.65,14.65,0,0,0,4,5.55l2.24,6.73a1.93,1.93,0,0,0,1.82,1.31h2.41a1.9,1.9,0,0,0,1.85-1.44l.52-2.05a23.43,23.43,0,0,0,5.44.64,27.58,27.58,0,0,0,5.82-.61l.52,2a1.9,1.9,0,0,0,1.85,1.44h2.41a1.94,1.94,0,0,0,1.82-1.31l1.89-5.68a50.58,50.58,0,0,0,5.69-4.35C55.43,21,55.43,20.94,55.43,18V13.46a2,2,0,0,0-1.85-2.05h-1c-1.66,0-3.68-2.25-4.62-4.45a18.06,18.06,0,0,1,1.51-5C50,.67,49.59.4,49.24.21c-1.18-.64-4.06.26-6.35,1.89A20.85,20.85,0,0,0,33.28,0c-9.43,0-16.79,5.32-18.7,12.23A9.82,9.82,0,0,0,14,16.46Zm13.86-13a21.73,21.73,0,0,1,10.33,0,.72.72,0,1,1-.35,1.39,20.39,20.39,0,0,0-9.64,0,.47.47,0,0,1-.17,0,.72.72,0,0,1-.17-1.41Zm15.78,7.93A1.43,1.43,0,1,0,45.06,10,1.43,1.43,0,0,0,43.63,11.41Z"/><path class="cls-1" d="M29.62,22.08a2.81,2.81,0,0,1,0-.29v-.66H30.7V17.86L27.5,11.8H26.24V8.31h6.18v3.45h-.53l1,2.06L34,11.76h-.54l0-3.45h6.21v3.48l-1.27,0L37.23,14c-.43.82-.88,1.66-1.32,2.47l-.72,1.4v3.31h1.07v3.49H29.62Zm5.61.09H34.16v-4.6L35,15.94h0c.44-.8.89-1.65,1.33-2.47s.86-1.63,1.29-2.42l.15-.27h.86V9.35H34.49v1.37h1.19L32.94,16.1l-2.75-5.38h1.19V9.35h-4.1v1.41h.85l3.54,6.72.06.12v.12c0,1,0,2.06,0,3.09v1.36H30.65v1.41h4.57Z"/><path class="cls-1" d="M15,19.21a2,2,0,0,1-2.72-1.29A2.74,2.74,0,0,1,12,16.13a.85.85,0,0,1,1.3-.44.87.87,0,0,1,0,1.31,2.49,2.49,0,0,1-1.71.43,1.94,1.94,0,0,1-2-2.26.52.52,0,0,1,1,.27.8.8,0,0,0,.66.89c.52.16,1.46-.29,1.77.33.19.39.14.84.41,1.22a.91.91,0,0,0,1.05.44c.61-.27,1.14.62.53.89Z"/></svg>