<svg id="Layer_1" data-name="Layer 1" xmlns="http://www.w3.org/2000/svg" viewBox="0 0 75.32 53.08"><defs><style>.cls-1{fill:#19315b;}</style></defs><title>icons</title><path class="cls-1" d="M0,50.55V42H1.14v7.58H5.37v1Z"/><path class="cls-1" d="M10.63,48.55l1.09.13a2.67,2.67,0,0,1-1,1.49A2.85,2.85,0,0,1,9,50.69a2.83,2.83,0,0,1-2.16-.84A3.29,3.29,0,0,1,6,47.49a3.43,3.43,0,0,1,.81-2.43,2.73,2.73,0,0,1,2.09-.87A2.63,2.63,0,0,1,11,45a3.36,3.36,0,0,1,.79,2.39v.28H7.11a2.36,2.36,0,0,0,.58,1.57,1.71,1.71,0,0,0,1.3.55,1.56,1.56,0,0,0,1-.31A2,2,0,0,0,10.63,48.55ZM7.17,46.84h3.47a2.1,2.1,0,0,0-.4-1.17,1.59,1.59,0,0,0-1.3-.61,1.7,1.7,0,0,0-1.23.48A1.91,1.91,0,0,0,7.17,46.84Z"/><path class="cls-1" d="M17.1,49.79a4,4,0,0,1-1.12.7,3.2,3.2,0,0,1-1.17.2,2.21,2.21,0,0,1-1.57-.5,1.64,1.64,0,0,1-.55-1.28,1.78,1.78,0,0,1,.2-.83,1.71,1.71,0,0,1,.55-.61,2.39,2.39,0,0,1,.76-.34,6.55,6.55,0,0,1,.94-.16A9.61,9.61,0,0,0,17,46.6v-.27a1.17,1.17,0,0,0-.3-.91,1.76,1.76,0,0,0-1.2-.36,1.92,1.92,0,0,0-1.1.26,1.66,1.66,0,0,0-.52.93l-1-.14A2.51,2.51,0,0,1,13.33,45a2.13,2.13,0,0,1,.93-.63,4.09,4.09,0,0,1,1.41-.22,3.61,3.61,0,0,1,1.3.19,1.62,1.62,0,0,1,.73.47,1.6,1.6,0,0,1,.33.72,5.46,5.46,0,0,1,0,1V48a15.8,15.8,0,0,0,.07,1.86,2.28,2.28,0,0,0,.27.74h-1.1A2.42,2.42,0,0,1,17.1,49.79ZM17,47.43a7.67,7.67,0,0,1-1.73.4,3.82,3.82,0,0,0-.92.21.92.92,0,0,0-.41.34.89.89,0,0,0-.15.5.93.93,0,0,0,.32.71,1.42,1.42,0,0,0,.94.28,2.16,2.16,0,0,0,1.08-.27,1.64,1.64,0,0,0,.7-.73,2.6,2.6,0,0,0,.17-1Z"/><path class="cls-1" d="M19.71,50.55V44.33h.95v.94a2.48,2.48,0,0,1,.67-.87,1.16,1.16,0,0,1,.67-.21,2,2,0,0,1,1.09.34l-.37,1a1.49,1.49,0,0,0-.77-.23,1,1,0,0,0-.62.21,1.11,1.11,0,0,0-.39.57,4.08,4.08,0,0,0-.18,1.24v3.25Z"/><path class="cls-1" d="M23.71,50.55V44.33h.95v.89a2.23,2.23,0,0,1,2-1,2.71,2.71,0,0,1,1,.2,1.63,1.63,0,0,1,.7.53,2,2,0,0,1,.33.78,6,6,0,0,1,.06,1v3.82H27.72V46.77a2.93,2.93,0,0,0-.13-1,1,1,0,0,0-.43-.51,1.48,1.48,0,0,0-.74-.19,1.72,1.72,0,0,0-1.16.43,2.1,2.1,0,0,0-.49,1.62v3.4Z"/><path class="cls-1" d="M30.39,43.18V42h1.06v1.22Zm0,7.37V44.33h1.06v6.22Z"/><path class="cls-1" d="M33.05,50.55V44.33h1v.89a2.23,2.23,0,0,1,2-1,2.71,2.71,0,0,1,1,.2,1.63,1.63,0,0,1,.7.53,2,2,0,0,1,.33.78,6,6,0,0,1,.06,1v3.82h-1V46.77a2.93,2.93,0,0,0-.13-1,1,1,0,0,0-.43-.51,1.48,1.48,0,0,0-.74-.19,1.72,1.72,0,0,0-1.16.43,2.1,2.1,0,0,0-.49,1.62v3.4Z"/><path class="cls-1" d="M39.53,51.07l1,.15a.93.93,0,0,0,.36.69,1.72,1.72,0,0,0,1.07.3,1.85,1.85,0,0,0,1.13-.3,1.39,1.39,0,0,0,.54-.82,7.26,7.26,0,0,0,.08-1.35,2.2,2.2,0,0,1-1.73.81,2.36,2.36,0,0,1-2-.92,3.57,3.57,0,0,1-.71-2.22,4.09,4.09,0,0,1,.33-1.65,2.51,2.51,0,0,1,.93-1.16A2.56,2.56,0,0,1,42,44.19a2.23,2.23,0,0,1,1.81.89v-.75h1v5.38a5.06,5.06,0,0,1-.3,2.06,2.23,2.23,0,0,1-.94,1,3.25,3.25,0,0,1-1.57.35,3,3,0,0,1-1.8-.5A1.72,1.72,0,0,1,39.53,51.07Zm.88-3.74a2.74,2.74,0,0,0,.48,1.79,1.61,1.61,0,0,0,2.44,0,3.31,3.31,0,0,0,0-3.48,1.6,1.6,0,0,0-1.23-.58,1.53,1.53,0,0,0-1.19.57A2.55,2.55,0,0,0,40.41,47.33Z"/><path class="cls-1" d="M49,47.79l1.08-.09a2.33,2.33,0,0,0,.35,1.06,2,2,0,0,0,.86.67,3.3,3.3,0,0,0,1.32.25,3.12,3.12,0,0,0,1.15-.19A1.63,1.63,0,0,0,54.5,49a1.27,1.27,0,0,0,.25-.74,1.08,1.08,0,0,0-.24-.7,1.7,1.7,0,0,0-.77-.51,15,15,0,0,0-1.53-.42,7.76,7.76,0,0,1-1.66-.54,2.28,2.28,0,0,1-.92-.8,1.94,1.94,0,0,1-.3-1.07A2.15,2.15,0,0,1,49.7,43a2.34,2.34,0,0,1,1.08-.86,4,4,0,0,1,1.57-.29,4.43,4.43,0,0,1,1.69.3,2.43,2.43,0,0,1,1.12.91,2.62,2.62,0,0,1,.42,1.35l-1.09.09a1.73,1.73,0,0,0-.59-1.24,2.37,2.37,0,0,0-1.5-.41,2.33,2.33,0,0,0-1.5.38,1.11,1.11,0,0,0-.47.91,1,1,0,0,0,.33.76,4.55,4.55,0,0,0,1.72.61,11.29,11.29,0,0,1,1.9.55,2.49,2.49,0,0,1,1.1.88,2.11,2.11,0,0,1,.36,1.22,2.35,2.35,0,0,1-.39,1.29,2.57,2.57,0,0,1-1.13.94,3.84,3.84,0,0,1-1.65.34,4.92,4.92,0,0,1-2-.34,2.75,2.75,0,0,1-1.23-1A3,3,0,0,1,49,47.79Z"/><path class="cls-1" d="M61.34,50.55v-.91a2.3,2.3,0,0,1-2,1,2.56,2.56,0,0,1-1-.21,1.63,1.63,0,0,1-.7-.53,1.84,1.84,0,0,1-.33-.78,5.7,5.7,0,0,1-.06-1V44.33h1v3.45a6.77,6.77,0,0,0,.06,1.12,1.12,1.12,0,0,0,.43.65,1.28,1.28,0,0,0,.79.24,1.73,1.73,0,0,0,.89-.25,1.3,1.3,0,0,0,.59-.66,3.2,3.2,0,0,0,.18-1.22V44.33h1.05v6.22Z"/><path class="cls-1" d="M63.94,43.18V42h1v1.22Zm0,7.37V44.33h1v6.22Z"/><path class="cls-1" d="M68.9,49.61l.15.93a4.06,4.06,0,0,1-.79.1,1.78,1.78,0,0,1-.89-.19,1.07,1.07,0,0,1-.45-.47,4,4,0,0,1-.13-1.25V45.15H66v-.82h.77V42.79l1-.63v2.17H68.9v.82H67.84v3.64a1.73,1.73,0,0,0,.06.58.35.35,0,0,0,.18.2.6.6,0,0,0,.36.08A3,3,0,0,0,68.9,49.61Z"/><path class="cls-1" d="M74.19,48.55l1.09.13a2.71,2.71,0,0,1-1,1.49,2.89,2.89,0,0,1-1.78.52,2.85,2.85,0,0,1-2.17-.84,3.29,3.29,0,0,1-.8-2.36,3.43,3.43,0,0,1,.81-2.43,2.74,2.74,0,0,1,2.1-.87,2.66,2.66,0,0,1,2,.85,3.41,3.41,0,0,1,.79,2.39c0,.06,0,.16,0,.28H70.67a2.36,2.36,0,0,0,.58,1.57,1.71,1.71,0,0,0,1.3.55,1.56,1.56,0,0,0,1-.31A2,2,0,0,0,74.19,48.55Zm-3.46-1.71H74.2a2.1,2.1,0,0,0-.39-1.17,1.63,1.63,0,0,0-1.31-.61,1.69,1.69,0,0,0-1.22.48A2,2,0,0,0,70.73,46.84Z"/><path class="cls-1" d="M45.09,35.29H27.52a9.8,9.8,0,0,1-1.33-.09l-.15,0a8.68,8.68,0,0,1-4.67-2.23,8.59,8.59,0,0,1-2.61-4.48c-.09-.37-.14-.73-.19-1.08V27.3a7.42,7.42,0,0,1-.06-.94V0h9.82V.82c0,.41,0,.68,0,.84V26.59h12c1.58,0,3.22,0,4.82,0a2.58,2.58,0,0,0,.38,0l-.87-.33-1.72-.65-.68-.26c-.76-.28-1.55-.58-2.32-.95a7.1,7.1,0,0,1-3.33-3.08,7.92,7.92,0,0,1-.44-6.14,7.84,7.84,0,0,1,4-4.75A12.9,12.9,0,0,1,47.52,9a14,14,0,0,1,8,3.39l.18.17.08.07.61.57-5.92,6a11.49,11.49,0,0,1,2,1.15,6.55,6.55,0,0,1,2.79,4,8.32,8.32,0,0,1-2.14,7.75,10.29,10.29,0,0,1-6,3l-.88.12A9.14,9.14,0,0,1,45.09,35.29Zm-25-33.66V26.36a5.81,5.81,0,0,0,.05.72v.07c0,.34.09.65.16,1a7.21,7.21,0,0,0,5.92,5.46l.16,0a6.58,6.58,0,0,0,1.09.08H45.09a7.85,7.85,0,0,0,1-.06c.27,0,.54-.06.8-.11A8.7,8.7,0,0,0,51.94,31a6.66,6.66,0,0,0,1.73-6.31,5,5,0,0,0-2.17-3,11.62,11.62,0,0,0-3.2-1.59L45.14,19a3.81,3.81,0,0,1-.62-.29,1.63,1.63,0,0,1-.9-1.56,1.64,1.64,0,0,1,1-1.46,4.23,4.23,0,0,1,2.7-.24A6.53,6.53,0,0,1,50.42,17l3.66-3.74a12.4,12.4,0,0,0-6.72-2.65,11.16,11.16,0,0,0-6.44,1.2,6.24,6.24,0,0,0-3.23,3.77A6.27,6.27,0,0,0,38,20.51a5.38,5.38,0,0,0,2.59,2.37c.7.33,1.42.61,2.19.9l.69.26,1.7.64,1.14.43a3.22,3.22,0,0,1,.53.26,1.4,1.4,0,0,1,.7,1.33,1.35,1.35,0,0,1-1,1.26l-.07,0a6,6,0,0,1-1.35.23c-1.61,0-3.25,0-4.84,0H27.87A1,1,0,0,1,26.66,27V24.66q0-11.51,0-23ZM45.25,17.27l0,0a2.13,2.13,0,0,0,.38.18l3.15,1.09c.49.17.94.34,1.36.53l-.34-.33,0,0-.14-.14A4.69,4.69,0,0,0,47,17.06a2.62,2.62,0,0,0-1.68.13s0,0,0,0v.06Zm0,0Zm0-.08Zm0,0Z"/></svg>