<svg id="Layer_1" data-name="Layer 1" xmlns="http://www.w3.org/2000/svg" viewBox="0 0 37.97 51.11"><defs><style>.cls-1{fill:#19315b;}</style></defs><title>icons</title><path class="cls-1" d="M1.28,18.19V4.84c0-.65.09-.77.69-1Q7.29,2.1,12.62.31a1.66,1.66,0,0,1,1.1,0Q18.86,2.06,24,3.76a1.26,1.26,0,0,0,.72,0Q30,2.05,35.14.3c.81-.26,1.13,0,1.13.84V27.89c0,.63-.08.75-.69,1-3.6,1.2-7.21,2.41-10.81,3.59a1.4,1.4,0,0,1-.81,0C20.48,31.27,17,30.1,13.53,29a1.14,1.14,0,0,0-.73,0c-3.5,1.15-7,2.33-10.5,3.49-.64.22-1-.05-1-.74ZM35,1.75l-.36.1Q30,3.39,25.41,4.92a.46.46,0,0,0-.38.54Q25,18,25,30.51c0,.14,0,.28,0,.47l9.9-3.3ZM2.61,5V31c.14,0,.24-.06.34-.1l9.16-3.05a.5.5,0,0,0,.42-.56q0-12.53,0-25c0-.14,0-.28,0-.47ZM13.82,1.75v.51q0,12.48,0,25a.52.52,0,0,0,.42.6c3,1,6,2,9,3,.14.05.28.08.47.13V5.43a.44.44,0,0,0-.36-.51l-9.15-3Z"/><path class="cls-1" d="M1.91,32.73a.79.79,0,0,1-.47-.14,1,1,0,0,1-.36-.88V4.84c0-.73.14-.93.83-1.16l2.61-.87C7.2,1.92,9.88,1,12.56.12a1.89,1.89,0,0,1,1.22,0c3.69,1.24,7.06,2.37,10.31,3.44a1,1,0,0,0,.6,0L32.79.88,35.08.11a1.14,1.14,0,0,1,1,0c.24.17.35.49.35,1V27.89c0,.72-.14.91-.83,1.15l-1.85.62c-3,1-6,2-9,3a1.59,1.59,0,0,1-.94,0L18.6,30.85l-5.14-1.7a1,1,0,0,0-.6,0c-2.8.92-5.6,1.86-8.4,2.8l-2.09.69A1.48,1.48,0,0,1,1.91,32.73ZM13.16.42a1.55,1.55,0,0,0-.47.08l-8,2.69L2,4.06c-.52.18-.55.22-.55.78V31.71a.7.7,0,0,0,.18.55.7.7,0,0,0,.57,0l2.09-.7c2.8-.94,5.6-1.88,8.41-2.8a1.37,1.37,0,0,1,.85,0l5.14,1.7L24,32.23a1.14,1.14,0,0,0,.68,0c3-1,6-2,9-3l1.85-.62c.53-.18.56-.22.56-.77V1.14c0-.37-.06-.6-.18-.68s-.35-.08-.68,0l-2.3.77L24.82,4A1.4,1.4,0,0,1,24,4c-3.25-1.07-6.62-2.2-10.3-3.44A1.56,1.56,0,0,0,13.16.42ZM24.88,31.26l0-.44c0-.11,0-.21,0-.31V26q0-10.26,0-20.5a.66.66,0,0,1,.51-.73l7.18-2.39,2-.68.22-.06.4-.12V27.82ZM34.76,2l-.1,0-2,.68L25.47,5.11c-.21.06-.24.11-.24.35q0,10.24,0,20.5v4.55a1.34,1.34,0,0,0,0,.2l9.51-3.18ZM2.41,31.23V4.89L12.67,1.46l0,.44c0,.11,0,.21,0,.3V7.48q0,9.89,0,19.77a.7.7,0,0,1-.56.75L5.24,30.31,3,31.05l-.21.07Zm.4-26V30.7l.08,0,2.22-.74c2.31-.77,4.62-1.55,6.94-2.31.23-.08.28-.13.28-.37q0-9.88,0-19.77V2.2c0-.06,0-.13,0-.2Zm21.13,26-.43-.11-.3-.09-2.39-.8L14.16,28a.72.72,0,0,1-.55-.79q0-10.56,0-21.12V1.49L14,1.6l.26.08,2.31.77c2.28.76,4.56,1.53,6.85,2.28a.63.63,0,0,1,.49.7V31.22ZM14,2V6.1q0,10.56,0,21.12c0,.26.05.33.28.41q3.33,1.1,6.66,2.22l2.38.79a1.29,1.29,0,0,0,.21.06V5.43c0-.21,0-.26-.22-.32L16.47,2.83l-2.31-.77Z"/><path class="cls-1" d="M0,48.59V40H1.71l2,6.08c.19.56.33,1,.41,1.27.1-.31.25-.77.46-1.38l2.06-6H8.2v8.59H7.1V41.4L4.61,48.59h-1L1.1,41.27v7.32Z"/><path class="cls-1" d="M9.85,51l-.12-1a2.09,2.09,0,0,0,.61.1A1.13,1.13,0,0,0,10.9,50a1,1,0,0,0,.34-.33,4.69,4.69,0,0,0,.33-.78l.09-.26L9.3,42.36h1.14L11.73,46a13.53,13.53,0,0,1,.45,1.44A13,13,0,0,1,12.62,46L14,42.36H15l-2.37,6.33A10.85,10.85,0,0,1,12,50.1a2.1,2.1,0,0,1-.64.77,1.56,1.56,0,0,1-.87.24A2,2,0,0,1,9.85,51Z"/><path class="cls-1" d="M16,48.59V40h1.71l2,6.08c.19.56.32,1,.41,1.27.1-.31.25-.77.46-1.38l2.05-6h1.53v8.59H23.1V41.4l-2.5,7.19h-1l-2.49-7.32v7.32Z"/><path class="cls-1" d="M30,47.82a3.79,3.79,0,0,1-1.12.7,3.24,3.24,0,0,1-1.17.21,2.26,2.26,0,0,1-1.57-.5A1.65,1.65,0,0,1,25.54,47a1.68,1.68,0,0,1,.2-.84,1.79,1.79,0,0,1,.55-.61,2.63,2.63,0,0,1,.76-.34A6.36,6.36,0,0,1,28,45a9.73,9.73,0,0,0,1.89-.36v-.28a1.17,1.17,0,0,0-.3-.91,1.81,1.81,0,0,0-1.2-.35,1.84,1.84,0,0,0-1.1.26,1.59,1.59,0,0,0-.52.92l-1-.14a2.45,2.45,0,0,1,.46-1.07,2.07,2.07,0,0,1,.93-.63,4.35,4.35,0,0,1,1.41-.22,3.84,3.84,0,0,1,1.3.19,1.71,1.71,0,0,1,.73.47,1.6,1.6,0,0,1,.33.72,6.67,6.67,0,0,1,.05,1V46A13.75,13.75,0,0,0,31,47.84a2.12,2.12,0,0,0,.27.75H30.16A2.48,2.48,0,0,1,30,47.82Zm-.08-2.36a7.67,7.67,0,0,1-1.73.4,3.82,3.82,0,0,0-.92.21.89.89,0,0,0-.41.35.87.87,0,0,0-.15.5.91.91,0,0,0,.32.7,1.34,1.34,0,0,0,.93.28A2.18,2.18,0,0,0,29,47.63a1.65,1.65,0,0,0,.7-.73,2.57,2.57,0,0,0,.17-1Z"/><path class="cls-1" d="M32.57,51V42.36h1v.81a2.34,2.34,0,0,1,.77-.71,2.06,2.06,0,0,1,1-.24,2.51,2.51,0,0,1,1.41.41,2.54,2.54,0,0,1,.92,1.16A4.17,4.17,0,0,1,38,45.43a4.33,4.33,0,0,1-.34,1.72,2.63,2.63,0,0,1-2.37,1.58,2,2,0,0,1-.95-.23,2,2,0,0,1-.69-.56v3Zm1-5.46A2.7,2.7,0,0,0,34,47.29a1.5,1.5,0,0,0,1.18.57,1.54,1.54,0,0,0,1.2-.59,2.88,2.88,0,0,0,.5-1.85,2.74,2.74,0,0,0-.49-1.78,1.47,1.47,0,0,0-1.17-.59,1.52,1.52,0,0,0-1.19.63A2.79,2.79,0,0,0,33.52,45.51Z"/></svg>