<svg id="Layer_1" data-name="Layer 1" xmlns="http://www.w3.org/2000/svg" viewBox="0 0 72 72"><defs><style>.cls-1{fill:silver;}</style></defs><title>ActiveShooter_icon</title><path class="cls-1" d="M40.37,37.29a7.73,7.73,0,0,1-2.93-.58,1,1,0,0,0-.76,1.85,9.7,9.7,0,1,0-2.81-16.18,1,1,0,0,0,1.34,1.48,7.71,7.71,0,1,1,5.16,13.43Z"/><path class="cls-1" d="M57.2,28.54H54.48A13.92,13.92,0,0,0,41.66,15.76V13.09h-2v2.68a13.81,13.81,0,0,0-10.77,6.39,1,1,0,0,0,.31,1.38,1,1,0,0,0,1.38-.3,11.82,11.82,0,0,1,9.08-5.47v1h2v-1A11.93,11.93,0,0,1,52.48,28.54H51.21v2h1.27A11.91,11.91,0,0,1,41.66,41.46v-1h-2v1a11.92,11.92,0,0,1-3.85-1,1,1,0,0,0-1.32.51A1,1,0,0,0,35,42.32a13.68,13.68,0,0,0,4.66,1.14v3.25h2V43.46A13.9,13.9,0,0,0,54.48,30.54H57.2Z"/><path class="cls-1" d="M42.92,34.61A1.65,1.65,0,0,0,44.56,33V27.45a1.65,1.65,0,0,0-1.63-1.65H41.49V24.45h-2v1.33l-22.82-.16h0a1.35,1.35,0,0,0-1.16.67l-1,1.68-1.76-1-1,1.72,1.77,1.05L11.7,32.82a1.34,1.34,0,0,0,.42,1.8l2.2,1.48a.88.88,0,0,1,.4.91L11.78,45.3a2.86,2.86,0,0,0,.5,2.47,2.83,2.83,0,0,0,2.26,1.11h4.87a2.84,2.84,0,0,0,2.77-2.18l1.91-6.84v.62h4.43a5.19,5.19,0,0,0,5.19-5.19v-.68ZM20.24,46.21a.85.85,0,0,1-.83.67H14.54a.87.87,0,0,1-.85-1l2.94-8.29a2.89,2.89,0,0,0-1.2-3.16L13.74,33.3,17,27.62l25.53.18v4.81h-17a1.94,1.94,0,0,0-1.89,1.47ZM31.71,35.29a3.19,3.19,0,0,1-3.19,3.19H24.47l1-3.45,1.5,1.83a1,1,0,0,0,.77.37,1,1,0,0,0,.64-.23,1,1,0,0,0,.14-1.41l-.81-1h4Z"/></svg>