<svg id="Layer_1" data-name="Layer 1" xmlns="http://www.w3.org/2000/svg" viewBox="0 0 72 72"><defs><style>.cls-1{fill:silver;}</style></defs><title>AED_icon</title><path class="cls-1" d="M56.64,19.54a12.92,12.92,0,0,0-18.25-.41l-2.86,2.69-2.85-2.68A12.91,12.91,0,1,0,14.82,37.8L34.25,56.14a2.94,2.94,0,0,0,4.09-.08L56.24,37.8A12.92,12.92,0,0,0,56.64,19.54Zm-1.8,16.83L36.91,54.66a.92.92,0,0,1-1.29,0L16.2,36.35a10.92,10.92,0,0,1,7.31-18.8h.25a10.81,10.81,0,0,1,7.54,3l4.22,4,4.25-4A10.91,10.91,0,1,1,54.84,36.37Z"/><path class="cls-1" d="M44,32.61H39.62L40.94,26A1.11,1.11,0,0,0,39,25.09l-9.75,11.2a1.11,1.11,0,0,0,.83,1.83h4.83L33.55,45.3a1.12,1.12,0,0,0,.67,1.16,1.26,1.26,0,0,0,.43.08,1.12,1.12,0,0,0,.87-.42l9.34-11.71a1.11,1.11,0,0,0-.88-1.8ZM36.21,42l.89-4.62a1.08,1.08,0,0,0-.23-.9l-.38-.4H32.07l6.25-7.18-.88,4.33a1.08,1.08,0,0,0,.23.93l.38.41h4.08Z"/></svg>