<svg id="Layer_1" data-name="Layer 1" xmlns="http://www.w3.org/2000/svg" viewBox="0 0 72 72"><defs><style>.cls-1{fill:silver;}</style></defs><title>backpack_icon</title><path class="cls-1" d="M51.88,25.23V16h-6.7v2.81a14.76,14.76,0,0,0-3.37-1.09,5.19,5.19,0,0,0-10.38.09v0a14.89,14.89,0,0,0-2.88,1V16.5H21.86v8.6H22a14.22,14.22,0,0,0-1.69,6.75V50.3a5.91,5.91,0,0,0,5.9,5.9H47.61a5.91,5.91,0,0,0,5.9-5.9V31.85A14.34,14.34,0,0,0,51.88,25.23ZM47.18,18h2.7v4.33a14.33,14.33,0,0,0-2.7-2.4ZM36.63,14.62a3.19,3.19,0,0,1,3.16,2.88c-.22,0-.44,0-.66,0H34.7c-.42,0-.83,0-1.24.06A3.2,3.2,0,0,1,36.63,14.62ZM23.86,18.5h2.69V20a14.41,14.41,0,0,0-2.69,2.42ZM51.51,50.3a3.91,3.91,0,0,1-3.9,3.9H26.22a3.91,3.91,0,0,1-3.9-3.9V31.85A12.4,12.4,0,0,1,34.7,19.47h4.43A12.4,12.4,0,0,1,51.51,31.85Z"/><path class="cls-1" d="M46.5,37.86H27.92A1.92,1.92,0,0,0,26,39.78v9.47a1.93,1.93,0,0,0,1.92,1.93H46.5a1.93,1.93,0,0,0,1.92-1.93V39.78A1.92,1.92,0,0,0,46.5,37.86Zm-.08,2v1.9H28v-1.9ZM28,49.18V43.76h2.63v2h2v-2H46.42v5.42Z"/><path class="cls-1" d="M32,26.17h.7l3.34,4.17s0,0,0,0l.07,2.21h-.46a1,1,0,1,0,0,2h2.66a1,1,0,0,0,0-2h-.2l-.06-2.27,3-3.9a1,1,0,0,0,.13-.25h.27a1,1,0,0,0,0-2H38.74a1,1,0,0,0,0,2h0l-1.7,2.22-1.77-2.22h.55a1,1,0,0,0,0-2H32a1,1,0,0,0,0,2Z"/></svg>