<svg id="Layer_1" data-name="Layer 1" xmlns="http://www.w3.org/2000/svg" viewBox="0 0 72 72"><defs><style>.cls-1{fill:silver;}</style></defs><title>Research_icon</title><path class="cls-1" d="M53.31,50.5l-9.9-19.38a10.16,10.16,0,0,1-1.11-4.59v-6.3h.49a1,1,0,0,0,0-2H32.35a1,1,0,0,0,0,2h.56v6.7a10,10,0,0,1-1,4.43L22.42,50.68a3.76,3.76,0,0,0,1.24,5.12,3.68,3.68,0,0,0,2,.57h0l24.48-.12a3.76,3.76,0,0,0,3.74-3.76A3.77,3.77,0,0,0,53.31,50.5ZM33.68,32.24a12.06,12.06,0,0,0,1.23-5.31v-6.7H40.3v6.3A12.06,12.06,0,0,0,41.63,32l1.61,3.16h-11Zm17.69,21.5a1.74,1.74,0,0,1-1.24.51l-24.48.12a1.49,1.49,0,0,1-.93-.26,1.76,1.76,0,0,1-.57-2.42l7.11-14.5h13l7.29,14.27.05.09a1.75,1.75,0,0,1,.28.94A1.78,1.78,0,0,1,51.37,53.74Z"/><path class="cls-1" d="M40.36,40A3.59,3.59,0,1,0,44,43.58,3.58,3.58,0,0,0,40.36,40Zm0,5.17A1.59,1.59,0,1,1,42,43.58,1.59,1.59,0,0,1,40.36,45.17Z"/><path class="cls-1" d="M35.39,16.36a2.79,2.79,0,1,0-2.79-2.79A2.79,2.79,0,0,0,35.39,16.36Zm0-3.58a.79.79,0,1,1-.79.79A.8.8,0,0,1,35.39,12.78Z"/><path class="cls-1" d="M32.12,45.68a2.79,2.79,0,1,0,2.78,2.79A2.79,2.79,0,0,0,32.12,45.68Zm0,3.57a.79.79,0,1,1,.78-.78A.78.78,0,0,1,32.12,49.25Z"/><path class="cls-1" d="M37.43,34.14a1,1,0,0,1,1,1h2a3,3,0,1,0-6,0h2A1,1,0,0,1,37.43,34.14Z"/></svg>