<svg id="Layer_1" data-name="Layer 1" xmlns="http://www.w3.org/2000/svg" viewBox="0 0 72 72"><defs><style>.cls-1{fill:silver;}</style></defs><title>Biking_icon</title><path class="cls-1" d="M54.24,28.33a10.41,10.41,0,0,0-5,1.25l-3-4.7L48.69,21h5a1.48,1.48,0,0,1,0,2.95H52.17v2h1.52a3.48,3.48,0,0,0,0-6.95H43.3v2h3.05l-2.27,3.7-15.32.07L26.13,21h4.52V19H20.82v2h2.86l2.68,3.78-3.05,4.8a10.5,10.5,0,1,0,5.34,10.87l8.12,0V40l8.31-13.28,2.53,4a10.48,10.48,0,1,0,6.63-2.37ZM27.61,26.56l.05.08.1-.07,7.9,11.86-6.89,0A10.45,10.45,0,0,0,25,30.72Zm-.83,11.91-6.74,0,3.84-6.07A8.45,8.45,0,0,1,26.78,38.47ZM18.3,47.31a8.49,8.49,0,1,1,3.94-16l-4.52,7.13a1.29,1.29,0,0,0-.22.74,1.35,1.35,0,0,0,1.35,1.34h0l7.77,0A8.51,8.51,0,0,1,18.3,47.31ZM36.68,36.37l-6.41-9.64,12.48-.06ZM54.24,47.31A8.49,8.49,0,0,1,48.69,32.4l4.57,7.21a1,1,0,0,0,.85.46,1.08,1.08,0,0,0,.54-.15,1,1,0,0,0,.3-1.38l-4.6-7.26a8.32,8.32,0,0,1,3.89-1,8.49,8.49,0,0,1,0,17Z"/></svg>