<?xml version="1.0" encoding="utf-8"?>
<!-- Generator: Adobe Illustrator 24.0.3, SVG Export Plug-In . SVG Version: 6.00 Build 0)  -->
<svg version="1.1" id="Layer_1" xmlns="http://www.w3.org/2000/svg" xmlns:xlink="http://www.w3.org/1999/xlink" x="0px" y="0px"
	 viewBox="0 0 72 72" style="enable-background:new 0 0 72 72;" xml:space="preserve">
<style type="text/css">
	.st0{fill:#C0C0C0;}
</style>
<title>Explore_icon</title>
<path class="st0" d="M54.5,23.2l0.2-0.3c0.7-1.3,0.6-2.8-0.2-3.9c-0.8-1.2-2.2-1.8-3.6-1.5c-1.1,0.2-2,0.8-2.6,1.8l-0.8,1.4
	c-1.6,0.4-3.1,1.3-4.1,3.1l-0.3,0.5c0-0.1-0.1-0.2-0.1-0.4l0.4-1.1c0.7-1.2,0.6-2.7-0.2-3.9c-0.8-1.2-2.2-1.8-3.6-1.5
	c-1.1,0.2-2,0.8-2.5,1.7l-1.2,1.7c-3.2,1-5.5,4.1-6.8,5.8c-0.2,0.2-0.3,0.4-0.5,0.7L17.7,43.9l0.1,0.1c-0.6,1.1-1,2.3-1,3.6
	c0,4,3.3,7.3,7.3,7.3c3.4,0,6.2-2.3,7.1-5.3l0.1-0.1c0.8,3.1,3.7,5.4,7.1,5.4c3.6,0,6.5-2.5,7.2-5.9c3.6-7.5,9.5-19.7,9.6-19.9
	C56.1,26.8,55.6,24.7,54.5,23.2z M51.2,19.4c0.7-0.1,1.3,0.1,1.7,0.7c0.4,0.5,0.4,1.1,0.1,1.7c-0.3-0.2-0.6-0.4-1-0.6
	c-0.7-0.3-1.4-0.5-2.2-0.6l0.2-0.3C50.3,19.8,50.7,19.5,51.2,19.4z M39.8,19.3c0.7-0.1,1.3,0.1,1.7,0.7c0.4,0.5,0.4,1.2,0.1,1.8l0,0
	c-0.6-0.5-1.4-0.9-2.2-1.1c-0.3-0.1-0.7-0.1-1-0.2l0.3-0.4C38.9,19.7,39.4,19.4,39.8,19.3z M30.1,28.4c0.1-0.2,0.3-0.4,0.5-0.6
	c1.6-2.1,4.5-6.1,8.3-5.2c1.3,0.3,1.9,1.2,2.2,1.9c0.4,1,0.4,2.3-0.1,3.5l-0.7,1.3c-0.8-0.1-1.6-0.1-2.4,0.1c-2.3,0.5-4,2.1-4.7,4.1
	c-0.1,0.4,0,0.8,0.2,1.2c0.2,0.3,0.6,0.5,1.1,0.5c0,0,0,0,0,0l2.6,0l-4.5,8.1c-0.4,0.5-0.7,1-0.9,1.6l-0.3,0.6c-0.9-3-3.7-5.3-7-5.3
	c-0.7,0-1.3,0.1-2,0.3L30.1,28.4z M35.5,33.1c0.6-0.9,1.6-1.6,2.7-1.8c0.4-0.1,0.7-0.1,1-0.1c1.5,0,2.8,0.7,3.4,1.8L35.5,33.1z
	 M24.2,52.9c-2.9,0-5.3-2.4-5.3-5.3s2.4-5.3,5.3-5.3s5.3,2.4,5.3,5.3c0,0.4-0.1,0.9-0.2,1.3l-0.1,0.1l0,0
	C28.8,51.2,26.7,52.9,24.2,52.9z M38.4,52.9c-2.9,0-5.3-2.4-5.3-5.3c0-0.7,0.1-1.3,0.4-1.9l0.7-1.3c1-1.3,2.5-2.2,4.3-2.2
	c2.9,0,5.3,2.4,5.3,5.3c0,0.3,0,0.6-0.1,0.9c0,0,0,0.1-0.1,0.1l0,0C43.2,51,41,52.9,38.4,52.9z M53.3,28.3c-0.2,0.4-4.7,9.7-8,16.7
	c-1-2.8-3.7-4.8-6.9-4.8c-0.7,0-1.5,0.1-2.1,0.3l3-5.5l4.3-0.1h0c0.4,0,0.9-0.2,1.1-0.6c0.3-0.3,0.3-0.8,0.2-1.2
	c-0.4-1.5-1.4-2.6-2.7-3.3l0.1-0.2l0,0c0.2-0.3,0.3-0.5,0.4-0.8l2.3-4.2c1.5-2.5,4.2-2.6,6-1.7C52.8,23.8,54.4,25.7,53.3,28.3z"/>
</svg>
