<svg id="Layer_1" data-name="Layer 1" xmlns="http://www.w3.org/2000/svg" viewBox="0 0 72 72"><defs><style>.cls-1{fill:silver;}</style></defs><title>Book_leger_icon</title><path class="cls-1" d="M40,38.74H38.86a2,2,0,0,1-1.47-.52,1,1,0,0,0-1.36.05,1,1,0,0,0,.06,1.35,3.82,3.82,0,0,0,2.5,1v.25a1,1,0,1,0,1.92,0v-.28c1.72-.16,2.81-1.12,2.81-2.55,0-1.15-1.14-2.36-3-2.37h-.76c-.83,0-1.09,0-1.39-.21a.39.39,0,0,1-.14-.17A.44.44,0,0,1,38,35a.46.46,0,0,1,.28-.29,1.11,1.11,0,0,1,.67-.12l.07,0h.79a2.13,2.13,0,0,1,1.52.54A1,1,0,0,0,42.65,35a1,1,0,0,0-.09-1.35,4.07,4.07,0,0,0-2.05-1v-.37a1,1,0,0,0-1.92,0v.31a2.85,2.85,0,0,0-1.23.33,2.42,2.42,0,0,0-1.22,1.37,2.37,2.37,0,0,0,.11,1.83,2.34,2.34,0,0,0,.72.88,3.78,3.78,0,0,0,2.58.59h.71c.77,0,1.11.36,1.14.45C41.4,38.68,40.43,38.74,40,38.74Z"/><path class="cls-1" d="M49.14,27.69V23.62H36.49a5.37,5.37,0,0,0-4.4,2.31,5.39,5.39,0,0,0-4.41-2.31H16.09v4.07H12V52.36H53.77V27.69ZM36.49,25.54H47.22V46.38h-6a13,13,0,0,0-8.15,2.88V28.82A3.44,3.44,0,0,1,36.49,25.54Zm-13.2,24.9H14V29.61h2.14V48.3H22.9a11.09,11.09,0,0,1,6.53,2.14Zm-.39-4.06H18V25.54h9.67a3.46,3.46,0,0,1,3.45,3.28,1,1,0,0,0,0,.17V49.32A13,13,0,0,0,22.9,46.38Zm29,4.06H34.66A11,11,0,0,1,41.2,48.3h7.94V29.61h2.71Z"/></svg>