<svg id="Layer_1" data-name="Layer 1" xmlns="http://www.w3.org/2000/svg" viewBox="0 0 72 72"><defs><style>.cls-1{fill:silver;}</style></defs><title>Books_icon</title><path class="cls-1" d="M55.3,24.9,44,24.44s0-.08,0-.12a7.47,7.47,0,0,0-2.43-5.51,5.5,5.5,0,0,0,1.8-.54c1.87-1,2.89-4,3-4.3l.35-1.06-1.1-.23c-.32-.07-3.23-.64-5.08.37a10,10,0,0,0-3.19,3.82l-.18,0V12.38h-2v4.56A7.52,7.52,0,0,0,29,24.32a7.41,7.41,0,0,0,.83,3.41l-12.67,8a2.39,2.39,0,0,0-.34.21h0a3.75,3.75,0,0,0-1.55,3,3.71,3.71,0,0,0,1.23,2.75,3.73,3.73,0,0,0-1.24,2.77,3.69,3.69,0,0,0,1.24,2.76,3.74,3.74,0,0,0,2.52,6.52l19.76-.14,15.72-9.69a1.79,1.79,0,0,0,.84-1.5V32.15h0V26.64l0,0ZM41.54,14.81a5.07,5.07,0,0,1,2.5-.32,4.85,4.85,0,0,1-1.57,2,6.38,6.38,0,0,1-2.79.42A6.35,6.35,0,0,1,41.54,14.81ZM53.38,31,38.24,40.56l-19.18.14A1.76,1.76,0,0,1,17.31,39,1.73,1.73,0,0,1,18,37.59l.37-.24a1.8,1.8,0,0,1,.72-.16l19.76,0,14.56-9.26ZM36.54,18.82a5.5,5.5,0,1,1-5.5,5.5A5.51,5.51,0,0,1,36.54,18.82Zm0,13a7.51,7.51,0,0,0,7.2-5.39l7.75.31L38.24,35.17l-16.46,0L31,29.37A7.51,7.51,0,0,0,36.54,31.82Zm1.71,19.8-19.2.13a1.76,1.76,0,1,1,0-3.51v0h0l19.76-.14,14.53-9v.08a.3.3,0,0,0,0,.1v3.07Zm15.13-15L38.24,46.09l-19.18.13a1.76,1.76,0,1,1,0-3.51h0l19.75-.14,14.56-9.15Z"/></svg>