<svg id="Layer_1" data-name="Layer 1" xmlns="http://www.w3.org/2000/svg" viewBox="0 0 72 72"><defs><style>.cls-1{fill:silver;}</style></defs><title>booksTime_icon</title><path class="cls-1" d="M36.53,50.58l-19.38-.25a1.77,1.77,0,0,1,.07-3.54v0h0l20,.25,5-3L42,41.79,36.63,45l-19.36-.25a1.77,1.77,0,1,1,.07-3.54v0h0l19.93.25,14.88-8.94,0,1.8,2,0,.06-3.07h0l.11-5.57,0,0-.1-1.77L33,23.53,15.79,34a3.79,3.79,0,0,0-2.16,3.34,3.75,3.75,0,0,0,1.19,2.81,3.73,3.73,0,0,0-.11,5.58,3.78,3.78,0,0,0,2.41,6.63l19.94.25,5.53-3.24-.14-2.24Zm-3-25,16.63.3L36.85,34,20.2,33.67ZM16.3,36h0l.43-.26a1.61,1.61,0,0,1,.73-.14L37.4,36l14.88-9-.07,3.16-15.47,9.3-19.36-.24a1.77,1.77,0,0,1-1.73-1.81A1.73,1.73,0,0,1,16.3,36Z"/><path class="cls-1" d="M54.21,44.17l-1.49-.79h0l.05-3.19a1,1,0,0,0-1-1h0a1,1,0,0,0-1,1l0,3.2a2.09,2.09,0,0,0,.74,1.6l1.83,1a1,1,0,0,0,.45.11,1,1,0,0,0,.49-1.9Z"/><path class="cls-1" d="M51.85,36.33a7.41,7.41,0,1,0,7.26,7.56A7.41,7.41,0,0,0,51.85,36.33Zm-.26,12.8a5.39,5.39,0,1,1,5.51-5.28A5.39,5.39,0,0,1,51.59,49.13Z"/></svg>