<svg id="Layer_1" data-name="Layer 1" xmlns="http://www.w3.org/2000/svg" viewBox="0 0 72 72"><defs><style>.cls-1{fill:silver;}</style></defs><title>Directory_icon </title><path class="cls-1" d="M24.88,14a4.71,4.71,0,0,0-4.7,4.7V50.8h0a5.2,5.2,0,0,0,5.18,4.9H50.61v-2H25.36a3.19,3.19,0,0,1-3.18-3v-.35a3.19,3.19,0,0,1,3.18-3H50.84V14Zm24,31.32H25.36a5.2,5.2,0,0,0-3.18,1.09V44.91h0a2.7,2.7,0,0,1,2.7-2.7v-2a4.61,4.61,0,0,0-2.72.89V39.58h0a2.71,2.71,0,0,1,2.7-2.71v-2a4.69,4.69,0,0,0-2.72.88V34.24h0a2.7,2.7,0,0,1,2.7-2.7v-2a4.69,4.69,0,0,0-2.72.88V28.91h0a2.7,2.7,0,0,1,2.7-2.7v-2a4.61,4.61,0,0,0-2.72.89V23.58h0a2.71,2.71,0,0,1,2.7-2.71v-2a4.69,4.69,0,0,0-2.72.88v-1a2.71,2.71,0,0,1,2.7-2.7h24Z"/><rect class="cls-1" x="36.89" y="37.76" width="2" height="25.7" transform="translate(-12.77 88.43) rotate(-89.92)"/><path class="cls-1" d="M32.11,23.76h.6l3,4.69a.7.7,0,0,0,.08.1l.07,3.95h-.36a1,1,0,1,0,0,2H38a1,1,0,0,0,0-2h-.1l-.07-4.06,2.81-4.55s0-.09,0-.13h.2a1,1,0,0,0,0-2H38.33a1,1,0,0,0,0,2h0l-1.6,2.59-1.68-2.59h.57a1,1,0,0,0,0-2H32.11a1,1,0,0,0,0,2Z"/></svg>