<svg id="Layer_1" data-name="Layer 1" xmlns="http://www.w3.org/2000/svg" viewBox="0 0 72 72"><defs><style>.cls-1{fill:silver;}</style></defs><title>MedicalGuide_icon</title><path class="cls-1" d="M32.1,35.15h6.23V31.86h3.29V25.63H38.33V22.34H32.1v3.29H28.81v6.23H32.1Zm-1.29-5.29V27.63H34.1V24.34h2.23v3.29h3.29v2.23H36.33v3.29H34.1V29.86Z"/><path class="cls-1" d="M22.84,13.59a4.71,4.71,0,0,0-4.7,4.7V50.38h0a5.19,5.19,0,0,0,5.18,4.9H48.58v-2H23.33a3.2,3.2,0,0,1-3.19-3v-.35a3.2,3.2,0,0,1,3.19-3H48.8V13.59Zm24,31.32H23.33A5.15,5.15,0,0,0,20.14,46V44.49h0a2.7,2.7,0,0,1,2.7-2.7v-2a4.68,4.68,0,0,0-2.73.88V39.15h0a2.69,2.69,0,0,1,2.7-2.7v-2a4.67,4.67,0,0,0-2.72.88V33.82h0a2.69,2.69,0,0,1,2.7-2.7v-2a4.67,4.67,0,0,0-2.72.88V28.49h0a2.7,2.7,0,0,1,2.7-2.7v-2a4.68,4.68,0,0,0-2.73.88V23.15h0a2.69,2.69,0,0,1,2.7-2.7v-2a4.67,4.67,0,0,0-2.72.88v-1a2.71,2.71,0,0,1,2.7-2.7h24Z"/><rect class="cls-1" x="34.85" y="37.33" width="2" height="25.7" transform="translate(-14.38 85.97) rotate(-89.92)"/></svg>