<svg id="Layer_1" data-name="Layer 1" xmlns="http://www.w3.org/2000/svg" viewBox="0 0 72 72"><defs><style>.cls-1{fill:silver;}</style></defs><title>bookOpen_icon</title><path class="cls-1" d="M54,28.32V24.17H41.05a5.48,5.48,0,0,0-4.5,2.35,5.46,5.46,0,0,0-4.49-2.35H20.23v4.15H16.08V53.5h42.6V28.32ZM41.05,26.13H52V47.39H45.86a13.23,13.23,0,0,0-8.32,3V29.64a1,1,0,0,0,0-.17A3.52,3.52,0,0,1,41.05,26.13ZM27.57,51.54H18V30.28h2.19V49.35h7a11.32,11.32,0,0,1,6.66,2.19Zm-.39-4.15h-5V26.13h9.87a3.52,3.52,0,0,1,3.51,3.34V50.4A13.3,13.3,0,0,0,27.18,47.39Zm29.55,4.15H39.18a11.34,11.34,0,0,1,6.68-2.19H54V30.28h2.77Z"/></svg>