<svg id="Layer_1" data-name="Layer 1" xmlns="http://www.w3.org/2000/svg" viewBox="0 0 72 72"><defs><style>.cls-1{fill:silver;}</style></defs><title>Apply_icon</title><rect class="cls-1" x="34.07" y="45.1" width="2" height="12.67"/><rect class="cls-1" x="44.88" y="41.81" width="2" height="17.15"/><path class="cls-1" d="M28.75,59.72l0-11.33H26a2.81,2.81,0,0,1-2.8-2.8V29.4a8.26,8.26,0,0,1,4.29-7.24V16.43a5,5,0,0,1,10.06,0v6.12a8.23,8.23,0,0,1,3.66,6.85l.41,30.11Zm7.62-35.58-5,3.91a1.32,1.32,0,0,0-.5,1l-.11,28.61,8.88-.14-.39-28.14A6.26,6.26,0,0,0,36.37,24.14Zm-4.88-1a6.26,6.26,0,0,0-6.25,6.25V45.59a.8.8,0,0,0,.8.8H28.8l.07-17.32a3.27,3.27,0,0,1,1.27-2.59l4.1-3.21A6.36,6.36,0,0,0,33,23.15Zm0-2H33a8.22,8.22,0,0,1,2.59.41V16.43a3,3,0,0,0-6.06,0v4.95A8.48,8.48,0,0,1,31.49,21.15Z"/><rect class="cls-1" x="31.24" y="12.73" width="2" height="9.34"/><path class="cls-1" d="M46.15,43.34A3.48,3.48,0,0,1,43.36,42L39.45,37,41,35.78,45,40.73a1.5,1.5,0,0,0,1.5.58,1.25,1.25,0,0,0,1-.87.65.65,0,0,0,0-.35L47.42,40l-12-18,1.66-1.11L49.06,38.87A2.33,2.33,0,0,1,49.37,41a3.21,3.21,0,0,1-2.56,2.28A3.68,3.68,0,0,1,46.15,43.34Z"/><rect class="cls-1" x="30.24" y="39.32" width="9.92" height="2"/><rect class="cls-1" x="34.28" y="23.72" width="2" height="11.67"/><rect class="cls-1" x="35.84" y="21.11" width="4.08" height="2" transform="translate(-5.95 20.57) rotate(-28.27)"/><rect class="cls-1" x="24.65" y="41.63" width="5.49" height="2"/><rect class="cls-1" x="42.13" y="36.43" width="3.78" height="2" transform="translate(-13.75 36.3) rotate(-39.25)"/><rect class="cls-1" x="24.53" y="57.68" width="25.54" height="2"/></svg>