<svg id="Layer_1" data-name="Layer 1" xmlns="http://www.w3.org/2000/svg" viewBox="0 0 72 72"><defs><style>.cls-1{fill:silver;}</style></defs><title>FinancialCenter_icon</title><path class="cls-1" d="M33.37,19.21a4.08,4.08,0,0,0,2.82.64c.24,0,.51,0,.8,0,.92,0,1.3.45,1.33.56,0,.72-1.12.8-1.6.8H35.44a2.19,2.19,0,0,1-1.68-.59,1,1,0,0,0-1.42.05,1,1,0,0,0,.06,1.41,4.28,4.28,0,0,0,2.8,1.14v.33a1,1,0,0,0,2,0v-.37c1.9-.15,3.12-1.2,3.12-2.77,0-1.25-1.24-2.55-3.32-2.56h-.85c-.93,0-1.23,0-1.58-.24a.58.58,0,0,1-.17-.21.6.6,0,0,1,.31-.82,1.28,1.28,0,0,1,.79-.14h.94a2.35,2.35,0,0,1,1.73.61,1,1,0,1,0,1.33-1.5,4.48,4.48,0,0,0-2.3-1.07V14a1,1,0,0,0-2,0v.4a3,3,0,0,0-1.4.37,2.59,2.59,0,0,0-1.2,3.47A2.56,2.56,0,0,0,33.37,19.21Z"/><path class="cls-1" d="M59.9,31.31V26.68l-23-18.24a1.35,1.35,0,0,0-1.69,0L13.15,26.73v4.58H17.8v19H13v2H59.88v-2H55.45v-19Zm-23.8-21L55.5,25.75h-38Zm-21,17.33.31-.25v.33H57.9v1.56H15.16Zm13.2,3.64v19H23.79v-19Zm2,0h2v19h-2Zm4,0h4.56v19H34.35Zm6.56,0h2v19h-2Zm4,0h4.56v19H44.9Zm-25.1,0h2v19h-2Zm33.65,19h-2v-19h2Z"/></svg>