<svg id="Layer_1" data-name="Layer 1" xmlns="http://www.w3.org/2000/svg" viewBox="0 0 72 72"><defs><style>.cls-1{fill:silver;}</style></defs><title>Maeser_icon</title><rect class="cls-1" x="13.33" y="40.08" width="3.79" height="2"/><rect class="cls-1" x="54.05" y="40.08" width="3.79" height="2"/><path class="cls-1" d="M64.38,35.65H52l3.63-2.08.09-3.72H52.25V23.44H46.08l-1.1,1H25.47l-1.09-1h-6v6.41H15.24l-.12,3.75,4.1,1.95H7l-.18,2,2.22,3V51.1H62.34V40.56l2.22-3Zm-14.13-5.8H47.62V25.44h2.63Zm-4.63-3.39v3.39H25V26.46Zm-25.22-1H23v4.41H20.4ZM17.11,49.1V47.2H13.33v1.9H11.07V39.9L9.33,37.55H19.68V49.1ZM49.82,34.56V49.1H45.65V35.49h-2V49.1H41.19V35.49h-2V49.1H36.72V35.49h-2V49.1H32.26V35.49h-2V49.1H27.8V35.49h-2V49.1H21.68V34.51l-4.52-2.15,0-.51H53.63v.54ZM60.34,39.9v9.2H58.12V47.2H54.34v1.9H51.82V37.65H62Z"/></svg>