<svg id="Layer_1" data-name="Layer 1" xmlns="http://www.w3.org/2000/svg" viewBox="0 0 72 72"><defs><style>.cls-1{fill:silver;}</style></defs><title>Location_icon</title><path class="cls-1" d="M50.94,36a7.41,7.41,0,0,0-7.4,7.4c0,3,3.83,9.16,6.11,12.53a1.55,1.55,0,0,0,1.29.69,1.57,1.57,0,0,0,1.3-.69c2.28-3.37,6.11-9.48,6.11-12.53A7.42,7.42,0,0,0,50.94,36Zm0,18.27c-3.29-4.94-5.4-9.17-5.4-10.87a5.41,5.41,0,0,1,10.81,0C56.35,45.4,53.62,50.21,50.94,54.23Z"/><path class="cls-1" d="M50.94,39.71a3.66,3.66,0,1,0,3.66,3.65A3.66,3.66,0,0,0,50.94,39.71Zm0,5.31a1.66,1.66,0,1,1,1.66-1.66A1.66,1.66,0,0,1,50.94,45Z"/><path class="cls-1" d="M16.52,56.42H40.8V14.81H16.52Zm13.59-2H27.48V48.59h2.63ZM18.52,16.81H38.8V54.42H32.11V46.59H25.48v7.83h-7Z"/><path class="cls-1" d="M27.78,20H21.21v6.77h6.57Zm-2,4.77H23.21V22h2.57Z"/><path class="cls-1" d="M36.53,20H30v6.77h6.57Zm-2,4.77H32V22h2.57Z"/><path class="cls-1" d="M27.78,28.39H21.21v6.77h6.57Zm-2,4.77H23.21V30.39h2.57Z"/><path class="cls-1" d="M36.53,28.39H30v6.77h6.57Zm-2,4.77H32V30.39h2.57Z"/><path class="cls-1" d="M27.78,36.73H21.21V43.5h6.57Zm-2,4.77H23.21V38.73h2.57Z"/><path class="cls-1" d="M36.53,36.73H30V43.5h6.57Zm-2,4.77H32V38.73h2.57Z"/></svg>