<svg id="Layer_1" data-name="Layer 1" xmlns="http://www.w3.org/2000/svg" viewBox="0 0 72 72"><defs><style>.cls-1{fill:silver;}</style></defs><title>Chapel_icon</title><path class="cls-1" d="M58.24,48.94,50,44.55v-.94l.95.44.84-1.81L39.7,36.63,39.63,34H38v-2.8l1.41.68.87-1.8L37.55,28.8,36.14,11.54H33.89L32.54,28.05l-.08.82-2.2,1,.85,1.81,1-.44V34H30.53v2.83L19.3,42.6l.92,1.78.91-.47V45l-8.25,3.88.86,1.81,1.38-.65v4.7h7.06v0H48.9v0H56V50l1.34.71ZM35.5,28a2,2,0,0,0-.43,0,3.07,3.07,0,0,0-.53.06l.48-5.8Zm-1.44,2.29.44-.21a1.48,1.48,0,0,1,.59-.12,1.38,1.38,0,0,1,.62.13l.24.12V34H34.06ZM17.12,49.14l4-1.89v5.53h-4Zm20.19,3.62H33.84v-8A1.74,1.74,0,0,1,35.58,43h0a1.72,1.72,0,0,1,1.73,1.74Zm2,0v-8A3.72,3.72,0,0,0,35.58,41h0a3.74,3.74,0,0,0-3.74,3.74v8H23.13V42.89l9.4-4.82V36h5.15l0,1.91L48,42.69V52.76Zm14.65,0H50v-6L54,48.92Z"/></svg>