<svg id="Layer_1" data-name="Layer 1" xmlns="http://www.w3.org/2000/svg" viewBox="0 0 72 72"><defs><style>.cls-1{fill:silver;}</style></defs><title>building_icon</title><path class="cls-1" d="M49.89,58.9V13.16H22.17V58.9H18v2H53.79v-2ZM24.17,15.16H47.89V58.9h-8v-9H32.51v9H24.17ZM37.87,58.9H34.51v-7h3.36Z"/><path class="cls-1" d="M34.86,19.21H27.59v7.51h7.27Zm-2,5.51H29.59V21.21h3.27Z"/><path class="cls-1" d="M45,19.21H37.69v7.51H45Zm-2,5.51H39.69V21.21H43Z"/><path class="cls-1" d="M34.86,28.85H27.59v7.5h7.27Zm-2,5.5H29.59v-3.5h3.27Z"/><path class="cls-1" d="M45,28.85H37.69v7.5H45Zm-2,5.5H39.69v-3.5H43Z"/><path class="cls-1" d="M34.86,38.48H27.59V46h7.27Zm-2,5.5H29.59v-3.5h3.27Z"/><path class="cls-1" d="M45,38.48H37.69V46H45ZM43,44H39.69v-3.5H43Z"/></svg>