<svg id="Layer_1" data-name="Layer 1" xmlns="http://www.w3.org/2000/svg" viewBox="0 0 72 72"><defs><style>.cls-1{fill:silver;}</style></defs><title>BuildingV2_icon</title><path class="cls-1" d="M38.3,27.17,37,26.5h0l0-2.8a.88.88,0,0,0-.88-.88h0a.9.9,0,0,0-.88.89l0,2.8a1.85,1.85,0,0,0,.67,1.4l1.63.84a.89.89,0,0,0,.39.09.88.88,0,0,0,.4-1.67Z"/><path class="cls-1" d="M56.88,36.57v-5l-20.31-17a1.18,1.18,0,0,0-1.51,0L15.53,31.65v4.92h4.11V53.41H15.4v1.77H56.86V53.41H53V36.57ZM35.83,16.27,54.17,31.65H40.43a6.5,6.5,0,1,0-8.68,0H18.21ZM31.36,26.83a4.73,4.73,0,1,1,4.73,4.73A4.74,4.74,0,0,1,31.36,26.83ZM17.3,33.42H55.11V34.8H17.3ZM29,36.57V53.41h-4V36.57Zm1.77,0h1.77V53.41H30.74Zm3.54,0h4V53.41h-4Zm5.8,0h1.76V53.41H40.08Zm3.53,0h4V53.41h-4Zm-22.2,0h1.76V53.41H21.41ZM51.18,53.41H49.41V36.57h1.77Z"/></svg>