<svg id="Layer_1" data-name="Layer 1" xmlns="http://www.w3.org/2000/svg" viewBox="0 0 72 72"><defs><style>.cls-1{fill:silver;}</style></defs><title>Library_icon </title><path class="cls-1" d="M64.86,38.17l-6.59-1.39V33l.42-.81L40.74,22.91l0-.09-.09,0-4.93-2.54-4.75,2.54h0v0L13.39,32.23l.07.14h-.12v4.37L6.86,38.18v8.11h6.48v0H58.27v0h6.59Zm-10.13-5.8H44.15l-2.42-6.7Zm-27.12,2,0,10H22.37v-10Zm2,0H35v10H29.58ZM37,23.24l2.12,1.09,2.9,8H37Zm-2,9.13H29.82l2.72-8.11L35,23Zm2,2h5.45l-.06,10H37Zm7.45,0h5v10h-5ZM30,25.64l-2.26,6.73H17.36ZM8.86,44.29V39.78l4.48-1v5.5Zm6.48-9.92h5v10h-5Zm40.93,10H51.44v-10h4.83Zm6.59,0H58.27V38.83l4.59,1Z"/></svg>