<svg id="Layer_1" data-name="Layer 1" xmlns="http://www.w3.org/2000/svg" viewBox="0 0 72 72"><defs><style>.cls-1{fill:silver;}</style></defs><title>BuildingCoordinator_icon</title><path class="cls-1" d="M13.35,54.06H37.63V12.46H13.35Zm13.59-2H24.31V46.24h2.63ZM15.35,14.46H35.63v37.6H28.94V44.24H22.31v7.82h-7Z"/><path class="cls-1" d="M24.61,17.69H18v6.77h6.57Zm-2,4.77H20V19.69h2.57Z"/><path class="cls-1" d="M33.36,17.69H26.79v6.77h6.57Zm-2,4.77H28.79V19.69h2.57Z"/><path class="cls-1" d="M24.61,26H18V32.8h6.57Zm-2,4.76H20V28h2.57Z"/><path class="cls-1" d="M33.36,26H26.79V32.8h6.57Zm-2,4.76H28.79V28h2.57Z"/><path class="cls-1" d="M24.61,34.38H18v6.77h6.57Zm-2,4.77H20V36.38h2.57Z"/><path class="cls-1" d="M33.36,34.38H26.79v6.77h6.57Zm-2,4.77H28.79V36.38h2.57Z"/><path class="cls-1" d="M50,31.08a3.15,3.15,0,1,0-3.15-3.14A3.15,3.15,0,0,0,50,31.08Zm0-4.29a1.15,1.15,0,1,1-1.15,1.15A1.14,1.14,0,0,1,50,26.79Z"/><path class="cls-1" d="M56.68,43v-7.3a4,4,0,0,0-4-4H47.38a4,4,0,0,0-4,4V43h2v-7.3a2,2,0,0,1,1.47-1.91v7.65h-.07v9.67H44.9v2h3.88V43.52h2.3V53h4V51h-2V43.52h0V33.74a2,2,0,0,1,1.56,1.94V43Zm-7.83-1.46V33.69h2.27v7.82H48.85Z"/></svg>