<?xml version="1.0" encoding="utf-8"?>
<!-- Generator: Adobe Illustrator 24.0.3, SVG Export Plug-In . SVG Version: 6.00 Build 0)  -->
<svg version="1.1" id="Layer_1" xmlns="http://www.w3.org/2000/svg" xmlns:xlink="http://www.w3.org/1999/xlink" x="0px" y="0px"
	 viewBox="0 0 72 72" style="enable-background:new 0 0 72 72;" xml:space="preserve">
<style type="text/css">
	.st0{fill:#BBBDC4;}
</style>
<g>
	<path class="st0" d="M34.5,21.2c-2.3,0-4.2,1.9-4.2,4.2c0,2.3,1.9,4.2,4.2,4.2c2.3,0,4.2-1.9,4.2-4.2
		C38.7,23.1,36.8,21.2,34.5,21.2z M34.5,27.7c-1.2,0-2.2-1-2.2-2.2s1-2.2,2.2-2.2s2.2,1,2.2,2.2S35.7,27.7,34.5,27.7z"/>
	<path class="st0" d="M42.5,23.4l-1-0.2c-0.2-0.5-0.4-1-0.7-1.5l0.5-0.9c0.3-0.6,0.2-1.4-0.4-1.9l-1.5-1.1c-0.5-0.4-1.3-0.4-1.8,0
		l-0.7,0.7c-0.5-0.2-1-0.3-1.5-0.4l-0.1,0l-0.5-0.9c-0.3-0.7-1-1-1.7-0.8l-1.8,0.5c-0.7,0.2-1.1,0.8-1.1,1.5l0,1.1
		c-0.2,0.2-0.5,0.4-0.7,0.6l-1-0.3c-0.7-0.2-1.4,0.1-1.8,0.7l-0.9,1.6c-0.3,0.6-0.2,1.3,0.3,1.8l0.9,0.8c0,0.1,0,0.3,0,0.4
		c0,0.3,0,0.6,0,0.9l-1,0.7c-0.6,0.4-0.8,1.2-0.5,1.8l0.7,1.7c0.3,0.6,0.9,1,1.6,0.8l1.2-0.3c0.3,0.3,0.6,0.6,1,0.9L30,32.7
		c-0.1,0.7,0.4,1.4,1.1,1.5l1.8,0.5c0.1,0,0.2,0,0.4,0c0.5,0,1-0.3,1.3-0.8l0.5-1.1c0.4,0,0.9-0.1,1.3-0.2l0.9,0.8
		c0.5,0.5,1.3,0.5,1.9,0.1l1.5-1.1c0.5-0.4,0.7-1.2,0.4-1.8l-0.5-1c0.3-0.4,0.5-0.9,0.7-1.3l1.1-0.2c0.7-0.1,1.2-0.7,1.2-1.4l0-1.9
		C43.7,24.1,43.2,23.5,42.5,23.4z M41.7,26.2L41,26.3c-0.7,0.1-1.2,0.6-1.5,1.2c-0.1,0.3-0.3,0.7-0.5,1c-0.4,0.6-0.4,1.4-0.1,2
		l0.3,0.6l-0.8,0.6l-0.6-0.5c-0.5-0.5-1.2-0.6-1.9-0.4c-0.3,0.1-0.6,0.1-1,0.2c-0.7,0.1-1.3,0.5-1.6,1.1L33,32.7L32,32.5l0.1-0.8
		c0.1-0.7-0.3-1.4-0.8-1.8c-0.3-0.2-0.5-0.4-0.7-0.6c-0.5-0.5-1.2-0.7-1.9-0.6l-0.8,0.2l-0.4-0.9l0.7-0.4c0.6-0.4,0.9-1.1,0.9-1.8
		c0-0.2,0-0.4,0-0.6c0-0.1,0-0.2,0-0.3c0.1-0.7-0.2-1.4-0.7-1.9l-0.6-0.5l0.5-0.9l0.6,0.2c0.7,0.2,1.4,0.1,2-0.4
		c0.2-0.1,0.3-0.3,0.5-0.4c0.6-0.4,0.9-1.1,0.9-1.8l0-0.6l0.9-0.2l0.3,0.7c0.3,0.6,0.9,1,1.5,1l0.1,0c0.1,0,0.1,0,0.1,0c0,0,0,0,0,0
		c0.3,0,0.6,0.1,0.9,0.2c0.7,0.2,1.4,0.1,2-0.4l0.4-0.4l0.8,0.6l-0.3,0.5c-0.3,0.6-0.3,1.4,0.1,2c0.2,0.3,0.4,0.7,0.5,1.1
		c0.2,0.7,0.8,1.2,1.5,1.3l0.5,0.1L41.7,26.2z"/>
	<path class="st0" d="M34.3,11.2C34.3,11.2,34.3,11.2,34.3,11.2c-7.7,0-13.9,6.2-13.9,13.9c0,3.8,1.6,7.4,4.3,10
		c2.2,2.1,3.4,5,3.4,8v9.4c0,1.5,1.2,2.6,2.6,2.6h1.4v0.2c0,1.2,1,2.2,2.2,2.2s2.2-1,2.2-2.2v-0.2h1.5c1.4,0,2.6-1.2,2.6-2.6v-9.4
		c0-3,1.3-5.9,3.4-8c2.7-2.6,4.2-6.2,4.2-10C48.2,17.4,42,11.2,34.3,11.2z M30.1,46.3h8.4v0.9h-8.4V46.3z M30.1,49.2h8.4v1h-8.4
		V49.2z M34.4,55.4c0,0.2-0.3,0.2-0.3,0v-0.2h0.3V55.4z M37.9,53.1h-7.2c-0.3,0-0.6-0.3-0.6-0.6v-0.3h8.4v0.3
		C38.5,52.9,38.2,53.1,37.9,53.1z M42.6,33.6c-2.6,2.5-4,5.9-4,9.5v1.2h-8.4v-1.2c0-3.5-1.5-7-4-9.4c-2.3-2.2-3.7-5.4-3.7-8.6
		c0-6.5,5.3-11.9,11.9-11.9c0,0,0,0,0,0c6.5,0,11.9,5.3,11.9,11.9v0C46.2,28.3,44.9,31.4,42.6,33.6z"/>
</g>
</svg>
