<svg id="Layer_1" data-name="Layer 1" xmlns="http://www.w3.org/2000/svg" viewBox="0 0 72 72"><defs><style>.cls-1{fill:silver;}</style></defs><title>Shuttles_icon</title><path class="cls-1" d="M21.87,42A2.16,2.16,0,0,0,24,44.17H49.74A2.16,2.16,0,0,0,51.9,42V23.65h0a3,3,0,0,0,0-.31,3.59,3.59,0,0,0-3.59-3.59H25.43a3.59,3.59,0,0,0-3.59,3.59,1.87,1.87,0,0,0,0,.34Zm27.87.15H45.65l-6.95-6.1-1.32,1.5,5.24,4.6H33.79l-6.95-6.1-1.32,1.5,5.24,4.6H24a.15.15,0,0,1-.15-.15V25.27h26V42A.16.16,0,0,1,49.74,42.17ZM25.43,21.75H48.31A1.71,1.71,0,0,1,50,23.27l-26.13.07A1.59,1.59,0,0,1,25.43,21.75Z"/><path class="cls-1" d="M59.45,25.72A2.66,2.66,0,0,0,57,24.08H56v-.82a7.85,7.85,0,0,0-7.84-7.84H25.88A7.85,7.85,0,0,0,18,23.26v.82h-1a2.64,2.64,0,0,0-2.45,1.64,1.72,1.72,0,0,0-1.14.51A1.69,1.69,0,0,0,13,27.45v7a1.72,1.72,0,0,0,1.73,1.72h0a1.73,1.73,0,0,0,1.71-1.73V26.72a.65.65,0,0,1,.65-.64h1V49.37a2.8,2.8,0,0,0,1.55,2.49H19.4v1.61a2.86,2.86,0,0,0,2.85,2.85h3.41a2.86,2.86,0,0,0,2.85-2.85v-1.3H45v1.3a2.85,2.85,0,0,0,2.84,2.85h3.42a2.87,2.87,0,0,0,2.85-2.85V52A2.79,2.79,0,0,0,56,49.37V26.08h1a.64.64,0,0,1,.64.64v7.74a1.75,1.75,0,0,0,1.72,1.72h0a1.72,1.72,0,0,0,1.72-1.73v-7A1.73,1.73,0,0,0,59.45,25.72ZM20,23.26a5.86,5.86,0,0,1,5.85-5.84H48.2A5.85,5.85,0,0,1,54,23.26V49.37a.8.8,0,0,1-.8.8H20.83a.8.8,0,0,1-.8-.8Zm6.48,30.21a.85.85,0,0,1-.85.85H22.25a.85.85,0,0,1-.85-.85v-1.3h5.11Zm24.73.85H47.82a.85.85,0,0,1-.84-.85v-1.3h5.11v1.3A.85.85,0,0,1,51.24,54.32Z"/><path class="cls-1" d="M26.79,46.06H23.3a1,1,0,1,0,0,2h3.49a1,1,0,0,0,0-2Z"/><path class="cls-1" d="M50.78,46.06H47.3a1,1,0,0,0,0,2h3.48a1,1,0,0,0,0-2Z"/></svg>