<svg id="Layer_1" data-name="Layer 1" xmlns="http://www.w3.org/2000/svg" viewBox="0 0 72 72"><defs><style>.cls-1{fill:silver;}</style></defs><title>Accounting_icon </title><path class="cls-1" d="M26.41,32.26a2.65,2.65,0,1,0,2.64,2.65A2.65,2.65,0,0,0,26.41,32.26Zm0,3.29a.65.65,0,1,1,.64-.64A.64.64,0,0,1,26.41,35.55Z"/><path class="cls-1" d="M33.09,32.26a2.65,2.65,0,1,0,2.64,2.65A2.65,2.65,0,0,0,33.09,32.26Zm0,3.29a.65.65,0,1,1,.64-.64A.64.64,0,0,1,33.09,35.55Z"/><path class="cls-1" d="M39.77,32.26a2.65,2.65,0,1,0,2.64,2.65A2.65,2.65,0,0,0,39.77,32.26Zm0,3.29a.65.65,0,0,1,0-1.29.65.65,0,0,1,0,1.29Z"/><path class="cls-1" d="M26.41,39.31A2.65,2.65,0,1,0,29.05,42,2.65,2.65,0,0,0,26.41,39.31Zm0,3.29a.65.65,0,1,1,.64-.64A.64.64,0,0,1,26.41,42.6Z"/><path class="cls-1" d="M33.09,39.31A2.65,2.65,0,1,0,35.73,42,2.65,2.65,0,0,0,33.09,39.31Zm0,3.29a.65.65,0,1,1,.64-.64A.64.64,0,0,1,33.09,42.6Z"/><path class="cls-1" d="M26.41,46.36A2.65,2.65,0,1,0,29.05,49,2.65,2.65,0,0,0,26.41,46.36Zm0,3.29a.65.65,0,1,1,.64-.64A.64.64,0,0,1,26.41,49.65Z"/><path class="cls-1" d="M33.09,46.36A2.65,2.65,0,1,0,35.73,49,2.65,2.65,0,0,0,33.09,46.36Zm0,3.29a.65.65,0,1,1,.64-.64A.64.64,0,0,1,33.09,49.65Z"/><path class="cls-1" d="M45.52,15.48H21.22a2.43,2.43,0,0,0-2.44,2.43V53.79a2.44,2.44,0,0,0,2.44,2.44h24.3A2.45,2.45,0,0,0,48,53.79V17.92A2.44,2.44,0,0,0,45.52,15.48ZM46,53.79a.44.44,0,0,1-.44.44H21.22a.44.44,0,0,1-.44-.44V17.91a.44.44,0,0,1,.44-.43h24.3a.44.44,0,0,1,.44.44Z"/><path class="cls-1" d="M23.68,29.94H43.3V20.8H23.68Zm2-7.14H41.3v5.14H25.68Z"/><path class="cls-1" d="M39.73,39.18a2.54,2.54,0,0,0-2.53,2.54v7.42a2.54,2.54,0,1,0,5.07,0V41.72A2.54,2.54,0,0,0,39.73,39.18Zm.54,10a.54.54,0,1,1-1.07,0V41.72a.54.54,0,1,1,1.07,0Z"/></svg>