<svg id="Layer_1" data-name="Layer 1" xmlns="http://www.w3.org/2000/svg" viewBox="0 0 72 72"><defs><style>.cls-1{fill:silver;}</style></defs><title>calendar_link_icon</title><path class="cls-1" d="M50.47,21.38h-3V19.76a3,3,0,0,0-6.08,0v1.62H39.48V19.76a3,3,0,1,0-6.08,0v1.62H31.51V19.76a3,3,0,0,0-6.08,0v1.62H20.71A1.62,1.62,0,0,0,19.1,23V55.3a1.61,1.61,0,0,0,1.61,1.61H50.47a1.62,1.62,0,0,0,1.62-1.61V23A1.62,1.62,0,0,0,50.47,21.38Zm-7-1.62a1,1,0,0,1,1.92,0v1.62H43.45Zm-8,0a1,1,0,0,1,1.92,0v1.62H35.48Zm-8,0a1,1,0,0,1,1.92,0v1.62H27.51Zm-2.08,3.71v2.19a1,1,0,0,0,2.08,0V23.47H33.4v2.19a1,1,0,1,0,2.08,0V23.47h5.89v2.19a1,1,0,0,0,2.08,0V23.47H50v6.05H21.18V23.47ZM21.18,54.83V31.6H50V54.83Z"/><path class="cls-1" d="M39.9,39.68a3.29,3.29,0,1,0-3.29-3.28,3.55,3.55,0,0,0,0,.57L31,39.86a3.29,3.29,0,1,0,0,5.46l5.62,2.89a3.55,3.55,0,0,0,0,.57,3.29,3.29,0,1,0,1-2.4l-5.34-2.74a3.15,3.15,0,0,0,0-2.1l5.34-2.74A3.26,3.26,0,0,0,39.9,39.68Zm0-4.49a1.21,1.21,0,1,1-1.21,1.21A1.21,1.21,0,0,1,39.9,35.19ZM29.21,43.8a1.21,1.21,0,1,1,1.21-1.21A1.21,1.21,0,0,1,29.21,43.8ZM39.9,47.58a1.21,1.21,0,1,1-1.21,1.2A1.2,1.2,0,0,1,39.9,47.58Z"/></svg>