<svg id="Layer_1" data-name="Layer 1" xmlns="http://www.w3.org/2000/svg" viewBox="0 0 72 72"><defs><style>.cls-1{fill:silver;}</style></defs><title>Calendar_icon</title><path class="cls-1" d="M33.07,47.33a4.18,4.18,0,0,1-3.85-2.7l1.83-.79a2.16,2.16,0,0,0,2.46,1.45,2.24,2.24,0,0,0,1.8-2.23,2.9,2.9,0,0,0-2.67-2.9l-.84-.09-.09-1.51L34.54,36l0-.42H29.88v-2h6.56l.13,3.26-2,1.87a4.57,4.57,0,0,1,2.76,4.44,4.25,4.25,0,0,1-3.41,4.15A4.76,4.76,0,0,1,33.07,47.33Z"/><rect class="cls-1" x="41.66" y="33.22" width="2" height="13.19" transform="translate(-0.35 0.37) rotate(-0.5)"/><rect class="cls-1" x="39.36" y="45.16" width="6.78" height="2" transform="translate(-0.09 0.08) rotate(-0.11)"/><rect class="cls-1" x="39.12" y="34.32" width="3.34" height="2" transform="translate(-3.95 5.15) rotate(-6.9)"/><path class="cls-1" d="M51.82,53.51H23.24A1.55,1.55,0,0,1,21.69,52v-31a1.55,1.55,0,0,1,1.55-1.55H51.82a1.55,1.55,0,0,1,1.54,1.55V52A1.55,1.55,0,0,1,51.82,53.51Zm-28.13-2H51.36V21.39H23.69Z"/><rect class="cls-1" x="22.7" y="27.21" width="30.63" height="2"/><path class="cls-1" d="M28.77,24.5a1,1,0,0,1-1-1V17.84a2.92,2.92,0,1,1,5.84,0v2.27a1,1,0,0,1-2,0V17.84a.92.92,0,0,0-1.84,0V23.5A1,1,0,0,1,28.77,24.5Z"/><path class="cls-1" d="M36.42,24.5a1,1,0,0,1-1-1V17.84a2.92,2.92,0,1,1,5.84,0v2.27a1,1,0,0,1-2,0V17.84a.92.92,0,0,0-1.84,0V23.5A1,1,0,0,1,36.42,24.5Z"/><path class="cls-1" d="M44.08,24.5a1,1,0,0,1-1-1V17.84a2.92,2.92,0,1,1,5.83,0v2.27a1,1,0,0,1-2,0V17.84a.92.92,0,1,0-1.83,0V23.5A1,1,0,0,1,44.08,24.5Z"/></svg>