<svg id="Layer_1" data-name="Layer 1" xmlns="http://www.w3.org/2000/svg" viewBox="0 0 72 72"><defs><style>.cls-1{fill:silver;}</style></defs><title>calendar_send_icon</title><path class="cls-1" d="M50.45,21.44h-3V19.82a3,3,0,1,0-6.06,0v1.62H39.49V19.82a3,3,0,0,0-6.06,0v1.62H31.55V19.82a3,3,0,0,0-6.06,0v1.62H20.78a1.6,1.6,0,0,0-1.6,1.6v15.5h2.07V31.62H50V54.77H21.25V48.24H19.18v7a1.61,1.61,0,0,0,1.6,1.61H50.45a1.61,1.61,0,0,0,1.61-1.61V23A1.61,1.61,0,0,0,50.45,21.44Zm-7-1.62a1,1,0,0,1,1.91,0v1.62H43.45Zm-7.94,0a1,1,0,0,1,1.91,0v1.62H35.51Zm-7.94,0a.95.95,0,1,1,1.9,0v1.62h-1.9Zm-6.32,9.72v-6h4.24V25.7a1,1,0,1,0,2.08,0V23.51h5.86V25.7a1,1,0,1,0,2.08,0V23.51h5.87V25.7a1,1,0,1,0,2.07,0V23.51H50v6Z"/><path class="cls-1" d="M27,49.28l1.37,1.56,8.69-7.65-8.68-7.87L27,36.86,32.74,42H14.62v2.07H32.91ZM34,43.13l0,0,0,0Z"/></svg>