<svg id="Layer_1" data-name="Layer 1" xmlns="http://www.w3.org/2000/svg" viewBox="0 0 72 72"><defs><style>.cls-1{fill:silver;}</style></defs><title>calendar_speech_icon</title><path class="cls-1" d="M50.34,20.64H47.27V19a3.09,3.09,0,0,0-6.18,0v1.64H39.17V19A3.09,3.09,0,1,0,33,19v1.64H31.08V19a3.09,3.09,0,1,0-6.18,0v1.64H20.11a1.64,1.64,0,0,0-1.64,1.64V55.09a1.63,1.63,0,0,0,1.64,1.64H50.34A1.64,1.64,0,0,0,52,55.09V22.28A1.65,1.65,0,0,0,50.34,20.64ZM43.21,19a1,1,0,1,1,1.94,0v1.64H43.21Zm-8.1,0a1,1,0,1,1,2,0v1.64h-2ZM27,19A1,1,0,1,1,29,19v1.64H27ZM24.9,22.76V25A1.06,1.06,0,0,0,27,25V22.76h6V25a1.06,1.06,0,0,0,2.11,0V22.76h6V25a1.06,1.06,0,0,0,2.12,0V22.76h6.65v6.15H20.58V22.76Zm9.94,15.05c0-2,.58-2,.89-2s.9,0,.9,2c0,.8-.12,2.15-.9,2.15S34.84,38.61,34.84,37.81Zm10,9.6v1.86H26.67V47.41Zm-2,4v3.23H28.67V51.39Zm2.11,3.23V51.39h2v-6.1H36.79V41.86c.9-.37,2-1.38,2-4,0-3.54-1.89-4.06-3-4.06s-3,.52-3,4.06c0,2.67,1.05,3.68,2,4v3.43H24.55v6.1h2v3.23h-6V31H49.86v23.6Z"/></svg>