<svg id="Layer_1" data-name="Layer 1" xmlns="http://www.w3.org/2000/svg" viewBox="0 0 72 72"><defs><style>.cls-1{fill:silver;}</style></defs><title>calendar_profile_icon</title><path class="cls-1" d="M47,20.54H43.82V18.83a3.21,3.21,0,0,0-6.42,0v1.71h-2V18.83a3.21,3.21,0,0,0-6.41,0v1.71H27V18.83a3.21,3.21,0,0,0-6.41,0v1.71h-5a1.7,1.7,0,0,0-1.7,1.7V56.31a1.7,1.7,0,0,0,1.7,1.7H47a1.7,1.7,0,0,0,1.7-1.7V22.24A1.7,1.7,0,0,0,47,20.54Zm-7.4-1.71a1,1,0,0,1,2,0v1.71h-2Zm-8.41,0a1,1,0,0,1,2,0v1.71h-2Zm-8.4,0a1,1,0,0,1,2,0v1.71h-2Zm-2.2,3.91v2.31a1.1,1.1,0,1,0,2.2,0V22.74H29v2.31a1.1,1.1,0,1,0,2.19,0V22.74H37.4v2.31a1.1,1.1,0,1,0,2.2,0V22.74h6.91v6.38H16.11V22.74ZM16.11,55.81V31.32h30.4V55.81Z"/><path class="cls-1" d="M31.19,38.47a3.27,3.27,0,1,0,3.27,3.27A3.28,3.28,0,0,0,31.19,38.47Zm0,4.35a1.08,1.08,0,1,1,1.07-1.08A1.08,1.08,0,0,1,31.19,42.82Z"/><path class="cls-1" d="M31,33.18a9.93,9.93,0,1,0,9.93,9.93A9.94,9.94,0,0,0,31,33.18ZM27.54,50h.31v-.7a1.4,1.4,0,0,1,1.4-1.39h3.87a1.4,1.4,0,0,1,1.4,1.39V50a7.71,7.71,0,0,1-7,.05Zm9-1.61a3.58,3.58,0,0,0-3.46-2.68H29.25a3.57,3.57,0,0,0-3.53,3,7.73,7.73,0,1,1,10.86-.34Z"/></svg>