<svg id="Layer_1" data-name="Layer 1" xmlns="http://www.w3.org/2000/svg" viewBox="0 0 72 72"><defs><style>.cls-1{fill:silver;}</style></defs><title>Parking_icon</title><path class="cls-1" d="M60.05,41.6a7.53,7.53,0,0,0-1.87-8.48l.33,0h.18a2,2,0,0,0,1.45-.64,3,3,0,0,0,.72-2.47l-.13-.95a2.79,2.79,0,0,0-3-2.14l-2.26.29A2.78,2.78,0,0,0,54,28l-1.8-5.12a4.57,4.57,0,0,0-4.4-3.26H26.74a4.6,4.6,0,0,0-4.27,2.89L20,28.05a2.77,2.77,0,0,0-1.54-.8L16.17,27a2.8,2.8,0,0,0-3,2.23l-.11.86a3,3,0,0,0,.71,2.47,2,2,0,0,0,1.46.64h.18l.28,0a7.55,7.55,0,0,0-1.41,8.8l1.14,2.24H15a1,1,0,0,0,0,2h1v1.48a3,3,0,0,0,3,3h3.73a3,3,0,0,0,3-3V46.16H48v1.48a3,3,0,0,0,3,3h3.72a3,3,0,0,0,3-3V46.16h1.31a1,1,0,0,0,0-2h-.32l1-1.93Q59.92,41.92,60.05,41.6Zm-4.8-12.06a.75.75,0,0,1,.5-.31L58,29a.76.76,0,0,1,.82.5l.11.86a1.06,1.06,0,0,1-.19.85l-2.83-.27a.82.82,0,0,1-.75-.76A.73.73,0,0,1,55.25,29.54ZM24.31,23.23a2.61,2.61,0,0,1,2.43-1.66H47.8a2.6,2.6,0,0,1,2.5,1.88l2.52,7.19a24.85,24.85,0,0,0-3.85-.7V28.75H38.88v1.07h-4v-1H24.75V30a25.5,25.5,0,0,0-3.68.63Zm-9.07,7.93a.92.92,0,0,1-.21-.84l.1-.77a.77.77,0,0,1,.74-.61h.07l2.22.28a.8.8,0,0,1,.64.94.81.81,0,0,1-.77.72Zm8.48,16.48a1,1,0,0,1-.3.72,1,1,0,0,1-.72.29H19a1,1,0,0,1-1-1V46.16h5.75Zm16.53-3.48H33.49l0-1.58,6.72.05Zm14.47,4.49H51a1,1,0,0,1-1-1V46.16h5.75v1.48A1,1,0,0,1,54.72,48.65ZM42.25,44.16V42.63a2.05,2.05,0,0,0-2-2.05H33.53a2.06,2.06,0,0,0-2.06,2.05v1.53H17.66L16.05,41a5.57,5.57,0,0,1,2.42-7.47,6.71,6.71,0,0,1,.78-.32L20,33a22.59,22.59,0,0,1,7.06-1.14H46.56a22.27,22.27,0,0,1,8.67,1.75,5.55,5.55,0,0,1,3,7.25c-.07.16-.14.31-.22.47l-1.53,2.87Z"/><path class="cls-1" d="M25.52,35.63,21.77,35l-.47,0a2.84,2.84,0,0,0-2,.84,2.77,2.77,0,0,0-.8,2v.88l.05.28a3.25,3.25,0,0,0,3.34,2.31h3.38a3.16,3.16,0,0,0,3.13-2.69l0-.14,0-.14A3.09,3.09,0,0,0,25.52,35.63Zm-.37,3.65H21.82a1.28,1.28,0,0,1-1.3-.78v-.7a.83.83,0,0,1,.23-.57.84.84,0,0,1,.56-.24l.14,0,3.82.61h.14a1.08,1.08,0,0,1,1,.8A1.2,1.2,0,0,1,25.15,39.28Z"/><path class="cls-1" d="M52.62,35a3.88,3.88,0,0,0-.48,0l-3.75.61a3.07,3.07,0,0,0-2.9,2.68l0,.14,0,.13a3.16,3.16,0,0,0,3.13,2.7h3.3A3.29,3.29,0,0,0,55.35,39l0-1.15a2.78,2.78,0,0,0-.8-2A2.83,2.83,0,0,0,52.62,35Zm.77,3.52a1.33,1.33,0,0,1-1.38.77H48.77a1.18,1.18,0,0,1-1.27-.86,1.07,1.07,0,0,1,1-.8l4-.62.14,0a.8.8,0,0,1,.79.82Z"/></svg>