<?xml version="1.0" encoding="utf-8"?>
<!-- Generator: Adobe Illustrator 24.0.3, SVG Export Plug-In . SVG Version: 6.00 Build 0)  -->
<svg version="1.1" id="Layer_1" xmlns="http://www.w3.org/2000/svg" xmlns:xlink="http://www.w3.org/1999/xlink" x="0px" y="0px"
	 viewBox="0 0 72 72" style="enable-background:new 0 0 72 72;" xml:space="preserve">
<style type="text/css">
	.st0{fill:#C0C0C0;}
</style>
<title>Speech_icon copy 2</title>
<g>
	<path class="st0" d="M50.8,53.5L50.8,53.5c-8.8,7.4-21.9,6.2-29.3-2.6c-7.4-8.8-6.2-21.9,2.7-29.3c4.2-3.5,9.7-5.2,15.2-4.7
		c5.2,0.5,10,2.8,13.4,6.7h-5.2c-0.6,0-1,0.4-1,1c0,0.6,0.4,1,1,1l6.8-0.1c0.8,0,1.5-0.5,1.6-1.3l1.2-6.7c0.1-0.6-0.3-1.1-0.8-1.2
		s-1.1,0.3-1.2,0.8l-1,5.2c-8.4-9.3-22.8-10.1-32.2-1.6s-10.1,22.8-1.6,32.2C28.7,61.9,42.7,62.9,52,55c0.4-0.4,0.5-1,0.1-1.4
		C51.8,53.2,51.2,53.1,50.8,53.5z"/>
	<path class="st0" d="M36.4,40.8h-4c-2,0-3.6,1.6-3.6,3.6V45h2v-0.7c0-0.9,0.7-1.6,1.6-1.6h4c0.9,0,1.6,0.7,1.5,1.6V45h2v-0.7
		C39.9,42.3,38.3,40.8,36.4,40.8z"/>
	<path class="st0" d="M34.4,40c1.8,0,3.2-1.4,3.2-3.2c0-1.8-1.4-3.2-3.2-3.2c-1.8,0-3.2,1.4-3.2,3.2c0,0,0,0,0,0
		C31.1,38.5,32.6,40,34.4,40z M33.2,36.8c0-0.7,0.6-1.2,1.2-1.2v0c0.7,0,1.2,0.5,1.2,1.2c0,0.7-0.5,1.2-1.2,1.2
		C33.7,38,33.2,37.5,33.2,36.8C33.1,36.8,33.1,36.8,33.2,36.8z"/>
	<path class="st0" d="M57.2,31.1c0-1.3-1.1-2.4-2.4-2.4c0,0,0,0,0,0h-29c-1.3,0-2.4,1.1-2.4,2.4c0,0,0,0,0,0v15.5
		c0,1.3,1.1,2.4,2.4,2.4c0,0,0,0,0,0h29c1.3,0,2.4-1.1,2.4-2.4c0,0,0,0,0,0V31.1z M55.2,46.6c0,0.2-0.2,0.4-0.4,0.4h-29
		c-0.2,0-0.4-0.2-0.4-0.4V31.1c0-0.2,0.2-0.4,0.4-0.4h29c0.2,0,0.4,0.2,0.4,0.4V46.6z"/>
	<rect x="42.6" y="34" class="st0" width="9.2" height="2"/>
	<rect x="42.6" y="37.9" class="st0" width="9.2" height="2"/>
	<rect x="42.6" y="41.7" class="st0" width="9.2" height="2"/>
</g>
</svg>
