<svg id="Layer_1" data-name="Layer 1" xmlns="http://www.w3.org/2000/svg" viewBox="0 0 72 72"><defs><style>.cls-1{fill:silver;}</style></defs><title>card_ID_internation_icon</title><path class="cls-1" d="M54.6,24.47H13.68A2.54,2.54,0,0,0,11.14,27V49.38a2.54,2.54,0,0,0,2.54,2.54H54.6a2.54,2.54,0,0,0,2.54-2.54V27A2.54,2.54,0,0,0,54.6,24.47Zm.45,24.91a.45.45,0,0,1-.45.45H13.68a.46.46,0,0,1-.46-.45V27a.46.46,0,0,1,.46-.45H54.6a.45.45,0,0,1,.45.45Z"/><path class="cls-1" d="M26.16,40.67h-4.8a4.14,4.14,0,0,0-4.14,4.14v.87H19.3v-.87a2.05,2.05,0,0,1,2.06-2.05h4.8a2.05,2.05,0,0,1,2.05,2.05v.87H30.3v-.87A4.15,4.15,0,0,0,26.16,40.67Z"/><path class="cls-1" d="M23.76,39.13A3.74,3.74,0,1,0,20,35.39,3.75,3.75,0,0,0,23.76,39.13Zm0-5.39a1.65,1.65,0,1,1-1.65,1.65A1.65,1.65,0,0,1,23.76,33.74Z"/><path class="cls-1" d="M42.4,30.18a8.11,8.11,0,1,0,8.11,8.11A8.12,8.12,0,0,0,42.4,30.18Zm6,7.35-.1,0H46.21a12.75,12.75,0,0,0-1-4.56A6,6,0,0,1,48.37,37.53Zm-6,6.6c-.45,0-1.48-1.59-1.7-4.54h3.41C43.88,42.54,42.86,44.13,42.4,44.13Zm-1.71-6.62c.19-3.08,1.25-4.74,1.71-4.74s1.53,1.66,1.71,4.74ZM39.62,33a12.75,12.75,0,0,0-1,4.56H36.44A6,6,0,0,1,39.62,33Zm-3.09,6.64h2.08a13.42,13.42,0,0,0,.83,3.94A6,6,0,0,1,36.53,39.59Zm8.84,3.94a13.42,13.42,0,0,0,.83-3.94h2.08A6,6,0,0,1,45.37,43.53Z"/></svg>