<svg id="Layer_1" data-name="Layer 1" xmlns="http://www.w3.org/2000/svg" viewBox="0 0 72 72"><defs><style>.cls-1{fill:silver;}</style></defs><title>Employee_icon</title><path class="cls-1" d="M30.29,37.89h-6a4.88,4.88,0,0,0-4.89,4.88v1.09h2V42.77a2.89,2.89,0,0,1,2.89-2.88h6a2.89,2.89,0,0,1,2.89,2.88v1.09h2V42.77a4.9,4.9,0,0,0-4.89-4.88Z"/><path class="cls-1" d="M27.27,36.37a3.94,3.94,0,1,0-3.93-3.93A3.94,3.94,0,0,0,27.27,36.37Zm0-5.87a1.94,1.94,0,1,1-1.93,1.94A1.94,1.94,0,0,1,27.27,30.5Z"/><path class="cls-1" d="M54.61,23.35H15.37a2.43,2.43,0,0,0-2.43,2.43V47.22a2.43,2.43,0,0,0,2.43,2.44H54.61A2.43,2.43,0,0,0,57,47.22V25.78A2.43,2.43,0,0,0,54.61,23.35ZM55,47.22a.44.44,0,0,1-.43.44H15.37a.44.44,0,0,1-.43-.44V25.78a.43.43,0,0,1,.43-.43H54.61a.43.43,0,0,1,.43.43Z"/><rect class="cls-1" x="39.52" y="30.45" width="10.36" height="2"/><rect class="cls-1" x="39.52" y="35.39" width="10.36" height="2"/><rect class="cls-1" x="39.52" y="40.34" width="10.36" height="2"/></svg>