<svg id="Layer_1" data-name="Layer 1" xmlns="http://www.w3.org/2000/svg" viewBox="0 0 72 72"><defs><style>.cls-1{fill:silver;}</style></defs><title>EmergencyCarKit_icon</title><path class="cls-1" d="M33.52,29.44h7v-3.9h3.89v-7H40.55V14.61h-7v3.91h-3.9v7h3.9Zm-1.9-5.9v-3h3.9V16.61h3v3.91h3.89v3H38.55v3.9h-3v-3.9Z"/><path class="cls-1" d="M50.61,40.54H49.2l-4.61-4.61a6.76,6.76,0,0,0-4.81-2H32.9A6.79,6.79,0,0,0,27.21,37L24.9,40.54H20.35a2,2,0,0,0-2,2v2.34a5.74,5.74,0,0,0,5.74,5.74h.3a5,5,0,0,0,9.74,0h5.46a5,5,0,0,0,9.74,0h5.28a2,2,0,0,0,2-2V46.53A6,6,0,0,0,50.61,40.54ZM28.89,38.11a4.75,4.75,0,0,1,4-2.17H33v4.54h2V35.94h4.8a4.78,4.78,0,0,1,3.4,1.41l3.19,3.19H27.29Zm.4,14.54a3,3,0,1,1,3-3A3,3,0,0,1,29.29,52.65Zm15.2,0a3,3,0,1,1,3-3A3,3,0,0,1,44.49,52.65Zm4.83-4.06a5,5,0,0,0-9.67,0H34.13a5,5,0,0,0-9.67,0h-.34a3.75,3.75,0,0,1-3.74-3.74l0-2.31H50.61a4,4,0,0,1,4,4l0,2Z"/></svg>