<svg id="Layer_1" data-name="Layer 1" xmlns="http://www.w3.org/2000/svg" viewBox="0 0 72 72"><defs><style>.cls-1{fill:silver;}</style></defs><title>cart_icon</title><path class="cls-1" d="M23,26.09l-1-2.71A2.08,2.08,0,0,0,20.07,22H15.16a1,1,0,1,0,0,2.1h4.67s0,.09,0,.13L27.5,43.64a1.47,1.47,0,0,0,1.38.94H48.3a1,1,0,1,0,0-2.1h-19L28,39.14H50.3l2.75-13ZM34.1,33.66h6.69V37H34.1ZM32,37H27.18L25.9,33.66H32Zm2.1-5.47V28.19h6.69v3.38ZM32,28.19v3.38H25.28V32l-1.45-3.82ZM42.89,37V33.66h6.42L48.6,37Zm6.86-5.47H42.89V28.19h7.58Z"/><path class="cls-1" d="M30.13,46.65a3.95,3.95,0,1,0,3.94,3.94A3.95,3.95,0,0,0,30.13,46.65Zm0,5.79A1.85,1.85,0,1,1,32,50.59,1.85,1.85,0,0,1,30.13,52.44Z"/><path class="cls-1" d="M46.09,46.9A3.94,3.94,0,1,0,50,50.84,3.94,3.94,0,0,0,46.09,46.9Zm0,5.78a1.85,1.85,0,1,1,1.84-1.84A1.85,1.85,0,0,1,46.09,52.68Z"/></svg>