<svg id="Layer_1" data-name="Layer 1" xmlns="http://www.w3.org/2000/svg" viewBox="0 0 72 72"><defs><style>.cls-1{fill:silver;}</style></defs><title>category_icon</title><path class="cls-1" d="M52.08,13.68h-32a2.49,2.49,0,0,0-2.49,2.48v7.38A2.49,2.49,0,0,0,20.07,26h32a2.49,2.49,0,0,0,2.49-2.48V16.16A2.49,2.49,0,0,0,52.08,13.68Zm.49,9.86a.48.48,0,0,1-.49.48h-32a.48.48,0,0,1-.49-.48V16.16a.49.49,0,0,1,.49-.48h32a.49.49,0,0,1,.49.48Z"/><path class="cls-1" d="M46.82,18.93H25.61a1,1,0,0,0,0,2H46.82a1,1,0,0,0,0-2Z"/><path class="cls-1" d="M52.08,29.55h-32A2.5,2.5,0,0,0,17.58,32v7.37a2.49,2.49,0,0,0,2.49,2.48h32a2.49,2.49,0,0,0,2.49-2.48V32A2.5,2.5,0,0,0,52.08,29.55Zm.49,9.86a.48.48,0,0,1-.49.48h-32a.48.48,0,0,1-.49-.48V32a.49.49,0,0,1,.49-.49h32a.49.49,0,0,1,.49.49Z"/><path class="cls-1" d="M46.82,34.8H25.61a1,1,0,0,0,0,2H46.82a1,1,0,1,0,0-2Z"/><path class="cls-1" d="M52.08,46h-32a2.49,2.49,0,0,0-2.49,2.48v7.37a2.5,2.5,0,0,0,2.49,2.49h32a2.5,2.5,0,0,0,2.49-2.49V48.51A2.49,2.49,0,0,0,52.08,46Zm.49,9.85a.49.49,0,0,1-.49.49h-32a.49.49,0,0,1-.49-.49V48.51a.48.48,0,0,1,.49-.48h32a.48.48,0,0,1,.49.48Z"/><path class="cls-1" d="M46.82,51.27H25.61a1,1,0,1,0,0,2H46.82a1,1,0,0,0,0-2Z"/></svg>