<svg id="Layer_1" data-name="Layer 1" xmlns="http://www.w3.org/2000/svg" viewBox="0 0 72 72"><defs><style>.cls-1{fill:silver;}</style></defs><title>Risk_icon</title><path class="cls-1" d="M35,40.38a2.84,2.84,0,1,0,2.83,2.84A2.84,2.84,0,0,0,35,40.38Zm0,3.67a.84.84,0,0,1-.84-.83.85.85,0,0,1,.84-.84.84.84,0,0,1,.83.84A.83.83,0,0,1,35,44.05Z"/><path class="cls-1" d="M32.22,28.61v7.94a2.77,2.77,0,1,0,5.53,0V28.61a2.77,2.77,0,1,0-5.53,0Zm2,0a.77.77,0,1,1,1.53,0v7.94a.77.77,0,1,1-1.53,0Z"/><path class="cls-1" d="M53.37,47.49l-17-30.21a2,2,0,0,0-2.8-.63,2,2,0,0,0-.65.66L16.56,47.58A1.87,1.87,0,0,0,16.5,49a1.83,1.83,0,0,0,1,1.06,1.91,1.91,0,0,0,.77.18H51.54a1.91,1.91,0,0,0,1.37-.43,1.82,1.82,0,0,0,.67-1.26A1.94,1.94,0,0,0,53.37,47.49Zm-34.91.77L34.6,18.31,51.5,48.24Z"/></svg>