<?xml version="1.0" encoding="utf-8"?>
<!-- Generator: Adobe Illustrator 24.0.3, SVG Export Plug-In . SVG Version: 6.00 Build 0)  -->
<svg version="1.1" id="Layer_1" xmlns="http://www.w3.org/2000/svg" xmlns:xlink="http://www.w3.org/1999/xlink" x="0px" y="0px"
	 viewBox="0 0 72 72" style="enable-background:new 0 0 72 72;" xml:space="preserve">
<style type="text/css">
	.st0{fill:#BBBDC4;}
</style>
<g>
	<path class="st0" d="M42.3,33.6l-0.1,0l-14.3,0.1l-0.2,0.1c-1,0.5-1.5,1.1-1.6,1.9c0,0.4,0,1.2,1,1.9c1.1,0.8,4.5,1.4,7.9,1.4
		c2.5,0,5.9-0.2,7.6-1.1c1-0.5,1.6-1.5,1.5-2.5C43.9,34.5,43.2,33.8,42.3,33.6z M41.6,36c-0.5,0.3-2.1,0.8-6.6,0.8
		c-3.5,0-6.2-0.7-6.7-1c-0.1,0-0.1-0.1-0.1-0.1c0,0,0.1-0.1,0.2-0.1l13.5-0.1c0.1,0,0.1,0,0.1,0h0C42,35.7,41.9,35.9,41.6,36z"/>
	<path class="st0" d="M48.6,38.7c0.3-0.8,0-2.1-0.5-4.6c-0.3-1.4-0.6-3-0.9-4.7c-0.9-5.7-1.4-12.4-1.4-12.5l0-0.1
		c-0.5-2.2-2.6-3.8-4.8-3.6l-10.9,0c-2.2-0.1-4.3,1.4-4.9,3.5l0,0.1c0,0.1-0.8,6.4-2,12.2c-0.3,1.4-0.7,2.8-1,4.1
		c-0.8,3.1-1.2,4.8-0.7,5.8c0.8,1.6,3.3,2.8,6.6,3.6l-5.6,16l1.9,0.7l1.6-4.6l9.1-4.8l9.1,4.3l1.8,5l1.9-0.7l-5.6-16
		C45.7,41.6,48.1,40.3,48.6,38.7z M26.9,51.7l1.8-5l4.1,2L26.9,51.7z M37.2,48.5l4.2-2.2l1.8,5L37.2,48.5z M40.7,44.4l-5.8,3
		l-5.6-2.7l0.7-2c1.5,0.2,3.2,0.4,5,0.4c1.8,0,3.6-0.1,5.2-0.3L40.7,44.4z M46.7,38c-0.4,1.1-4.2,3.1-11.7,3.1
		c-6.9,0-11.1-1.9-11.8-3.2c-0.2-0.5,0.4-2.8,0.8-4.4c0.3-1.3,0.7-2.7,1-4.2c1.1-5.5,1.9-11.5,2-12.2c0.4-1.2,1.5-2,2.9-2l11.1,0
		c1.3-0.1,2.5,0.8,2.8,2c0.1,0.8,0.6,7.1,1.4,12.6c0.3,1.8,0.6,3.4,0.9,4.8C46.5,35.9,46.8,37.6,46.7,38z"/>
</g>
</svg>
