<svg id="Layer_1" data-name="Layer 1" xmlns="http://www.w3.org/2000/svg" viewBox="0 0 72 72"><defs><style>.cls-1{fill:silver;}</style></defs><title>Chair_icon</title><path class="cls-1" d="M43,17.74l-.08,2.65L31.07,16.34V13.91h-2V34.2L18.94,40a1.17,1.17,0,0,0-.62,1.06,1.14,1.14,0,0,0,.22.63V55.46h2V52L30,46.22l1.52.57v12h2v-5l8.63-6L42,52.21l2,.06L45,17.8Zm-.85,14.47-2.59-.8v-6.1l2.59.87ZM37.57,30.8l-2.36-.72V23.83l2.36.8Zm-4.36-1.33-2.14-.66V22.43l2.14.73ZM31.07,30.9l11.45,3.51-.1,3.37L31.07,34.22Zm11.8-8.42,0,1.81-11.75-4V18.46ZM30,36l11,3.44-8.3,5.68L21.46,40.86ZM20.54,49.67v-7l7.07,2.68Zm13,1.69V47l8.83-6.06-.12,4.36Z"/></svg>