<svg id="Layer_1" data-name="Layer 1" xmlns="http://www.w3.org/2000/svg" viewBox="0 0 72 72"><defs><style>.cls-1{fill:silver;}</style></defs><title>ChatLike_icon</title><path class="cls-1" d="M57.36,53.15l-3-9.21A21.24,21.24,0,0,0,16,25.53,21.23,21.23,0,0,0,46.82,52.64l7.94,3a2,2,0,0,0,2.57-1.16A2.05,2.05,0,0,0,57.36,53.15ZM46.49,50l-.51.37a18.88,18.88,0,1,1,6-7l-.21.43,3.12,9.41Z"/><path class="cls-1" d="M44.17,30.31c-2.74-.06-3.3-.55-3.3-.55-.13-.19-.27-.37-.49-.64a.73.73,0,0,1-.15-.4l-.11-3.58a4.12,4.12,0,0,0-3.72-3.85,2.34,2.34,0,0,0-2.57,2.08,1.9,1.9,0,0,0,0,.41c.13,2.28-.41,3.12-1.7,5.16l-.13.2a3.43,3.43,0,0,1-2.88,1.61h-.32a1.31,1.31,0,0,0-.32-.63,1.43,1.43,0,0,0-1-.46l-1.77-.06h-.11A3.46,3.46,0,0,0,22.13,33l0,9.24a3.37,3.37,0,0,0,.92,2.47,3.41,3.41,0,0,0,2.41,1.09l1.77.06h.05A1.45,1.45,0,0,0,28.62,45l.62.48a8.71,8.71,0,0,0,5.28,1.8h.08l6.29,0a6.1,6.1,0,0,0,5.93-4.89l1.32-8.14,0-.15A4.06,4.06,0,0,0,44.17,30.31ZM26.4,43.45l-.85,0a1.06,1.06,0,0,1-.76-.35,1.1,1.1,0,0,1-.29-.82l0-9.24A1.1,1.1,0,0,1,25.58,32h0l.89,0Zm18.11-1.57a3.74,3.74,0,0,1-3.64,3l-6.29.06a6.61,6.61,0,0,1-3.9-1.31l-1.9-1.47h0l.08-9h.29A5.76,5.76,0,0,0,34,30.41l.13-.21c1.39-2.19,2.23-3.51,2-6.56a1.77,1.77,0,0,1,1.61,1.62l.11,3.54a3.1,3.1,0,0,0,.72,1.86l.33.44c.7,1,2.35,1.51,5.19,1.57a1.69,1.69,0,0,1,1.64,1.43Z"/></svg>