<svg id="Layer_1" data-name="Layer 1" xmlns="http://www.w3.org/2000/svg" viewBox="0 0 72 72"><defs><style>.cls-1{fill:silver;}</style></defs><title>Chat_talking_icon</title><path class="cls-1" d="M55.11,51.28l-2.82-8.51A20.25,20.25,0,1,0,45,51.24L52.27,54a2.19,2.19,0,0,0,2.81-1.27A2.15,2.15,0,0,0,55.11,51.28Zm-10.52-3.2-.61.43A17.39,17.39,0,1,1,49.51,42l-.26.53L52,50.89Z"/><path class="cls-1" d="M26.82,33a2.33,2.33,0,1,0,2.33,2.33A2.33,2.33,0,0,0,26.82,33Z"/><path class="cls-1" d="M33.87,33a2.33,2.33,0,1,0,2.33,2.33A2.33,2.33,0,0,0,33.87,33Z"/><path class="cls-1" d="M40.92,33a2.33,2.33,0,1,0,2.33,2.33A2.33,2.33,0,0,0,40.92,33Z"/></svg>