<svg id="Layer_1" data-name="Layer 1" xmlns="http://www.w3.org/2000/svg" viewBox="0 0 72 72"><defs><style>.cls-1{fill:silver;}</style></defs><title>Plan_icon</title><path class="cls-1" d="M27.18,33A2.82,2.82,0,1,0,30,35.84,2.83,2.83,0,0,0,27.18,33Zm0,3.64a.82.82,0,1,1,.82-.82A.83.83,0,0,1,27.18,36.66Z"/><path class="cls-1" d="M27.18,41.06A2.83,2.83,0,1,0,30,43.89,2.83,2.83,0,0,0,27.18,41.06Zm0,3.65a.83.83,0,1,1,.82-.82A.83.83,0,0,1,27.18,44.71Z"/><path class="cls-1" d="M27.18,48.77A2.83,2.83,0,1,0,30,51.59,2.83,2.83,0,0,0,27.18,48.77Zm0,3.65a.83.83,0,1,1,.82-.83A.83.83,0,0,1,27.18,52.42Z"/><rect class="cls-1" x="31.22" y="34.77" width="9.5" height="2"/><path class="cls-1" d="M57.51,30.62,53,26.5l-4.53,5.21V22.08a2.78,2.78,0,0,0-2.78-2.78H37.12a3.76,3.76,0,0,0-6.39,0H22.31a2.77,2.77,0,0,0-2.77,2.77v35.1A2.78,2.78,0,0,0,22.31,60H45.69a2.78,2.78,0,0,0,2.78-2.78V40.92Zm-4.35-1.26,1.56,1.42L37,50.91l-1.87.39.49-1.76ZM39.41,25.12h0a2,2,0,0,1,2,2H26a2,2,0,0,1,2-2Zm-5.48-5.6a1.79,1.79,0,1,1-1.79,1.79A1.8,1.8,0,0,1,33.93,19.52ZM46.47,57.17a.78.78,0,0,1-.78.78H22.31a.78.78,0,0,1-.77-.78V22.07a.78.78,0,0,1,.77-.77h7.83a3.7,3.7,0,0,0,.48,1.81H28.05a4,4,0,0,0-4,4v2H43.41v-2a4,4,0,0,0-4-4H37.24a3.81,3.81,0,0,0,.48-1.81h8a.78.78,0,0,1,.78.78V34l-7.55,8.71h-7.7v2h6L34,48.4l-.15.18-1.48,5.36,5.73-1.21,8.37-9.54Z"/></svg>