<svg id="Layer_1" data-name="Layer 1" xmlns="http://www.w3.org/2000/svg" viewBox="0 0 72 72"><defs><style>.cls-1{fill:silver;}</style></defs><title>ClipboardDoc_icon</title><path class="cls-1" d="M48.39,35.79V14.62a2.93,2.93,0,0,0-2.93-2.92H36.18a4,4,0,0,0-6.81,0H20.24a2.91,2.91,0,0,0-2.91,2.91V52.48a2.92,2.92,0,0,0,2.91,2.92H23.8v9.08H50.91V38.82Zm-7.66-6.07,5.66,6.79v0h0l1.34,1.6h-7Zm-2-11.9h0a2.26,2.26,0,0,1,2.24,2.25v.05H24.18v-.05a2.25,2.25,0,0,1,2.25-2.25Zm-5.91-6a2,2,0,1,1-2,2A2,2,0,0,1,32.77,11.78ZM20.24,53.4a.92.92,0,0,1-.91-.92V14.61a.91.91,0,0,1,.91-.91h8.53s0,.06,0,.09a3.88,3.88,0,0,0,.58,2H26.43a4.26,4.26,0,0,0-4.25,4.25v2.05H42.93V20.05a4.25,4.25,0,0,0-4.24-4.23H36.21a4,4,0,0,0,.57-2s0-.06,0-.09h8.69a.93.93,0,0,1,.93.92V33.39L40.2,26H23.8V53.4Zm5.56,9.08V28H38.73V40.13H48.92V62.48Z"/><rect class="cls-1" x="30.61" y="44.91" width="13.19" height="2"/><rect class="cls-1" x="30.61" y="50.57" width="13.19" height="2"/><rect class="cls-1" x="30.61" y="55.83" width="13.19" height="2"/></svg>