<svg id="Layer_1" data-name="Layer 1" xmlns="http://www.w3.org/2000/svg" viewBox="0 0 72 72"><defs><style>.cls-1{fill:silver;}</style></defs><title>clipboardTime_icon</title><path class="cls-1" d="M53.54,50.53l-1.41-.71h0l0-3a1,1,0,0,0-.94-.95h0a1,1,0,0,0-.94,1l0,3a2,2,0,0,0,.72,1.5l1.73.89a1,1,0,0,0,.43.1.95.95,0,0,0,.42-1.79Z"/><path class="cls-1" d="M51.18,43.22a7,7,0,1,0,7,7A7,7,0,0,0,51.18,43.22Zm0,12a5.06,5.06,0,1,1,5.06-5.06A5.07,5.07,0,0,1,51.18,55.23Z"/><path class="cls-1" d="M33.75,28.74a2.67,2.67,0,1,0,2.68,2.67A2.68,2.68,0,0,0,33.75,28.74Zm0,3.45a.78.78,0,1,1,.78-.78A.78.78,0,0,1,33.75,32.19Z"/><path class="cls-1" d="M33.75,36.36A2.67,2.67,0,1,0,36.43,39,2.68,2.68,0,0,0,33.75,36.36Zm0,3.45a.78.78,0,1,1,.78-.78A.78.78,0,0,1,33.75,39.81Z"/><path class="cls-1" d="M33.75,43.65a2.68,2.68,0,1,0,2.68,2.68A2.68,2.68,0,0,0,33.75,43.65Zm0,3.46a.79.79,0,1,1,.78-.78A.78.78,0,0,1,33.75,47.11Z"/><rect class="cls-1" x="37.58" y="37.93" width="10.91" height="1.89"/><rect class="cls-1" x="37.58" y="30.4" width="10.91" height="1.89"/><rect class="cls-1" x="37.58" y="45.36" width="4.59" height="1.89"/><path class="cls-1" d="M28.41,51.61V18.38a.74.74,0,0,1,.74-.73h7.41A3.54,3.54,0,0,0,37,19.37H34.58a3.8,3.8,0,0,0-3.8,3.79V25H49.12V23.16a3.79,3.79,0,0,0-3.79-3.79h-2a3.54,3.54,0,0,0,.45-1.71h7.55a.74.74,0,0,1,.74.74V41.2h1.89V18.39a2.64,2.64,0,0,0-2.63-2.64H43.17a3.56,3.56,0,0,0-6.05,0h-8a2.63,2.63,0,0,0-2.63,2.63V51.61a2.63,2.63,0,0,0,2.63,2.63H42.57v-1.9H29.15A.73.73,0,0,1,28.41,51.61ZM47.23,23.14H32.68a1.9,1.9,0,0,1,1.9-1.88H45.33A1.9,1.9,0,0,1,47.23,23.14ZM40.14,16a1.7,1.7,0,1,1-1.69,1.7A1.7,1.7,0,0,1,40.14,16Z"/></svg>