<svg id="Layer_1" data-name="Layer 1" xmlns="http://www.w3.org/2000/svg" viewBox="0 0 72 72"><defs><style>.cls-1{fill:silver;}</style></defs><title>Procedures_icon</title><path class="cls-1" d="M26.38,30.69a2.83,2.83,0,1,0,2.82,2.83A2.83,2.83,0,0,0,26.38,30.69Zm0,3.65a.83.83,0,1,1,.82-.82A.83.83,0,0,1,26.38,34.34Z"/><path class="cls-1" d="M26.38,38.74a2.83,2.83,0,1,0,2.82,2.82A2.83,2.83,0,0,0,26.38,38.74Zm0,3.65a.83.83,0,1,1,.82-.83A.83.83,0,0,1,26.38,42.39Z"/><path class="cls-1" d="M26.38,46.45a2.82,2.82,0,1,0,2.82,2.82A2.83,2.83,0,0,0,26.38,46.45Zm0,3.64a.82.82,0,1,1,.82-.82A.83.83,0,0,1,26.38,50.09Z"/><rect class="cls-1" x="30.42" y="40.41" width="11.52" height="2"/><rect class="cls-1" x="30.42" y="32.45" width="11.52" height="2"/><rect class="cls-1" x="30.42" y="48.25" width="11.52" height="2"/><path class="cls-1" d="M44.89,17H36.33a3.77,3.77,0,0,0-6.4,0H21.51a2.77,2.77,0,0,0-2.77,2.77v35.1a2.78,2.78,0,0,0,2.77,2.78H44.89a2.78,2.78,0,0,0,2.78-2.78V19.76A2.77,2.77,0,0,0,44.89,17ZM38.61,22.8a2,2,0,0,1,2,2H25.24a2,2,0,0,1,2-2Zm-5.48-5.6A1.79,1.79,0,1,1,31.34,19,1.79,1.79,0,0,1,33.13,17.2ZM45.67,54.85a.78.78,0,0,1-.78.78H21.51a.78.78,0,0,1-.77-.78V19.75a.78.78,0,0,1,.77-.77h7.83a3.7,3.7,0,0,0,.48,1.81H27.25a4,4,0,0,0-4,4v2H42.61v-2a4,4,0,0,0-4-4H36.44A3.81,3.81,0,0,0,36.92,19h8a.78.78,0,0,1,.78.78Z"/></svg>