<svg id="Layer_1" data-name="Layer 1" xmlns="http://www.w3.org/2000/svg" viewBox="0 0 72 72"><defs><style>.cls-1{fill:silver;}</style></defs><title>clockTime_icon</title><path class="cls-1" d="M41.45,40.14l-5.08-2.55A2.19,2.19,0,0,1,35.66,36l0-10a1.22,1.22,0,0,0-1.22-1.22h0a1.23,1.23,0,0,0-1.22,1.23l.05,10a4.66,4.66,0,0,0,1.7,3.51l5.44,2.77a1.34,1.34,0,0,0,.55.13,1.23,1.23,0,0,0,.55-2.32Z"/><path class="cls-1" d="M34.36,19.84a17.3,17.3,0,1,0,17.29,17.3A17.32,17.32,0,0,0,34.36,19.84Zm0,32.15A14.85,14.85,0,1,1,49.21,37.14,14.86,14.86,0,0,1,34.36,52Z"/></svg>