<svg id="Layer_1" data-name="Layer 1" xmlns="http://www.w3.org/2000/svg" viewBox="0 0 72 72"><defs><style>.cls-1{fill:silver;}</style></defs><title>Cone_icon</title><path class="cls-1" d="M46.31,27.81a5.65,5.65,0,0,0-2.78-4.14,10.26,10.26,0,0,0,.38-2.59,10,10,0,0,0-9.69-10.3h0a10,10,0,0,0-10,9.94,10.36,10.36,0,0,0,.42,3.05,5.62,5.62,0,0,0,1.88,10.3c1.58,5.8,4.21,13.37,6.09,18.64a1.69,1.69,0,0,0,1,1,1.63,1.63,0,0,0,.57.1,1.71,1.71,0,0,0,1.62-1.15c2.84-8,4.87-14.23,6.07-18.68a5.58,5.58,0,0,0,4.39-6.22ZM34.23,51.3C33,47.84,30.25,40,28.6,34.09a5.62,5.62,0,0,0,2.28-1,5.6,5.6,0,0,0,6.57,0,5.48,5.48,0,0,0,2.38,1C38.67,38.3,36.79,44.07,34.23,51.3ZM43.42,31a3.64,3.64,0,0,1-5.11.26,1.25,1.25,0,0,0-1.7,0,3.61,3.61,0,0,1-4.87,0,1.25,1.25,0,0,0-1.7,0,3.6,3.6,0,0,1-2.44.94h0a3.63,3.63,0,0,1-3-5.65,3.9,3.9,0,0,1,.82-.85A10.15,10.15,0,0,0,29,29.56L30,27.87a8.18,8.18,0,0,1-3.53-4.82v0h0a8.69,8.69,0,0,1-.28-2.28,8,8,0,0,1,8-8h0A8,8,0,0,1,41.91,21a8.2,8.2,0,0,1-3.59,6.68l1.12,1.66a10.16,10.16,0,0,0,3.34-3.8A3.61,3.61,0,0,1,43.42,31Z"/></svg>