<svg id="Layer_1" data-name="Layer 1" xmlns="http://www.w3.org/2000/svg" viewBox="0 0 72 72"><defs><style>.cls-1{fill:silver;}</style></defs><title>Diploma_icon</title><path class="cls-1" d="M51.93,28.43A5.42,5.42,0,0,0,47.39,28L20.68,35.68h0a6.9,6.9,0,0,0-5.25,8.84h0a3.63,3.63,0,0,0,1,1.87,7.09,7.09,0,0,0,1.23,1.35A6.87,6.87,0,0,0,22,49.38c.2,0,.41,0,.61,0a6.87,6.87,0,0,0,3.3-1.17v0l9.71-3.83L35.3,49l6,3.57-.12-6.73,4.42,6,3-4.93-4.56-5.85,7-2.76a5.47,5.47,0,0,0,.85-9.86Zm-13.8,5.14c2.65,2,3.56,4.79,2.32,6.89l-1.62.64a8.54,8.54,0,0,0-3.39-7.71l1.68-.48A7.29,7.29,0,0,1,38.13,33.57Zm-11.66,3.6a7,7,0,0,0-1.25-.83l7.86-2.27a7.91,7.91,0,0,1,1.05.69c2.55,2,3.58,5.06,2.46,7.22l-8.24,3.25A6.91,6.91,0,0,0,26.47,37.17Zm-8.3,2.06a5.05,5.05,0,0,1,7.09-.62,5.16,5.16,0,0,1,.91,1l-5.9,1.44.47,2.46a1.8,1.8,0,0,1-1.43,2.09,1.78,1.78,0,0,1-1.51-.43A5.1,5.1,0,0,1,17,42.9,5,5,0,0,1,18.17,39.23Zm4.29,8.24a4.78,4.78,0,0,1-2-.24,3.68,3.68,0,0,0,2.16-4l-.14-.7,4.48-1.09A4.49,4.49,0,0,1,27,42a5,5,0,0,1-4.57,5.44Zm16.93,1.74L37.26,48l.33-4.35L39.13,43l.14.2Zm7-2.18-.88,1.42-4.34-5.88v-.36l1.12-.44Zm6.39-13.56a3.53,3.53,0,0,1-2.34,3.06l-7.61,3c.47-2.48-.72-5.2-3.33-7.3L48,29.78a3.59,3.59,0,0,1,4.78,3.69Z"/></svg>