<svg id="Layer_1" data-name="Layer 1" xmlns="http://www.w3.org/2000/svg" viewBox="0 0 72 72"><defs><style>.cls-1{fill:silver;}</style></defs><title>DocumentVerify_icon</title><path class="cls-1" d="M40.89,30.82,38.77,33A7.75,7.75,0,1,0,40,34.66l2.37-2.44a1,1,0,1,0-1.43-1.4Zm-2,7.49a5.82,5.82,0,1,1-1.49-3.87l-4.09,4.21-1.39-1.44a1,1,0,0,0-1.44,1.38l2,2.08a1.23,1.23,0,0,0,1.71-.05l4.3-4.42A5.87,5.87,0,0,1,38.86,38.31Z"/><path class="cls-1" d="M46,13.23H38.73l-1.5-1.81H19.48v41.8h9.07v5.22H54V23.12Zm-8.23,1.95,7.91,9.5H37.76ZM21.48,13.42H35.76V26.68h11.1V51.22H21.48ZM52,56.44H30.55V53.22h18.3V25.38L40.4,15.23H45L52,23.83Z"/></svg>