<svg id="Layer_1" data-name="Layer 1" xmlns="http://www.w3.org/2000/svg" viewBox="0 0 72 72"><defs><style>.cls-1{fill:silver;}</style></defs><title>Document_bill_icon</title><path class="cls-1" d="M42.85,13.42h-18V56.3l28.45,0V25.93Zm.55,3.93L50,25.21H43.4ZM26.92,54.21V15.51H41.31v11.8h9.87V54.19Z"/><rect class="cls-1" x="30.72" y="31.79" width="14.79" height="2.09"/><rect class="cls-1" x="30.72" y="36.76" width="10.55" height="2.09"/><rect class="cls-1" x="30.72" y="41.73" width="6.62" height="2.09"/><rect class="cls-1" x="30.72" y="46.7" width="6.62" height="2.09"/><path class="cls-1" d="M45.63,44.51H44.8c-.91,0-1.19,0-1.52-.23a.7.7,0,0,1-.15-.19.51.51,0,0,1,0-.4.5.5,0,0,1,.31-.32,1.16,1.16,0,0,1,.73-.13l.08,0h.85a2.29,2.29,0,0,1,1.66.58,1,1,0,1,0,1.39-1.57,4.41,4.41,0,0,0-2.23-1.06v-.4a1.05,1.05,0,0,0-2.1,0v.33a3.19,3.19,0,0,0-1.34.37A2.57,2.57,0,0,0,41.13,43a2.62,2.62,0,0,0,.11,2A2.68,2.68,0,0,0,42,46a4.12,4.12,0,0,0,2.82.64h.77c.84,0,1.21.39,1.24.49,0,.65-1,.72-1.5.72H44.09a2.2,2.2,0,0,1-1.6-.57,1,1,0,1,0-1.42,1.53A4.16,4.16,0,0,0,43.8,49.9v.28a1.05,1.05,0,0,0,2.1,0v-.31C47.76,49.7,49,48.65,49,47.09,49,45.83,47.71,44.52,45.63,44.51Z"/></svg>