<svg id="Layer_1" data-name="Layer 1" xmlns="http://www.w3.org/2000/svg" viewBox="0 0 72 72"><defs><style>.cls-1{fill:silver;}</style></defs><title>document_time_icon</title><path class="cls-1" d="M54.75,50.93l-1.53-.77h0l0-3.22a1,1,0,0,0-1-1h0a1,1,0,0,0-1,1l0,3.23A2.1,2.1,0,0,0,52,51.79l1.87,1a1.07,1.07,0,0,0,.46.11,1,1,0,0,0,.46-1.94Z"/><path class="cls-1" d="M52.2,43.05a7.5,7.5,0,1,0,7.5,7.5A7.5,7.5,0,0,0,52.2,43.05Zm0,13a5.46,5.46,0,1,1,5.45-5.46A5.47,5.47,0,0,1,52.2,56Z"/><path class="cls-1" d="M28.8,16.87H43.88V28.38h9.64V40h2V27L45.38,14.83H26.76V55.65H41.88v-2H28.8Zm17.13,1.8,6.39,7.67H45.93Z"/><rect class="cls-1" x="33.27" y="32.76" width="15.48" height="2.04"/><rect class="cls-1" x="33.27" y="38.11" width="15.48" height="2.04"/><rect class="cls-1" x="33.27" y="43.09" width="8.38" height="2.04"/></svg>