<svg id="Layer_1" data-name="Layer 1" xmlns="http://www.w3.org/2000/svg" viewBox="0 0 72 72"><defs><style>.cls-1{fill:silver;}</style></defs><title>LetterRecommend_iconv</title><path class="cls-1" d="M40.75,29.14l-1.7,1.74a6.73,6.73,0,1,0,1.19,1.65l1.94-2a1,1,0,1,0-1.43-1.39ZM39,35.61a4.81,4.81,0,1,1-1.32-3.29l-3.28,3.36-1.06-1.11a1,1,0,0,0-1.42,0,1,1,0,0,0,0,1.41l1.65,1.72a1.19,1.19,0,0,0,.86.37h0a1.17,1.17,0,0,0,.84-.37l3.47-3.57A4.75,4.75,0,0,1,39,35.61Z"/><path class="cls-1" d="M45.27,14.13H39.09l-1.28-1.54H22.5V48.43h7.71v4.43H52.13V22.64Zm-6.93,2.22,6.26,7.52H38.34ZM24.5,14.59H36.34V25.87h9.44V46.43H24.5ZM50.13,50.86H32.21V48.43H47.77V24.55l-7-8.42h3.55l5.82,7.21Z"/></svg>