<svg id="Layer_1" data-name="Layer 1" xmlns="http://www.w3.org/2000/svg" viewBox="0 0 72 72"><defs><style>.cls-1{fill:silver;}</style></defs><title>DocumentProfilesearch_icon</title><path class="cls-1" d="M40.38,13.25h-17V29.1a10.73,10.73,0,0,0-3.56,16.29L11.91,52a1.11,1.11,0,0,0,.71,2,1.08,1.08,0,0,0,.7-.26L21.42,47a10.7,10.7,0,0,0,2,1.3h0v8.15h28V26.5ZM41,17.42l6.93,8.32H41ZM28.26,30.16a8.51,8.51,0,0,1,6.23,14.33,4.16,4.16,0,0,0-3.77-2.43H26a4.16,4.16,0,0,0-3.84,2.57,8.52,8.52,0,0,1,6.12-14.47ZM32.64,46a8.47,8.47,0,0,1-8.59.1A1.94,1.94,0,0,1,26,44.27h4.74A2,2,0,0,1,32.64,46Zm-7,8.22V49.1a10.74,10.74,0,1,0,2.62-21.16,10.28,10.28,0,0,0-2.62.34V15.47H38.75V28H49.21V54.22Z"/><rect class="cls-1" x="40.26" y="33.59" width="5.72" height="2.22"/><rect class="cls-1" x="41.47" y="39.4" width="4.51" height="2.22"/><rect class="cls-1" x="39.93" y="44.8" width="6.05" height="2.22"/><path class="cls-1" d="M28.35,40.71A3.76,3.76,0,1,0,24.59,37,3.77,3.77,0,0,0,28.35,40.71Zm0-5.3A1.54,1.54,0,1,1,26.81,37,1.54,1.54,0,0,1,28.35,35.41Z"/></svg>