<svg id="Layer_1" data-name="Layer 1" xmlns="http://www.w3.org/2000/svg" viewBox="0 0 72 72"><defs><style>.cls-1{fill:silver;}</style></defs><title>Forms_icon </title><path class="cls-1" d="M41.58,18.24h-5.3l-1.13-1.35H21.46v6.57l-6.11-5.77-4.08,4.55,10.19,9.48V48.33h5.06v3.92H48.44V26.75Zm-5.89,2.41,5.16,6.19H35.69Zm-20.22-.1,17.17,16.2.66,1.7-1.89-.2L14.07,22.11Zm8,13,6.83,6.35.24.22,5.83.63-2-5.18L23.46,25.34V18.89H33.69v10H42V46.33H23.46Zm23,16.66H28.52V48.33H44V27.53L38,20.24h2.67l5.82,7.22Z"/></svg>