<svg id="Layer_1" data-name="Layer 1" xmlns="http://www.w3.org/2000/svg" viewBox="0 0 72 72"><defs><style>.cls-1{fill:silver;}</style></defs><title>Secure_icon</title><path class="cls-1" d="M25.89,35.7a2.7,2.7,0,1,0,2.69,2.7A2.7,2.7,0,0,0,25.89,35.7Zm0,3.4a.7.7,0,0,1,0-1.4.7.7,0,0,1,0,1.4Z"/><path class="cls-1" d="M46,17.47h-.08V16.1a6.33,6.33,0,0,0-6.06-6.57,6.33,6.33,0,0,0-6,6.57v1.37h-.11a2.8,2.8,0,0,0-2.8,2.8v.49H19.21V54H39.77V32.57h6.42A2.59,2.59,0,0,0,48.77,30V20.27A2.81,2.81,0,0,0,46,17.47ZM35.78,16.1a4.34,4.34,0,0,1,4-4.57,4.34,4.34,0,0,1,4.06,4.57v1.37H35.78Zm2,35.94H21.21V22.76h9.66V30a2.59,2.59,0,0,0,2.58,2.58h4.32Zm9-22a.58.58,0,0,1-.58.58H33.45a.58.58,0,0,1-.58-.58V20.27a.8.8,0,0,1,.8-.8H46a.8.8,0,0,1,.8.8Z"/><path class="cls-1" d="M39.72,22.25a1.86,1.86,0,0,0-.85,3.51v2.53h2V25.57a1.86,1.86,0,0,0-1.15-3.32Z"/></svg>