<svg id="Layer_1" data-name="Layer 1" xmlns="http://www.w3.org/2000/svg" viewBox="0 0 72 72"><defs><style>.cls-1{fill:silver;}</style></defs><title>Electric_icon</title><path class="cls-1" d="M30.43,52.07A1.18,1.18,0,0,1,30,52a1.21,1.21,0,0,1-.74-1.28l2.33-12.07H23.16a1.21,1.21,0,0,1-.91-2L37.81,18.72a1.24,1.24,0,0,1,1.47-.29,1.25,1.25,0,0,1,.66,1.34L37.69,30.92h7.63a1.22,1.22,0,0,1,1.11.69,1.23,1.23,0,0,1-.15,1.3l-14.9,18.7A1.18,1.18,0,0,1,30.43,52.07Zm-.69-1.77ZM25.11,36.52h7.5A1.2,1.2,0,0,1,33.8,38L32,47.51,43.51,33H36.62a1.22,1.22,0,0,1-1.2-1.47l1.8-8.95ZM23.84,38h0Zm7.9-.42h0Z"/></svg>