<svg id="Layer_1" data-name="Layer 1" xmlns="http://www.w3.org/2000/svg" viewBox="0 0 72 72"><defs><style>.cls-1{fill:silver;}</style></defs><title>Payroll_icon</title><path class="cls-1" d="M36.6,31.15H35.41a2,2,0,0,1-1.5-.53,1,1,0,0,0-1.41.05,1,1,0,0,0,0,1.41,4,4,0,0,0,2.57,1.07v.25a1,1,0,0,0,2,0v-.28C38.88,33,40,32,40,30.48,40,29.31,38.8,28,36.86,28h-.78c-.87,0-1.12,0-1.42-.21a.43.43,0,0,1-.14-.16.47.47,0,0,1,.26-.67,1,1,0,0,1,.68-.12h.88a2.18,2.18,0,0,1,1.55.55,1,1,0,0,0,1.42-.09,1,1,0,0,0-.09-1.41,4.15,4.15,0,0,0-2.1-1v-.36a1,1,0,0,0-2,0v.3a3,3,0,0,0-1.26.34,2.47,2.47,0,0,0-1.26,1.43,2.45,2.45,0,0,0,.86,2.78,3.82,3.82,0,0,0,2.66.61h.73a1.33,1.33,0,0,1,1.15.45C38,31.09,37,31.15,36.6,31.15Z"/><path class="cls-1" d="M44.86,22V13.27H27.07v9.42L19,29.48v24H53.23v-24Zm-14.2,18.8L21,50.52V32.18Zm1.5,1.33,2.35,2.1a2.41,2.41,0,0,0,3.18,0l2.43-2.16,9.66,9.41h-27Zm9.45-1.4,9.62-8.56V50.12ZM50.73,30l-5.87,5.23V24.69ZM42.86,15.27V37l-6.5,5.78a.37.37,0,0,1-.52,0l-6.77-6V15.27ZM27.07,34.94,21.5,30l5.57-4.67Z"/></svg>