<svg id="Layer_1" data-name="Layer 1" xmlns="http://www.w3.org/2000/svg" viewBox="0 0 72 72"><defs><style>.cls-1{fill:silver;}</style></defs><title>Exit_icon</title><path class="cls-1" d="M55.47,24.75l-1.32,1.5,6.36,5.6H49.64v2H60.32l-6.18,5.61,1.34,1.48,9.05-8.21Zm5.89,7.85.17.15-.17.16Z"/><path class="cls-1" d="M36.78,19.76a4.31,4.31,0,1,0-4.31,4.32A4.32,4.32,0,0,0,36.78,19.76Zm-6.62,0a2.31,2.31,0,1,1,2.31,2.32A2.32,2.32,0,0,1,30.16,19.76Z"/><path class="cls-1" d="M41.54,11.74H22.28a1.84,1.84,0,0,0-1.84,1.83v6.34a1,1,0,0,0,2,0V13.74H41.37v17l-3,1.22-1.57-1.91a15.2,15.2,0,0,0-15.07-6.91l-5.12.76a4.77,4.77,0,0,0-3.85,3.21l-1.46,4.29a3.11,3.11,0,0,0,.42,2.8,3.05,3.05,0,0,0,2.51,1.29,3.09,3.09,0,0,0,2.93-2.09l1.21-3.55,3.86-.42-2.16,6.72-.56,5.42H15.27a3.21,3.21,0,1,0,0,6.42h0L23.72,48A2.28,2.28,0,0,0,26,45.85l.24-2.92L35,53.48H22.44V50.81a1,1,0,0,0-2,0v2.83a1.85,1.85,0,0,0,1.84,1.84H41.54a1.84,1.84,0,0,0,1.83-1.84V13.57A1.83,1.83,0,0,0,41.54,11.74ZM30.46,37.6a1.17,1.17,0,0,1-.22-1.11l.84-2.66,3.66,4a3.72,3.72,0,0,0,4.38.83l2.25-1.08v13Zm-4.2,2.25-.45-.44-1.33.25-.49,6a.3.3,0,0,1-.29.26L15.28,46a1.31,1.31,0,0,1-.86-.35,1.21,1.21,0,0,1,.85-2.07h6.06L22,36.69l2.52-7.83a1.18,1.18,0,0,0-1.25-1.53l-5.41.59a1.57,1.57,0,0,0-1.29,1l-1.3,3.82a1.09,1.09,0,1,1-2.07-.71l1.45-4.28a2.79,2.79,0,0,1,2.26-1.88L22,25.15A13.18,13.18,0,0,1,35.15,31.2l2,2.41a1.38,1.38,0,0,0,1.59.41l2.65-1.09v2.41l-3.12,1.5a1.73,1.73,0,0,1-2-.39l-4.63-5a1.17,1.17,0,0,0-2,.44l-1.27,4a3.16,3.16,0,0,0,.6,3L41.22,53.48H37.6Z"/></svg>