<svg id="Layer_1" data-name="Layer 1" xmlns="http://www.w3.org/2000/svg" viewBox="0 0 72 72"><defs><style>.cls-1{fill:silver;}</style></defs><title>FAQ_icon</title><path class="cls-1" d="M35,44.16a3.19,3.19,0,1,0,3.18,3.18A3.18,3.18,0,0,0,35,44.16Zm0,4.37a1.19,1.19,0,1,1,1.18-1.19A1.18,1.18,0,0,1,35,48.53Z"/><path class="cls-1" d="M35,18.66h0A9.76,9.76,0,0,0,25.3,27.9a1.61,1.61,0,0,0,1.6,1.65h2.18a1.59,1.59,0,0,0,1.59-1.48,6.28,6.28,0,0,1,.12-.84,4.41,4.41,0,0,1,8.59.4c0,.14,0,.28,0,.41a4.38,4.38,0,0,1-3.16,4.44l-.15,0a5,5,0,0,0-4.25,5v3.59a1.34,1.34,0,0,0,1.34,1.34h2.93a1.34,1.34,0,0,0,1.34-1.34V38.1a.33.33,0,0,1,.24-.32,9.8,9.8,0,0,0,7.07-9.36A9.76,9.76,0,0,0,35,18.66Zm2.14,17.19a2.33,2.33,0,0,0-1.7,2.24v2.3H33.87V37.45a3,3,0,0,1,2.51-3,2.37,2.37,0,0,0,.42-.08,6.39,6.39,0,0,0,4.62-6.51c0-.2,0-.4-.07-.62a6.41,6.41,0,0,0-12.5-.54c-.06.27-.1.54-.14.81H27.33A7.76,7.76,0,0,1,35,20.66h0a7.77,7.77,0,0,1,7.75,7.76A7.79,7.79,0,0,1,37.18,35.85Z"/><path class="cls-1" d="M35,12.87A21.84,21.84,0,1,0,56.88,34.71,21.86,21.86,0,0,0,35,12.87Zm0,41.67A19.84,19.84,0,1,1,54.88,34.71,19.85,19.85,0,0,1,35,54.54Z"/></svg>