<svg id="Layer_1" data-name="Layer 1" xmlns="http://www.w3.org/2000/svg" viewBox="0 0 72 72"><defs><style>.cls-1{fill:silver;}</style></defs><title>EmergencyResponders_icon</title><path class="cls-1" d="M28.15,32.78V27.12A1.08,1.08,0,0,0,27.07,26H23.62V22.59a1.09,1.09,0,0,0-1.09-1.09H16.87a1.08,1.08,0,0,0-1.08,1.09V26H12.34a1.08,1.08,0,0,0-1.09,1.08v5.66a1.08,1.08,0,0,0,1.09,1.08h3.45v3.45a1.08,1.08,0,0,0,1.08,1.09h5.66a1.09,1.09,0,0,0,1.09-1.09V33.86h3.45A1.08,1.08,0,0,0,28.15,32.78Zm-2-.92H22.7A1.1,1.1,0,0,0,21.62,33V36.4H17.79V33a1.09,1.09,0,0,0-1.09-1.09H13.25V28h3.48l.46,0,.6-.64V23.5h3.83V27A1.1,1.1,0,0,0,22.7,28h3.45Z"/><path class="cls-1" d="M51.79,30.45A7.1,7.1,0,0,1,51.26,29h0c-.2-.85-.15-.94.49-2l.34-.56A1.6,1.6,0,0,0,52.17,25l-1.05-2.32a1.15,1.15,0,0,0-1.54-.57l-.21.11-.13.13a2.26,2.26,0,0,1-1.65.69,2,2,0,0,1-1.72-.76,1.16,1.16,0,0,0-.74-.52,1.18,1.18,0,0,0-.89.17l-.19.14-.1.13a2.4,2.4,0,0,1-1.89.94h0a2.35,2.35,0,0,1-1.71-.78,1.14,1.14,0,0,0-1.61-.08l-1.58,2.57a1.55,1.55,0,0,0,.11,1.77l.19.24c1,1.25,1.1,1.66.73,2.76a9.11,9.11,0,0,1-.35.86,5.3,5.3,0,0,0-.55,2.35c0,3.3,5.86,6.89,7,7.57l.5.3.5-.3c1.18-.68,7.05-4.27,7.05-7.57A5.55,5.55,0,0,0,51.79,30.45Zm-7,7.89c-2.45-1.52-5.54-4.05-5.54-5.54a3.31,3.31,0,0,1,.35-1.47A8.84,8.84,0,0,0,40,30.22c.66-2,.19-3.06-1-4.63h0l.7-1.18a4.21,4.21,0,0,0,2.29.71,4.41,4.41,0,0,0,2.9-1,4,4,0,0,0,2.77.94,4.18,4.18,0,0,0,2.08-.56l.52,1.14L50,26a3.78,3.78,0,0,0-.7,3.48A9.08,9.08,0,0,0,50,31.33a3.42,3.42,0,0,1,.35,1.47C50.34,34.29,47.25,36.82,44.79,38.34Z"/><path class="cls-1" d="M33.91,35.07l-.35-1.22-1.1.61c-1.69.94-4.24,3.22-4.55,6.27-1,.87-4.4,4.1-3.37,8.85a7.14,7.14,0,0,0,6.64,5.25h.08c3.17,0,6.84-1.45,7.74-5.46a8.32,8.32,0,0,0-2.28-8.48C35.38,39.53,34.23,36.22,33.91,35.07Zm3.16,13.79c-.83,3.67-4.59,4-5.79,4h-.05a5.12,5.12,0,0,1-4.75-3.73,6.69,6.69,0,0,1,1.71-5.84c0,.17.12.34.19.52l.07,0,1.18,2.87a1,1,0,0,0,1.85-.76L30.14,42.6l-.24-1c-.16-2.17,1.41-3.81,2.5-4.69a16.3,16.3,0,0,0,2.92,5.41A6.37,6.37,0,0,1,37.07,48.86Z"/></svg>