<svg id="Layer_1" data-name="Layer 1" xmlns="http://www.w3.org/2000/svg" viewBox="0 0 72 72"><defs><style>.cls-1{fill:silver;}</style></defs><title>FlagInternation_icon</title><path class="cls-1" d="M54.19,51.15,47.41,39.39,54.1,26a1.31,1.31,0,0,0,.22-1.28,1.48,1.48,0,0,0-1.44-1h0L45,24.13A16,16,0,0,1,34.9,21.06a18.27,18.27,0,0,0-13.77-3.25l-7.85,1.33V14.8a1.1,1.1,0,0,0-2.19,0V62.54a1.1,1.1,0,1,0,2.19,0V49.42L18,48.33a14.33,14.33,0,0,1,12.3,2.87A16.59,16.59,0,0,0,40.8,54.92,17,17,0,0,0,43,54.77L53.1,53.38a1.45,1.45,0,0,0,1.29-.9A1.33,1.33,0,0,0,54.19,51.15ZM42.74,52.61a14.47,14.47,0,0,1-11-3.1A16.48,16.48,0,0,0,17.54,46.2l-4.26,1V21.35L21.49,20a16.13,16.13,0,0,1,12.13,2.87,18.25,18.25,0,0,0,11.51,3.49L51.66,26,45.38,38.57a1.34,1.34,0,0,0-.29.79,1.39,1.39,0,0,0,.29.88l6.41,11.12Z"/><path class="cls-1" d="M30.55,26.76A8.5,8.5,0,1,0,39,35.26,8.5,8.5,0,0,0,30.55,26.76Zm6.25,7.7-.12,0H34.53a13.34,13.34,0,0,0-1.07-4.77A6.31,6.31,0,0,1,36.8,34.46Zm-6.25,6.91c-.48,0-1.55-1.66-1.79-4.75h3.57C32.1,39.71,31,41.37,30.55,41.37Zm-1.79-6.93c.19-3.22,1.3-5,1.79-5s1.59,1.75,1.79,5Zm-1.13-4.77a13.34,13.34,0,0,0-1.07,4.77H24.3A6.3,6.3,0,0,1,27.63,29.67Zm-3.24,6.95h2.18a13.86,13.86,0,0,0,.88,4.12A6.32,6.32,0,0,1,24.39,36.62Zm9.26,4.12a13.86,13.86,0,0,0,.87-4.12H36.7A6.33,6.33,0,0,1,33.65,40.74Z"/></svg>