<svg id="Layer_1" data-name="Layer 1" xmlns="http://www.w3.org/2000/svg" viewBox="0 0 72 72"><defs><style>.cls-1{fill:silver;}</style></defs><title>Disaster_icon </title><path class="cls-1" d="M20.85,40.58a1.75,1.75,0,0,1-1.28.6l-3,.08.06,2,3-.08a3.79,3.79,0,0,0,2.72-1.28,1.78,1.78,0,0,1,1.32-.6h0a1.8,1.8,0,0,1,1.33.62l.54.65a3.81,3.81,0,0,0,2.73,1.31,3.68,3.68,0,0,0,2.81-1.11l1-1a1.75,1.75,0,0,1,1.34-.52,1.71,1.71,0,0,1,1.28.65l.53.65a3.77,3.77,0,0,0,5.54.31l1.52-1.48a1.78,1.78,0,0,1,2.39-.06l2,1.72a3.77,3.77,0,0,0,2.43.93l2.25,0,0-2-2.24,0A1.77,1.77,0,0,1,48,41.5l-1.56-1.36L43.57,30.06l2.64,1.12L47,29.34,39.2,26l-1.72-4.42-1.87.73,1,2.59-7.51-3.18-10,14.94,1.66,1.11,1.69-2.52,1,4A3.77,3.77,0,0,0,20.85,40.58Zm12.71-1.37a4.16,4.16,0,0,0-.86.07l-1-3.58,2.65-.84,2,5.81-.08-.08A3.74,3.74,0,0,0,33.56,39.21Zm-3.7-15,11.35,4.82L44,38.89a3.72,3.72,0,0,0-3.08,1l-1.53,1.48a1.62,1.62,0,0,1-.57.36l-3.21-9.39-6.34,2,1.58,5.82c-.06.05-.12.08-.17.13l-1,1a1.77,1.77,0,0,1-1.32.52,1.69,1.69,0,0,1-1.27-.61l-.55-.65a4,4,0,0,0-.83-.7L24,33.05Z"/><path class="cls-1" d="M48,46.39l-2-1.73a3.78,3.78,0,0,0-5.1.14l-1.53,1.48a1.73,1.73,0,0,1-1.32.5,1.76,1.76,0,0,1-1.27-.65l-.54-.65a3.78,3.78,0,0,0-2.73-1.38,3.83,3.83,0,0,0-2.85,1.11l-1,1a1.78,1.78,0,0,1-1.32.53,1.73,1.73,0,0,1-1.27-.62l-.55-.64A3.75,3.75,0,0,0,23.7,44.2h0a3.75,3.75,0,0,0-2.82,1.27,1.75,1.75,0,0,1-1.28.6l-3,.08.06,2,3-.08a3.76,3.76,0,0,0,2.72-1.28,1.77,1.77,0,0,1,1.32-.59h0a1.76,1.76,0,0,1,1.33.61l.54.65a3.77,3.77,0,0,0,2.73,1.31,3.68,3.68,0,0,0,2.81-1.11l1-1a1.79,1.79,0,0,1,1.34-.52,1.75,1.75,0,0,1,1.28.65l.53.65a3.77,3.77,0,0,0,5.54.31l1.52-1.48a1.78,1.78,0,0,1,2.39-.06l2,1.72a3.77,3.77,0,0,0,2.43.93l2.25,0,0-2-2.24,0A1.77,1.77,0,0,1,48,46.39Z"/></svg>