<?xml version="1.0" encoding="utf-8"?>
<!-- Generator: Adobe Illustrator 24.0.3, SVG Export Plug-In . SVG Version: 6.00 Build 0)  -->
<svg version="1.1" id="Layer_1" xmlns="http://www.w3.org/2000/svg" xmlns:xlink="http://www.w3.org/1999/xlink" x="0px" y="0px"
	 viewBox="0 0 72 72" style="enable-background:new 0 0 72 72;" xml:space="preserve">
<style type="text/css">
	.st0{fill:#C0C0C0;}
</style>
<title>MembershipLevel_v1</title>
<path class="st0" d="M50.3,33c-0.9-1.5-2.5-2.5-4.3-2.8c0,0-0.1-0.1-0.2-0.2c-1-2.3-3.2-3.9-5.8-4.1c-0.2,0-0.4-0.1-0.5-0.2
	l-0.6-0.5c-2.1-1.8-5.1-2.1-7.5-0.8l-0.6,0.3l0-0.1c-0.1-0.7-0.2-1.5-0.3-2.2c-0.2-1.4-0.4-2.9-0.5-3.9c0-2.3-0.4-4.5-1.2-6.6
	c-0.6-1.9-1.8-2.9-3.2-3c-1.5,0.1-2.8,1-3.3,2.4c-0.6,1.6-1,3.3-1,5v21l-0.5,2.6c-0.3,1.5-0.1,3.1,0.6,4.5l2.1,4.4
	c0.5,1,0.7,2.2,0.4,3.4L23.3,54c-0.3,1.1-0.1,2.3,0.6,3.2c0.9,1.1,2.2,1.8,3.6,1.7h0.1l18.1-0.2c1.4,0,2.8-0.7,3.6-1.8
	c0.7-0.9,0.9-2.1,0.5-3.2L48.9,51c-0.8-2.4-0.7-4.9,0.1-7.3l0.3-0.9c0.4-1,0.6-2.1,0.7-3.2l0.7-2.2C51.2,35.9,51,34.3,50.3,33z
	 M32.3,26c1.7-0.9,3.7-0.7,5.2,0.5l0.6,0.5c0.5,0.4,1,0.6,1.7,0.7c1.8,0.1,3.4,1.3,4.1,2.9l0.1,0.2c0.3,0.6,0.9,1.1,1.6,1.2
	c1.2,0.2,2.3,0.8,3,1.8c0.3,0.6,0.4,1.2,0.4,1.8c-0.6,1.8-1.2,3.6-2,5.3c-0.7,1.3-1.6,1.8-1.9,1.7s-0.5-0.5-0.5-1.7
	c0-0.6,0.1-1.1,0.2-1.7c0-0.2,0.1-0.3,0.1-0.5l1-3.3c0.3-0.4,0.2-1.1-0.2-1.4c-0.4-0.3-1.1-0.2-1.4,0.2C44.1,34.6,44,34.8,44,35
	l-1.1,3.5l-0.8,1c-0.7,0.8-1.5,1.2-1.9,1.2c-0.2-0.1-0.4-0.5-0.5-1.1c-0.1-0.7-0.1-1.4,0-2.1l0,0l1.6-4.1c0.2-0.5-0.1-1.1-0.6-1.3
	c-0.5-0.2-1,0.1-1.2,0.5L37.8,37c0,0.1-0.1,0.1-0.1,0.2c-0.3,0.4-0.6,0.7-1,1.1c-0.4,0.4-0.9,0.6-1.5,0.5c-0.2-0.1-0.4-0.3-0.4-0.6
	c0-0.7,0.1-1.5,0.3-2.2l0.5-0.3c1.9-1.5,2-4.2,1-6c-0.3-0.7-1-1.2-1.8-1.4c-1-0.2-1.9,0.1-2.7,0.7l-1.2,1.1v-3.3L32.3,26z M24.1,12
	c0.3-0.8,0.9-1.2,1.3-1.2l0,0c0.5,0,1.1,0.6,1.4,1.7c0.6,1.9,0.8,2.4,1.1,6c0.1,1.1,0.3,2.6,0.5,4c0.2,1.2,0.3,2.4,0.4,3.4
	c0,0.1,0,0.2,0.1,0.4v5.3c0,0.1,0,0.1,0,0.2l-5.8,4.8V16.2C23.2,14.8,23.5,13.3,24.1,12z M47.6,55.8c-0.5,0.6-1.2,1-2,1L27.5,57l0,0
	c-0.8,0-1.5-0.3-2-0.9c-0.3-0.4-0.4-0.9-0.3-1.4l0.6-1.9c0.3-1.6,0.1-3.3-0.6-4.7l-2.1-4.4c-0.5-1-0.6-2.2-0.4-3.3l0.2-0.9
	c0.1,0,0.2-0.1,0.3-0.2l10.3-8.7c0.3-0.2,0.6-0.3,1-0.3c0.2,0,0.3,0.1,0.4,0.3c0.7,1.1,0.5,2.6-0.5,3.5l-2.8,2.1
	c-0.6,0.4-1,1-1.2,1.7V38c0,0.2-0.1,0.4-0.2,0.6c-0.2,0.9-0.7,1.7-1.3,2.4c-0.4,0.4-0.4,1,0,1.4c0.2,0.2,0.4,0.3,0.7,0.3
	c0.3,0,0.5-0.1,0.7-0.3c0.8-0.9,1.4-1.9,1.7-3.1c0.1-0.2,0.2-0.5,0.2-0.8v-0.1c0.1-0.2,0.2-0.5,0.4-0.6l0,0c0,0.2,0,0.4,0,0.7
	c0,1,0.7,1.9,1.7,2.3c1.1,0.4,2.4,0.1,3.2-0.7c0.1,1.2,0.8,2.2,2,2.6c1,0.2,2.1-0.1,2.9-0.8c0.2,2.2,1.4,2.8,1.9,2.9
	c0.2,0.1,0.4,0.1,0.6,0.1c0.6,0,1.1-0.2,1.6-0.5c-0.5,2.4-0.4,5,0.4,7.3l0.9,2.7C48,54.8,47.9,55.4,47.6,55.8z"/>
<polygon class="st0" points="42.6,52.5 42.5,45.2 40.5,45.2 40.5,46.4 39.2,46.6 39.5,48.6 40.5,48.4 40.6,52.5 39.5,52.5 
	39.5,54.5 43.7,54.5 43.7,52.5 "/>
<path class="st0" d="M35.5,44.9h-2v2H32v-2h-2v2h-1.6v2H30v1.5h-1.6v2H30v1.7h2v-1.7h1.5v1.7h2v-1.7h1.6v-2h-1.6v-1.5h1.6v-2h-1.6
	V44.9z M33.5,50.4H32v-1.5h1.5L33.5,50.4z"/>
</svg>
