<svg id="Layer_1" data-name="Layer 1" xmlns="http://www.w3.org/2000/svg" viewBox="0 0 72 72"><defs><style>.cls-1{fill:silver;}</style></defs><title>FolderVerify_icon</title><path class="cls-1" d="M56.65,24.63V20.09H34.91l-1.52-3.15H17.74a2.25,2.25,0,0,0-2.24,2.24V55A1.49,1.49,0,0,0,17,56.49H58.2A1.49,1.49,0,0,0,59.68,55V24.63Zm-2-2.54v2.54H37.1l-1.23-2.54Zm3,32.4H17.5V19.18a.24.24,0,0,1,.24-.24H32.13l3.71,7.69H57.68Z"/><path class="cls-1" d="M29,40.73a7.83,7.83,0,1,0,15.65,0,7.7,7.7,0,0,0-.92-3.66l2.39-2.45a1,1,0,0,0-1.44-1.39L42.5,35.42A7.81,7.81,0,0,0,29,40.73Zm7.82-5.82a5.82,5.82,0,0,1,4.34,2L37,41.08l-1.39-1.45A1,1,0,0,0,34.16,41l2,2.08a1.22,1.22,0,0,0,.83.32,1.18,1.18,0,0,0,.88-.37l4.31-4.44a5.76,5.76,0,0,1,.41,2.12,5.83,5.83,0,1,1-5.83-5.82Z"/></svg>