<svg id="Layer_1" data-name="Layer 1" xmlns="http://www.w3.org/2000/svg" viewBox="0 0 72 72"><defs><style>.cls-1{fill:silver;}</style></defs><title>Athletics_icon</title><path class="cls-1" d="M51.14,59.18l-.24,0-5.88-1A6.09,6.09,0,0,1,41,55.46l-5.62-8.7a4.83,4.83,0,0,0-1.94-1.7l-5-2.42a4.09,4.09,0,0,1-1.93-5.37l2.14-4.65,1.65-9.49L43.76,28.4l.17,11.75,5.83,12.77,3.82,1.55.17.2c.49.61.4,1.55-.25,2.64C53.23,57.77,52.3,59.18,51.14,59.18ZM31.8,25.88l-1.33,7.46L28.28,38.1a2.09,2.09,0,0,0,1,2.74l5,2.42A6.7,6.7,0,0,1,37,45.68l5.62,8.69a4.09,4.09,0,0,0,2.73,1.8l5.71,1A3.53,3.53,0,0,0,52,56l-3.69-1.49L41.94,40.6l-.16-10.83Z"/><rect class="cls-1" x="39.73" y="48.84" width="7.23" height="2" transform="translate(-14.79 18.48) rotate(-20.65)"/><rect class="cls-1" x="30.84" y="32.81" width="2" height="11.52" transform="translate(-11.13 12.98) rotate(-19.69)"/><rect class="cls-1" x="33.47" y="40.3" width="10.77" height="2" transform="translate(-14.68 22.62) rotate(-27.52)"/><rect class="cls-1" x="29.36" y="19.23" width="2" height="18.93" transform="translate(-7.55 46.24) rotate(-68.21)"/><rect class="cls-1" x="35.05" y="28.58" width="2" height="14.34" transform="translate(-10.59 55.8) rotate(-68.02)"/><rect class="cls-1" x="27.73" y="14.13" width="2" height="18.31" transform="translate(-3.87 40.76) rotate(-67.22)"/><rect class="cls-1" x="26.84" y="8.27" width="2" height="20.67" transform="translate(-0.18 36.93) rotate(-66.93)"/></svg>