<svg id="Layer_1" data-name="Layer 1" xmlns="http://www.w3.org/2000/svg" viewBox="0 0 72 72"><defs><style>.cls-1{fill:silver;}</style></defs><title>GavelJudge_icon</title><path class="cls-1" d="M58.21,51.45l-23.74-19,3-3.92.45.35a1.7,1.7,0,0,0,1.08.38,1.72,1.72,0,0,0,1.35-.65l2.19-2.73a1.73,1.73,0,0,0-.28-2.43L28.8,12.79a1.74,1.74,0,0,0-2.43.28L24.18,15.8a1.74,1.74,0,0,0,.28,2.44l.72.57L15,32.15l-.44-.35a1.74,1.74,0,0,0-2.43.27L9.93,34.8a1.73,1.73,0,0,0,.22,2.39L23.66,47.92a1.74,1.74,0,0,0,1.07.37h.2a1.71,1.71,0,0,0,1.16-.63l2.18-2.73a1.74,1.74,0,0,0-.22-2.4l0,0h0l-.74-.59,3-3.89L53.86,56.89a3.48,3.48,0,0,0,4.35-5.44ZM27.76,14.53l13,10.34L39,27.18l-13-10.34ZM24.69,46.19l-13-10.35,1.85-2.31,13,10.35Zm-8.14-12.8L26.74,20.05l9.16,7.27L25.71,40.66Zm40.64,21.7a1.48,1.48,0,0,1-2.08.24L31.46,36.43l1.79-2.36L57,53A1.49,1.49,0,0,1,57.19,55.09Z"/></svg>