<svg id="Layer_1" data-name="Layer 1" xmlns="http://www.w3.org/2000/svg" viewBox="0 0 72 72"><defs><style>.cls-1{fill:silver;}</style></defs><title>Systems_icon</title><path class="cls-1" d="M53.11,29.42,50.82,29a1.39,1.39,0,0,1-1-.92,15.91,15.91,0,0,0-1.44-3.14,1.39,1.39,0,0,1,0-1.34l1.11-2.1a2.09,2.09,0,0,0-.55-2.65l-3.43-2.69a2.11,2.11,0,0,0-2.63,0l-1.75,1.51a1.36,1.36,0,0,1-1.24.29,9.61,9.61,0,0,0-3.11-.78l-.64,0a.8.8,0,0,1-.68-.47l-1.12-2.49A2.09,2.09,0,0,0,31.84,13l-4.22,1A2.09,2.09,0,0,0,26,16.14l.12,2.5a1.37,1.37,0,0,1-.6,1.19A15.83,15.83,0,0,0,24,21a1.38,1.38,0,0,1-1.32.27l-2.47-.82a2.09,2.09,0,0,0-2.53,1l-2.08,3.83a2.09,2.09,0,0,0,.48,2.59l2.11,1.76a1.41,1.41,0,0,1,.47,1.3c0,.31-.08.63-.1.95a15.67,15.67,0,0,0,0,1.94,1.37,1.37,0,0,1-.6,1.22l-2.39,1.59a2.1,2.1,0,0,0-.78,2.6l1.74,4a2.12,2.12,0,0,0,2.34,1.22l2.86-.63a1.34,1.34,0,0,1,1.27.4,17.69,17.69,0,0,0,2.11,1.85,1.33,1.33,0,0,1,.55,1.19l-.22,3A2.11,2.11,0,0,0,27,52.44l4.22,1.08a2.37,2.37,0,0,0,.52.06,2.09,2.09,0,0,0,1.82-1L35,50.48l.1-.16a1.34,1.34,0,0,1,1-.76,15.81,15.81,0,0,0,5.53-1.08l3.5,5.22a4.42,4.42,0,0,0,6.11,1.21l.15-.11a4.41,4.41,0,0,0,1-6.15,3.25,3.25,0,0,0-.23-.29l-4.31-5a17.15,17.15,0,0,0,2-3.67c.06-.14.12-.3.18-.46a4.2,4.2,0,0,1,.39-.92L53,37.89a2.08,2.08,0,0,0,1.75-2.06l0-4.36A2.11,2.11,0,0,0,53.11,29.42ZM50.8,49.83a2.37,2.37,0,0,1,.44,1.79,2.41,2.41,0,0,1-4.38,1l-10-14.87-.73.25a5,5,0,0,1-6.43-6.17L32.3,35a1.25,1.25,0,0,0,1.76.19l2.44-2a1.26,1.26,0,0,0,.18-1.76l-2.57-3.19a5,5,0,0,1,2.58.46A5,5,0,0,1,39,35.34l-.28.59L50.68,49.67ZM43.1,37.88l-2-2.3a7,7,0,0,0-8.59-9,1.36,1.36,0,0,0-.86,1.73,1.5,1.5,0,0,0,.23.41l2.77,3.43-1.27,1-2.75-3.42a1.34,1.34,0,0,0-.91-.51,1.37,1.37,0,0,0-1,.28,1.41,1.41,0,0,0-.35.41,7,7,0,0,0,7.69,10.18l1.56,2.32a9.62,9.62,0,1,1,5.47-4.52Zm9.64-2.06a.1.1,0,0,1-.09.1l-2.55.45c-1.23.22-1.66,1.42-1.94,2.22,0,.13-.09.27-.14.39a14.81,14.81,0,0,1-1.5,2.84l-2.05-2.36a11.59,11.59,0,0,0-5.4-17,11.63,11.63,0,1,0-.29,21.61l1.78,2.66a13.94,13.94,0,0,1-4.49.8,3.36,3.36,0,0,0-2.7,1.8l-1.48,2-.08.13a.11.11,0,0,1-.11,0L27.48,50.5a.09.09,0,0,1-.07-.11l.22-3a3.36,3.36,0,0,0-1.36-3,13.67,13.67,0,0,1-1.85-1.62,3.37,3.37,0,0,0-3.14-1l-2.84.61a.1.1,0,0,1-.11-.05l-1.73-4a.1.1,0,0,1,0-.13l2.41-1.6a3.39,3.39,0,0,0,1.48-3,16,16,0,0,1,0-1.7c0-.27.05-.55.09-.8a3.44,3.44,0,0,0-1.16-3.13l-2.1-1.75a.09.09,0,0,1,0-.12l2.08-3.82a.1.1,0,0,1,.13,0l2.48.83a3.38,3.38,0,0,0,3.26-.67,15.13,15.13,0,0,1,1.35-1,3.36,3.36,0,0,0,1.48-2.93L28,16.07A.1.1,0,0,1,28.1,16l4.22-1.05a.1.1,0,0,1,.12.06l1.12,2.5A2.79,2.79,0,0,0,36,19.14l.6,0a8,8,0,0,1,2.53.65,3.38,3.38,0,0,0,3.27-.63l1.73-1.49a.11.11,0,0,1,.12,0l3.43,2.68a.11.11,0,0,1,0,.14l-1.12,2.11a3.37,3.37,0,0,0,.1,3.3,14.75,14.75,0,0,1,1.26,2.74,3.37,3.37,0,0,0,2.52,2.25l2.26.46a.09.09,0,0,1,.08.09Z"/><path class="cls-1" d="M47.86,51.8a1,1,0,0,0,.8.4,1,1,0,0,0,.6-.19,1,1,0,0,0,.21-1.4l-.57-.77a1,1,0,0,0-1.4-.22,1,1,0,0,0-.21,1.4Z"/></svg>