<svg id="Layer_1" data-name="Layer 1" xmlns="http://www.w3.org/2000/svg" viewBox="0 0 72 72"><defs><style>.cls-1{fill:silver;}</style></defs><title>Gifts_icon</title><path class="cls-1" d="M53.63,27.51h-11c2.76-1.4,4.56-3.4,5.06-5.29a3.83,3.83,0,0,0-1.77-4.45,3.4,3.4,0,0,0-2.79-.37c-2.66.77-5.31,4.5-7,7.32-1.67-2.82-4.32-6.55-7-7.32a3.4,3.4,0,0,0-2.79.37,3.83,3.83,0,0,0-1.78,4.45c.51,1.89,2.3,3.89,5.06,5.29h-11v9.61h1.56v14H51.63v-14h2Zm-2,7.61H38.92V29.51H51.63ZM34,35.12V29.51h3v5.61Zm3,2v12H34v-12Zm6.72-17.79a1.65,1.65,0,0,1,.47-.08,1.27,1.27,0,0,1,.7.21,1.85,1.85,0,0,1,.91,2.24c-.58,2.19-3.81,4.62-8.3,5.38a3.37,3.37,0,0,0-.17-.32C38.84,23.93,41.47,20,43.64,19.33ZM26.51,21.7a1.86,1.86,0,0,1,.91-2.24,1.3,1.3,0,0,1,.7-.21,1.6,1.6,0,0,1,.47.08c2.17.62,4.8,4.6,6.39,7.43a3.37,3.37,0,0,0-.17.32C30.32,26.32,27.1,23.89,26.51,21.7Zm-5.85,7.81H32v5.61H20.66Zm1.56,7.61H32v12H22.22Zm27.41,12H38.92v-12H49.63Z"/></svg>