<svg id="Layer_1" data-name="Layer 1" xmlns="http://www.w3.org/2000/svg" viewBox="0 0 72 72"><defs><style>.cls-1{fill:silver;}</style></defs><title>LearningSuite_icon</title><path class="cls-1" d="M35.69,48.39A19.89,19.89,0,0,1,21,15.13a1,1,0,0,1,1.48,1.34,17.89,17.89,0,1,0,27.42,23,1,1,0,0,1,1.4-.19,1,1,0,0,1,.18,1.41A19.78,19.78,0,0,1,35.69,48.39Z"/><path class="cls-1" d="M34.18,53.92a1,1,0,0,1-1-1V47.48a1,1,0,0,1,2,0v5.44A1,1,0,0,1,34.18,53.92Z"/><path class="cls-1" d="M39.76,58.53H29.4a1.44,1.44,0,0,1-1.28-2.1,7.22,7.22,0,0,1,12.92,0A1.49,1.49,0,0,1,41,57.85,1.45,1.45,0,0,1,39.76,58.53Zm-.51-1.2h0Zm-8.85-.8h8.36a5.21,5.21,0,0,0-8.36,0Z"/><path class="cls-1" d="M25,19.69a1,1,0,0,1-.71-.29L18.91,14a1,1,0,0,1,0-1.41,1,1,0,0,1,1.41,0L25.69,18a1,1,0,0,1-.7,1.71Z"/><path class="cls-1" d="M53.08,43.27a1,1,0,0,1-.71-.29L47,37.6a1,1,0,0,1,0-1.41,1,1,0,0,1,1.42,0l5.37,5.37a1,1,0,0,1-.7,1.71Z"/><path class="cls-1" d="M40.78,23.9H37.84a1,1,0,0,1,0-2h2.94a1,1,0,0,1,0,2Z"/><path class="cls-1" d="M37.46,36.26H34.63a1,1,0,0,1,0-2h2.83a1,1,0,0,1,0,2Z"/><path class="cls-1" d="M34.77,23.9H30.68a1,1,0,0,1,0-2h4.09a1,1,0,0,1,0,2Z"/><path class="cls-1" d="M35.83,29.82a1,1,0,0,1-.84-.45l-3.63-5.61A1,1,0,0,1,33,22.67l3.63,5.61a1,1,0,0,1-.3,1.38A1,1,0,0,1,35.83,29.82Z"/><path class="cls-1" d="M36.09,30.13a1,1,0,0,1-.52-.15,1,1,0,0,1-.33-1.38l3.42-5.53a1,1,0,1,1,1.7,1.05l-3.42,5.53A1,1,0,0,1,36.09,30.13Z"/><path class="cls-1" d="M36.21,36a1,1,0,0,1-1-1l-.12-6.17a1,1,0,0,1,1-1,1,1,0,0,1,1,1L37.21,35a1,1,0,0,1-1,1Z"/><path class="cls-1" d="M36,43.89A15.6,15.6,0,1,1,51.58,28.3,15.61,15.61,0,0,1,36,43.89ZM36,14.7a13.6,13.6,0,1,0,13.6,13.6A13.61,13.61,0,0,0,36,14.7Z"/></svg>