<svg id="Layer_1" data-name="Layer 1" xmlns="http://www.w3.org/2000/svg" viewBox="0 0 72 72"><defs><style>.cls-1{fill:silver;}</style></defs><title>FinancialAid_icon</title><path class="cls-1" d="M50.28,29.85H47.07a1,1,0,0,0-.72,1.69l-1.11-.32a14,14,0,0,0-8.36,1,5.33,5.33,0,0,0-5.18-5V20.5h.74A2.48,2.48,0,0,1,34.91,23a1,1,0,0,0,2,0,4.48,4.48,0,0,0-4.47-4.47H31.7V14a1,1,0,0,0-2,0v4.51a5.32,5.32,0,0,0,0,10.64v4.59h-.21A5.24,5.24,0,0,0,26.07,35V33.09a1,1,0,0,0-2,0V38a1,1,0,0,0,.15.51c0,.05,0,.1,0,.15l-6.52-1.9a9,9,0,0,0-7.81.85,2.27,2.27,0,0,0-1,1.42,2.22,2.22,0,0,0,.29,1.72,2.16,2.16,0,0,0,1,.86l16.2,7.6a7.44,7.44,0,0,0,3.17.71,7.31,7.31,0,0,0,1.91-.25l14.77-4.21a1,1,0,0,0-.09.41,1,1,0,0,0,1,1h3.21a4.59,4.59,0,0,0,4.58-4.58V34.43A4.59,4.59,0,0,0,50.28,29.85Zm-23.78-6a3.33,3.33,0,0,1,3.2-3.32v6.64A3.33,3.33,0,0,1,26.5,23.84Zm5.2,5.35a3.34,3.34,0,0,1,3.21,3.32.93.93,0,0,0,.24.63l-.46.31-.11.07a1.75,1.75,0,0,1-1,.32l-1.83,0ZM45.56,43.51,30.86,47.7a5.38,5.38,0,0,1-3.7-.34L11,39.76a.29.29,0,0,1-.12-.1.3.3,0,0,1,0-.22.26.26,0,0,1,.12-.17,7.09,7.09,0,0,1,3.72-1.06,7.35,7.35,0,0,1,2.43.42L26,41.22a2.32,2.32,0,0,0,.47.13,2.74,2.74,0,0,0,.5,0l10.5-.22a1,1,0,0,0,1-1,1,1,0,0,0-1-1h0l-10.5.22H26.8l-.17-.05a.62.62,0,0,1-.29-.24.7.7,0,0,1-.12-.53,3.32,3.32,0,0,1,3.25-2.81l1,0a.75.75,0,0,0,.26,0,.71.71,0,0,0,.21,0l2.58.06a3.84,3.84,0,0,0,2.24-.68l.12-.08c.22-.17.46-.32.68-.46a12.15,12.15,0,0,1,8.24-1.46l.79.23Zm7.3-1.26a2.59,2.59,0,0,1-2.58,2.58H47.56V31.89l-.15,0h2.87a2.59,2.59,0,0,1,2.58,2.58Z"/></svg>