<svg id="Layer_1" data-name="Layer 1" xmlns="http://www.w3.org/2000/svg" viewBox="0 0 72 72"><defs><style>.cls-1{fill:silver;}</style></defs><title>HandsClapV2_icon</title><path class="cls-1" d="M12.4,35.36,24.18,48.18a18.18,18.18,0,0,0,5,3.87,18.72,18.72,0,0,0,6,1.47,13.34,13.34,0,0,1,2.71.5,27.31,27.31,0,0,1,5.28,3.5,5.42,5.42,0,0,0,4,1.16h0a5.33,5.33,0,0,0,2.58-1l.65.61a3.48,3.48,0,0,0,2.8.93h0a3.49,3.49,0,0,0,2.52-1.53l5.69-8.48A3.92,3.92,0,0,0,61,44.25c-.24-.26-.55-.55-.89-.87-1.66-1.56-3.94-3.7-3.83-7.25.18-5.64-4.19-9.25-6.29-11l-5-3.68a3.75,3.75,0,0,0-.33-.26,2.74,2.74,0,0,0-3.79.77,5.53,5.53,0,0,0-.52,1,2.94,2.94,0,0,0-.8-.33l-7.88-5.91c-1.5-1.24-4.53-2-5.95-.25a2.61,2.61,0,0,0-.5,1c-1.63-1-4.17-1.43-5.43.11a3,3,0,0,0-.62,1.21l0,0a6.17,6.17,0,0,0-2.75-1.23,3.28,3.28,0,0,0-3.25.95A3.29,3.29,0,0,0,13,22.39a2.72,2.72,0,0,0-1.79.94A3.25,3.25,0,0,0,11,27.09a7.19,7.19,0,0,0,1,1.37,2.69,2.69,0,0,0-1.26.82C9.14,31.18,10.42,33.69,12.4,35.36ZM36.93,23.53a2.31,2.31,0,0,0-.24.29,5.12,5.12,0,0,0-.85,2.46l-5.56-4.63a1.32,1.32,0,0,0-.18-.22c-2-1.65-2.84-3.13-2.56-3.46s1.94-.1,2.77.59ZM51.33,56l5-6.66a2.81,2.81,0,0,0-.08-3.46C53.59,42.66,52,39.62,52,37.74a9.55,9.55,0,0,0-3.55-7.42l-6.08-5.6a2.8,2.8,0,0,1,.48-1.48.43.43,0,0,1,.61-.13l.18.15,5,3.68c1.78,1.47,5.57,4.6,5.42,9.12s2.8,7.34,4.55,9c.31.28.58.54.79.77a1.64,1.64,0,0,1,.18,2.07l-5.69,8.48a1.19,1.19,0,0,1-.88.54h0a1.23,1.23,0,0,1-1-.33ZM12.47,30.74c.35-.42,1.86-.11,2.71.54l10.19,8.43,0,0h0A1.14,1.14,0,0,0,26.88,38L16.7,29.56l-.06,0-2.21-1.83A5.46,5.46,0,0,1,13.05,26c-.43-.82-.18-1.12-.07-1.25.36-.44,1.94-.1,2.77.58L28.51,35.92A1.14,1.14,0,1,0,30,34.16l-1.14-.95,0,0L16.4,22.93c-.72-.59-2.08-2.15-1.45-2.9.15-.19.57-.25,1.08-.16a3.91,3.91,0,0,1,1.69.74L30.48,31.16l.05,0,1.84,1.51a1.14,1.14,0,1,0,1.45-1.76L23.05,22a5.71,5.71,0,0,1-1.38-1.65c-.43-.82-.18-1.13-.07-1.25.36-.44,1.94-.11,2.77.58L41.77,34.2a1.14,1.14,0,0,0,.86.25,1,1,0,0,0,.42-.13,1.25,1.25,0,0,0,.5-.33,1.14,1.14,0,0,0-.16-1.61L39,28.74a2.85,2.85,0,0,1-.36-3.65.35.35,0,0,1,.19-.16l1.23.93a1.56,1.56,0,0,0,.39.19l6.51,6a7.25,7.25,0,0,1,2.77,5.72c0,3.32,3,7.4,4.77,9.53a.51.51,0,0,1,0,.64L49,55.25a3.15,3.15,0,0,1-2.1,1.16h0a3.14,3.14,0,0,1-2.32-.68,29.66,29.66,0,0,0-5.81-3.81,13.2,13.2,0,0,0-3.32-.67A16.93,16.93,0,0,1,30.23,50a16.08,16.08,0,0,1-4.36-3.39l-12-13C13.2,33.06,11.84,31.5,12.47,30.74Z"/></svg>