<svg id="Layer_1" data-name="Layer 1" xmlns="http://www.w3.org/2000/svg" viewBox="0 0 72 72"><defs><style>.cls-1{fill:silver;}</style></defs><title>HandsPray_icon</title><path class="cls-1" d="M52.21,38a3.49,3.49,0,0,0-2.51-1H47.77a1.36,1.36,0,0,0-1.35,1.35v1.1a5.6,5.6,0,0,1-4.08-4.28l-2-12.59a4.91,4.91,0,0,0-4.78-3.85,2,2,0,0,0-.87.21,2,2,0,0,0-.88-.21,4.94,4.94,0,0,0-4.79,3.91L27.11,35.14A5.63,5.63,0,0,1,23,39.46l0-1.09A1.36,1.36,0,0,0,21.65,37H19.71a3.52,3.52,0,0,0-3.53,3.54l.19,9.84a3.54,3.54,0,0,0,3.51,3.56h1.93a1.38,1.38,0,0,0,1.37-1.36l0-1.15h4.59a8.13,8.13,0,0,0,7.18-4.35,8,8,0,0,0,6.75,4.35h4.59v1.15A1.36,1.36,0,0,0,47.62,54h1.93a3.53,3.53,0,0,0,3.51-3.53l.19-9.89A3.5,3.5,0,0,0,52.21,38ZM19.9,51.8a1.42,1.42,0,0,1-1.39-1.43l-.19-9.85a1.38,1.38,0,0,1,1.4-1.38h1.16L21,51.8Zm7.85-2.51H23.14l-.09-7.65a7.78,7.78,0,0,0,6.17-6.13l1.93-12.46a2.77,2.77,0,0,1,2.42-2.15V42.25a8.64,8.64,0,0,0,.13,1.51A6,6,0,0,1,27.75,49.29Zm13.93,0c-2.91,0-5.25-2.82-5.83-5.69,0-.1,0-.19,0-.28V20.9A2.77,2.77,0,0,1,38.27,23l1.95,12.57a7.78,7.78,0,0,0,6.16,6.09l-.09,7.65Zm9.24,1.11a1.38,1.38,0,0,1-.4,1,1.4,1.4,0,0,1-1,.42H48.41l.14-12.66h1.17a1.38,1.38,0,0,1,1.39,1.36Z"/></svg>