<svg id="Layer_1" data-name="Layer 1" xmlns="http://www.w3.org/2000/svg" viewBox="0 0 72 72"><defs><style>.cls-1{fill:silver;}</style></defs><title>HandsBoxPackage_icon</title><path class="cls-1" d="M28.86,42.12l-.6-.32-.1,0a.93.93,0,0,1-.41-.4l-1.3-2.48a3.94,3.94,0,0,0-4.75-1.8l-1-4.23a6.5,6.5,0,0,0-3.25-4.62,1.85,1.85,0,0,0-2.52.7,1.76,1.76,0,0,0-.23,1l.83,12.31a5.38,5.38,0,0,0,1.5,3.39L22.38,51l.67.65c1.15,1.11,1.54,1.49,1.53,3l0,2.23a1.42,1.42,0,0,0,.41,1,1.45,1.45,0,0,0,1,.42h7a1.43,1.43,0,0,0,1-.44,1.41,1.41,0,0,0,.41-1l-.15-5.48A12.17,12.17,0,0,0,28.86,42.12ZM16.54,29.91Zm10,26.5,0-1.74c0-2.36-.88-3.22-2.12-4.42-.2-.19-.42-.4-.64-.63l-5.3-5.31a3.54,3.54,0,0,1-1-2.17L16.66,30a4.63,4.63,0,0,1,2.19,3.24l1.4,6.18a1.89,1.89,0,0,0,.1.41,1.37,1.37,0,0,0,.17.37l3.64,6.27,1.67-1-3.65-6.28,0-.09a.19.19,0,0,1,0-.08.22.22,0,0,1,.12-.11,2,2,0,0,1,2.45.89L26,42.25a2.94,2.94,0,0,0,1.36,1.29c.18.08.34.17.49.25a10.34,10.34,0,0,1,4.43,7.64l.13,5Z"/><path class="cls-1" d="M56.9,28.93a1.86,1.86,0,0,0-2.52-.71,6.5,6.5,0,0,0-3.25,4.57l-1,4.29a4,4,0,0,0-4.77,1.83l-1.28,2.45a.93.93,0,0,1-.41.4l-.1,0c-.2.1-.41.21-.63.34a12.12,12.12,0,0,0-5.36,9.23l-.15,5.5a1.36,1.36,0,0,0,.41,1,1.41,1.41,0,0,0,1,.44h7a1.43,1.43,0,0,0,1-.42,1.47,1.47,0,0,0,.42-1l0-2.23c0-1.53.37-1.91,1.53-3l.67-.65,5.32-5.34a5.46,5.46,0,0,0,1.49-3.38L57.13,30A2,2,0,0,0,56.9,28.93ZM54.37,42.14a3.42,3.42,0,0,1-.94,2.16l-5.31,5.32-.64.63c-1.25,1.2-2.14,2.06-2.12,4.42v1.74h-6l.14-5A10.33,10.33,0,0,1,44,43.8l.49-.25.1,0a2.84,2.84,0,0,0,1.29-1.25l1.27-2.42a2,2,0,0,1,2.47-.92.21.21,0,0,1,.13.23v.07L46,45.47l1.67,1,3.64-6.27a2,2,0,0,0,.17-.36,2.73,2.73,0,0,0,.1-.41L53,33.17A4.58,4.58,0,0,1,55.19,30Z"/><path class="cls-1" d="M45,22.76H44.9l.06-.05-9.52-7.07-9.44,7h-.1V33.28l9.36,7,9.69-7Zm-9.51-4.71,6.28,4.66-6.28,4.66-6.29-4.66Zm-7.61,6.08,6.47,4.8v8.26l-6.47-4.88Zm8.4,13.1v-8l6.79-5V32.3Z"/></svg>