<?xml version="1.0" encoding="utf-8"?>
<!-- Generator: Adobe Illustrator 24.0.3, SVG Export Plug-In . SVG Version: 6.00 Build 0)  -->
<svg version="1.1" id="Layer_1" xmlns="http://www.w3.org/2000/svg" xmlns:xlink="http://www.w3.org/1999/xlink" x="0px" y="0px"
	 viewBox="0 0 72 72" style="enable-background:new 0 0 72 72;" xml:space="preserve">
<style type="text/css">
	.st0{fill:#C0C0C0;}
</style>
<title>RenewMembership_v2</title>
<path class="st0" d="M56.7,24.7H35.6c-1.5,0-2.8,1.1-3,2.6c-0.3-0.1-0.6-0.2-0.9-0.3c-1.6-0.3-3.3,0-4.6,0.9l-5.9,3.7
	c-0.1-0.5-0.5-0.8-1-0.8h-2.8c-2.3,0-4.1,1.8-4.1,4.1v6.8c0,2.3,1.8,4.1,4.1,4.1h2.8c0.6,0,1-0.4,1-1c0-0.1,0-0.2-0.1-0.4l0.5,0.2
	h0.1c0.8,0.1,1.5,0.2,2.3,0.2c2.2,0,4.3-0.5,6.2-1.6l0.7-0.5l0.1-0.1c0.2-0.2,0.5-0.3,0.8-0.2l3.5,0.1h0.1c0.9,0,1.7-0.3,2.5-0.8
	h18.7c1.7,0,3-1.3,3.1-3V27.7C59.7,26.1,58.4,24.7,56.7,24.7z M15.4,41.6v-6.8c0-1.2,0.9-2.1,2.1-2.1h2.2v11h-2.2
	C16.3,43.7,15.4,42.7,15.4,41.6z M35.5,40.3L35.5,40.3L32,40.2c-0.7,0-1.4,0.2-2,0.6l-0.1,0.1c-0.2,0.1-0.4,0.3-0.6,0.4
	c-2.1,1.2-4.6,1.7-7.1,1.2l-0.5-0.2v-8.7l6.5-4.1c0.9-0.6,2-0.8,3.1-0.6c0.3,0.1,0.6,0.2,0.9,0.3c0.1,0.1,0.3,0.1,0.4,0.1v6.2
	l-4,0.1c-0.6,0-1,0.4-1,1c0,0.6,0.4,1,1,1l0,0l9.1-0.2c0.1,0,0.3,0,0.4,0.2c0.1,0.1,0.1,0.2,0.1,0.3C37.9,39.2,36.9,40.2,35.5,40.3z
	 M57.7,38.5c0,0.6-0.5,1-1.1,1H39.7c0.2-0.4,0.3-0.9,0.4-1.3c0.1-0.7-0.1-1.4-0.6-1.9c-0.5-0.6-1.2-0.9-1.9-0.8l-3.1,0.1v-7.7
	c0-0.6,0.5-1,1.1-1h21.1c0.6,0,1,0.4,1.1,1V38.5z"/>
<path class="st0" d="M51.2,32.4L50.5,33c-0.1-2.6-2.3-4.7-5-4.6c-2.6,0.1-4.7,2.3-4.6,5C41,36,43.1,38,45.7,38c0.6,0,1-0.4,1-1
	s-0.4-1-1-1c-1.6,0-2.8-1.3-2.8-2.8c0-1.6,1.3-2.8,2.8-2.8c1.5,0,2.8,1.2,2.8,2.8l-0.9-0.8c-0.4-0.4-1.1-0.3-1.4,0.1
	s-0.3,1.1,0.1,1.4l0,0l2.3,1.9c0.2,0.2,0.5,0.3,0.8,0.3c0.3,0,0.6-0.1,0.8-0.3l2.3-1.9c0.4-0.4,0.5-1,0.1-1.4c0,0,0,0,0,0
	C52.3,32.1,51.7,32,51.2,32.4C51.2,32.4,51.2,32.4,51.2,32.4z"/>
</svg>
