<svg id="Layer_1" data-name="Layer 1" xmlns="http://www.w3.org/2000/svg" viewBox="0 0 72 72"><defs><style>.cls-1{fill:silver;}</style></defs><title>People_icon </title><path class="cls-1" d="M35.22,59.85c-.34,0-.69,0-1,0H34a13.53,13.53,0,0,1-10.56-6.55c-.48-.83-4.59-8-5.09-9.47l-2.3-7.11a1.72,1.72,0,0,1-.09-.36,2.13,2.13,0,0,1,1.79-2.44c2.1-.35,3.26,1,4.18,2.35a30.1,30.1,0,0,1,1.9,3.59,23,23,0,0,0,1.24,2.41c.4.49.7.6.78.57s.31-.29.34-.92l-.51-5-2.16-16.6c0-1.17,0-4,2.45-4.49a2.28,2.28,0,0,1,1.75.37c1.18.82,1.48,2.67,1.69,3.89.24,1.44,1.88,14.64,1.95,15.2a.67.67,0,0,0,.44.63h0a.16.16,0,0,0,.17-.16l-.23-18.49A5.31,5.31,0,0,1,33,13.66a2.3,2.3,0,0,1,1.7-.62c2.25.1,3.1,2.86,3.06,4.31l.09,18c0,.15.07.21.2.21a.24.24,0,0,0,.15-.2l1.44-16.28a4.83,4.83,0,0,1,1.5-3.26,2.32,2.32,0,0,1,1.94-.36c1.64.39,2.35,2,2.13,4.69L43.78,35.84A.17.17,0,0,0,44,36h.12a.17.17,0,0,0,.17-.15l1.93-12.18c.08-.69.59-2.76,1.91-3.59A2.09,2.09,0,0,1,50,19.88h0c1.88.65,2.28,3,2,5L48.67,47.51A13.53,13.53,0,0,1,35.22,59.85Zm-16.78-24-.34,0A.15.15,0,0,0,18,36l2.32,7.15c.32,1,3.19,6.09,4.91,9.09a11.54,11.54,0,0,0,9,5.56h.14A11.55,11.55,0,0,0,46.69,47.29L50,24.56c.11-.93,0-2.54-.71-2.79h0a.16.16,0,0,0-.16,0,3.85,3.85,0,0,0-1,2.17L46.23,36.13A2.15,2.15,0,0,1,44.08,38H44a2.18,2.18,0,0,1-2.18-2.17v-.19L43.24,20c.13-1.58-.07-2.45-.6-2.58a.32.32,0,0,0-.3,0,2.9,2.9,0,0,0-.68,1.81L40.21,35.55a2.21,2.21,0,0,1-1.87,2,2.18,2.18,0,0,1-2.45-1.89,1.83,1.83,0,0,1,0-.33l-.09-18c0-.79-.45-2.26-1.15-2.29a.31.31,0,0,0-.25.09,3.51,3.51,0,0,0-.59,2.13L34,35.74a2.16,2.16,0,0,1-2.17,2.15h-.32a2.65,2.65,0,0,1-2.12-2.44c0-.07-1.7-13.65-1.92-15-.14-.79-.39-2.3-.88-2.65a.29.29,0,0,0-.24,0c-.71.13-.81,1.25-.81,2.43l2.15,16.46.52,5.14v.07a2.87,2.87,0,0,1-1.71,2.82c-.48.16-1.72.35-3-1.23a17.52,17.52,0,0,1-1.48-2.78,31.2,31.2,0,0,0-1.74-3.32C19.48,36.14,19,35.81,18.44,35.81Z"/></svg>