<svg id="Layer_1" data-name="Layer 1" xmlns="http://www.w3.org/2000/svg" viewBox="0 0 72 72"><defs><style>.cls-1{fill:silver;}</style></defs><title>Receivables_icon </title><path class="cls-1" d="M56.28,31.48H52.94a1,1,0,0,0-1,1,1,1,0,0,0,.46.82L51,32.9a15.49,15.49,0,0,0-2.62-.25V23.52H16.08V38.64a9.1,9.1,0,0,0-1.84.87A2.38,2.38,0,0,0,13.19,41a2.35,2.35,0,0,0,1.28,2.65l16.87,7.91A7.71,7.71,0,0,0,36.6,52l15.49-4.41a1,1,0,0,0-.15.5,1,1,0,0,0,1,1h3.34A4.74,4.74,0,0,0,61,44.35V36.21A4.72,4.72,0,0,0,56.28,31.48Zm-38.2-6H46.4v7.27a14.92,14.92,0,0,0-5.49,1.87c-.28.17-.57.36-.84.55L40,35.3a1.83,1.83,0,0,1-1.12.34l-2.63-.07a2.55,2.55,0,0,0,.12-.74c0-1.26-1.25-2.56-3.33-2.58h-.85c-.95,0-1.24,0-1.59-.24a.6.6,0,0,1-.18-.21.64.64,0,0,1,0-.47.7.7,0,0,1,.35-.37,1.28,1.28,0,0,1,.79-.14h.95a2.44,2.44,0,0,1,1.74.62A1,1,0,0,0,35.5,30a4.48,4.48,0,0,0-2.31-1.08v-.46a1,1,0,0,0-2,0v.4a3.36,3.36,0,0,0-1.42.37,2.61,2.61,0,0,0-.42,4.43,4.12,4.12,0,0,0,2.83.64H33c.93,0,1.31.46,1.34.58,0,.73-1.13.81-1.61.81H31.42a2.24,2.24,0,0,1-1.69-.6,1,1,0,1,0-1.36,1.47,4.32,4.32,0,0,0,2,1,5.51,5.51,0,0,0-1.18,2.62,3.55,3.55,0,0,0,0,.46l-6.84-2a9.38,9.38,0,0,0-4.25-.47ZM51.4,45.69,36.07,50.06a5.71,5.71,0,0,1-3.88-.35L15.32,41.8a.34.34,0,0,1-.18-.38.32.32,0,0,1,.15-.2,7.32,7.32,0,0,1,3.89-1.12,7.8,7.8,0,0,1,2.54.44l9.55,2.79a.76.76,0,0,0,.21,0,2.24,2.24,0,0,0,.51,0l10.94-.23a1,1,0,0,0,0-2h0L32,41.4h-.15a.78.78,0,0,1-.63-.9,3.49,3.49,0,0,1,3.43-3l4.18.1a4,4,0,0,0,2.31-.71l.12-.08c.24-.17.49-.33.72-.47a12.52,12.52,0,0,1,8.61-1.53l.85.24ZM59,44.35a2.74,2.74,0,0,1-2.72,2.73H53.4V33.6L53,33.48h3.27A2.72,2.72,0,0,1,59,36.21Z"/></svg>