<svg id="Layer_1" data-name="Layer 1" xmlns="http://www.w3.org/2000/svg" viewBox="0 0 72 72"><defs><style>.cls-1{fill:silver;}</style></defs><title>Payments_icon </title><path class="cls-1" d="M47.71,34.32H46.5A2.11,2.11,0,0,1,45,33.78a1,1,0,0,0-1.36,1.47,4,4,0,0,0,2.61,1.07v.26a1,1,0,0,0,2,0v-.29c1.79-.17,2.93-1.17,2.93-2.66,0-1.2-1.19-2.45-3.17-2.47h-.8c-.87,0-1.14,0-1.45-.22a.44.44,0,0,1-.15-.18.53.53,0,0,1,.27-.69,1.23,1.23,0,0,1,.7-.12l.08,0h.82a2.21,2.21,0,0,1,1.59.55,1,1,0,0,0,1.41-.08A1,1,0,0,0,50.36,29a4.25,4.25,0,0,0-2.14-1v-.38a1,1,0,0,0-2,0V28a3,3,0,0,0-1.28.35,2.5,2.5,0,0,0-1.16,3.33,2.63,2.63,0,0,0,.75.92,3.93,3.93,0,0,0,2.69.61H48a1.36,1.36,0,0,1,1.19.47C49.15,34.25,48.14,34.32,47.71,34.32Z"/><path class="cls-1" d="M62.43,22.75H32.11v3a7.47,7.47,0,0,0-1.1-.37,6.69,6.69,0,0,0-5.07.94l-6.79,4.27a0,0,0,0,0,0,0,1,1,0,0,0-1-1H15A4.47,4.47,0,0,0,10.56,34v7.61A4.47,4.47,0,0,0,15,46.09h3.12a1,1,0,0,0,1-1,1,1,0,0,0-.23-.62l.91.27.1,0a13.55,13.55,0,0,0,2.53.24,13.81,13.81,0,0,0,7-1.88c.27-.17.54-.34.79-.53l.12-.08a1.57,1.57,0,0,1,1-.3l3.93.09a5.15,5.15,0,0,0,2.83-.88H62.43ZM15,44.09a2.48,2.48,0,0,1-2.48-2.48V34a2.49,2.49,0,0,1,.72-1.75A2.47,2.47,0,0,1,15,31.52h2.62V44.09ZM35.28,40.3l-3.9-.09a3.76,3.76,0,0,0-2.2.67l-.11.08-.67.44a11.78,11.78,0,0,1-8,1.4l-.69-.2v-10L27,28a4.72,4.72,0,0,1,3.54-.67,5.07,5.07,0,0,1,1,.35,1,1,0,0,0,.56.06v7.23L27.5,35a1,1,0,0,0,0,2h0l10.25-.22h.12a.6.6,0,0,1,.51.69A3.24,3.24,0,0,1,35.28,40.3Zm25.15-.88H39.88a5,5,0,0,0,.53-1.63,2.61,2.61,0,0,0-2.19-2.95,3,3,0,0,0-.5,0l-3.61.08V24.75H60.43Z"/></svg>