<svg id="Layer_1" data-name="Layer 1" xmlns="http://www.w3.org/2000/svg" viewBox="0 0 72 72"><defs><style>.cls-1{fill:silver;}</style></defs><title>Leadership_icon</title><path class="cls-1" d="M61.81,30.52,56.13,23.2a4.06,4.06,0,0,0-5.72-.47L48.6,24.28a1.34,1.34,0,0,0-.32,1.63,10.68,10.68,0,0,1-5.69-.17,11.36,11.36,0,0,0-10,1.69l-.09.07a.24.24,0,0,0-.09,0,10.33,10.33,0,0,0-1.76-.07,9.32,9.32,0,0,1-5.51-1.46h0a1.24,1.24,0,0,0,.22-.77,1.35,1.35,0,0,0-.46-.93l-1.7-1.5a3.86,3.86,0,0,0-2.83-1,3.91,3.91,0,0,0-2.71,1.34l-6.65,8a3.91,3.91,0,0,0,.35,5.52l1.7,1.5a1.34,1.34,0,0,0,.89.34H14a1.56,1.56,0,0,0,.52-.15l5.47,6a.53.53,0,0,0,.15.11,3.67,3.67,0,0,0-.1,3,2.64,2.64,0,0,0,2.6,1.27h0A3.28,3.28,0,0,0,24,51.31a3.23,3.23,0,0,0,3,.36,2.41,2.41,0,0,0,.73,1.17,4,4,0,0,0,3.35.68A3.1,3.1,0,0,0,33.85,56H34a4.26,4.26,0,0,0,3.09-1.49,9.09,9.09,0,0,0,1.88.76,3.94,3.94,0,0,0,1,.14,4.07,4.07,0,0,0,2.58-.92,3.05,3.05,0,0,0,1.18-2.54,4.2,4.2,0,0,0,2.92-.85,2.85,2.85,0,0,0,1-2.74h0a3.27,3.27,0,0,0,3.15-1.85,2.92,2.92,0,0,0,.19-1.53,2.89,2.89,0,0,0,3.27-1.21,3.24,3.24,0,0,0-.09-3l3.46-3a1.36,1.36,0,0,0,.76.34h.11a1.33,1.33,0,0,0,.88-.33l1.82-1.54A4.05,4.05,0,0,0,61.81,30.52ZM12.67,35.09A1.89,1.89,0,0,1,12,33.78a1.93,1.93,0,0,1,.49-1.41l6.65-8a1.92,1.92,0,0,1,1.44-.65,1.89,1.89,0,0,1,1.26.48l1.22,1.08L14,36a.39.39,0,0,0-.11.06l0,.06Zm9.17,11.36c-.3-.57.67-2.59,1.59-3.62h0c.76-.86,1.62-1.07,1.94-.89s.34.63.09,1.5a4.48,4.48,0,0,1-.49.94,6.3,6.3,0,0,0-.34.58l-.06.15-1,1.52-.17,0h-.17C22.26,46.73,21.9,46.56,21.84,46.45Zm3.3,3.25a1.37,1.37,0,0,1-.43-1.19l1.07-1.62h0l.49-.8a3.45,3.45,0,0,1,.46-.62l.16-.16h0l.07-.07a1.92,1.92,0,0,1,1.88-.62c.36.17.4.67.38,1a8.8,8.8,0,0,1-.72,1.79l-.6.9h0l-.7,1C26.32,49.87,25.55,50,25.14,49.7Zm6.74.55a7.26,7.26,0,0,0-.55.93,2.72,2.72,0,0,0-.12.25A2.76,2.76,0,0,1,29,51.35a1,1,0,0,1-.1-.87l1.52-2.25h0l.95-1c.39-.38.76-.48,1.11-.29a.86.86,0,0,1,.5.78A13,13,0,0,1,31.88,50.25ZM34,54c-.67,0-1-.68-1.1-1.34l.06-.12c.13-.21.39-.65.68-1.2a8.36,8.36,0,0,1,1.76-1.86.82.82,0,0,1,.88.13.93.93,0,0,1,.45.92,6.85,6.85,0,0,1-.34.94A6,6,0,0,0,36,52.48,2.19,2.19,0,0,1,34,54ZM52.64,42.73c-.19.32-.85.36-1.7.11A16.53,16.53,0,0,1,49.15,42a3.94,3.94,0,0,0-1-.54l-1.55-1a1,1,0,0,0-1.09,1.68l2.83,1.83,0,0c.66.58.94,1.23.74,1.71a1.44,1.44,0,0,1-1.51.63A10.11,10.11,0,0,1,46,45.5a1,1,0,0,0-.22-.12l-1.14-.69a1,1,0,0,0-1.37.34,1,1,0,0,0,.34,1.37l1.37.83.2.16a3.12,3.12,0,0,1,.48.77c.35.76.08,1.12-.18,1.33a2,2,0,0,1-2.08.24l-.63-.45a2.2,2.2,0,0,0-.76-.5l-.17-.1-.22,0a1,1,0,0,0-1.23.88,1,1,0,0,0,.82,1.09l.25.17A2.31,2.31,0,0,1,41.78,52a1.08,1.08,0,0,1-.45.92,2.08,2.08,0,0,1-1.78.4A6.69,6.69,0,0,1,38,52.67c0-.14.11-.3.18-.47A9.13,9.13,0,0,0,38.61,51a2.89,2.89,0,0,0-1.22-3.09,2.93,2.93,0,0,0-2.41-.5,2.9,2.9,0,0,0-1.57-2.24A2.7,2.7,0,0,0,31.24,45a2.69,2.69,0,0,0-1.52-2.23,3.19,3.19,0,0,0-2.12-.13,2.59,2.59,0,0,0-1.26-2.49c-1.29-.71-3.1-.16-4.41,1.32a10,10,0,0,0-.78,1.07l-5.22-5.74,8-9.37a1.37,1.37,0,0,0,.17.17A11.35,11.35,0,0,0,30,29.41L24.4,33.56a2.57,2.57,0,0,0-.3,3.93,5.07,5.07,0,0,0,3.53,1.43,4.74,4.74,0,0,0,2.92-1l2.91-2.26a1.54,1.54,0,0,1,.9-.32h.12l.91,0a16.68,16.68,0,0,1,1.67-.07,6.9,6.9,0,0,0,4.43-1.18c3.83,2.29,9.31,5.66,10.21,6.48S52.84,42.38,52.64,42.73Zm.4-3.67C51.64,37.78,42.9,32.58,41.91,32a1,1,0,0,0-1.19.15l-.07,0c-1.13,1-2.07,1-3.62,1.06a17.19,17.19,0,0,0-1.82.08l-.77,0h-.13a3.58,3.58,0,0,0-2.08.74l-2.9,2.26a3,3,0,0,1-3.84-.31.59.59,0,0,1-.17-.44.57.57,0,0,1,.26-.43L33.78,29A9.38,9.38,0,0,1,42,27.65a12.57,12.57,0,0,0,7.58,0l6.88,8.58L53.08,39.1A.08.08,0,0,0,53,39.06Zm7-4.38-1.31,1.11L50.37,25.4l1.34-1.14a2,2,0,0,1,1.5-.49,2,2,0,0,1,1.37.69l5.68,7.32a2.09,2.09,0,0,1,.48,1.5A2,2,0,0,1,60,34.68Z"/></svg>