<svg id="Layer_1" data-name="Layer 1" xmlns="http://www.w3.org/2000/svg" viewBox="0 0 72 72"><defs><style>.cls-1{fill:silver;}</style></defs><title>ITsupport_icon</title><path class="cls-1" d="M46.83,44.44l-.06-14.93a13.49,13.49,0,1,0-27,0l.05,15a1.71,1.71,0,0,0,1.78,1.72h0l1.59-.06a4.4,4.4,0,0,0,4.39-4.39V35.4A4.4,4.4,0,0,0,23.23,31H21.81V29.5a11.49,11.49,0,1,1,23,0V31H43.16a4.4,4.4,0,0,0-4.4,4.4v6.38a4.39,4.39,0,0,0,4.39,4.39h1a9.62,9.62,0,0,1-5.39,5.18,2.68,2.68,0,0,0-2.55-1.87H31.65a2.7,2.7,0,0,0-2.7,2.7v.3a2.7,2.7,0,0,0,2.7,2.69H36.2a2.71,2.71,0,0,0,2.5-1.68,11.67,11.67,0,0,0,7.79-8h0A1.75,1.75,0,0,0,46.83,44.44ZM23.23,33a2.39,2.39,0,0,1,2.39,2.39v6.38a2.4,2.4,0,0,1-2.43,2.39l-1.34,0,0-11.21ZM36.9,52.48a.69.69,0,0,1-.7.69H31.65a.69.69,0,0,1-.7-.69v-.3a.7.7,0,0,1,.7-.7H36.2a.7.7,0,0,1,.7.7Zm6.25-8.31h0a2.39,2.39,0,0,1-2.39-2.39V35.4a2.4,2.4,0,0,1,2.4-2.4h1.63l0,11.17Z"/></svg>