<svg id="Layer_1" data-name="Layer 1" xmlns="http://www.w3.org/2000/svg" viewBox="0 0 72 72"><defs><style>.cls-1{fill:silver;}</style></defs><title>headphones_icon</title><path class="cls-1" d="M48,32.38a12,12,0,1,0-23.94,0l0,13.18a1.66,1.66,0,0,0,1.64,1.64h.06l1.39,0a4,4,0,0,0,4-4v-5.6a4,4,0,0,0-4-4H26.1V32.38a10,10,0,1,1,19.94,0v1.19h-1.3a4,4,0,0,0-4,4v5.6a4,4,0,0,0,4,4h1.71a1.64,1.64,0,0,0,1.64-1.64ZM27.22,35.57a2,2,0,0,1,2,2v5.6a2,2,0,0,1-2,2l-1.05,0,0-9.61Zm17.51,9.57h0a2,2,0,0,1-1.4-.58,1.93,1.93,0,0,1-.58-1.4v-5.6a2,2,0,0,1,2-2H46l0,9.57Z"/></svg>