<svg id="Layer_1" data-name="Layer 1" xmlns="http://www.w3.org/2000/svg" viewBox="0 0 72 72"><defs><style>.cls-1{fill:silver;}</style></defs><title>Giving_icon</title><path class="cls-1" d="M35.86,47.24a2,2,0,0,1-1.38-.55L24.21,37A7.3,7.3,0,1,1,34.3,26.44l1.18,1.11,1.19-1.11A7.3,7.3,0,0,1,47,26.67h0A7.31,7.31,0,0,1,46.76,37L37.3,46.64A2,2,0,0,1,35.86,47.24ZM29.25,26.42a5.3,5.3,0,0,0-3.67,9.12l10.27,9.7,9.5-9.67a5.31,5.31,0,0,0,.19-7.52l.72-.69-.72.69a5.31,5.31,0,0,0-7.49-.17L35.48,30.3l-2.56-2.41A5.31,5.31,0,0,0,29.25,26.42Z"/></svg>