<svg id="Layer_1" data-name="Layer 1" xmlns="http://www.w3.org/2000/svg" viewBox="0 0 72 72"><defs><style>.cls-1{fill:silver;}</style></defs><title>Info_icon</title><path class="cls-1" d="M35.74,28.37a1.81,1.81,0,1,0-1.8-1.8A1.8,1.8,0,0,0,35.74,28.37Z"/><path class="cls-1" d="M33.65,18.68a15.51,15.51,0,1,0,15.5,15.51A15.52,15.52,0,0,0,33.65,18.68Zm0,29a13.51,13.51,0,1,1,13.5-13.51A13.52,13.52,0,0,1,33.65,47.7Z"/><path class="cls-1" d="M34.13,41.49a.62.62,0,0,1-.81-.06.65.65,0,0,1-.18-.5l2.54-10.56L34,29.52l-3.68,1.55.78,1.84L33.23,32l-2,8.53A2.62,2.62,0,0,0,35.45,43l2.21-2.28-1.44-1.39Z"/></svg>