<svg id="Layer_1" data-name="Layer 1" xmlns="http://www.w3.org/2000/svg" viewBox="0 0 72 72"><defs><style>.cls-1{fill:silver;}</style></defs><title>key_icon</title><path class="cls-1" d="M53.82,23.78a11,11,0,0,0-20.27.44,11,11,0,0,0-.74,4.57l-1.05.88a3.53,3.53,0,0,0-.84,1l-1.1,4.43-4.74.46a1.69,1.69,0,0,0-1.45,1.16l-1.41,4.47-4-.2-2.88,2.42-.44,3.9a3.62,3.62,0,0,0,2.28,3.79l3.66,1.43a3.74,3.74,0,0,0,1.31.24A3.62,3.62,0,0,0,24.47,52l15.9-13.34A11,11,0,0,0,53.82,23.78Zm-1.69,7.66a9,9,0,0,1-11.6,5.11L40,36.33,23.18,50.42a1.58,1.58,0,0,1-1.6.27l-.85-.33,18-15.08-1.29-1.55L18.59,49.52l-.68-.26a1.61,1.61,0,0,1-1-1.68l.36-3.11,1.65-1.39,3.46.17a1.67,1.67,0,0,0,1.69-1.17l1.43-4.5,4.76-.46a1.68,1.68,0,0,0,1.48-1.28l1-4.27a1.74,1.74,0,0,1,.31-.36l1.86-1.56-.06-.53A9.12,9.12,0,0,1,35.42,25a9,9,0,0,1,16.71,6.49Z"/><path class="cls-1" d="M44.12,23.86a3.3,3.3,0,1,0,4.64.41A3.3,3.3,0,0,0,44.12,23.86Zm2.94,3.5h0a1.28,1.28,0,0,1-1.64-2,1.24,1.24,0,0,1,.82-.3h.11a1.28,1.28,0,0,1,.87.45,1.35,1.35,0,0,1,.3.94A1.21,1.21,0,0,1,47.06,27.36Z"/></svg>