<svg id="Layer_1" data-name="Layer 1" xmlns="http://www.w3.org/2000/svg" viewBox="0 0 72 72"><defs><style>.cls-1{fill:silver;}</style></defs><title>Housing_icon</title><path class="cls-1" d="M52,59.35h-.52l-3-5.69.74-3.59h.43a1,1,0,0,0,0-2H46.91a1,1,0,0,0,0,2h.18l-.46,2.19-2.89-2.19h0a1,1,0,0,0,0-2H39.66a1,1,0,0,0,0,2h.82s.06.09.11.12l5.91,4.48a1.19,1.19,0,0,0,.22.12l2.44,4.56H49.1a1,1,0,0,0,0,2H52a1,1,0,0,0,0-2Z"/><path class="cls-1" d="M61.78,33.34l-2.17-4A4,4,0,0,0,56.1,27.3H32.18a12.46,12.46,0,1,0-.62,13.93h1.66A4,4,0,0,0,34.67,41L39,37.81,43.57,41a1.77,1.77,0,0,0,2,0l4.65-2.95,3.41,3.17h4.2L61,38.16A4,4,0,0,0,61.78,33.34Zm-2.13,3.37L57,39.23H54.38l-3-2.75a1.78,1.78,0,0,0-2.16-.2l-4.68,3L40,36.07a1.79,1.79,0,0,0-2.06,0l-4.07,3a2.11,2.11,0,0,1-.61.1h-2.7l-.3.44A10.6,10.6,0,0,1,26.58,43a10.46,10.46,0,1,1-5-19.63,10.6,10.6,0,0,1,2.94.42,10.37,10.37,0,0,1,6.24,5l.29.52H56.1a2,2,0,0,1,1.75,1l.63,1.15H31.25v2H59.58l.45.81A2,2,0,0,1,59.65,36.71Z"/><path class="cls-1" d="M18.05,30a3.63,3.63,0,1,0,3.62,3.63A3.64,3.64,0,0,0,18.05,30Zm0,5.25a1.63,1.63,0,1,1,1.62-1.62A1.63,1.63,0,0,1,18.05,35.21Z"/></svg>