<svg id="Layer_1" data-name="Layer 1" xmlns="http://www.w3.org/2000/svg" viewBox="0 0 72 72"><defs><style>.cls-1{fill:silver;}</style></defs><title>EmergencyWorkKit_icon</title><path class="cls-1" d="M35.8,27.86v-3.3H29.57v3.3H26.28v6.23h3.29v3.29h6.24V34.09H39.1V27.86Zm-2,4.23v3.29H31.57V32.09H28.28V29.86h3.29v-3.3H33.8v3.3h3.29v2.23Z"/><path class="cls-1" d="M57.91,47.46l-8-7.36V21.41a1.4,1.4,0,0,0-1.4-1.4H17a1.57,1.57,0,0,0-1.12.46,1.61,1.61,0,0,0-.46,1.11V41.46h.07l0,0,9.31,8.12a1.41,1.41,0,0,0,.92.35H57a1.45,1.45,0,0,0,1-2.52ZM17.43,22H47.86V39.46H17.43Zm8.49,26-7.47-6.52H48.39L55.52,48Z"/></svg>