<svg id="Layer_1" data-name="Layer 1" xmlns="http://www.w3.org/2000/svg" viewBox="0 0 72 72"><defs><style>.cls-1{fill:silver;}</style></defs><title>Registration_icon</title><path class="cls-1" d="M30.35,38.82h-.48l-2.93-5.48.71-3.42H28a1,1,0,0,0,0-2H25.48a1,1,0,0,0,0,2h.13l-.42,2-2.69-2a1,1,0,0,0-.05-2h-4a1,1,0,0,0,0,2h.79a.81.81,0,0,0,.09.1l5.72,4.33a.78.78,0,0,0,.2.11l2.33,4.36h0a1,1,0,0,0,0,2h2.75a1,1,0,0,0,0-2Z"/><polygon class="cls-1" points="43.13 34.08 45.13 34.08 45.13 31.18 48.03 31.18 48.03 29.18 45.13 29.18 45.13 26.29 43.13 26.29 43.13 29.18 40.24 29.18 40.24 31.18 43.13 31.18 43.13 34.08"/><path class="cls-1" d="M67.93,51a2.35,2.35,0,0,0-.88-1.59l-4.49-3.59V16A1.55,1.55,0,0,0,61,14.41H12.11a1.8,1.8,0,0,0-1.8,1.8V45L5.5,49.51a2.41,2.41,0,0,0-.74,1.73,2.38,2.38,0,0,0,2.37,2.37H65.57A2.38,2.38,0,0,0,67.93,51ZM60.56,16.41V44.56H54.24a2.15,2.15,0,0,0-.68-1.86l-5.67-4.88A8.44,8.44,0,1,0,36,27.6l-6.31-5.44c-3.31-2.56-6.77-3.62-10-3.07a10.73,10.73,0,0,0-7.2,5l-.2.32v-8ZM12.31,44.56V28.2c.72-1.17,1.37-2.19,1.88-3A8.76,8.76,0,0,1,20,21.07c2.69-.46,5.61.46,8.42,2.64l7.15,6.16c0,.14,0,.29,0,.44A8.47,8.47,0,0,0,44,38.76a8.16,8.16,0,0,0,1.86-.22l-.1.12,6.44,5.55a.29.29,0,0,1,0,.24.27.27,0,0,1,.21-.09v.2ZM37.58,30.31A6.46,6.46,0,1,1,44,36.76,6.46,6.46,0,0,1,37.58,30.31ZM65.86,51.47a.37.37,0,0,1-.29.14H7.13A.38.38,0,0,1,6.88,51l4.66-4.4H60.31l5.49,4.38a.4.4,0,0,1,.14.25A.45.45,0,0,1,65.86,51.47Z"/></svg>