<svg id="Layer_1" data-name="Layer 1" xmlns="http://www.w3.org/2000/svg" viewBox="0 0 72 72"><defs><style>.cls-1{fill:silver;}</style></defs><title>laptop_icon</title><path class="cls-1" d="M59.79,53.36A2.24,2.24,0,0,0,59,51.87l-3.43-2.74V26.3a2.19,2.19,0,0,0-2.19-2.18H16.15a2.67,2.67,0,0,0-2.66,2.66V48.51L9.8,52a2.25,2.25,0,0,0-.69,1.62,2.22,2.22,0,0,0,2.22,2.23H57.58A2.23,2.23,0,0,0,59.32,55,2.2,2.2,0,0,0,59.79,53.36Zm-44-26.58a.39.39,0,0,1,.38-.39H53.26V48H15.77Zm-4.4,26.87,3.6-3.4H53.31l4.27,3.31Z"/></svg>