<svg id="Layer_1" data-name="Layer 1" xmlns="http://www.w3.org/2000/svg" viewBox="0 0 72 72"><defs><style>.cls-1{fill:silver;}</style></defs><title>MCAT_icon</title><path class="cls-1" d="M65.63,54.17a2.38,2.38,0,0,0-.87-1.59L60.27,49V19.16a1.55,1.55,0,0,0-1.56-1.55H13.81a1.8,1.8,0,0,0-1.8,1.8V48.17l-4.8,4.54a2.37,2.37,0,0,0-.74,1.73,2.32,2.32,0,0,0,.69,1.67,2.37,2.37,0,0,0,1.68.7H63.27a2.36,2.36,0,0,0,2.36-2.64ZM38.75,48.79c0,.68-.57,1.16-1.59,1.86l-.11.08V47.46C38,47.79,38.71,48.2,38.75,48.79Zm-1.7-7.22c1.71.39,3.26.92,3.26,1.7S38.59,44.58,37.05,45Zm-2,.09v3.15c-1.37-.37-2.7-.82-2.71-1.54S33.59,42.05,35.05,41.66Zm0,6.06v3.09l-.14-.08c-1-.6-1.68-1-1.63-1.64S34.07,48.08,35.05,47.72Zm28.52,7a.39.39,0,0,1-.3.14H37.05V53.69a1,1,0,0,0,.13-.45c0-.21.74-.69,1.11-.94,1.09-.75,2.59-1.77,2.46-3.65a2.93,2.93,0,0,0-1.37-2.27c1.6-.6,2.91-1.47,2.93-3.1a3,3,0,0,0-2.1-2.79c1.8-.53,3.16-1.28,3.3-2.77.23-2.57-2.49-3.67-4-3.88a1,1,0,1,0-.29,2s2.37.41,2.25,1.72c-.06.73-2.79,1.29-4.46,1.64V30.63l4.67,2.29a1,1,0,0,0,.44.1,1,1,0,0,0,.44-1.9L39,29.38a6.11,6.11,0,0,0,.75-.5l.37-.29,6.79,2.81a1.09,1.09,0,0,0,.39.08,1,1,0,0,0,.38-1.93L42,27.19l.68-.52a.3.3,0,0,1,.3-.05l8.65,3.24a1,1,0,0,0,.7-1.87l-8.65-3.24a2.29,2.29,0,0,0-2.23.34L38.54,27.3a4.06,4.06,0,0,1-1.49.76V26.62a.8.8,0,0,0,0-.15,2.11,2.11,0,0,0,1.11-1.86,2.14,2.14,0,1,0-3.06,1.92.24.24,0,0,0,0,.09V28.1a4.28,4.28,0,0,1-1.63-.77L30.23,25A2.31,2.31,0,0,0,28,24.63l-8.21,3.24a1,1,0,1,0,.73,1.86l8.21-3.24a.33.33,0,0,1,.31.06l.92.68-5.61,2.32a1,1,0,1,0,.76,1.85l6.71-2.78.41.31c.19.14.4.26.6.39L29.43,31a1,1,0,0,0,.44,1.89,1,1,0,0,0,.44-.1l4.74-2.31v8.66c-1.68-.34-4.32-.9-4.38-1.58-.12-1.31,2.22-1.71,2.26-1.72a1,1,0,1,0-.3-2c-1.47.21-4.19,1.31-4,3.88.14,1.55,1.64,2.3,3.61,2.82a3,3,0,0,0-1.95,2.74c0,1.69,1.32,2.51,2.89,3.06A3.21,3.21,0,0,0,31.28,49c-.14,1.93,1.53,2.88,2.63,3.51a5,5,0,0,1,1.13.77s0,0,0,0v1.54H8.84a.35.35,0,0,1-.26-.11.37.37,0,0,1-.11-.26.39.39,0,0,1,.11-.28l4.67-4.4H29v-2H14V19.61H58.27V47.76h-15v2H58l5.49,4.38a.46.46,0,0,1,.14.25A.45.45,0,0,1,63.57,54.67Z"/></svg>