<?xml version="1.0" encoding="utf-8"?>
<!-- Generator: Adobe Illustrator 24.0.3, SVG Export Plug-In . SVG Version: 6.00 Build 0)  -->
<svg version="1.1" id="Layer_1" xmlns="http://www.w3.org/2000/svg" xmlns:xlink="http://www.w3.org/1999/xlink" x="0px" y="0px"
	 viewBox="0 0 72 72" style="enable-background:new 0 0 72 72;" xml:space="preserve">
<style type="text/css">
	.st0{fill:#C0C0C0;}
</style>
<title>MembershipLevel_v2</title>
<path class="st0" d="M36.8,32.1v-0.2c1.6-0.2,2.6-1.1,2.6-2.5c0-1.1-1.1-2.3-2.9-2.3h-0.7c-0.8,0-1,0-1.2-0.2
	c-0.1,0-0.1-0.1-0.1-0.2c0-0.2,0.1-0.3,0.3-0.4c0.1-0.1,0.2-0.1,0.4-0.1H36c0.5,0,1,0.1,1.4,0.5c0.4,0.4,1,0.4,1.4,0
	c0.4-0.4,0.4-1,0-1.4c0,0-0.1-0.1-0.1-0.1c-0.5-0.5-1.2-0.8-1.9-0.9v-0.3c0-0.6-0.4-1-1-1s-1,0.4-1,1v0.2c-0.4,0-0.8,0.1-1.2,0.4
	c-0.7,0.4-1.2,1.2-1.2,2c0,0.8,0.3,1.5,0.9,1.9c0.7,0.5,1.6,0.7,2.5,0.6h0.7c0.3,0,0.7,0.1,1,0.3c0,0.5-0.9,0.5-1.2,0.5h-1
	c-0.5,0-0.9-0.1-1.3-0.3c-0.3-0.4-1-0.5-1.4-0.2c-0.2,0.2-0.4,0.5-0.4,0.8c0,1,1.4,1.6,2.6,1.7v0.1c0,0.6,0.4,1,1,1
	S36.8,32.6,36.8,32.1L36.8,32.1z"/>
<path class="st0" d="M56.8,34.7c0-0.5-0.3-0.9-0.7-1.1l-3.5-1.8l3.5-1.8c0.4-0.2,0.7-0.6,0.7-1.1c0-0.5-0.3-0.9-0.7-1.1L36.2,17.7
	c-0.4-0.2-0.8-0.2-1.1,0L15.2,27.8c-0.6,0.3-0.9,1-0.5,1.7c0.1,0.2,0.3,0.4,0.5,0.5l3.5,1.8l-3.6,1.8c-0.6,0.3-0.9,1.1-0.5,1.7
	c0.1,0.2,0.3,0.4,0.5,0.5l3.3,1.7l-3.3,1.7c-0.4,0.2-0.7,0.6-0.7,1.1c0,0.5,0.3,0.9,0.7,1.1l19.9,10.1c0.2,0.1,0.4,0.1,0.6,0.1
	c0.2,0,0.4-0.1,0.6-0.1l19.9-10.1c0.4-0.2,0.7-0.6,0.7-1.1c0-0.5-0.3-0.9-0.7-1.1l-3.3-1.7l3.3-1.7C56.5,35.6,56.8,35.2,56.8,34.7z
	 M35.7,19.6l18.2,9.3l-18.2,9.3l-18.2-9.3L35.7,19.6z M53.9,40.3l-18.2,9.3l-18.2-9.3l3.2-1.7L35.1,46c0.2,0.1,0.4,0.1,0.6,0.1
	c0.2,0,0.4-0.1,0.6-0.1l14.4-7.3l0,0L53.9,40.3z M35.7,44l-18.2-9.3l3.5-1.8l14.1,7.2l0,0c0.2,0.1,0.4,0.1,0.6,0.1
	c0.2,0,0.4,0,0.6-0.1l14.1-7.2l3.5,1.8L35.7,44z"/>
</svg>
