<svg id="Layer_1" data-name="Layer 1" xmlns="http://www.w3.org/2000/svg" viewBox="0 0 72 72"><defs><style>.cls-1{fill:silver;}</style></defs><title>Advisement_icon</title><path class="cls-1" d="M42,23.78l.87-1.09.12-3.55H38.57V15.75h1.88v-2H38.57a4.9,4.9,0,0,0-4.47-5,4.92,4.92,0,0,0-5.34,4.47,4.35,4.35,0,0,0,0,.5h-1.6v2h1.61v3.39h-4.1v3.61l1.43,1.35v3.47h1.14L25.44,58.45H42.68L40.56,27.57H42Zm-1.08-2.64,0,.82-.35.42H38.58V21.14Zm-1.4,19.8L27.85,51.39,28,49.32,39.35,39.16Zm-11.06.82,10.5-9,.27,3.87-11,9.85ZM38.74,30.28,28.57,39l.12-2.1.07.08,9.86-8.44ZM40,25.57H28.08V24.38H40Zm-5.29-3.19V21.14h1.92v1.24Zm-2,0H30.75V21.14h1.91Zm3.92-3.24H34.66V15.75h1.92Zm0-5.39H34.66V11A3,3,0,0,1,36.57,13.75Zm-5.82-.32A2.92,2.92,0,0,1,32.66,11v2.8H30.75C30.75,13.64,30.74,13.54,30.75,13.43Zm0,2.32h1.91v3.39H30.75Zm-4.1,5.39h2.1v1.24H27.17l-.52-.49Zm10,6.43-7.82,6.7.38-6.7ZM35,56.45h-1.5V54.21a.75.75,0,0,1,1.5,0Zm2,0V54.21a2.75,2.75,0,0,0-5.5,0v2.24H27.56l.13-2.22,12-10.75.89,13Z"/></svg>