<svg id="Layer_1" data-name="Layer 1" xmlns="http://www.w3.org/2000/svg" viewBox="0 0 72 72"><defs><style>.cls-1{fill:silver;}</style></defs><title>link_v2_icon</title><path class="cls-1" d="M47.68,45.77a7.11,7.11,0,0,0-5.43,2.56l-15.61-8a6.82,6.82,0,0,0,0-6.54l15.62-8a7.09,7.09,0,1,0-1.7-4.57,6.92,6.92,0,0,0,.37,2.14L24.86,31.59a7.13,7.13,0,1,0,0,10.93l16.05,8.24a6.92,6.92,0,0,0-.37,2.14,7.13,7.13,0,1,0,7.13-7.13Zm0-28.93a4.37,4.37,0,1,1-4.36,4.36A4.37,4.37,0,0,1,47.68,16.84ZM20.34,41.42a4.37,4.37,0,1,1,4.36-4.36A4.37,4.37,0,0,1,20.34,41.42ZM47.68,57.27a4.37,4.37,0,1,1,4.37-4.37A4.37,4.37,0,0,1,47.68,57.27Z"/></svg>