<svg id="Layer_1" data-name="Layer 1" xmlns="http://www.w3.org/2000/svg" viewBox="0 0 72 72"><defs><style>.cls-1{fill:silver;}</style></defs><title>link_icon</title><path class="cls-1" d="M38.68,31.71a1.26,1.26,0,0,0-2.29,1.06,5.75,5.75,0,0,1,.55,2.48A5.91,5.91,0,0,1,31,41.16H21.8a5.91,5.91,0,0,1,0-11.81h8a1.26,1.26,0,0,0,0-2.51h-8a8.42,8.42,0,0,0,0,16.83H31a8.43,8.43,0,0,0,8.42-8.42A8.31,8.31,0,0,0,38.68,31.71Z"/><path class="cls-1" d="M47.31,26.73h-9a8.21,8.21,0,0,0-8.2,8.21A8,8,0,0,0,31,38.6a1.25,1.25,0,0,0,1.68.56,1.27,1.27,0,0,0,.57-1.69,5.54,5.54,0,0,1-.6-2.53,5.69,5.69,0,0,1,5.69-5.69h9a5.69,5.69,0,1,1,0,11.38H40a1.26,1.26,0,1,0,0,2.51h7.32a8.21,8.21,0,0,0,0-16.41Z"/></svg>