<svg id="Layer_1" data-name="Layer 1" xmlns="http://www.w3.org/2000/svg" viewBox="0 0 72 72"><defs><style>.cls-1{fill:silver;}</style></defs><title>locationProfile_icon</title><path class="cls-1" d="M34.06,13.15a14.71,14.71,0,0,0-14.7,14.7c0,6.43,8.94,20.34,12.79,26a2.3,2.3,0,0,0,3.81,0c3.85-5.69,12.8-19.61,12.8-26A14.72,14.72,0,0,0,34.06,13.15Zm.07,39.48H34c-6-8.86-12.42-20-12.42-24.78a12.49,12.49,0,1,1,25,0C46.54,32.59,40.13,43.76,34.13,52.63Z"/><path class="cls-1" d="M34.39,22.94a3.3,3.3,0,1,0,3.3,3.3A3.3,3.3,0,0,0,34.39,22.94Zm0,4.38a1.09,1.09,0,1,1,1.09-1.08A1.09,1.09,0,0,1,34.39,27.32Z"/><path class="cls-1" d="M34.18,17.59a10,10,0,1,0,10,10A10,10,0,0,0,34.18,17.59Zm-3.46,17H31v-.71a1.41,1.41,0,0,1,1.41-1.4h3.91a1.4,1.4,0,0,1,1.4,1.4v.66a7.74,7.74,0,0,1-7,.05ZM39.84,33a3.62,3.62,0,0,0-3.49-2.71H32.44a3.63,3.63,0,0,0-3.57,3.05,7.81,7.81,0,1,1,11-.34Z"/></svg>