<svg id="Layer_1" data-name="Layer 1" xmlns="http://www.w3.org/2000/svg" viewBox="0 0 72 72"><defs><style>.cls-1{fill:silver;}</style></defs><title>lock_icon</title><path class="cls-1" d="M45.76,32h-.65V29.21a10.2,10.2,0,0,0-9.64-10.6h-.11a10.19,10.19,0,0,0-9.64,10.57V32H25a4.21,4.21,0,0,0-4.21,4.2V52.6a3.84,3.84,0,0,0,3.84,3.83H46.15A3.84,3.84,0,0,0,50,52.59V36.21A4.22,4.22,0,0,0,45.76,32ZM35.41,21a7.86,7.86,0,0,1,7.36,8.21V32H28.06V29.12A7.83,7.83,0,0,1,35.41,21ZM47.64,52.59a1.5,1.5,0,0,1-1.49,1.51H24.66a1.5,1.5,0,0,1-1.5-1.5V36.21A1.87,1.87,0,0,1,25,34.34H45.76a1.88,1.88,0,0,1,1.88,1.87Z"/><path class="cls-1" d="M35.39,38.74a3.07,3.07,0,0,0-1.17,5.92V50.8h2.34V44.66a3.08,3.08,0,0,0-1.17-5.92Z"/></svg>