<?xml version="1.0" encoding="utf-8"?>
<!-- Generator: Adobe Illustrator 24.0.3, SVG Export Plug-In . SVG Version: 6.00 Build 0)  -->
<svg version="1.1" id="Layer_1" xmlns="http://www.w3.org/2000/svg" xmlns:xlink="http://www.w3.org/1999/xlink" x="0px" y="0px"
	 viewBox="0 0 72 72" style="enable-background:new 0 0 72 72;" xml:space="preserve">
<style type="text/css">
	.st0{fill:#C0C0C0;}
</style>
<title>Maps_icon</title>
<g>
	<path class="st0" d="M42.1,28.6c0-2.9-2.4-5.3-5.3-5.3s-5.3,2.4-5.3,5.3s2.4,5.3,5.3,5.3S42.1,31.5,42.1,28.6z M33.4,28.6
		c0-1.8,1.5-3.3,3.3-3.3s3.3,1.5,3.3,3.3s-1.5,3.3-3.3,3.3S33.4,30.4,33.4,28.6z"/>
	<path class="st0" d="M49.2,43.4h-7.4c3.1-5,6.5-11.3,6.5-14.9l0-1h0c-0.5-5.9-5.4-10.5-11.4-10.5c-6.3,0-11.5,5.1-11.5,11.5
		c0,3.5,3.4,9.9,6.5,14.9H25l-5.5,10.4h35.2L49.2,43.4z M36.8,19.1c5.2,0,9.5,4.2,9.5,9.5v0.3c-0.2,3.8-5,12-9.5,18.6
		c-4.6-6.8-9.5-15.3-9.5-18.9C27.3,23.4,31.6,19.1,36.8,19.1z M26.2,45.4h6.8c0.8,1.3,1.6,2.4,2.1,3.3c0.1,0.2,0.3,0.4,0.5,0.5
		c0.3,0.2,0.7,0.3,1.1,0.3c0.1,0,0.2,0,0.4,0c0.5-0.1,0.9-0.4,1.2-0.8c0.6-0.9,1.3-2,2.1-3.3H48l3.4,6.4H22.9L26.2,45.4z"/>
</g>
</svg>
