<svg id="Layer_1" data-name="Layer 1" xmlns="http://www.w3.org/2000/svg" viewBox="0 0 72 72"><defs><style>.cls-1{fill:silver;}</style></defs><title>Mask_icon</title><path class="cls-1" d="M63.86,27.23a6.15,6.15,0,0,0-4.37-4.65,5.35,5.35,0,0,0-5.34,1.81l-4.46,5.14a3.59,3.59,0,0,0-.47,0H46.35a6.82,6.82,0,0,1-5-2.16A7.13,7.13,0,0,0,31.3,27l-.7.65A6.73,6.73,0,0,1,26,29.5H22.09l-.31,0-4.44-5.13A5.37,5.37,0,0,0,12,22.58a6.14,6.14,0,0,0-4.36,4.65,19.8,19.8,0,0,0,.61,9.64,11.48,11.48,0,0,0,11,8.28h4a16,16,0,0,0,12.53,6h.32a16,16,0,0,0,12.23-6h3.89a11.47,11.47,0,0,0,11-8.28A19.7,19.7,0,0,0,63.86,27.23ZM19.25,43.15a9.45,9.45,0,0,1-9.08-6.83,17.68,17.68,0,0,1-.6-8.62,4.11,4.11,0,0,1,2.89-3.17,3.35,3.35,0,0,1,3.37,1.17l3.89,4.49a4.4,4.4,0,0,0-1.56,5.74l3.28,6.42c.14.27.29.54.45.8Zm16.82,6a14.06,14.06,0,0,1-11.79-6v0h0a14,14,0,0,1-1-1.72L19.94,35h0a2.41,2.41,0,0,1,2.15-3.52H26a8.78,8.78,0,0,0,6-2.38l.69-.65a5.13,5.13,0,0,1,7.27.24,8.84,8.84,0,0,0,6.42,2.79h2.87a2.37,2.37,0,0,1,2,1.11,2.4,2.4,0,0,1,.16,2.32l-2.8,6a13.73,13.73,0,0,1-1.28,2.2h-.13v.19A14,14,0,0,1,36.07,49.13ZM61.32,36.32a9.46,9.46,0,0,1-9.09,6.83H49.72c.25-.44.5-.89.72-1.36l2.79-6A4.41,4.41,0,0,0,53,31.54a4.49,4.49,0,0,0-1.25-1.28l4-4.56A3.33,3.33,0,0,1,59,24.53a4.08,4.08,0,0,1,2.89,3.17A17.66,17.66,0,0,1,61.32,36.32Z"/><rect class="cls-1" x="27.41" y="33.83" width="17.03" height="2"/><rect class="cls-1" x="26.26" y="37.68" width="19.21" height="2"/><rect class="cls-1" x="29.74" y="41.53" width="12.36" height="2"/></svg>