<svg id="Layer_1" data-name="Layer 1" xmlns="http://www.w3.org/2000/svg" viewBox="0 0 72 72"><defs><style>.cls-1{fill:silver;}</style></defs><title>MedicalKit_icon</title><path class="cls-1" d="M49.92,20.32H18.53a3.63,3.63,0,0,0-3.63,3.62V44.87a3.63,3.63,0,0,0,3.63,3.62H49.92a3.63,3.63,0,0,0,3.63-3.62V23.94A3.63,3.63,0,0,0,49.92,20.32Zm-3.78,2V46.49H22.32V22.32ZM16.9,44.87V23.94a1.62,1.62,0,0,1,1.63-1.62h1.79V46.49H18.53A1.63,1.63,0,0,1,16.9,44.87Zm34.65,0a1.63,1.63,0,0,1-1.63,1.62H48.14V22.32h1.78a1.62,1.62,0,0,1,1.63,1.62Z"/><path class="cls-1" d="M31,38.25v3.93h7.05V38.25H42v-7H38.07V27.27H31V31.2H27.09v7.05Zm-1.93-5H33V29.27h3V33.2H40v3H36.07v3.93H33V36.25H29.09Z"/></svg>