<svg id="Layer_1" data-name="Layer 1" xmlns="http://www.w3.org/2000/svg" viewBox="0 0 72 72"><defs><style>.cls-1{fill:silver;}</style></defs><title>Megaphone_icon</title><path class="cls-1" d="M49.67,36.69a1,1,0,0,0-1.2,1.61l5.12,3.8a1,1,0,0,0,.6.2,1,1,0,0,0,.8-.4,1,1,0,0,0-.2-1.4Z"/><path class="cls-1" d="M49.48,28l4.14-4a1,1,0,0,0-1.38-1.44l-4.14,4a1,1,0,0,0,0,1.41,1,1,0,0,0,.72.31A1,1,0,0,0,49.48,28Z"/><path class="cls-1" d="M57,31.47l-6.38-.15a1,1,0,0,0-1,1,1,1,0,0,0,1,1l6.38.15h0a1,1,0,0,0,1-1A1,1,0,0,0,57,31.47Z"/><path class="cls-1" d="M43,19.88a1.88,1.88,0,0,0-2,.21c-2.72,2.13-10,7.08-18.6,7.08H17.75a5.32,5.32,0,0,0-1.42,10.45l2.77,9.06a2.31,2.31,0,0,0,2.25,1.81h3.41a2.28,2.28,0,0,0,1.82-.9,2.32,2.32,0,0,0,.4-2l-2.91-7.31a.37.37,0,0,1,.15-.33l0,0C32,38.63,38.46,43.11,41,45.13a1.86,1.86,0,0,0,2,.21,1.86,1.86,0,0,0,1.06-1.69V21.57A1.88,1.88,0,0,0,43,19.88ZM14.42,32.51a3.34,3.34,0,0,1,3.33-3.34h4.88v6.68H17.75A3.34,3.34,0,0,1,14.42,32.51ZM25.05,46.16a.29.29,0,0,1-.06.21.27.27,0,0,1-.23.12H21.35c-.14,0-.26-.1-.31-.31l-2.55-8.34h3.62a2.26,2.26,0,0,0,0,1Zm17-2.76C39.24,41.22,32.6,36.77,24.63,36V29.06c8.06-.7,14.66-5.09,17.44-7.23Z"/></svg>