<svg id="Layer_1" data-name="Layer 1" xmlns="http://www.w3.org/2000/svg" viewBox="0 0 72 72"><defs><style>.cls-1{fill:silver;}</style></defs><title>Athletics_iconMegaphone</title><path class="cls-1" d="M60.47,21.13a4.59,4.59,0,0,0-3.82-1L12.32,28.68a1,1,0,0,0-1-1h0a1,1,0,0,0-1,1l0,13.4a1,1,0,0,0,1,1h0a1,1,0,0,0,1-1V41.8L22,43.47l-.36,2a2.37,2.37,0,0,0,1.88,2.74L35.8,50.58a2.28,2.28,0,0,0,.45,0,2.32,2.32,0,0,0,1.33-.41,2.39,2.39,0,0,0,1-1.53L39,46.4l17.55,3a4.43,4.43,0,0,0,.81.07,4.64,4.64,0,0,0,2.95-1.06A4.59,4.59,0,0,0,62,44.91l.16-20.21A4.6,4.6,0,0,0,60.47,21.13ZM36.61,48.32a.38.38,0,0,1-.43.3L23.93,46.24a.38.38,0,0,1-.29-.42l.36-2,13,2.25ZM60,44.9a2.59,2.59,0,0,1-.94,2,2.65,2.65,0,0,1-2.14.56L14.2,40.1l.08-9.76L57,22.09a2.61,2.61,0,0,1,2.15.57,2.57,2.57,0,0,1,.94,2Z"/><path class="cls-1" d="M44.66,27.7l-3,.54a1,1,0,0,0-.81,1.16,1,1,0,0,0,1,.82H42l.24-.05L40,34l-2.26-3.4.17,0a1,1,0,1,0-.37-2L35,29.09a1,1,0,0,0-.8,1.17,1,1,0,0,0,1,.81h.18l.28,0,3.34,5,.09.11L39,39.85l-.13,0a1,1,0,0,0-1.14.84,1,1,0,0,0,.84,1.14l2.39.36h.15a1,1,0,0,0,.15-2l-.26,0,.06-4,3.75-6.49.2,0a1,1,0,0,0-.35-2Z"/><path class="cls-1" d="M56,26.09l-1.88.3a1,1,0,0,0-.83,1.14,1,1,0,0,0,1,.84v11.4a1.7,1.7,0,0,1-3.39,0V28.92a1,1,0,0,0,.79-1.13A1,1,0,0,0,50.48,27l-1.88.3a1,1,0,0,0,.16,2h.07V39.77a3.7,3.7,0,0,0,7.39,0V28.08h.07a1,1,0,0,0-.31-2Z"/><path class="cls-1" d="M32.22,34.72a3.18,3.18,0,0,0,.61-2.28,3.26,3.26,0,0,0-3.16-2.85,1.77,1.77,0,0,0-.23,0l-.17,0H29.2L27,29.88,24,30.24a1,1,0,0,0,.12,2h.12l.22,0v1.9h0l0,2h0V38l-.34,0a1,1,0,1,0-.19,2l1.9.18,4,.39h.33a3.32,3.32,0,0,0,3.3-3,3.25,3.25,0,0,0-.73-2.41A3.41,3.41,0,0,0,32.22,34.72ZM26.47,32l1-.12,2-.25a1.26,1.26,0,0,1,1.37,1.08,1.16,1.16,0,0,1-.26.9,1.25,1.25,0,0,1-.85.48h0l-3.28,0ZM30,38.56l-.55-.06h-.05l-2.93-.28V36.08l4,0a1.38,1.38,0,0,1,.67.41,1.28,1.28,0,0,1,.28.94A1.34,1.34,0,0,1,30,38.56Z"/></svg>