<svg id="Layer_1" data-name="Layer 1" xmlns="http://www.w3.org/2000/svg" viewBox="0 0 72 72"><defs><style>.cls-1{fill:silver;}</style></defs><title>Microphone_icon</title><path class="cls-1" d="M44.78,35.11h-2a8.71,8.71,0,1,1-17.42,0h-2a10.72,10.72,0,0,0,9.41,10.63v5.4H27.61v2H39.92v-2H34.77V45.79A10.72,10.72,0,0,0,44.78,35.11Z"/><path class="cls-1" d="M34.05,42h0a6.62,6.62,0,0,0,6.63-6.64V23.83a6.63,6.63,0,0,0-6.63-6.63h0a6.57,6.57,0,0,0-4.68,1.94,6.65,6.65,0,0,0-1.95,4.69v11.5A6.64,6.64,0,0,0,34.05,42ZM29.42,23.83a4.63,4.63,0,0,1,4.63-4.63h0a4.63,4.63,0,0,1,4.63,4.63v1.23H34.24v2h4.44v1.88H34.24v2h4.44v1.88H34.24v2h4.44v.52A4.63,4.63,0,0,1,34.05,40h0a4.64,4.64,0,0,1-4.63-4.64Z"/></svg>