<svg id="Layer_1" data-name="Layer 1" xmlns="http://www.w3.org/2000/svg" viewBox="0 0 72 72"><defs><style>.cls-1{fill:silver;}</style></defs><title>Study_icon</title><path class="cls-1" d="M39.69,16.26a16.36,16.36,0,0,0-9.26,1.47l.05-2.79a3.28,3.28,0,0,0-1.05-2.28h.37v-2H24.48v2H25a3.22,3.22,0,0,0-1.07,2.48L23.65,30a3.29,3.29,0,0,0,2.25,3v1.23h2.2V32.91a3.25,3.25,0,0,0,2.14-3.15l.08-5,.06.07a10.72,10.72,0,0,1,15.82,1.3A10.62,10.62,0,0,1,48.32,34a10.69,10.69,0,0,1-18.41,6h2.66V38H21.18v2h1.56a16.42,16.42,0,0,0,9.41,8.28A6.55,6.55,0,0,0,28.79,54v3.27H47.46V54a6.55,6.55,0,0,0-3.87-6,16.52,16.52,0,0,0-3.9-31.76ZM28.24,29.79A1.3,1.3,0,0,1,27,31.14H27A1.29,1.29,0,0,1,25.65,30l.23-14.83a1.32,1.32,0,0,1,1.25-1.35h.05A1.3,1.3,0,0,1,28.48,15ZM45.46,54v1.27H30.79V54a4.54,4.54,0,0,1,4.54-4.54h5.6A4.54,4.54,0,0,1,45.46,54ZM52,34.54A14.51,14.51,0,0,1,25,40h2.3a12.7,12.7,0,0,0,8.72,5.27,13.51,13.51,0,0,0,1.67.11,12.72,12.72,0,1,0-7.36-23.09l0-2.28A14.52,14.52,0,0,1,52,34.54Z"/></svg>