<svg id="Layer_1" data-name="Layer 1" xmlns="http://www.w3.org/2000/svg" viewBox="0 0 72 72"><defs><style>.cls-1{fill:silver;}</style></defs><title>moneyVerify_icon</title><path class="cls-1" d="M58.39,44a.93.93,0,0,0-1.33,0l-2,2a7.24,7.24,0,1,0,1.12,1.56l2.23-2.3A.93.93,0,0,0,58.39,44Zm-3.25,7.07a5.48,5.48,0,1,1-1.4-3.64l-3.85,4L48.58,50a.94.94,0,1,0-1.36,1.31L49.1,53.3a1.16,1.16,0,0,0,1.62,0l4-4.17A5.3,5.3,0,0,1,55.14,51.08Z"/><path class="cls-1" d="M34.92,32.5H33.8A1.89,1.89,0,0,1,32.38,32a.95.95,0,1,0-1.29,1.39,3.84,3.84,0,0,0,2.43,1v.24a.95.95,0,0,0,1.89,0v-.27c1.67-.15,2.73-1.09,2.73-2.49,0-1.1-1.14-2.3-3-2.31h-.74c-.81,0-1.06,0-1.35-.2A.51.51,0,0,1,33,29.2a.48.48,0,0,1,0-.35.46.46,0,0,1,.27-.28,1,1,0,0,1,.64-.11h.84a2,2,0,0,1,1.46.52,1,1,0,0,0,1.34-.08,1,1,0,0,0-.08-1.33,4,4,0,0,0-2-.95v-.34a.95.95,0,1,0-1.89,0v.28a2.81,2.81,0,0,0-1.19.32,2.4,2.4,0,0,0-1.19,1.35,2.35,2.35,0,0,0,.12,1.8,2.38,2.38,0,0,0,.69.83,3.72,3.72,0,0,0,2.52.58h.69a1.25,1.25,0,0,1,1.09.42C36.25,32.43,35.32,32.5,34.92,32.5Z"/><path class="cls-1" d="M32.94,44.86a2.28,2.28,0,0,0,1.51.57,2.25,2.25,0,0,0,1.5-.57l2.29-2,2.94,3.23,1.4-1.27-2.93-3.22,9.09-8.09v8.32h1.89V30.94l-7.91-7.08V15.6H25.92v8.9l-7.66,6.42V53.6h21V51.71H21.9l8.82-8.83Zm15.33-13.5L42.72,36.3V26.39ZM40.83,17.49V38L34.7,43.44a.37.37,0,0,1-.5,0l-6.39-5.69V17.49ZM25.92,36.07l-5.27-4.69L25.92,27ZM20.15,50.79V33.47l9.16,8.15Z"/></svg>