<svg id="Layer_1" data-name="Layer 1" xmlns="http://www.w3.org/2000/svg" viewBox="0 0 72 72"><defs><style>.cls-1{fill:silver;}</style></defs><title>Music_icon</title><path class="cls-1" d="M42.26,20.74a1.67,1.67,0,0,0-1.22-.5l-13.19.21a1.14,1.14,0,0,0-1.14,1.14l0,16.37H25.41a4,4,0,0,0-4,4v.6a4,4,0,0,0,4,4h1.71A1.63,1.63,0,0,0,28.28,46a1.59,1.59,0,0,0,.47-1.16l0-18,12-.06L40.7,38H39.32a4,4,0,0,0-4,4v.6a4,4,0,0,0,4,4H41a1.64,1.64,0,0,0,1.64-1.64l.09-22.94A1.68,1.68,0,0,0,42.26,20.74ZM25.41,44.52h0a2,2,0,0,1-1.4-.58,1.93,1.93,0,0,1-.58-1.4v-.6a2,2,0,0,1,2-2h1.33v4.56Zm15.26,0H39.32a2,2,0,0,1-2-2v-.6a2,2,0,0,1,2-2h1.37Zm-12-19.61V22.44l12-.19v2.6Z"/></svg>