<svg id="Layer_1" data-name="Layer 1" xmlns="http://www.w3.org/2000/svg" viewBox="0 0 72 72"><defs><style>.cls-1{fill:silver;}</style></defs><title>network_icon</title><path class="cls-1" d="M50.64,42.55a4.06,4.06,0,0,0-2.75,1.16l-4.28-2.87a9.48,9.48,0,0,0,1.27-4.76,9.67,9.67,0,0,0-.58-3.28l4.22-2.35a4.12,4.12,0,0,0,2.86,1.18,4.6,4.6,0,0,0,.64-.05,4.12,4.12,0,1,0-4.71-3.44,2.31,2.31,0,0,0,.12.47l-4.08,2.27a9.68,9.68,0,0,0-7.07-4.41V20.88a4.12,4.12,0,1,0-2.14,0v5.59A9.62,9.62,0,0,0,27,31.06l-3.62-2.42a4.14,4.14,0,0,0,.28-1.58,4.09,4.09,0,0,0-1.28-2.88A4,4,0,0,0,19.4,23a4.11,4.11,0,0,0-2.89,1.28,4.07,4.07,0,0,0-1.13,2.94,4.12,4.12,0,0,0,4.12,4h.1a4.05,4.05,0,0,0,2.47-.92L26,33a9.67,9.67,0,0,0-.5,3.06,9.5,9.5,0,0,0,.92,4.09l-4,2.22a4.11,4.11,0,1,0-2.74,7.18,3.63,3.63,0,0,0,.65,0,4.11,4.11,0,0,0,3.43-4.71,4,4,0,0,0-.16-.62L27.58,42a9.66,9.66,0,0,0,6.56,3.69v3.73a4.12,4.12,0,1,0,2.14,0V45.69a9.71,9.71,0,0,0,6.27-3.33l-.16.24,4.4,2.95a4.07,4.07,0,0,0,4,5.24h.1a4.11,4.11,0,0,0,2.89-1.28,4.12,4.12,0,0,0-3.09-7Zm.43-17a2,2,0,0,1,2.27,1.66,2,2,0,1,1-2.27-1.66Zm-31.52,3.6a2,2,0,1,1-.1-4h.05a2,2,0,0,1,1.37.55,1.94,1.94,0,0,1,.61,1.38A2,2,0,0,1,19.55,29.14Zm1.79,17.48a2,2,0,0,1-3.56-.86,2,2,0,0,1,1.65-2.27l.31,0a2,2,0,0,1,1.6,3.15Zm11.89-29.7a2,2,0,1,1,2,2A2,2,0,0,1,33.23,16.92Zm5.43,25.85a7.58,7.58,0,0,1-3.45.84,7.47,7.47,0,0,1-3.34-.79h.3v-.68a1.36,1.36,0,0,1,1.36-1.36H37.3a1.36,1.36,0,0,1,1.36,1.36ZM37.19,53.38a2,2,0,1,1-2-2A2,2,0,0,1,37.19,53.38Zm3.48-12.13a3.51,3.51,0,0,0-3.37-2.61H33.53a3.5,3.5,0,0,0-3.45,2.94,7.53,7.53,0,1,1,10.59-.33ZM52.18,48a2,2,0,0,1-1.39.61h0a2,2,0,0,1-1.43-3.35,2,2,0,0,1,1.39-.61,2,2,0,0,1,2,1.93A2,2,0,0,1,52.18,48Z"/><path class="cls-1" d="M35.41,31.56a3.19,3.19,0,1,0,3.19,3.19A3.18,3.18,0,0,0,35.41,31.56Zm0,4.23a1,1,0,0,1,0-2.09,1,1,0,1,1,0,2.09Z"/></svg>