<svg id="Layer_1" data-name="Layer 1" xmlns="http://www.w3.org/2000/svg" viewBox="0 0 72 72"><defs><style>.cls-1{fill:silver;}</style></defs><title>News_icon</title><path class="cls-1" d="M47.84,46.9h-7V39.81h7Zm-5-2h3V41.81h-3Z"/><path class="cls-1" d="M34.7,32.7h-7V25.61h7Zm-5-2h3V27.61h-3Z"/><rect class="cls-1" x="27.78" y="44.94" width="10.65" height="2"/><rect class="cls-1" x="27.78" y="40.14" width="10.65" height="2"/><rect class="cls-1" x="27.78" y="35.34" width="20.24" height="2"/><rect class="cls-1" x="36.99" y="25.73" width="11.03" height="2"/><rect class="cls-1" x="36.99" y="30.53" width="11.03" height="2"/><path class="cls-1" d="M50,51.55H21a3.22,3.22,0,0,1-3.06-3.22V22.44h2V48.33a1.22,1.22,0,0,0,2.44,0l-.15-29H53v29.3A3,3,0,0,1,50,51.55Zm-25.89-2H50a1,1,0,0,0,1-1V21.29H24.19l.14,27A3.27,3.27,0,0,1,24.09,49.55Z"/></svg>