<svg id="Layer_1" data-name="Layer 1" xmlns="http://www.w3.org/2000/svg" viewBox="0 0 72 72"><defs><style>.cls-1{fill:silver;}</style></defs><title>Atomic_icon</title><path class="cls-1" d="M49.77,34.05c2.44-3.06,3.17-5.75,2.07-7.59S48,24,44.17,24.71c-.62.11-1.26.27-1.91.44-1.22-4.38-3.26-7.54-6-7.54s-4.71,3-5.94,7.17c-.51-.16-1-.3-1.51-.41C25,23.48,22.22,24,21,25.77s-.57,4.52,1.74,7.68a26.35,26.35,0,0,0,1.73,2.11,24.12,24.12,0,0,0-1.83,2c-2.44,3-3.17,5.75-2.07,7.59.86,1.44,2.57,2.06,4.75,2.06a18.59,18.59,0,0,0,4.82-.76c1.23,4.38,3.27,7.55,6,7.55s4.71-3,5.94-7.17c.51.16,1,.3,1.51.41A14.7,14.7,0,0,0,47,47.7c2.08,0,3.6-.62,4.4-1.83,1.62-2.46-.16-6.16-3.48-9.79A26,26,0,0,0,49.77,34.05Zm-5.25-7.44a14.48,14.48,0,0,1,2.54-.26c1.57,0,2.69.38,3.12,1.1.64,1.07-.08,3.08-1.93,5.39a23.06,23.06,0,0,1-1.67,1.85A40.27,40.27,0,0,0,43.44,32,41.59,41.59,0,0,0,42.73,27C43.34,26.87,43.94,26.72,44.52,26.61ZM39,40.49q-1.5.9-2.94,1.62c-.95-.54-1.91-1.12-2.86-1.75s-1.6-1.1-2.35-1.67c-.06-.92-.1-1.88-.1-2.87s0-2.06.11-3c.81-.56,1.66-1.12,2.54-1.64s2-1.13,2.94-1.62c1,.53,1.91,1.12,2.87,1.74s1.6,1.11,2.34,1.67c.06.93.1,1.88.1,2.88s0,2-.11,3C40.75,39.41,39.9,40,39,40.49Zm2.3.84c-.13,1.07-.3,2.08-.51,3-.86-.34-1.74-.72-2.63-1.15.62-.34,1.23-.69,1.84-1.05C40.46,41.89,40.89,41.61,41.32,41.33ZM34,43.1c-.82.36-1.62.67-2.39.94-.18-.87-.33-1.8-.45-2.78l1,.72C32.74,42.37,33.34,42.74,34,43.1Zm-5.09-6c-.56-.48-1.1-1-1.6-1.45.51-.45,1-.9,1.6-1.34,0,.52,0,1,0,1.54S28.84,36.65,28.86,37.07Zm2.26-6.77c.13-1.07.31-2.07.51-3,.86.33,1.74.72,2.64,1.15-.62.33-1.23.68-1.85,1Zm7.38-1.76c.81-.35,1.6-.67,2.38-.94.18.87.33,1.8.45,2.78-.34-.25-.69-.49-1-.72C39.7,29.27,39.1,28.89,38.5,28.54Zm5.09,6c.56.49,1.1,1,1.59,1.45-.5.45-1,.9-1.6,1.34,0-.51,0-1,0-1.53S43.6,35,43.59,34.56Zm-7.37-15c1.51,0,3.13,2.33,4.2,6.18a36.46,36.46,0,0,0-4,1.64,39.32,39.32,0,0,0-4.3-2C33.18,21.74,34.75,19.54,36.22,19.54Zm-13.57,7.3c.42-.64,1.39-1,2.76-1a13.38,13.38,0,0,1,2.92.38c.48.11,1,.25,1.47.4A40.13,40.13,0,0,0,29,31.74c-1.11.81-2.16,1.64-3.11,2.49-.58-.65-1.12-1.29-1.58-1.92C22.59,29.92,22,27.88,22.65,26.84Zm-.39,17.35c-.64-1.07.08-3.08,1.93-5.39.49-.61,1-1.23,1.66-1.85,1,.93,2,1.85,3.15,2.75a41.1,41.1,0,0,0,.72,4.91C25.86,45.67,23,45.48,22.26,44.19Zm14,7.9c-1.52,0-3.13-2.32-4.2-6.18a40.2,40.2,0,0,0,4-1.63,38.6,38.6,0,0,0,4.31,2C39.26,49.9,37.69,52.09,36.22,52.09ZM49.79,44.8c-.68,1-2.81,1.25-5.68.59-.48-.12-1-.25-1.47-.41a39.7,39.7,0,0,0,.78-5.08c1.12-.81,2.16-1.65,3.12-2.5C49.47,40.63,50.67,43.47,49.79,44.8Z"/></svg>