<svg id="Layer_1" data-name="Layer 1" xmlns="http://www.w3.org/2000/svg" viewBox="0 0 72 72"><defs><style>.cls-1{fill:silver;}</style></defs><title>structure_icon</title><path class="cls-1" d="M54.68,42.72V36.87a2.25,2.25,0,0,0-2.25-2.25h-16V29h0a7.41,7.41,0,1,0-1.2,0h-.75v5.65h-16a2.25,2.25,0,0,0-2.25,2.25v5.85a7.38,7.38,0,1,0,2-.22V36.87a.25.25,0,0,1,.25-.25h16v5.94a7.41,7.41,0,1,0,2,0v-6h16a.25.25,0,0,1,.25.25V42.5a7.42,7.42,0,1,0,2,.22ZM30.33,21.59A5.41,5.41,0,1,1,35.74,27,5.42,5.42,0,0,1,30.33,21.59Zm-7,28.31a5.41,5.41,0,1,1-5.41-5.41A5.41,5.41,0,0,1,23.28,49.9Zm17.45,0a5.41,5.41,0,1,1-5.41-5.41A5.41,5.41,0,0,1,40.73,49.9Zm12.16,5.41A5.41,5.41,0,1,1,58.3,49.9,5.41,5.41,0,0,1,52.89,55.31Z"/></svg>