<svg id="Layer_1" data-name="Layer 1" xmlns="http://www.w3.org/2000/svg" viewBox="0 0 72 72"><defs><style>.cls-1{fill:silver;}</style></defs><title>StructureV2_icon</title><path class="cls-1" d="M37.41,20A2,2,0,1,0,35.46,22,2,2,0,0,0,37.41,20Z"/><circle class="cls-1" cx="17.72" cy="48.21" r="1.95"/><path class="cls-1" d="M33.17,48.21a1.95,1.95,0,1,0,1.94-1.94A1.94,1.94,0,0,0,33.17,48.21Z"/><path class="cls-1" d="M52.62,46.27a1.95,1.95,0,1,0,2,1.94A2,2,0,0,0,52.62,46.27Z"/><path class="cls-1" d="M54.48,42.47V36.62a2.25,2.25,0,0,0-2.25-2.25h-16V28.72h-.06a7.41,7.41,0,1,0-1.19,0h-.75v5.65h-16a2.25,2.25,0,0,0-2.25,2.25v5.85a7.42,7.42,0,1,0,2-.21V36.62a.25.25,0,0,1,.25-.25h16v5.94a7.41,7.41,0,1,0,2,0v-6h16a.25.25,0,0,1,.25.25v5.64a7.38,7.38,0,1,0,2,.21ZM20,54.51a5.33,5.33,0,0,1-2.36.56,5.23,5.23,0,0,1-2.06-.42v-.48a.81.81,0,0,1,.8-.81h2.81a.81.81,0,0,1,.81.81Zm3-4.85a5.32,5.32,0,0,1-1.26,3.45,2.81,2.81,0,0,0-2.6-1.75H16.41a2.81,2.81,0,0,0-2.67,2,5.4,5.4,0,0,1,3.93-9.11A5.41,5.41,0,0,1,23.08,49.66Zm8.53-24.61a5.4,5.4,0,0,1,3.93-9.12,5.4,5.4,0,0,1,4.15,8.87,2.81,2.81,0,0,0-2.6-1.75H34.28A2.81,2.81,0,0,0,31.61,25.05Zm1.86,1.29v-.48a.81.81,0,0,1,.81-.81h2.81a.81.81,0,0,1,.81.81v.34a5.32,5.32,0,0,1-2.36.55A5.5,5.5,0,0,1,33.47,26.34Zm4,28.17a5.33,5.33,0,0,1-4.43.15v-.49a.81.81,0,0,1,.81-.81h2.81a.82.82,0,0,1,.81.81Zm3-4.85a5.32,5.32,0,0,1-1.26,3.45,2.8,2.8,0,0,0-2.59-1.75H33.87a2.81,2.81,0,0,0-2.68,2,5.36,5.36,0,0,1-1.48-3.7,5.41,5.41,0,0,1,10.82,0Zm14.53,4.85a5.4,5.4,0,0,1-2.37.56,5.23,5.23,0,0,1-2.06-.42v-.48a.81.81,0,0,1,.81-.81h2.81a.82.82,0,0,1,.81.81Zm1.79-1.4a2.83,2.83,0,0,0-2.6-1.75H51.44a2.81,2.81,0,0,0-2.68,2,5.36,5.36,0,0,1-1.48-3.7,5.41,5.41,0,1,1,9.57,3.45Z"/></svg>