<svg id="Layer_1" data-name="Layer 1" xmlns="http://www.w3.org/2000/svg" viewBox="0 0 72 72"><defs><style>.cls-1{fill:silver;}</style></defs><title>Share_icon</title><path class="cls-1" d="M45.84,18.55a1.33,1.33,0,0,0-1.5.07L23.6,33.11a2.11,2.11,0,0,0-.89,1.65,1.24,1.24,0,0,0,.55,1l6.47,4.28,1.15,7.08a1.17,1.17,0,0,0,1.15,1l.19,0a1.19,1.19,0,0,0,.68-.36l3.21-3.47L39,46.23a1.23,1.23,0,0,0,.68.2,1.32,1.32,0,0,0,.51-.1,2.12,2.12,0,0,0,1.17-1.48l5-24.91A1.31,1.31,0,0,0,45.84,18.55Zm-4.45,4.57-11,15L25,34.56ZM32.58,45.17,32,41.58l2.42,1.6Zm6.91-1-7.4-4.9L43.61,23.48Z"/></svg>