<svg id="Layer_1" data-name="Layer 1" xmlns="http://www.w3.org/2000/svg" viewBox="0 0 72 72"><defs><style>.cls-1{fill:silver;}</style></defs><title>Shadowing_icon</title><path class="cls-1" d="M27,21.75a5.21,5.21,0,1,0-5.21-5.21A5.21,5.21,0,0,0,27,21.75Zm0-8.41a3.21,3.21,0,1,1-3.21,3.2A3.21,3.21,0,0,1,27,13.34Z"/><path class="cls-1" d="M60.79,49.71a3.84,3.84,0,1,0,3.84,3.84A3.84,3.84,0,0,0,60.79,49.71Zm0,5.68a1.84,1.84,0,1,1,1.84-1.84A1.84,1.84,0,0,1,60.79,55.39Z"/><path class="cls-1" d="M32.91,44.73h0a2.63,2.63,0,0,0,2.62-2.6l.12-12.61a6.44,6.44,0,0,0-6.43-6.42H24.81a6.43,6.43,0,0,0-6.42,6.42V42.11A2.62,2.62,0,0,0,21,44.73h.68v9.79a2.63,2.63,0,0,0,2.63,2.63h6a2.61,2.61,0,0,0,.93-.18H55.15V50.53H32.91Zm-2,9.79a.63.63,0,0,1-.62.63h-6a.63.63,0,0,1-.63-.63V44.06a1.32,1.32,0,0,0-1.33-1.33H21a.62.62,0,0,1-.62-.62V29.52a4.42,4.42,0,0,1,4.42-4.42h4.42a4.43,4.43,0,0,1,4.43,4.41l-.12,12.6a.62.62,0,0,1-.62.62h-.68a1.33,1.33,0,0,0-1.33,1.33Zm2.18-2H53.15V55H33.09Z"/></svg>