<svg id="Layer_1" data-name="Layer 1" xmlns="http://www.w3.org/2000/svg" viewBox="0 0 72 72"><defs><style>.cls-1{fill:silver;}</style></defs><title>Family_icon</title><path class="cls-1" d="M20.11,33.26A6.22,6.22,0,1,0,13.89,27,6.23,6.23,0,0,0,20.11,33.26Zm0-10.44A4.22,4.22,0,1,1,15.89,27,4.22,4.22,0,0,1,20.11,22.82Z"/><path class="cls-1" d="M51.16,33.26A6.22,6.22,0,1,0,45,27,6.23,6.23,0,0,0,51.16,33.26Zm0-10.44A4.22,4.22,0,1,1,47,27,4.22,4.22,0,0,1,51.16,22.82Z"/><path class="cls-1" d="M36,39.64A4.61,4.61,0,1,0,31.42,35,4.61,4.61,0,0,0,36,39.64Zm0-7.22A2.61,2.61,0,1,1,33.42,35,2.61,2.61,0,0,1,36,32.42Z"/><path class="cls-1" d="M59.69,37.48a5.9,5.9,0,0,0-4.2-1.74H48.15a4.65,4.65,0,0,0-4.64,4.64v.94H29.25v-.94a4.64,4.64,0,0,0-4.64-4.64l-7.75,0h0a5.94,5.94,0,0,0-5.93,5.93v8.74H61.43V41.68A5.9,5.9,0,0,0,59.69,37.48ZM44.07,43.36a3.43,3.43,0,0,1,3,3.39v1.64H25V46.75a3.44,3.44,0,0,1,3.43-3.43H43.51v0ZM12.91,41.64a3.88,3.88,0,0,1,1.16-2.78,4.06,4.06,0,0,1,2.78-1.14l7.76,0a2.64,2.64,0,0,1,2.64,2.64v1.07A5.43,5.43,0,0,0,23,46.75v1.64h-10ZM59.43,48.4H49.11V46.75a5.42,5.42,0,0,0-3.6-5.1V40.38a2.65,2.65,0,0,1,2.64-2.64H55.5a3.94,3.94,0,0,1,3.93,3.94Z"/></svg>