<svg id="Layer_1" data-name="Layer 1" xmlns="http://www.w3.org/2000/svg" viewBox="0 0 72 72"><defs><style>.cls-1{fill:silver;}</style></defs><title>Team_icon</title><path class="cls-1" d="M20.07,29.77a5.16,5.16,0,1,0-5.16-5.16A5.16,5.16,0,0,0,20.07,29.77Zm0-8.32a3.16,3.16,0,1,1-3.16,3.16A3.16,3.16,0,0,1,20.07,21.45Z"/><path class="cls-1" d="M53.21,32.62H45.79a5.81,5.81,0,0,0-5.34,3.58c-.24,0-.5,0-.75,0H29.62l-.51,0a5.82,5.82,0,0,0-5.34-3.57H16.36a5.78,5.78,0,0,0-5.77,5.77v2.67h2V38.39a3.77,3.77,0,0,1,3.77-3.77h7.41a3.8,3.8,0,0,1,3.32,2,7.51,7.51,0,0,0-5,7.06v2h2v-2a5.5,5.5,0,0,1,5.5-5.5H39.7a5.5,5.5,0,0,1,5.5,5.5v2h2v-2a7.52,7.52,0,0,0-4.76-7,3.77,3.77,0,0,1,3.35-2.07h7.42A3.77,3.77,0,0,1,57,38.39V41.9h2V38.39A5.78,5.78,0,0,0,53.21,32.62Z"/><path class="cls-1" d="M49.5,29.77a5.16,5.16,0,1,0-5.16-5.16A5.17,5.17,0,0,0,49.5,29.77Zm0-8.32a3.16,3.16,0,1,1-3.16,3.16A3.17,3.17,0,0,1,49.5,21.45Z"/><path class="cls-1" d="M35.27,32.88a6,6,0,1,0-6-6A6,6,0,0,0,35.27,32.88Zm0-10.09a4,4,0,1,1-4,4.05A4.05,4.05,0,0,1,35.27,22.79Z"/></svg>