<svg id="Layer_1" data-name="Layer 1" xmlns="http://www.w3.org/2000/svg" viewBox="0 0 72 72"><defs><style>.cls-1{fill:silver;}</style></defs><title>Patient_icon</title><path class="cls-1" d="M38.87,28.45H32.64v3.29H29.35V38h3.29v3.29h6.23V38h3.29V31.74H38.87Zm1.29,5.29V36H36.87v3.29H34.64V36H31.35V33.74h3.29V30.45h2.23v3.29Z"/><path class="cls-1" d="M35.76,21.21A5.21,5.21,0,1,0,30.55,16,5.22,5.22,0,0,0,35.76,21.21Zm0-8.42A3.21,3.21,0,1,1,32.55,16,3.21,3.21,0,0,1,35.76,12.79Z"/><path class="cls-1" d="M41,22.55H30.48A6.44,6.44,0,0,0,24.05,29V42.57a2.63,2.63,0,0,0,2.62,2.62h1.69V53A2.62,2.62,0,0,0,31,55.6H41.1A2.62,2.62,0,0,0,43.72,53v-7.8h1a2.62,2.62,0,0,0,2.62-2.59L47.46,29A6.44,6.44,0,0,0,41,22.55Zm4.3,20a.61.61,0,0,1-.62.61H43.05a1.34,1.34,0,0,0-1.33,1.33V53a.62.62,0,0,1-.62.62H31a.62.62,0,0,1-.62-.62V44.52A1.33,1.33,0,0,0,29,43.19H26.67a.62.62,0,0,1-.62-.62V29a4.44,4.44,0,0,1,4.43-4.43H41A4.43,4.43,0,0,1,45.46,29Z"/></svg>