<svg id="Layer_1" data-name="Layer 1" xmlns="http://www.w3.org/2000/svg" viewBox="0 0 72 72"><defs><style>.cls-1{fill:silver;}</style></defs><title>Missionary_icon</title><path class="cls-1" d="M49.74,20a4.5,4.5,0,1,0-4.51-4.5A4.51,4.51,0,0,0,49.74,20Zm0-7a2.5,2.5,0,1,1-2.51,2.5A2.5,2.5,0,0,1,49.74,13Z"/><path class="cls-1" d="M60.51,49l-2.14-5.43a1,1,0,0,0-.07-.42L57.05,40h2.19V29.61c0-4.93-2.51-8-6.56-8H47.27c-4.17,0-7,3.22-7,8V40l2.6-.09-2.78,8.74,3.81.05v9.43h12.2V48.89ZM57.24,29.61V38h-1l-1.61-4,1.64-8.51A8.22,8.22,0,0,1,57.24,29.61Zm-4.57-6a4.71,4.71,0,0,1,1.87.38l-.46,2.4H49.66v2h4l-1.12,5.86L54.09,38h0l3.51,8.9-14.67-.19,4.25-12.4-2.49-10a4.63,4.63,0,0,1,2.62-.74ZM42.31,38V29.6a7.8,7.8,0,0,1,.74-3.41l2,8-1.27,3.69Zm3.63,10.79,3.27,0v7.37H45.94Zm8.2,7.41H51.21V48.83l2.93,0Z"/><path class="cls-1" d="M24.66,20a4.5,4.5,0,1,0-4.5-4.5A4.51,4.51,0,0,0,24.66,20Zm0-7a2.5,2.5,0,1,1-2.5,2.5A2.51,2.51,0,0,1,24.66,13Z"/><path class="cls-1" d="M29.17,21.61h-9a6.06,6.06,0,0,0-6,6.05V41h4.41V57.63h.07v.13h12.2V41h4.37V27.65A6,6,0,0,0,29.17,21.61ZM20.64,41h8V55.76h-3V44.1h-2V55.76h-3Zm12.57-2H30.63V31.41h-2V39H20.57V31.41h-2V39H16.16V27.66a4.05,4.05,0,0,1,4-4.05h3.46v11h2v-6.2h4v-2h-4V23.61h3.51a4,4,0,0,1,4,4Z"/></svg>