<svg id="Layer_1" data-name="Layer 1" xmlns="http://www.w3.org/2000/svg" viewBox="0 0 72 72"><defs><style>.cls-1{fill:silver;}</style></defs><title>YAlert_icon</title><path class="cls-1" d="M34.45,50.46a1.38,1.38,0,1,0,1.37,1.37A1.37,1.37,0,0,0,34.45,50.46Z"/><path class="cls-1" d="M42.45,15.13h-17a4,4,0,0,0-4,4V52.43a4,4,0,0,0,4,4h17a4,4,0,0,0,4-4V19.12A4,4,0,0,0,42.45,15.13Zm-17,2h17a2,2,0,0,1,2,2v3.57H23.49V19.12A2,2,0,0,1,25.47,17.13Zm19,7.56V47.14H23.49V24.69Zm-2,29.73h-17a2,2,0,0,1-2-2V49.14H44.43v3.29A2,2,0,0,1,42.45,54.42Z"/><path class="cls-1" d="M31.32,21.16H36.6a1,1,0,0,0,0-2H31.32a1,1,0,0,0,0,2Z"/><path class="cls-1" d="M26.26,43.49a1.21,1.21,0,0,0,1,.58H41.06a1.22,1.22,0,0,0,1-.59A1.57,1.57,0,0,0,42.16,42l-7-13.89a1.24,1.24,0,0,0-1.1-.7h0a1.24,1.24,0,0,0-1.09.72L26.19,42A1.56,1.56,0,0,0,26.26,43.49Zm7.82-13.08L40,42.07H28.38Z"/><path class="cls-1" d="M34.1,38.33a1,1,0,0,0,1-1V34.94a1,1,0,0,0-2,0v2.39A1,1,0,0,0,34.1,38.33Z"/><path class="cls-1" d="M34.86,39.21A1,1,0,0,0,33.77,39a.93.93,0,0,0-.33.21,1.06,1.06,0,0,0-.22.33,1.07,1.07,0,0,0,0,.76,1.19,1.19,0,0,0,.22.33,1.11,1.11,0,0,0,.32.21,1,1,0,0,0,.39.08,1,1,0,0,0,.71-.29,1.15,1.15,0,0,0,.21-.33,1,1,0,0,0,.08-.38A1.05,1.05,0,0,0,34.86,39.21Z"/></svg>