<svg id="Layer_1" data-name="Layer 1" xmlns="http://www.w3.org/2000/svg" viewBox="0 0 72 72"><defs><style>.cls-1{fill:silver;}</style></defs><title>Contact_icon</title><path class="cls-1" d="M52.49,44.06l-4.21-5.21a2.84,2.84,0,0,0-3.74-.52c-2.7,1.72-6.65,2.88-10.08-1.36s-1.76-8,.19-10.48a3.51,3.51,0,0,0,.05-4.4l-4-4.94a3.33,3.33,0,0,0-4.53-.49,10.9,10.9,0,0,0-4.35,7.65c-.72,5.34,1.58,11.75,6.3,17.58C34.23,49.44,40.5,51,43.7,51.19c.36,0,.71,0,1.06,0a10.63,10.63,0,0,0,7.3-2.57A3.41,3.41,0,0,0,52.49,44.06ZM27.36,18.27a1.36,1.36,0,0,1,.82-.28,1.31,1.31,0,0,1,1,.44l4,4.9a1.51,1.51,0,0,1,0,1.91,14.08,14.08,0,0,0-.87,1.25l-5.91-7.3A7.69,7.69,0,0,1,27.36,18.27ZM43.84,49.2c-4.88-.36-10.05-3.48-14.17-8.57-4.38-5.4-6.51-11.25-5.87-16.05a10.18,10.18,0,0,1,1.25-3.76L31,28.13a.89.89,0,0,0,.29.22,9.46,9.46,0,0,0,1.64,9.88c3,3.7,6.36,4,9,3.38a.2.2,0,0,0,0,.08l5.77,7.13A10.88,10.88,0,0,1,43.84,49.2Zm6.87-2a7.28,7.28,0,0,1-1.09.8l-5.71-7A13.32,13.32,0,0,0,45.64,40a.85.85,0,0,1,1.1.13l4.17,5.15A1.4,1.4,0,0,1,50.71,47.18Z"/></svg>