<svg id="Layer_1" data-name="Layer 1" xmlns="http://www.w3.org/2000/svg" viewBox="0 0 72 72"><defs><style>.cls-1{fill:silver;}</style></defs><title>pictureText_icon</title><path class="cls-1" d="M36.87,29.4a4.49,4.49,0,1,0-4.49-4.49A4.49,4.49,0,0,0,36.87,29.4Zm0-6.69a2.21,2.21,0,1,1-2.21,2.2A2.21,2.21,0,0,1,36.87,22.71Z"/><path class="cls-1" d="M59.57,9.4H11.86V49.1H59.57Zm-2.28,2.27V46.1l-9.8-10.2a5.84,5.84,0,0,0-8.12-.07L38.18,37c-1.56-1.88-3-3.58-4.11-4.66a8.41,8.41,0,0,0-6.91-2.59,8.68,8.68,0,0,0-6.35,4L14.14,44.05V11.67ZM43.13,46.82H15.06C16.88,44,21.32,37.12,22.72,35a6.43,6.43,0,0,1,4.67-3,6.22,6.22,0,0,1,5.07,1.94C35.12,36.56,40.55,43.49,43.13,46.82Zm-3.5-8.1,1.3-1.23a3.58,3.58,0,0,1,5,0l8.95,9.32H46C45.05,45.58,42.37,42.09,39.63,38.72Z"/><rect class="cls-1" x="11.34" y="53.24" width="48.58" height="2.28"/><rect class="cls-1" x="11.34" y="58.25" width="48.58" height="2.28"/></svg>