<svg id="Layer_1" data-name="Layer 1" xmlns="http://www.w3.org/2000/svg" viewBox="0 0 72 72"><defs><style>.cls-1{fill:silver;}</style></defs><title>Budget_icon</title><path class="cls-1" d="M42.92,27.75A17.72,17.72,0,0,0,38,26.38a1,1,0,0,0-.26,2,15.57,15.57,0,0,1,4.34,1.21,1,1,0,0,0,.4.09,1,1,0,0,0,.41-1.92Z"/><path class="cls-1" d="M56.94,27.31a2.33,2.33,0,0,0-1.43-1.87,3.44,3.44,0,0,0-2-.11,12.4,12.4,0,0,1,.46-2,1,1,0,0,0-.64-1.26,1,1,0,0,0-1.26.64A11.64,11.64,0,0,0,51.47,26,20,20,0,0,0,48.7,27.5,18.9,18.9,0,0,0,36,23a21.53,21.53,0,0,0-5.07.61,1.18,1.18,0,0,0-.33-.3l-3.11-1.63a2.54,2.54,0,0,0-4.26,1.65L23,27.17a1,1,0,0,0,.1.48,11.47,11.47,0,0,0-3,4.34.15.15,0,0,1-.12.1h-.52A2.45,2.45,0,0,0,17,34.54V37.8a2.45,2.45,0,0,0,2.45,2.45h1.06a.48.48,0,0,1,.46.23,12.35,12.35,0,0,0,2.42,2.87v4.59a2.25,2.25,0,0,0,2.24,2.24h3.15a2.24,2.24,0,0,0,2.24-2.25v-.77a21.52,21.52,0,0,0,10.21-.09v.86a2.25,2.25,0,0,0,2.25,2.25h3.14a2.24,2.24,0,0,0,2.24-2.25V43a10.56,10.56,0,0,0,3.57-7.66A10.13,10.13,0,0,0,50.09,29a16.77,16.77,0,0,1,1.63-.92,3.8,3.8,0,0,0,1.22,1.85,2.69,2.69,0,0,0,1.69.62,2.33,2.33,0,0,0,1.2-.33A2.67,2.67,0,0,0,56.94,27.31ZM25.2,23.46a.56.56,0,0,1,.6-.48.51.51,0,0,1,.34.17l.12.12,2.11,1.11a17.6,17.6,0,0,0-3.32,1.71Zm3.85,24.47a.25.25,0,0,1-.24.25H25.66a.25.25,0,0,1-.24-.25V44.84a18.71,18.71,0,0,0,3.63,1.74Zm17.6.25H43.51a.27.27,0,0,1-.18-.07.25.25,0,0,1-.07-.18V46.44a17.41,17.41,0,0,0,3.63-1.84v3.34A.24.24,0,0,1,46.65,48.18ZM36,45.73c-5.76,0-11-2.47-13.29-6.3a2.54,2.54,0,0,0-2.12-1.18H19.48A.45.45,0,0,1,19,37.8V34.54a.45.45,0,0,1,.45-.45H20a2.15,2.15,0,0,0,2-1.42c1.7-4.54,7.45-7.7,14-7.7,8,0,14.48,4.66,14.48,10.38S44,45.73,36,45.73ZM54.8,28.5a.59.59,0,0,1-.61-.13,1.91,1.91,0,0,1-.59-1,2,2,0,0,1,1.15-.06c.06,0,.16.07.22.39S55,28.39,54.8,28.5Z"/><path class="cls-1" d="M33.29,26.52a1,1,0,0,0-1.08.91L32,30.73a.39.39,0,0,1-.14.28.39.39,0,0,1-.29.1.47.47,0,0,1-.2-.06l-2.45-1.87a1,1,0,0,0-1.4.19,1,1,0,0,0,.19,1.41l2.48,1.88a2.39,2.39,0,0,0,1.25.44h.15a2.41,2.41,0,0,0,2.4-2.24l.26-3.28A1,1,0,0,0,33.29,26.52Z"/><path class="cls-1" d="M25.34,31.67h-.22a1.5,1.5,0,0,0,0,3h.22a1.43,1.43,0,0,0,.58-.12,1.31,1.31,0,0,0,.47-.32,1.52,1.52,0,0,0,.45-1.07A1.5,1.5,0,0,0,25.34,31.67Z"/></svg>