<svg id="Layer_1" data-name="Layer 1" xmlns="http://www.w3.org/2000/svg" viewBox="0 0 72 72"><defs><style>.cls-1{fill:silver;}</style></defs><title>Service_icon</title><path class="cls-1" d="M48.62,21.88c-.25,0-6.28.12-9.27,2.74a14.36,14.36,0,0,0-3.29,5.45V18.65h-2v20.2a11.55,11.55,0,0,0-3.31-4.21h0c-2.46-1.61-6.8-.89-7.29-.8l-1.1.19.32,1.08c.06.18,1.34,4.43,3.83,6,1.83,1.19,5.08,1.38,6.91,1.38a1.76,1.76,0,0,0,.64-.11v4.89A8.21,8.21,0,0,0,29,49.82l-.47.48a1.7,1.7,0,0,0,.07,2.38,1.67,1.67,0,0,0,1.14.45H40.54a1.67,1.67,0,0,0,1.67-1.67,1.7,1.7,0,0,0-.67-1.35l-1.6-1.2a8.39,8.39,0,0,0-3.88-1.57V35.28a1.7,1.7,0,0,0,.5.09l.24,0c2.46-.34,6.91-1.21,9.16-3.19,3-2.64,3.65-8.92,3.67-9.19l.11-1.11Zm-21,17.6A8.75,8.75,0,0,1,25,35.66c1.44-.12,3.52-.09,4.66.65a10.94,10.94,0,0,1,3,4.22A10.93,10.93,0,0,1,27.6,39.48Zm12,11.65h-9a6.26,6.26,0,0,1,8.22-.61Zm5.09-20.47c-1.27,1.12-4.07,2.08-7.57,2.63,1-3.39,2.32-6.05,3.59-7.16,1.74-1.53,5-2,6.81-2.18C47.13,26,46.28,29.23,44.65,30.66Z"/></svg>