<svg id="Layer_1" data-name="Layer 1" xmlns="http://www.w3.org/2000/svg" viewBox="0 0 72 72"><defs><style>.cls-1{fill:silver;}</style></defs><title>plane_icon</title><path class="cls-1" d="M53.86,26a4.19,4.19,0,0,0-6-.66L42.05,30.2l-13.9-5.9a3.39,3.39,0,0,0-3.53.54L23.23,26a1.57,1.57,0,0,0,0,2.41L34,37l-7.67,6.5a2.45,2.45,0,0,1-1.86.56l-3.61-.4a2.41,2.41,0,0,0-1.86.61l-1.09,1.06a1.49,1.49,0,0,0-.43,1.31,1.52,1.52,0,0,0,.86,1.14l6,2.65a.58.58,0,0,1,.35.41l1.54,6.26a1.53,1.53,0,0,0,1,1,1.51,1.51,0,0,0,1.36-.2l1.44-1a2.4,2.4,0,0,0,.85-1.77l.06-3.42a2.46,2.46,0,0,1,.87-1.82l7.59-6.43L46,55.27a1.57,1.57,0,0,0,2.37.43l1.39-1.18a3.42,3.42,0,0,0,1.11-3.4L47.39,36.66l5.7-4.83A4.29,4.29,0,0,0,53.86,26Zm-2.11,4.26-5.93,5a1.63,1.63,0,0,0-.52,1.61l3.55,14.74a1.3,1.3,0,0,1-.43,1.32l-.91.77L41,42a1.71,1.71,0,0,0-2.6-.47l-7.92,6.71a4.52,4.52,0,0,0-1.6,3.37l-.07,3.42a.41.41,0,0,1,0,.16l-.69.5-1.32-5.37a2.74,2.74,0,0,0-1.53-1.82L20,46.24l.44-.43a.28.28,0,0,1,.22-.07l3.61.41a4.57,4.57,0,0,0,3.44-1l8-6.78a1.72,1.72,0,0,0,0-2.64L25.05,27.19l.91-.77a1.35,1.35,0,0,1,1.38-.21l14.17,6A1.6,1.6,0,0,0,43.17,32l6-5.08a2.1,2.1,0,0,1,1.6-.48,2.06,2.06,0,0,1,1.45.82A2.23,2.23,0,0,1,51.75,30.24Z"/></svg>