<svg id="Layer_1" data-name="Layer 1" xmlns="http://www.w3.org/2000/svg" viewBox="0 0 72 72"><defs><style>.cls-1{fill:silver;}</style></defs><title>Conference_icon</title><path class="cls-1" d="M24.09,39.45h2V35.33H47.64v4.12h2V35.33h3.52V28.72H37.37V22.44c1.14-.36,2.54-1.52,2.54-5,0-4.05-1.93-4.9-3.54-4.9s-3.54.85-3.54,4.9c0,3.51,1.39,4.67,2.54,5v6.28H20.58v6.61h3.51ZM36.37,14.51c.5,0,1.54,0,1.54,2.9,0,1.45-.27,3.18-1.54,3.18s-1.54-1.73-1.54-3.18C34.83,14.51,35.87,14.51,36.37,14.51ZM22.58,30.72H51.16v2.61H22.58Z"/><path class="cls-1" d="M32.89,47.87A3.88,3.88,0,1,0,36.76,44,3.88,3.88,0,0,0,32.89,47.87Zm5.75,0A1.88,1.88,0,1,1,36.76,46,1.88,1.88,0,0,1,38.64,47.87Z"/><path class="cls-1" d="M45.29,45.53a3.88,3.88,0,1,0,3.87-3.87A3.88,3.88,0,0,0,45.29,45.53Zm5.75,0a1.88,1.88,0,1,1-1.88-1.87A1.88,1.88,0,0,1,51,45.53Z"/><path class="cls-1" d="M24.26,49.41a3.88,3.88,0,1,0-3.88-3.88A3.88,3.88,0,0,0,24.26,49.41Zm0-5.75a1.88,1.88,0,1,1-1.88,1.87A1.88,1.88,0,0,1,24.26,43.66Z"/><path class="cls-1" d="M52.27,50.8H46.42a3.9,3.9,0,0,0-3.61,2.45H31.28a3.9,3.9,0,0,0-3.62-2.45l-6.18,0h0a4.92,4.92,0,0,0-4.93,4.93v4.16H57.2V55.73A4.93,4.93,0,0,0,52.27,50.8Zm-6.89,7.08H28.14v-.09a2.53,2.53,0,0,1,2.53-2.53H42.85a2.53,2.53,0,0,1,2.53,2.53ZM18.54,55.71a2.92,2.92,0,0,1,2.93-2.93h0l6.18,0a1.9,1.9,0,0,1,1.49.73,4.53,4.53,0,0,0-3,4.25v.09h-7.6ZM55.2,57.88H47.38v-.1a4.51,4.51,0,0,0-2.57-4.07,1.87,1.87,0,0,1,1.61-.91h5.85a2.93,2.93,0,0,1,2.93,2.93Z"/></svg>