<svg id="Layer_1" data-name="Layer 1" xmlns="http://www.w3.org/2000/svg" viewBox="0 0 72 72"><defs><style>.cls-1{fill:silver;}</style></defs><title>Speech_icon</title><path class="cls-1" d="M53.09,33.42h-16v-8c1.34-.36,3.08-1.66,3.08-5.94,0-4.75-2.22-5.75-4.08-5.75S32,14.71,32,19.46c0,4.28,1.74,5.58,3.09,5.94v8h-16v6.16h3.17V53.19h27.7V39.58h3.16ZM34,19.46c0-3.75,1.41-3.75,2.09-3.75s2.08,0,2.08,3.75c0,1.86-.36,4.08-2.08,4.08S34,21.32,34,19.46ZM47.93,51.19H24.23V39.58h23.7Zm3.16-13.61h-30V35.42h30Z"/></svg>