<svg id="Layer_1" data-name="Layer 1" xmlns="http://www.w3.org/2000/svg" viewBox="0 0 72 72"><defs><style>.cls-1{fill:silver;}</style></defs><title>printer_icon</title><path class="cls-1" d="M49,28.24a3.74,3.74,0,0,0-3.73-3.74H24.66a3.75,3.75,0,0,0-3.74,3.74V42.42h6.77v5.47H42.23V42.42H49ZM40.23,45.89H29.69v-9H40.23ZM47,40.42H42.23V34.91H27.69v5.51H22.92V28.24a1.74,1.74,0,0,1,1.74-1.74H45.27A1.74,1.74,0,0,1,47,28.24Z"/><polygon class="cls-1" points="29.08 21.08 41.12 21.08 41.12 24.5 43.12 24.5 43.12 19.08 27.08 19.08 27.08 24.5 29.08 24.5 29.08 21.08"/></svg>