<svg id="Layer_1" data-name="Layer 1" xmlns="http://www.w3.org/2000/svg" viewBox="0 0 72 72"><defs><style>.cls-1{fill:silver;}</style></defs><title>Profile_lock_icon</title><path class="cls-1" d="M35.64,23.47a7.64,7.64,0,1,0,7.64,7.64A7.65,7.65,0,0,0,35.64,23.47Zm0,13.24a5.6,5.6,0,1,1,5.6-5.6A5.6,5.6,0,0,1,35.64,36.71Z"/><path class="cls-1" d="M60.3,26.84V25.79A5.58,5.58,0,0,0,55,20a5.14,5.14,0,0,0-3.88,1.82A21.55,21.55,0,1,0,33.2,58.05c.75.07,1.49.11,2.23.11A21.56,21.56,0,0,0,56.66,40.05h3.48a2.64,2.64,0,0,0,2.63-2.64V29.66A2.85,2.85,0,0,0,60.3,26.84ZM55,22.05a3.55,3.55,0,0,1,3.3,3.74v1H51.65v-1A3.55,3.55,0,0,1,55,22.05ZM33.41,56a19.38,19.38,0,0,1-10.25-4.24V50.08a6.59,6.59,0,0,1,6.58-6.58h11.8a6.59,6.59,0,0,1,6.58,6.58v1.3A19.45,19.45,0,0,1,33.41,56Zm16.72-6.62a8.64,8.64,0,0,0-8.59-7.93H29.74a8.63,8.63,0,0,0-8.61,8.4A19.49,19.49,0,1,1,50,23.67a6.18,6.18,0,0,0-.38,2.12v1.05a2.85,2.85,0,0,0-2.49,2.82v7.75a2.64,2.64,0,0,0,2.64,2.64H54.6A19.45,19.45,0,0,1,50.13,49.39Zm10.6-12a.6.6,0,0,1-.59.6H49.76a.59.59,0,0,1-.59-.6V29.66a.82.82,0,0,1,.82-.82h9.92a.82.82,0,0,1,.82.82Z"/><path class="cls-1" d="M54.86,31.06A1.59,1.59,0,0,0,54,34v2.25h2V33.75a1.59,1.59,0,0,0-1.15-2.69Z"/></svg>