<svg id="Layer_1" data-name="Layer 1" xmlns="http://www.w3.org/2000/svg" viewBox="0 0 72 72"><defs><style>.cls-1{fill:silver;}</style></defs><title>Profile_v2icon</title><path class="cls-1" d="M40.37,39.85H28.78a8.7,8.7,0,0,0-8.69,8.69v2.09h2.45V48.54a6.26,6.26,0,0,1,6.24-6.25H40.37a6.26,6.26,0,0,1,6.24,6.25v2.09h2.45V48.54A8.7,8.7,0,0,0,40.37,39.85Z"/><path class="cls-1" d="M34.58,37.63a7.73,7.73,0,1,0-7.73-7.72A7.72,7.72,0,0,0,34.58,37.63Zm0-13a5.28,5.28,0,1,1-5.29,5.28A5.29,5.29,0,0,1,34.58,24.63Z"/></svg>