<svg id="Layer_1" data-name="Layer 1" xmlns="http://www.w3.org/2000/svg" viewBox="0 0 72 72"><defs><style>.cls-1{fill:silver;}</style></defs><title>Profile_settings_icon</title><path class="cls-1" d="M47.83,51.86v0A9.13,9.13,0,0,0,38.7,42.7H26.2a9.15,9.15,0,0,0-9.08,8.18A20.67,20.67,0,0,1,44,20.08l1.15-1.83A22.82,22.82,0,0,0,17.07,54v.1h.12A22.8,22.8,0,0,0,55.55,40.69L53.4,40.4A20.46,20.46,0,0,1,47.83,51.86ZM19.24,53v-1.2a7,7,0,0,1,7-7H38.7a7,7,0,0,1,7,7v2A20.55,20.55,0,0,1,19.24,53Z"/><path class="cls-1" d="M24.36,31.74a8.1,8.1,0,1,0,8.09-8.1A8.1,8.1,0,0,0,24.36,31.74Zm14,0a5.93,5.93,0,1,1-5.93-5.93A5.94,5.94,0,0,1,38.38,31.74Z"/><path class="cls-1" d="M53.81,23.67A4.49,4.49,0,0,0,52,31.78a4.46,4.46,0,0,0,2.57.82,5.27,5.27,0,0,0,.79-.07,4.5,4.5,0,0,0-1.56-8.86ZM55,30.39A2.25,2.25,0,0,1,53.25,30a2.33,2.33,0,0,1,.93-4.21A2.33,2.33,0,1,1,55,30.39Z"/><path class="cls-1" d="M64.61,27.17l-1.11-.43a.12.12,0,0,1-.07-.11A9.23,9.23,0,0,0,63,24.81a.11.11,0,0,1,0-.11l.74-.94a1.65,1.65,0,0,0-.06-2.13L62.16,20a1.62,1.62,0,0,0-2-.32l-1,.6s-.08,0,0,0a5.72,5.72,0,0,0-1.64-.73l-.25-.06-.32-1.24A1.65,1.65,0,0,0,55.15,17l-2.2.16a1.63,1.63,0,0,0-1.51,1.41l-.16,1.27a.13.13,0,0,1-.07.09,8.39,8.39,0,0,0-.94.49.13.13,0,0,1-.12,0L49,19.83a1.63,1.63,0,0,0-2.08.41L45.54,22a1.64,1.64,0,0,0,0,2.07l.9,1.06a.14.14,0,0,1,0,.14,4.28,4.28,0,0,0-.15.51,9.09,9.09,0,0,0-.2,1,.1.1,0,0,1-.07.1l-1.32.59a1.62,1.62,0,0,0-1,1.89l.52,2.15a1.64,1.64,0,0,0,1.62,1.25h0l1.49-.06s.08,0,.1.06a10,10,0,0,0,1,1.19.11.11,0,0,1,0,.11l-.37,1.47a1.62,1.62,0,0,0,.91,1.91l2,.91a1.56,1.56,0,0,0,.67.15,1.67,1.67,0,0,0,1.32-.67l.84-1.18a.16.16,0,0,1,.11,0,8.55,8.55,0,0,0,1.6,0,.1.1,0,0,1,.1,0l.89,1.14a1.62,1.62,0,0,0,2.07.46l2-1a1.65,1.65,0,0,0,.82-1.9l-.38-1.26a.13.13,0,0,1,0-.11,14,14,0,0,0,1.18-1.44h1.33a1.64,1.64,0,0,0,1.61-1.35L65.61,29A1.65,1.65,0,0,0,64.61,27.17Zm-1.45,3.18h-.88a2.26,2.26,0,0,0-1.93,1.06,6.38,6.38,0,0,1-.81,1.05A2.27,2.27,0,0,0,59,34.68l.24.83-1.18.62-.64-.81a2.28,2.28,0,0,0-2-.87,6.86,6.86,0,0,1-1.2,0,2.28,2.28,0,0,0-2.05.94l-.59.81-1.22-.55.27-1.06a2.28,2.28,0,0,0-.57-2.14,6.16,6.16,0,0,1-.71-.89,2.29,2.29,0,0,0-2-1l-1,0L46,29.29l.95-.42a2.3,2.3,0,0,0,1.34-1.81,6.53,6.53,0,0,1,.14-.77c0-.13.07-.25.11-.36a2.32,2.32,0,0,0-.41-2.22L47.5,23l.84-1.05.79.43a2.28,2.28,0,0,0,2.26-.06,6.7,6.7,0,0,1,.7-.37,2.29,2.29,0,0,0,1.33-1.79l.11-.82,1.34-.1.24.93a2,2,0,0,0,1.49,1.46l.27.06a3.25,3.25,0,0,1,1.08.5,2.3,2.3,0,0,0,2.26,0l.63-.38.9,1-.49.62a2.33,2.33,0,0,0-.32,2.22A6.5,6.5,0,0,1,61.29,27a2.28,2.28,0,0,0,1.42,1.8l.69.27Z"/></svg>