<svg id="Layer_1" data-name="Layer 1" xmlns="http://www.w3.org/2000/svg" viewBox="0 0 72 72"><defs><style>.cls-1{fill:silver;}</style></defs><title>Profile_icon</title><path class="cls-1" d="M36.61,22.87a6.32,6.32,0,1,0,6.32,6.32A6.33,6.33,0,0,0,36.61,22.87Zm0,10.64a4.32,4.32,0,1,1,4.32-4.32A4.32,4.32,0,0,1,36.61,33.51Z"/><path class="cls-1" d="M36.42,16.11a17.5,17.5,0,1,0,17.5,17.5A17.52,17.52,0,0,0,36.42,16.11Zm-9.66,29.6V44.44a5.11,5.11,0,0,1,5.11-5.11h9.48a5.11,5.11,0,0,1,5.11,5.11v1a15.43,15.43,0,0,1-19.7.31Zm21.62-2.25a7.1,7.1,0,0,0-7-6.13H31.87a7.12,7.12,0,0,0-7.08,6.49,15.49,15.49,0,1,1,23.59-.36Z"/></svg>