<svg id="Layer_1" data-name="Layer 1" xmlns="http://www.w3.org/2000/svg" viewBox="0 0 72 72"><defs><style>.cls-1{fill:silver;}</style></defs><title>Profile_verify_icon</title><path class="cls-1" d="M62.35,23.6a1.09,1.09,0,0,0-1.54,0L58.51,26a8.43,8.43,0,0,0-6.2-2.72c-.25,0-.49,0-.73,0A23,23,0,1,0,16.67,52.74v.11h.12A22.93,22.93,0,0,0,55.32,39.66,8.48,8.48,0,0,0,59.8,27.78l2.57-2.65A1.08,1.08,0,0,0,62.35,23.6ZM18.85,51.79V50.58a7,7,0,0,1,7-7H38.42a7,7,0,0,1,7,7v2a20.65,20.65,0,0,1-26.58-.77Zm28.76-1.17v0a9.19,9.19,0,0,0-9.19-9.18H25.85a9.19,9.19,0,0,0-9.13,8.23A20.79,20.79,0,1,1,49.3,23.84a8.47,8.47,0,0,0,3,16.38c.24,0,.47,0,.7,0A20.75,20.75,0,0,1,47.61,50.62Zm11-18.88A6.33,6.33,0,1,1,57,27.55l-4.44,4.56-1.5-1.56a1.09,1.09,0,0,0-1.57,1.5l2.17,2.25a1.3,1.3,0,0,0,.9.36h.05a1.38,1.38,0,0,0,.91-.41l4.66-4.79A6.21,6.21,0,0,1,58.61,31.74Z"/><path class="cls-1" d="M32.14,22.23a8.14,8.14,0,1,0,8.14,8.14A8.15,8.15,0,0,0,32.14,22.23Zm0,14.11a6,6,0,1,1,6-6A6,6,0,0,1,32.14,36.34Z"/></svg>