<svg id="Layer_1" data-name="Layer 1" xmlns="http://www.w3.org/2000/svg" viewBox="0 0 72 72"><defs><style>.cls-1{fill:silver;}</style></defs><title>projector_icon</title><path class="cls-1" d="M29,38.73H17.28a1,1,0,0,0,0,2H29a1,1,0,0,0,0-2Z"/><path class="cls-1" d="M29,33.22H17.28a1,1,0,0,0,0,2H29a1,1,0,0,0,0-2Z"/><path class="cls-1" d="M40.55,30.49a6.74,6.74,0,1,0,6.73,6.73A6.74,6.74,0,0,0,40.55,30.49Zm0,11.46a4.73,4.73,0,1,1,4.72-4.73A4.72,4.72,0,0,1,40.55,42Z"/><path class="cls-1" d="M54.61,27.89H50.47a10.43,10.43,0,0,1-5.24-1.31,9.79,9.79,0,0,0-9.65,0,10.58,10.58,0,0,1-5.27,1.32H13.48A2.48,2.48,0,0,0,11,30.36V43.67a2.46,2.46,0,0,0,2.13,2.43,1,1,0,0,0-.15.5,1,1,0,0,0,1,1h3.44a1,1,0,0,0,1-1,1,1,0,0,0-.13-.46h12a10.37,10.37,0,0,1,5.25,1.31,9.75,9.75,0,0,0,9.64,0,10.62,10.62,0,0,1,4.94-1.31A1,1,0,0,0,51,47.61h3.44a1,1,0,0,0,1-1,1.06,1.06,0,0,0-.2-.57,2.45,2.45,0,0,0,1.79-2.36V30.35A2.47,2.47,0,0,0,54.61,27.89ZM44.23,45.7a7.79,7.79,0,0,1-7.68,0,12.58,12.58,0,0,0-6.08-1.58h-17a.46.46,0,0,1-.46-.45V30.36a.47.47,0,0,1,.46-.46H30.29a12.36,12.36,0,0,0,6.27-1.58,7.76,7.76,0,0,1,7.68,0,12.4,12.4,0,0,0,6.24,1.57h4.13a.46.46,0,0,1,.45.46V43.67a.45.45,0,0,1-.45.45H50.5A12.54,12.54,0,0,0,44.23,45.7Z"/></svg>