<svg id="Layer_1" data-name="Layer 1" xmlns="http://www.w3.org/2000/svg" viewBox="0 0 72 72"><defs><style>.cls-1{fill:silver;}</style></defs><title>Radio_icon</title><path class="cls-1" d="M38.43,26.17h-1.9V24.55a1,1,0,1,0-2,0v1.62h-2V24.91a1.69,1.69,0,0,0-.59-1.28V12.35a1,1,0,0,0-2,0V23.46a1.68,1.68,0,0,0-.83,1.45v1.26h-.4A3.69,3.69,0,0,0,25,29.86v7.61A4.93,4.93,0,0,0,26.45,41a3,3,0,0,1,.87,2.11v6.7a1.58,1.58,0,0,0,1.58,1.58h9.3a1.58,1.58,0,0,0,1.58-1.58v-6.7A3,3,0,0,1,40.66,41a5,5,0,0,0,1.46-3.53V29.86A3.69,3.69,0,0,0,38.43,26.17Zm1.69,11.3a2.93,2.93,0,0,1-.88,2.11,5,5,0,0,0-1.46,3.53v6.28H29.32V43.11a5,5,0,0,0-1.46-3.53A3,3,0,0,1,27,37.47V29.86a1.68,1.68,0,0,1,1.68-1.69h9.76a1.69,1.69,0,0,1,1.69,1.69Z"/><path class="cls-1" d="M30.2,30.55l-1,0v5.06l0,1h7.7l1,0V31.58l0-1Zm5.74,4.12H31.16V32.55h4.78Z"/><rect class="cls-1" x="31.48" y="41.84" width="4.32" height="2"/><rect class="cls-1" x="31.48" y="45.43" width="4.32" height="2"/></svg>