<svg id="Layer_1" data-name="Layer 1" xmlns="http://www.w3.org/2000/svg" viewBox="0 0 72 72"><defs><style>.cls-1{fill:silver;}</style></defs><title>Careers_icon</title><path class="cls-1" d="M33.45,30.42a3.54,3.54,0,1,0-3.53-3.54A3.55,3.55,0,0,0,33.45,30.42Zm0-5.07a1.54,1.54,0,1,1-1.53,1.53A1.54,1.54,0,0,1,33.45,25.35Z"/><path class="cls-1" d="M42.65,36.08l-1.28-1.34.7-3A19.73,19.73,0,0,0,39.66,18l-4.09-6.9a2.2,2.2,0,0,0-3.8,0L28.29,17a23.37,23.37,0,0,0-2.85,16L26,35,25,36.08a10.9,10.9,0,0,0-3.07,8.27,11.24,11.24,0,0,0,1,3.85l1.37,3a1.48,1.48,0,0,0,.86.69,1.45,1.45,0,0,0,.41.06,1.42,1.42,0,0,0,.69-.18,1.41,1.41,0,0,0,.68-.85l.64-4.06a10.68,10.68,0,0,1,1-2.91l1.46,5.39h1.55a.5.5,0,0,1-.08.07A3.62,3.62,0,0,0,30.31,52c0,1.55,2.09,6.42,2.73,7.88L34,61.93l.92-2.08c.64-1.46,2.73-6.33,2.73-7.88v0a3.64,3.64,0,0,0-1.08-2.57l-.06,0H38L39.2,44a10,10,0,0,1,.9,2.81l.61,3.94,0,.14a1.47,1.47,0,0,0,.69.84,1.37,1.37,0,0,0,.68.17,1.5,1.5,0,0,0,1.31-.81l1.34-2.92a10.93,10.93,0,0,0-2.11-12.11ZM35.61,52A25,25,0,0,1,34,56.88,25,25,0,0,1,32.31,52,1.66,1.66,0,0,1,34,50.31h0a1.63,1.63,0,0,1,1.16.48A1.68,1.68,0,0,1,35.61,52ZM33.49,12.1a.24.24,0,0,1,.29-.07l3.45,5.8H30.12Zm-4.42,7.73h9.3a17.65,17.65,0,0,1,1.75,11.49l-2.79,12h-7L27.39,32.51A21.26,21.26,0,0,1,29.07,19.83ZM25.52,46.52l-.32,2-.54-1.18a9.29,9.29,0,0,1-.78-3.15,8.87,8.87,0,0,1,2.51-6.75l.22-.23,1.1,4A12.36,12.36,0,0,0,25.52,46.52Zm5.35-1.24h6l-.48,2h-5Zm12.85-1.06a9.18,9.18,0,0,1-.78,3.14l-.55,1.2-.31-2a12.44,12.44,0,0,0-2.22-5.3l1-4.15.39.4A8.9,8.9,0,0,1,43.72,44.22Z"/></svg>