<svg id="Layer_1" data-name="Layer 1" xmlns="http://www.w3.org/2000/svg" viewBox="0 0 72 72"><defs><style>.cls-1{fill:silver;}</style></defs><title>Scale_icon</title><path class="cls-1" d="M56.94,42.37,50.28,22.28a1.33,1.33,0,0,0-.84-.84,1.31,1.31,0,0,0-.83,0h-12V16.39h-2v5.07h-12l0,0a1.33,1.33,0,0,0-1.68.84L14.23,42.39a1.75,1.75,0,0,0,.84,2.1,14.71,14.71,0,0,0,6.76,1.65h0a17.14,17.14,0,0,0,7.31-1.66,1.74,1.74,0,0,0,.9-2.11L23.8,23.46H34.58V50.19a11.12,11.12,0,0,0-8,4.31h-1v2H45.08v-2h-.87a11.09,11.09,0,0,0-7.63-4.28V23.46h10.8L41.11,42.39a1.74,1.74,0,0,0,.83,2.1,14.7,14.7,0,0,0,6.75,1.65,17.08,17.08,0,0,0,7.36-1.66A1.74,1.74,0,0,0,56.94,42.37ZM22.15,24.85,26.54,38.1H17.76Zm-.32,19.29a12.76,12.76,0,0,1-5.63-1.32l.9-2.72H27.21l.88,2.68A15.46,15.46,0,0,1,21.83,44.14ZM41.5,54.5H29.25a9.19,9.19,0,0,1,11.25-.79A10.84,10.84,0,0,1,41.5,54.5ZM53.42,38.1H44.64L49,24.86Zm-4.69,6h0a12.75,12.75,0,0,1-5.62-1.32L44,40.1H54.08L55,42.78A15.11,15.11,0,0,1,48.73,44.14Z"/></svg>