<svg id="Layer_1" data-name="Layer 1" xmlns="http://www.w3.org/2000/svg" viewBox="0 0 72 72"><defs><style>.cls-1{fill:silver;}</style></defs><title>share_icon</title><path class="cls-1" d="M25,48.91a11.84,11.84,0,0,1-1.34-.08c-1.09-.11-1.12-.92-1.12-1.08l0-.37c.42-13.1,5.3-20.1,14.5-20.83V18.27l.67-.32a1,1,0,0,1,1.15.26L50.31,30v.89l-.33.34L38.42,43.43l-.7-.26a1.08,1.08,0,0,1-.64-1V36.35c-7.46,0-9.64,8.84-10.14,11.62C26.87,48.36,26.77,48.91,25,48.91ZM25,47.62Zm-.38-.74h.52c1.74-8.4,6.58-13.06,13-12.49l.92.08v5.37L48,30.48l-8.89-9.21v7.2l-1,0C25.67,28.89,24.78,41.81,24.59,46.88Z"/></svg>