<svg id="Layer_1" data-name="Layer 1" xmlns="http://www.w3.org/2000/svg" viewBox="0 0 72 72"><defs><style>.cls-1{fill:silver;}</style></defs><title>Sick_Vacation_icon</title><path class="cls-1" d="M52.69,16.09l.35-2c-7-1.24-10.68.23-12.44,1.42.71-1.47,2.24-3.51,5.57-5.74L45.05,8.14c-5,3.37-6.49,6.52-6.9,8.35-1.86-1.77-5.56-3.88-12.33-3.19l.2,2c4.45-.45,7.33.41,9.15,1.46-2.67,0-6.22.74-10.56,3.38l1,1.71c4-2.42,7.15-3.11,9.48-3.1a17.38,17.38,0,0,0-7.07,6.9l1.7,1.05C32.32,22.55,35,20.83,37,20.13c-1.14,1.63-2.34,4.52-2.34,9.47h2c0-5.21,1.41-7.73,2.37-8.84,3.8,5.93,9.46,23,1.15,30.53A1.25,1.25,0,0,0,41,53.5h6.28a1.26,1.26,0,0,0,1.13-.77c2.24-4.59,8.29-20.39-6.44-33.67,1.55.05,4.24.71,8,3.72l1.25-1.56c-4.13-3.34-7.29-4.11-9.26-4.15C43.37,16.18,46.58,15,52.69,16.09ZM46.77,51.5h-4c6.79-8,2.9-22.46-.86-29.76C53.64,33.5,48.89,47,46.77,51.5ZM40,17.28h0Z"/><path class="cls-1" d="M36.07,34.46a3,3,0,0,0-3,3,2.87,2.87,0,0,0,.19,1l-1.19.91a11.21,11.21,0,1,0,.57,3.52,10.24,10.24,0,0,0-.09-1.36l2-1.54a2.85,2.85,0,0,0,1.5.43,3,3,0,0,0,0-5.94ZM21.45,52.09a9.23,9.23,0,1,1,9-11.41l-6,4.65a5.85,5.85,0,0,0-2.59-.68c-1.41,0-3.46.51-5.38,3.09l1.61,1.19a4.8,4.8,0,0,1,3.72-2.28h0a4.64,4.64,0,0,1,3.58,2.12L27,47.61a7.16,7.16,0,0,0-.91-1.06L30.67,43A9.23,9.23,0,0,1,21.45,52.09ZM36.07,38.4a1,1,0,1,1,1-1A1,1,0,0,1,36.07,38.4Z"/><path class="cls-1" d="M19.17,41.8a1,1,0,0,0,0-2H16.51a1,1,0,0,0,0,2Z"/><path class="cls-1" d="M23.34,41.8H26a1,1,0,0,0,0-2H23.34a1,1,0,0,0,0,2Z"/></svg>