<svg id="Layer_1" data-name="Layer 1" xmlns="http://www.w3.org/2000/svg" viewBox="0 0 72 72"><defs><style>.cls-1{fill:silver;}</style></defs><title>Attractions_icon</title><path class="cls-1" d="M60.66,30.57a5.8,5.8,0,0,0-1.09-3.95l-5.83-8a6.83,6.83,0,0,0-5.28-2.79L43,15.66a6,6,0,0,0-4.33,1.71,18.58,18.58,0,0,1-8.7,4.9l-8.28,2a16.85,16.85,0,0,0-10.41,7.56,4,4,0,0,0,.35,4.72v3.55h2V37.86a4.36,4.36,0,0,0,.89.15v2.82h2V38h.89v2.29h2V38h1l0,2.36-1.11.71v0h-2v1.3l-.54.34v-1.1h-2V44l-.6.38V42.63h-2v5.46h.09a4.41,4.41,0,0,0,.61,2.23,4.53,4.53,0,0,0,3.85,2.18l.43,0L47,49.58a9.67,9.67,0,0,0,6.89-4l4.95-8.23a7.2,7.2,0,0,0,1.58-3.91ZM13,32.9h0a14.9,14.9,0,0,1,9.19-6.67l8.28-2a20.57,20.57,0,0,0,9.64-5.42,3.84,3.84,0,0,1,2.73-1.14h.12l5.48.16a4.78,4.78,0,0,1,3.72,2l5.83,8a3.88,3.88,0,0,1,.72,2.6l-.25,2.9a5.26,5.26,0,0,1-.86,2.41l0,0-.3.5a4.9,4.9,0,0,1-.64.65A5.2,5.2,0,0,1,52.79,38l-.32,0L39.29,36H14.69a2.05,2.05,0,0,1-2-2.05A2.08,2.08,0,0,1,13,32.9Zm12.83,9.29v3.09l-.88.48V43.65h-2v2.93l-.93.1V43.82H20v3.06l-.65.06V45.2h-2v1.94l-1,.1V46.12H15.2l.11-.09,5.25-3.33,1.94,0,0-1.19,1.42-.9v.82h2V39.31l.88-.56v1.6h2V38h1v1.14h2V38h5.68l-6.67,4.51V40.78h-2v2.9l-1,.52v-2Zm14.85-3.93,4.82.72-4.93,3.11a7.59,7.59,0,0,1-2.49.52l-4,.16ZM22.42,38H23.9v.18l-1.46.93Zm29.8,6.48a7.69,7.69,0,0,1-5.42,3.08L17,50.49a2.48,2.48,0,0,1-2.28-1.08l9.37-.93,6.63-3.59,7.4-.28a9.79,9.79,0,0,0,3.24-.69l7-4.39-.1-.14,4,.58.44.05.63,0a6.87,6.87,0,0,0,1.8-.26Z"/><path class="cls-1" d="M34.55,33.49,39.13,33A2,2,0,0,0,41,30.83l-.78-4.71h0a2,2,0,0,0-2.33-1.67l-3.5.91a2.59,2.59,0,0,0-1.52,1.29,2.55,2.55,0,0,0-.17,2Zm0-5.93a.63.63,0,0,1,.31-.28l3.27-.85h0s0,0,0,0l.74,4.6-3.08.3L34.56,28A.61.61,0,0,1,34.59,27.56Z"/><path class="cls-1" d="M46.08,33.87l.12.06a1.25,1.25,0,0,0,.46.09,1.29,1.29,0,0,0,.48-.1,1.23,1.23,0,0,0,.65-.66,1.2,1.2,0,0,0,.09-.59L46.73,21.4a1.22,1.22,0,0,0-1.35-1.08l-.18,0-4.09,2.28,1.39,9.19ZM44.86,22.8l.87,8.56-1.4-.8-1-6.87Z"/><path class="cls-1" d="M49.34,30.85c0,2.09,1.11,3.66,2.58,3.66s2.58-1.57,2.58-3.66c0-1.91-2.13-4.55-3.68-4.55a1.44,1.44,0,0,0-1,.44c-.62.66-.56,1.77-.49,3.06C49.32,30.16,49.34,30.52,49.34,30.85Zm3.16,0a2.11,2.11,0,0,1-.57,1.67c-.15,0-.59-.62-.59-1.67,0-.36,0-.76-.05-1.16s0-.71,0-1.05A3.9,3.9,0,0,1,52.5,30.85Z"/><path class="cls-1" d="M26.68,32.19a1.89,1.89,0,0,0,.7,1.26,1.85,1.85,0,0,0,1.16.41l.23,0,.21,0,1-.23a1.9,1.9,0,0,0,1.41-2.24l-.51-1.89a1.89,1.89,0,0,0-2.09-1.26l-.75.12c-1.23.2-1.57,1.89-1.47,2.7Zm2.8-.58v0h0Zm-.87-1.37.36-.06.4,1.48-.72.17-.12-1A1.41,1.41,0,0,1,28.61,30.24Z"/><path class="cls-1" d="M16.92,34.09l1.68.2h.22a1.83,1.83,0,0,0,1.83-1.63c0-.11,0-.22,0-.33L20.75,30a1.28,1.28,0,0,0-1.23-1.33,1.14,1.14,0,0,0-.79.24l-2.78,2-.14.12a1.79,1.79,0,0,0-.52,1.31,1.82,1.82,0,0,0,.57,1.29A1.86,1.86,0,0,0,16.92,34.09Zm1.78-2.74,0,.93-1.08-.13Z"/></svg>