<?xml version="1.0" encoding="utf-8"?>
<!-- Generator: Adobe Illustrator 24.0.3, SVG Export Plug-In . SVG Version: 6.00 Build 0)  -->
<svg version="1.1" id="Layer_1" xmlns="http://www.w3.org/2000/svg" xmlns:xlink="http://www.w3.org/1999/xlink" x="0px" y="0px"
	 viewBox="0 0 72 72" style="enable-background:new 0 0 72 72;" xml:space="preserve">
<style type="text/css">
	.st0{fill:#C0C0C0;}
</style>
<title>Vending_icon</title>
<path class="st0" d="M30.6,45.9c3.1,0,5.4-1.4,5.4-3.3s-2.3-3.3-5.4-3.3s-5.4,1.4-5.4,3.3S27.5,45.9,30.6,45.9z M30.6,41.2
	c2.1,0,3.4,0.9,3.4,1.3s-1.3,1.3-3.4,1.3s-3.4-0.9-3.4-1.3S28.5,41.2,30.6,41.2z"/>
<path class="st0" d="M57,32.3c-3.8-5.4-11.1-7-16.9-3.8c-0.2-1.4-0.7-2.9-1.3-4.2l-0.1-0.1c-0.5-0.7-0.8-1.2-1.2-1.6
	c-0.8-0.8-1.2-2-1-3.1v-2.7h2v-2h-2v-0.2c0.3-0.4,0.5-0.9,0.4-1.4c0-2-2.7-3.5-6.3-3.5s-6.3,1.5-6.3,3.5c0,0.4,0.1,0.7,0.3,1.1v5.2
	c0.2,1.1-0.2,2.3-1,3.1c-0.3,0.4-0.7,0.9-1.1,1.6l-0.1,0.1c-0.8,1.6-1.3,3.4-1.5,5.3h-0.1c0,0.2,0,0.3,0,0.5c0,0.3,0,0.6,0,1v21.6
	l0,0c0.3,3.1,4.4,5.5,9.7,5.5s9.5-2.5,9.7-5.6h0.1v-1.2c6.3,3.4,14.2,1,17.6-5.4C60.2,41.6,59.8,36.3,57,32.3z M30.6,35.5
	c2.8,0.1,5.5-0.7,7.8-2.3v13.1l0,0c0,1.8-3.2,3.8-7.7,3.8s-7.7-2-7.7-3.8l0,0V33.2C25.2,34.8,27.9,35.6,30.6,35.5z M30.6,17.5
	c-2.3,0-3.7-0.6-3.9-0.9V16c1.3,0.5,2.6,0.8,4,0.8c1.3,0,2.6-0.2,3.8-0.7v0.6l0,0c0,0,0-0.1,0-0.1C34.3,16.9,33,17.5,30.6,17.5
	L30.6,17.5z M26.7,16.7L26.7,16.7z M30.7,11.8c2.6,0,4.3,1,4.3,1.5s-1.7,1.5-4.3,1.5s-4.3-1-4.3-1.5S28.1,11.8,30.7,11.8L30.7,11.8z
	 M24.2,25.3c0.4-0.6,0.7-1,1-1.4c1.1-1.2,1.6-2.8,1.5-4.4v-0.7c1.2,0.4,2.6,0.7,3.9,0.6c1.3,0,2.7-0.2,3.9-0.6v0.7
	c-0.2,1.6,0.4,3.2,1.5,4.4c0.3,0.4,0.6,0.8,1,1.4c0.7,1.4,1.1,3,1.3,4.6c-0.3,1.8-3.3,3.6-7.7,3.6s-7.3-1.8-7.7-3.5
	C23,28.4,23.5,26.8,24.2,25.3z M30.6,56.2c-4.6,0-7.7-2-7.7-3.8l0,0v-2.6c2.3,1.6,5,2.4,7.7,2.3c2.8,0.1,5.5-0.7,7.8-2.3v2.6l0,0
	C38.3,54.2,35.2,56.2,30.6,56.2z M52.8,48.8c-3.7,2.6-8.6,2.7-12.4,0.2v0.1V31c0-0.1,0-0.2,0-0.3c5.3-3,12-1.1,15,4.2
	C57.9,39.6,56.9,45.4,52.8,48.8L52.8,48.8z"/>
<path class="st0" d="M46.1,32.7c-0.9,0-1.6,0.7-1.6,1.6s0.7,1.6,1.6,1.6c0.9,0,1.6-0.7,1.6-1.6c0,0,0,0,0,0
	C47.6,33.4,46.9,32.7,46.1,32.7z"/>
<path class="st0" d="M50.7,39.5c-0.9,0-1.6,0.7-1.6,1.6c0,0.9,0.7,1.6,1.6,1.6c0.9,0,1.6-0.7,1.6-1.6c0,0,0,0,0,0
	C52.3,40.2,51.6,39.5,50.7,39.5z"/>
<path class="st0" d="M46,44.8c-0.9,0-1.6,0.7-1.6,1.6c0,0.9,0.7,1.6,1.6,1.6c0.9,0,1.6-0.7,1.6-1.6c0,0,0,0,0,0
	C47.6,45.5,46.9,44.8,46,44.8z"/>
</svg>
