<svg id="Layer_1" data-name="Layer 1" xmlns="http://www.w3.org/2000/svg" viewBox="0 0 72 72"><defs><style>.cls-1{fill:silver;}</style></defs><title>Snacks_icon</title><path class="cls-1" d="M59,47.58,57.77,44.8l1.36-1.93-1.46-2.44,1.26-1.76v-1L57.82,36.4,59,34.08l0-1.55H42.3V25A9,9,0,0,0,41.76,22L38.3,15.87V13.1a2.22,2.22,0,0,0-2.22-2.21H33.14a2.21,2.21,0,0,0-2.21,2.21v2.39l-3.91,6-.07.13a9,9,0,0,0-.84,3.78v7.14H17.28l0,1.55,1.2,2.32L17.4,37.71v1l1.25,1.76L17.2,42.87l1.36,1.93-1.25,2.78-.07,1.35h8.87v1.28a4.23,4.23,0,0,0,4.22,4.21h7.75a4.22,4.22,0,0,0,4.22-4.21V48.93H59.08Zm-30.9-1.07H40.3V48H28.11Zm0-2V43.06H40.3v1.45Zm0-3.45V34.62H40.3v6.44Zm0-8.44v-6H40.3v6Zm5-19.73h2.94a.21.21,0,0,1,.22.21v1.25H32.93V13.1A.21.21,0,0,1,33.14,12.89Zm-.38,3.46h3.51l3.64,6.37a7.4,7.4,0,0,1,.36,1.92H28.16a6.88,6.88,0,0,1,.58-2.13Zm-13,30.58,1.05-2.36-1.27-1.79L21,40.34l-1.49-2.09,1.35-1.58-1.11-2.14h6.32v12.4Zm18.28,5.49H30.33a2.22,2.22,0,0,1-2.22-2.21V50H40.3v.26A2.21,2.21,0,0,1,38.08,52.42ZM42.3,38.74H47a.31.31,0,0,1,.25.1v4.37a.33.33,0,0,1-.26.1H42.3Zm14.44,4-1.27,1.79,1.06,2.36H42.3V45.31H47a2.17,2.17,0,0,0,2.25-2.09V38.84A2.18,2.18,0,0,0,47,36.74H42.3V34.53H56.53l-1.11,2.14,1.35,1.58-1.48,2.09Z"/><path class="cls-1" d="M51.84,36.56a1,1,0,0,0-1,1V44a1,1,0,0,0,2,0V37.56A1,1,0,0,0,51.84,36.56Z"/><path class="cls-1" d="M23.68,36.65a1,1,0,0,0-1,1v6.48a1,1,0,0,0,2,0V37.65A1,1,0,0,0,23.68,36.65Z"/></svg>