<?xml version="1.0" encoding="utf-8"?>
<!-- Generator: Adobe Illustrator 24.0.3, SVG Export Plug-In . SVG Version: 6.00 Build 0)  -->
<svg version="1.1" id="Layer_1" xmlns="http://www.w3.org/2000/svg" xmlns:xlink="http://www.w3.org/1999/xlink" x="0px" y="0px"
	 viewBox="0 0 72 72" style="enable-background:new 0 0 72 72;" xml:space="preserve">
<style type="text/css">
	.st0{fill:#BABBC3;}
</style>
<title>Athletics_iconMegaphone</title>
<g>
	<path class="st0" d="M40.8,38.8c0.2-0.7-0.2-1.4-0.9-1.7l-3.1-0.9c-3.1-0.9-5.5-3.4-6.1-6.6l-0.5-2.2c-0.1-0.5-0.4-0.8-0.9-1
		c-0.3-0.1-0.7-0.1-1,0.1c-0.3,0.2-0.6,0.4-0.7,0.8l-1.1,3.3c-0.9,2.7-3,4.8-5.6,5.6l-3.1,1c-0.5,0.1-0.8,0.5-0.9,1
		c-0.1,0.3,0,0.7,0.2,1c0.2,0.3,0.5,0.5,0.8,0.6l2,0.4c3.2,0.6,5.8,3,6.7,6.1l1,3.3c0.1,0.5,0.5,0.9,1,0.9c0.1,0,0.2,0,0.2,0
		c0.6,0,1.2-0.5,1.3-1.1l0.4-2.3c0.7-3.6,3.5-6.4,7.1-7l2.1-0.4C40.3,39.7,40.7,39.3,40.8,38.8z M28.7,46.3l-0.2-0.6
		c-1.1-3.7-4-6.5-7.7-7.4l0.7-0.2c3.3-1,5.9-3.6,6.9-6.9l0.3-0.9c0.9,3.8,3.7,6.8,7.5,7.9l0.4,0.1C32.7,39.3,29.6,42.4,28.7,46.3z"
		/>
	<path class="st0" d="M50.9,48.2c-0.1-0.3-0.4-0.5-0.7-0.6l-1.4-0.4c-1.2-0.3-2.1-1.3-2.4-2.5l-0.2-1c-0.1-0.4-0.4-0.7-0.8-0.9
		c-0.6-0.2-1.2,0.1-1.5,0.7l-0.5,1.5c-0.3,1-1.1,1.8-2.2,2.2l-1.4,0.4c-0.4,0.1-0.7,0.5-0.8,0.9c-0.1,0.6,0.3,1.2,0.9,1.3l0.9,0.2
		c1.2,0.2,2.2,1.1,2.6,2.4l0.4,1.5l0,0.1c0.1,0.3,0.4,0.6,0.8,0.6c0.1,0,0.2,0,0.3,0c0.2,0,0.4-0.1,0.6-0.2c0.3-0.2,0.4-0.4,0.5-0.8
		l0.2-1c0.3-1.4,1.3-2.5,2.7-2.7l1-0.2c0.4-0.1,0.8-0.4,0.9-0.8C51,48.8,51,48.5,50.9,48.2z M45,50.8c-0.5-0.9-1.2-1.6-2.1-2.1
		c0.9-0.5,1.6-1.2,2.1-2.1c0.5,0.9,1.2,1.6,2.1,2.1C46.2,49.2,45.5,49.9,45,50.8z"/>
	<path class="st0" d="M32.4,21.4l1.1,0.2c1.6,0.3,2.8,1.4,3.2,3l0.5,1.8l0,0c0.1,0.4,0.5,0.7,0.9,0.8c0.1,0,0.1,0,0.2,0
		c0.6,0,1.1-0.4,1.2-1l0.2-1.2c0.3-1.7,1.7-3.1,3.4-3.4l1.1-0.2c0.4-0.1,0.8-0.4,0.9-0.8c0.2-0.6-0.2-1.3-0.8-1.4l-1.7-0.5
		c-1.5-0.4-2.7-1.7-3-3.2l-0.2-1.2c-0.1-0.4-0.4-0.8-0.8-0.9c-0.6-0.2-1.3,0.2-1.5,0.8l-0.6,1.8c-0.4,1.3-1.4,2.3-2.7,2.7l-1.7,0.5
		c-0.4,0.1-0.7,0.5-0.8,0.9c-0.1,0.3,0,0.6,0.2,0.9C31.9,21.1,32.1,21.3,32.4,21.4z M38.3,17.2c0.6,1.3,1.6,2.3,2.9,2.9
		c-1.3,0.6-2.3,1.6-2.9,2.9c-0.6-1.3-1.6-2.3-2.9-2.9C36.7,19.5,37.7,18.5,38.3,17.2z"/>
</g>
</svg>
