<svg id="Layer_1" data-name="Layer 1" xmlns="http://www.w3.org/2000/svg" viewBox="0 0 72 72"><defs><style>.cls-1{fill:silver;}</style></defs><title>Sound_icon</title><path class="cls-1" d="M36.77,25.74a2.76,2.76,0,0,0-1.85.71l-5.34,4.81H24.81a3.69,3.69,0,0,0-3.68,3.68v4.45a3.67,3.67,0,0,0,3.68,3.67h4.88l5.25,4.68a2.74,2.74,0,0,0,1.83.69h.16a2.76,2.76,0,0,0,2.6-2.75V28.5A2.77,2.77,0,0,0,36.77,25.74Zm.76,19.94a.78.78,0,0,1-.19.5.76.76,0,0,1-.52.25.69.69,0,0,1-.55-.19l-5.82-5.18H24.81a1.67,1.67,0,0,1-1.68-1.67V34.94a1.7,1.7,0,0,1,1.68-1.68h5.54l5.91-5.32h0a.74.74,0,0,1,.51-.2.76.76,0,0,1,.76.76Z"/><path class="cls-1" d="M48.39,31a8.31,8.31,0,0,0-5.91-2.45h0v2h0a6.38,6.38,0,0,1,0,12.75v2A8.37,8.37,0,0,0,48.39,31Z"/><path class="cls-1" d="M42.7,38.21v2a3.28,3.28,0,0,0,0-6.55v2a1.28,1.28,0,0,1,0,2.55Z"/></svg>