<?xml version="1.0" encoding="utf-8"?>
<!-- Generator: Adobe Illustrator 24.0.3, SVG Export Plug-In . SVG Version: 6.00 Build 0)  -->
<svg version="1.1" id="Layer_1" xmlns="http://www.w3.org/2000/svg" xmlns:xlink="http://www.w3.org/1999/xlink" x="0px" y="0px"
	 viewBox="0 0 72 72" style="enable-background:new 0 0 72 72;" xml:space="preserve">
<style type="text/css">
	.st0{fill:#C0C0C0;}
</style>
<title>Sound_icon</title>
<path class="st0" d="M40.7,25.7c-0.7,0-1.3,0.3-1.8,0.7l-5.3,4.8h-4.8c-2,0-3.7,1.6-3.7,3.7v4.5c0,2,1.6,3.7,3.7,3.7c0,0,0,0,0,0
	h4.9l5.2,4.7c0.5,0.4,1.2,0.7,1.8,0.7h0.2c1.5-0.1,2.6-1.3,2.6-2.8V28.5C43.5,27,42.2,25.7,40.7,25.7z M41.5,45.7
	c0,0.2-0.1,0.4-0.2,0.5c-0.1,0.1-0.3,0.2-0.5,0.2c-0.2,0-0.4,0-0.5-0.2l-5.8-5.2h-5.6c-0.9,0-1.7-0.7-1.7-1.7c0,0,0,0,0,0v-4.5
	c0-0.9,0.8-1.7,1.7-1.7h5.5l5.9-5.3l0,0c0.1-0.1,0.3-0.2,0.5-0.2c0.4,0,0.8,0.3,0.8,0.8L41.5,45.7z"/>
</svg>
