<svg id="Layer_1" data-name="Layer 1" xmlns="http://www.w3.org/2000/svg" viewBox="0 0 72 72"><defs><style>.cls-1{fill:silver;}</style></defs><title>Spotlight_icon</title><path class="cls-1" d="M47.34,17.73a1.44,1.44,0,0,0-1.61.43L18.39,51l.12.1a2.56,2.56,0,0,0-.32,1.2c0,3.6,7.8,5.24,15.05,5.24S48,56,48.26,52.47h0V19.08A1.43,1.43,0,0,0,47.34,17.73ZM46.1,21.14V49.41c-2.83-1.59-8-2.35-12.86-2.35a39.22,39.22,0,0,0-9.65,1.11ZM33.24,55.36c-8.49,0-12.86-2.14-12.86-3.06s4.37-3,12.86-3,12.86,2.14,12.86,3S41.72,55.36,33.24,55.36Z"/></svg>