<?xml version="1.0" encoding="utf-8"?>
<!-- Generator: Adobe Illustrator 24.0.3, SVG Export Plug-In . SVG Version: 6.00 Build 0)  -->
<svg version="1.1" id="Layer_1" xmlns="http://www.w3.org/2000/svg" xmlns:xlink="http://www.w3.org/1999/xlink" x="0px" y="0px"
	 viewBox="0 0 72 72" style="enable-background:new 0 0 72 72;" xml:space="preserve">
<style type="text/css">
	.st0{fill:#BABBC3;}
</style>
<title>Athletics_iconMegaphone</title>
<g>
	<path class="st0" d="M24.1,35.4l1,1.2l3.2-2.2l2.3,1.6l0.5,0.3l1.4-0.5l-1.1-3.7l2.3-1.8l0.4-0.3l0-0.4l0-1.1l-3.9-0.1l-1.1-3.2
		l-1.5-0.4l-1.3,3.6l-2.9,0.1l-0.5,0l-1,1.2l3.1,2.4L24.1,35.4z M27,30.4l0.7-0.1l0.5-1.4l0.5,1.4l1.5,0l-1.2,1l0.4,1.4L28.2,32
		L27,32.8l0.4-1.5l-1.2-0.9L27,30.4z"/>
	<path class="st0" d="M47.1,28.5l-3.3-0.1l-1.1-3.2l-1.5-0.4l-1.3,3.6l-3.4,0.1L36,29.2l0.1,0.9l2.6,2l-1,3.2l0.6,0.8l0.9,0.1
		l2.7-1.9l2.8,1.9l1.5-0.5L45,32.1l2.3-1.7l0.4-0.3l0-0.9L47.1,28.5z M43.2,31l-0.5,0.5l0.4,1.4L41.8,32l-1.2,0.9l0.4-1.5l-1.2-0.9
		l1.5,0l0.5-1.4l0.5,1.4l1.5,0L43.2,31z"/>
	<path class="st0" d="M35.1,16.9c-10.2,0-18.6,8.3-18.6,18.6s8.3,18.6,18.6,18.6s18.6-8.3,18.6-18.6S45.3,16.9,35.1,16.9z
		 M35.1,52.1c-9.1,0-16.6-7.4-16.6-16.6s7.4-16.6,16.6-16.6s16.6,7.4,16.6,16.6S44.2,52.1,35.1,52.1z"/>
	<path class="st0" d="M23.4,40.3C25,45.5,29.8,49,35.1,49c1.1,0,2.3-0.2,3.4-0.5c4-1.2,7.1-4.2,8.2-8.2l0.4-1.3H23L23.4,40.3z
		 M44.3,41c-1.2,2.7-3.5,4.7-6.4,5.6C33,48,27.8,45.5,25.8,41H44.3z"/>
</g>
</svg>
