<svg id="Layer_1" data-name="Layer 1" xmlns="http://www.w3.org/2000/svg" viewBox="0 0 72 72"><defs><style>.cls-1{fill:silver;}</style></defs><title>star_icon</title><path class="cls-1" d="M43.75,52.2a1.19,1.19,0,0,1-.68-.21l-8.34-5.81L26.39,52a1.2,1.2,0,0,1-1.83-1.34l2.94-9.72-8.1-6.14a1.2,1.2,0,0,1,.7-2.15l10.16-.21,3.34-9.59a1.19,1.19,0,0,1,2.26,0l3.34,9.59,10.15.21a1.22,1.22,0,0,1,1.12.83,1.2,1.2,0,0,1-.42,1.33L42,40.93l2.94,9.73A1.19,1.19,0,0,1,44.46,52,1.16,1.16,0,0,1,43.75,52.2Zm-.85-.94Zm-16.34,0ZM22.7,34.68l6.55,5a1.2,1.2,0,0,1,.43,1.3L27.3,48.81,34,44.12a1.19,1.19,0,0,1,1.37,0l6.75,4.69L39.78,41a1.21,1.21,0,0,1,.43-1.31l6.54-5-8.21-.17a1.2,1.2,0,0,1-1.11-.8l-2.7-7.77L32,33.7a1.2,1.2,0,0,1-1.11.81ZM35.24,45.83h0ZM28,41.31Zm13.48,0h0Zm7.32-8.17h0Zm-28.13,0h0Zm10.22-.71h0Zm7.69,0h0Zm-3-8.9Z"/></svg>