<svg id="Layer_1" data-name="Layer 1" xmlns="http://www.w3.org/2000/svg" viewBox="0 0 72 72"><defs><style>.cls-1{fill:silver;}</style></defs><title>Student_icon</title><rect class="cls-1" x="32.71" y="29.01" width="7.08" height="2"/><rect class="cls-1" x="32.71" y="34.44" width="9.36" height="2"/><rect class="cls-1" x="32.71" y="39.88" width="9.36" height="2"/><path class="cls-1" d="M55.2,28.69H52.5a1,1,0,0,0,0,2h.13l-1.77,2.87L49,30.69h.22a1,1,0,0,0,0-2H46a1,1,0,0,0,0,2h.66l3.21,5,.1.11L50,40.22h-.44a1,1,0,0,0,0,2h2.59a1,1,0,1,0,0-2H52l-.09-4.56,3-4.82c0-.05,0-.1.06-.15h.25a1,1,0,0,0,0-2Z"/><path class="cls-1" d="M24.3,37.73H19.21A4.28,4.28,0,0,0,14.93,42v.91h2V42a2.28,2.28,0,0,1,2.28-2.28H24.3A2.28,2.28,0,0,1,26.58,42v.91h2V42A4.28,4.28,0,0,0,24.3,37.73Z"/><path class="cls-1" d="M21.76,35.88A3.86,3.86,0,1,0,17.9,32,3.86,3.86,0,0,0,21.76,35.88Zm0-5.71A1.86,1.86,0,1,1,19.9,32,1.85,1.85,0,0,1,21.76,30.17Z"/><path class="cls-1" d="M60.62,20.14H10.81A2.87,2.87,0,0,0,7.94,23V48.57a2.87,2.87,0,0,0,2.87,2.86H60.62a2.87,2.87,0,0,0,2.87-2.86V23A2.87,2.87,0,0,0,60.62,20.14Zm.87,28.43a.86.86,0,0,1-.87.86H10.81a.86.86,0,0,1-.87-.86V23a.86.86,0,0,1,.87-.86H60.62a.86.86,0,0,1,.87.86Z"/></svg>