<svg id="Layer_1" data-name="Layer 1" xmlns="http://www.w3.org/2000/svg" viewBox="0 0 72 72"><defs><style>.cls-1{fill:silver;}</style></defs><title>suitcase_time_icon</title><path class="cls-1" d="M53.67,49.09l-1.54-.78h0l0-3.25a1,1,0,0,0-1-1h0a1,1,0,0,0-1,1l0,3.26A2.13,2.13,0,0,0,50.86,50l1.88,1a1.11,1.11,0,0,0,.46.11,1.05,1.05,0,0,0,.93-.57A1,1,0,0,0,53.67,49.09Z"/><path class="cls-1" d="M51.1,41.13a7.57,7.57,0,1,0,7.56,7.57A7.58,7.58,0,0,0,51.1,41.13Zm0,13.07a5.51,5.51,0,1,1,5.5-5.5A5.51,5.51,0,0,1,51.1,54.2Z"/><path class="cls-1" d="M17.23,24.6l35.71,0v14H55V23.77a1.2,1.2,0,0,0-1.2-1.2H43.59v-2.2a2.74,2.74,0,0,0-2.74-2.74H29.92a2.74,2.74,0,0,0-2.74,2.74v2.19H16.37a1.21,1.21,0,0,0-1.2,1.21c0,.58,0,10.23,0,26.48v.34a1.31,1.31,0,0,0,1.31,1.31H40.31V49.82h-23C17.26,41.35,17.24,28.13,17.23,24.6Zm12-4.24a.69.69,0,0,1,.68-.68H40.85a.69.69,0,0,1,.68.68v2.2H29.24Z"/></svg>