<svg id="Layer_1" data-name="Layer 1" xmlns="http://www.w3.org/2000/svg" viewBox="0 0 72 72"><defs><style>.cls-1{fill:silver;}</style></defs><title>suitcase_icon</title><path class="cls-1" d="M58,25.39a1.32,1.32,0,0,0-1.32-1.32H45.46V21.65a3,3,0,0,0-3-3h-12a3,3,0,0,0-3,3v2.4H15.6a1.32,1.32,0,0,0-1.32,1.33c0,.52,0,4.64,0,8.87a10.86,10.86,0,0,0,1.9,6.1V54.48A1.76,1.76,0,0,0,18,56.23H54.89a1.75,1.75,0,0,0,1.75-1.75V39.42A10.83,10.83,0,0,0,58,34.2ZM29.72,21.65a.75.75,0,0,1,.75-.75h12a.76.76,0,0,1,.75.75v2.41H29.72Zm26,4.67V34.2a8.65,8.65,0,0,1-7.45,8.55v-.7a1.81,1.81,0,0,0-1.8-1.8H43a1.8,1.8,0,0,0-1.79,1.8v1H32.3v-1a1.81,1.81,0,0,0-1.8-1.8H27a1.8,1.8,0,0,0-1.79,1.8v.79a8.65,8.65,0,0,1-8.62-8.61c0-3.22,0-6.38,0-7.93ZM46,42.51v2.08a1.29,1.29,0,0,1-2.58,0V42.51Zm-16,0v2.08a1.29,1.29,0,0,1-2.58,0V42.51ZM18.48,54V42.75a10.84,10.84,0,0,0,6.74,2.35h0a3.55,3.55,0,0,0,7,.22h9a3.55,3.55,0,0,0,7-.28,10.83,10.83,0,0,0,6.14-2.77V54Z"/></svg>