<svg id="Layer_1" data-name="Layer 1" xmlns="http://www.w3.org/2000/svg" viewBox="0 0 72 72"><defs><style>.cls-1{fill:silver;}</style></defs><title>suitcase_verify_icon</title><path class="cls-1" d="M60.58,40.93a1,1,0,0,0-1.49,0l-2.22,2.28a8.18,8.18,0,1,0,2.19,5.56,8.07,8.07,0,0,0-1-3.82l2.49-2.56A1.05,1.05,0,0,0,60.58,40.93ZM57,48.79a6.11,6.11,0,1,1-1.56-4l-4.28,4.41-1.45-1.51a1.06,1.06,0,0,0-1.49,0,1,1,0,0,0,0,1.48l2.09,2.17a1.31,1.31,0,0,0,.88.35,1.22,1.22,0,0,0,.92-.4l4.5-4.63A6,6,0,0,1,57,48.79Z"/><path class="cls-1" d="M15.84,49.86c0-14.2,0-22.71,0-25.39l36.44,0V37h2.1V23.62a1.23,1.23,0,0,0-1.23-1.23H42.71V20.15a2.81,2.81,0,0,0-2.8-2.8H28.76A2.79,2.79,0,0,0,26,20.15v2.23h-11a1.24,1.24,0,0,0-.87.36,1.21,1.21,0,0,0-.35.87c0,.59,0,9.42,0,26.27V51a1.35,1.35,0,0,0,1.35,1.34H39.37v-2.1H15.84ZM28.07,20.15a.69.69,0,0,1,.69-.7H39.91a.69.69,0,0,1,.69.7v2.24H28.07Z"/></svg>