<svg id="Layer_1" data-name="Layer 1" xmlns="http://www.w3.org/2000/svg" viewBox="0 0 72 72"><defs><style>.cls-1{fill:silver;}</style></defs><title>Goalsetting_icon </title><path class="cls-1" d="M61.51,17a1.19,1.19,0,0,0-.68-.63l-2.55-1L60,14.17a1,1,0,0,0,.26-1.39,1,1,0,0,0-1.39-.25l-1.7,1.17.11-2.1a1.27,1.27,0,0,0-.25-.88,1.22,1.22,0,0,0-.82-.46,1.15,1.15,0,0,0-.87.22L49.4,14.61l-.77,4.62a1,1,0,0,0,0,.35l-1.44,1A19.37,19.37,0,1,0,16.72,44.49a.91.91,0,0,0-.08.13L12.26,55.73A1,1,0,0,0,12.83,57a.92.92,0,0,0,.36.07,1,1,0,0,0,.93-.63l1.8-4.56H47.18L49,56.46a1,1,0,0,0,.93.63,1,1,0,0,0,.37-.07,1,1,0,0,0,.56-1.29L46.61,45a19.3,19.3,0,0,0,1.73-22.77l2.09-1.45L54.14,22l6.76-3.34A1.23,1.23,0,0,0,61.51,17ZM18.18,46.15a19.86,19.86,0,0,0,5.34,3.75H16.71Zm22,3.75a19.15,19.15,0,0,0,4.86-3.33l1.31,3.33Zm9-17.48a17.45,17.45,0,1,1-3.71-10.7l-3.39,2.35a13.45,13.45,0,1,0,1.13,1.64l3.4-2.35A17.27,17.27,0,0,1,49.26,32.42Zm-18.59.81a1,1,0,0,0,1.39.25l4.18-2.89a4.64,4.64,0,0,1,.37,1.83,4.74,4.74,0,1,1-4.74-4.74A4.68,4.68,0,0,1,35.08,29l-4.16,2.88A1,1,0,0,0,30.67,33.23Zm1.2-7.55a6.75,6.75,0,1,0,6,3.76l3.73-2.59a11.12,11.12,0,0,1,1.49,5.57,11.28,11.28,0,1,1-2.62-7.21L36.76,27.8A6.71,6.71,0,0,0,31.87,25.68ZM55.17,13l-.11,2.13-4.21,2.91.38-2.28ZM54,19.81l-1.47-.47,3.8-2.63,2.19.88Z"/></svg>