<svg id="Layer_1" data-name="Layer 1" xmlns="http://www.w3.org/2000/svg" viewBox="0 0 72 72"><defs><style>.cls-1{fill:silver;}</style></defs><title>Tax_icon </title><path class="cls-1" d="M58.39,26.22a5.88,5.88,0,0,0-.52-1.53A8.38,8.38,0,0,0,53,20.51l-10-3.45-4.32,2.87L42,26.16h0l2.31,4.41a2.52,2.52,0,0,1,.08,2l-2.23,6.06h0L37.86,23.51a1.88,1.88,0,0,0-1.8-1.36H34c-2.88,0-4.36,1.39-4.56,4.21l-1.05,0a4.56,4.56,0,0,0-4.31,3.22,3.13,3.13,0,0,0-.13.83L24,33h2V31.24l3.44,0v7.11H24.86a1.17,1.17,0,0,0-1.41.77L19.61,50.68a1.42,1.42,0,0,0,.69,1.72,8.94,8.94,0,0,0,4.08,1,9.94,9.94,0,0,0,4.43-1,1.43,1.43,0,0,0,.73-1.73L26.11,40.32h3.27v2.12h2V40.32h3.21L31.15,50.68a1.43,1.43,0,0,0,.69,1.72,9,9,0,0,0,4.09,1,10,10,0,0,0,4.42-1,1.44,1.44,0,0,0,.74-1.73L37.25,39.1a1.19,1.19,0,0,0-.76-.77,1.22,1.22,0,0,0-.63,0H31.38V31.19l3.1,0-.15-4.93-2.92.08c.13-1.63.81-2.16,2.57-2.16h2l4.7,16.53,2.92-.12,2.7-7.31A4.58,4.58,0,0,0,46.23,30c2.73-1.1,4.2-5.43,4.38-6l-1.9-.61c-.48,1.5-1.85,4.33-3.38,4.81l-1.26-2.41a9.09,9.09,0,0,0,2.46-3.37l-1.83-.81A8.42,8.42,0,0,1,43.13,24l-1.79-3.43,2-1.32,9,3.13a6.41,6.41,0,0,1,3.72,3.19,4.26,4.26,0,0,1,.35,1c.84,4.76-.2,16.58-3.68,23.54l1.79.89C58.25,43.59,59.31,31.38,58.39,26.22ZM24.4,51.4h0a6.92,6.92,0,0,1-2.73-.57l2.92-8.78,2.9,8.75A8.36,8.36,0,0,1,24.4,51.4ZM39,50.8a8.27,8.27,0,0,1-3.07.6h0a7,7,0,0,1-2.72-.56l2.91-8.79Zm-6.6-21.62-5.91.05a2.6,2.6,0,0,1,1.9-.85l4-.1Z"/><path class="cls-1" d="M20.66,35.06l-1.92-.55c-.56,2-1.88,4.73-3.11,5A46.35,46.35,0,0,1,16,33.3c3-.3,5.47-5.16,5.77-5.78L20,26.65c-.81,1.68-2.34,3.88-3.61,4.5.68-3.23,1.88-5.84,3.89-7l.07.07.11-.17a4.45,4.45,0,0,1,.88-.34c3.87-1,8-6.27,8.16-6.5L27.9,16c-1,1.33-4.19,4.83-6.81,5.7a9.94,9.94,0,0,1,.89-4L20.15,17c-.3.69-1.42,3.45-1,5.51a7.87,7.87,0,0,0-2.84,2.91c-.72-.62-1-2.94-1-4.54l-2-.09c0,.92-.1,5.17,2.06,6.44a22.51,22.51,0,0,0-1.34,5.15,9.81,9.81,0,0,1-1.85-3.73l-1.93.53c.23.84,1.35,4.48,3.51,5.36-.1,1.07-.17,2.2-.2,3.4a76.67,76.67,0,0,0,.27,8.34c-1.76-1.13-3.13-5.12-3.58-7.23l-2,.42c.19.89,1.87,8.22,5.76,9.05.18,1.68.35,2.76.37,2.86l2-.31a76.4,76.4,0,0,1-.83-9.56C18.7,41.26,20.35,36.14,20.66,35.06Z"/><path class="cls-1" d="M53.79,26.25,52,27.07c1,2.19,1.19,13.57-5.55,24l1.68,1.08C55.29,41,55.09,29.11,53.79,26.25Z"/><path class="cls-1" d="M50.45,30.34l-1.92.58c.89,2.94-2.25,12-4.87,15.35l1.57,1.24C48,44,51.62,34.21,50.45,30.34Z"/></svg>