<svg id="Layer_1" data-name="Layer 1" xmlns="http://www.w3.org/2000/svg" viewBox="0 0 72 72"><defs><style>.cls-1{fill:silver;}</style></defs><title>teacher_icon</title><polygon class="cls-1" points="55.84 43.91 55.84 14.6 23.25 14.6 23.25 19.46 25.4 19.46 25.4 16.75 53.69 16.75 53.69 43.91 30.61 43.91 30.61 46.06 58.54 46.06 58.54 43.91 55.84 43.91"/><rect class="cls-1" x="41.08" y="39.57" width="8.32" height="2.15"/><path class="cls-1" d="M21,30a4.65,4.65,0,1,0-4.65-4.65A4.65,4.65,0,0,0,21,30Zm0-7.14a2.5,2.5,0,1,1-2.49,2.49A2.5,2.5,0,0,1,21,22.89Z"/><path class="cls-1" d="M36.85,31.05l8.41-7-1.38-1.65-7.83,6.55-.18.06c-.06,0-5.72,1.9-9.21,1.9-3.7,0-8.56.31-8.54.31a5.69,5.69,0,0,0-5.68,5.68V47.55A2.45,2.45,0,0,0,14.89,50h1.39v8.1a2.46,2.46,0,0,0,2.46,2.45h5.07a2.45,2.45,0,0,0,2.46-2.44s.1-12.77.11-19.35a.1.1,0,0,1,.09-.11A14.13,14.13,0,0,0,36.85,31.05ZM26.17,36.52a2.26,2.26,0,0,0-2,2.23c0,6.58-.11,19.34-.11,19.35a.3.3,0,0,1-.3.3H18.74a.3.3,0,0,1-.3-.3V49.2a1.36,1.36,0,0,0-1.36-1.35H14.89a.3.3,0,0,1-.3-.3V36.86a3.55,3.55,0,0,1,3.6-3.53S23,33,26.66,33a30.73,30.73,0,0,0,7.16-1.2A11.65,11.65,0,0,1,26.17,36.52Z"/></svg>