<svg id="Layer_1" data-name="Layer 1" xmlns="http://www.w3.org/2000/svg" viewBox="0 0 72 72"><defs><style>.cls-1{fill:silver;}</style></defs><title>Temple_icon</title><path class="cls-1" d="M55.55,43.79c0-2.7-8.45-3.55-14.77-3.82v-1.9h.4v-2H38.39V29h.72V27H36.4V19.57h.7v-2h-.7v-.44a1.48,1.48,0,0,0-.06-2.25V12.43L39,10.67,37.86,9l-1.41.92a1.16,1.16,0,1,0-1.76,1.38,2,2,0,0,0-.35,1.13V15A1.49,1.49,0,0,0,33.9,16a1.45,1.45,0,0,0,.5,1.1v.44h-.56v2h.56V27H31.77v2h.63v7.06H29.58v2H30V40c-6.33.26-14.86,1.11-14.86,3.83v9.74a1.14,1.14,0,0,0,.48.93,1.12,1.12,0,0,0,1,.16L19,53.86V55.1a1.38,1.38,0,0,0,1.38,1.39h28a1.38,1.38,0,0,0,1.38-1.39V53.44l.3.07,4.1,1.15a1.76,1.76,0,0,0,.31,0,1.12,1.12,0,0,0,.7-.24,1.16,1.16,0,0,0,.46-.92ZM19.83,51.54c-.4.11-.8.21-1.19.34l-1.49.49V44a7.45,7.45,0,0,1,2.68-.9ZM43.1,42.12c.79.05,1.55.11,2.26.18v8.49c-.27,0-.52,0-.79,0H43.1Zm-4.25-.21q1.15,0,2.25.09v8.76H38.85ZM34.4,29h2v7.06h-2ZM32,38.07h6.77V39.9c-1.38,0-2.58,0-3.43,0s-2,0-3.34,0Zm4.84,3.8v8.89H34.59V41.87h2.26ZM30.34,42l2.25-.07v8.87H30.34Zm-4.26.27c.72-.06,1.46-.12,2.26-.16v8.69H26.08Zm-4.25.5q1-.16,2.25-.3v8.39c-.76.06-1.51.15-2.25.28ZM47.77,54.49H21V53.3a19.83,19.83,0,0,1,4.61-.54H44.57a20.12,20.12,0,0,1,3.2.26Zm1.84-3.15c-.75-.17-1.5-.3-2.25-.4V42.52q1.23.15,2.25.33Zm2,.53V43.26a5.48,5.48,0,0,1,1.94.73l.08,8.44Z"/></svg>