<?xml version="1.0" encoding="utf-8"?>
<!-- Generator: Adobe Illustrator 24.0.3, SVG Export Plug-In . SVG Version: 6.00 Build 0)  -->
<svg version="1.1" id="Layer_1" xmlns="http://www.w3.org/2000/svg" xmlns:xlink="http://www.w3.org/1999/xlink" x="0px" y="0px"
	 viewBox="0 0 72 72" style="enable-background:new 0 0 72 72;" xml:space="preserve">
<style type="text/css">
	.st0{fill:#C0C0C0;}
</style>
<title>Join CougarClub_v2</title>
<path class="st0" d="M52,27.7h1.1c0.6,0,1-0.4,1-1s-0.4-1-1-1H52c-0.6,0-1,0.4-1,1S51.4,27.7,52,27.7z"/>
<path class="st0" d="M52,31.9h1.1c0.6,0,1-0.4,1-1s-0.4-1-1-1H52c-0.6,0-1,0.4-1,1S51.4,31.9,52,31.9z"/>
<path class="st0" d="M52,36h1.1c0.6,0,1-0.4,1-1s-0.4-1-1-1H52c-0.6,0-1,0.4-1,1S51.4,36,52,36z"/>
<path class="st0" d="M52,40.2h1.1c0.6,0,1-0.4,1-1s-0.4-1-1-1H52c-0.6,0-1,0.4-1,1S51.4,40.2,52,40.2z"/>
<path class="st0" d="M33.7,38c-0.1,0.4,0,0.9,0.4,1.2c0,0,0.6,0.4,1.3,0s2.8-1.9,2.8-1.9l2.9,2c0.4,0.2,1,0.2,1.2,0s0.6-0.5,0.4-1.1
	s-1-3.4-1-3.4l2.7-2.1c0.4-0.3,0.5-0.7,0.4-1.2c0,0-0.2-0.7-1-0.7s-3.5-0.1-3.5-0.1l-1.1-3.3l0,0c-0.1-0.4-0.4-0.7-1-0.7
	c-0.9,0-1.1,0.9-1.1,0.9l-1.1,3l-3.5,0.1c-0.5,0-0.9,0.3-1,0.7c0,0-0.3,0.6,0.4,1.1s2.8,2.1,2.8,2.1L33.7,38z M37.4,32.6l0.7-2
	l0.5,1.3l0.3,0.7H41l-1.7,1.3l0.6,2l-1.8-1.2L36.4,36l0.6-2.1l-1.7-1.3L37.4,32.6z"/>
<path class="st0" d="M60,31.7c0.7-0.3,1.1-0.9,1.1-1.7v-5.7c0-1-0.8-1.8-1.8-1.8H23c-1,0-1.8,0.8-1.8,1.8v2.4h-3.3
	c-1,0-1.8,0.8-1.8,1.8v5.8c0,0.7,0.4,1.4,1.1,1.7c0.8,0.4,1.2,1.3,0.9,2.1c-0.2,0.4-0.5,0.7-0.9,0.9c-0.7,0.3-1.1,0.9-1.1,1.7v5.2
	c0,1,0.8,1.8,1.8,1.8l0,0h36.2c1,0,1.8-0.8,1.8-1.8c0,0,0,0,0-0.1v-2.4h3.3c1,0,1.8-0.8,1.8-1.8v-5.2c0-0.7-0.4-1.4-1.1-1.7
	c-0.8-0.4-1.2-1.3-0.8-2.2C59.3,32.2,59.6,31.9,60,31.7L60,31.7z M54,45.6H18.1v-4.9c1.8-0.9,2.6-3,1.7-4.8c-0.4-0.8-1-1.4-1.7-1.7
	v-5.5h3.1V30c0,0.7,0.4,1.4,1.1,1.7c0.8,0.4,1.2,1.3,0.9,2.1c-0.2,0.4-0.5,0.7-0.9,0.9c-0.7,0.3-1.1,0.9-1.1,1.7v5.2
	c0,1,0.8,1.8,1.8,1.8h31V45.6z M59.1,29.9c-1.8,0.8-2.7,3-1.8,4.8c0.4,0.8,1,1.5,1.8,1.8v4.9H23.2v-4.9c1.8-0.9,2.6-3,1.7-4.8
	c-0.4-0.8-1-1.4-1.7-1.7v-5.5h35.9C59.1,24.5,59.1,29.9,59.1,29.9z"/>
</svg>
