<svg id="Layer_1" data-name="Layer 1" xmlns="http://www.w3.org/2000/svg" viewBox="0 0 72 72"><defs><style>.cls-1{fill:silver;}</style></defs><title>Faith_icon</title><path class="cls-1" d="M50.29,24.91h0a7.1,7.1,0,0,0-4.71,1.79,15,15,0,0,0-13.26-8c-.17,0-.33,0-.5,0v-.09H28.24a15.07,15.07,0,0,0,0,30.13h4.68v0a15,15,0,0,0,10.27-4.66v4.73H57.38V32A7.1,7.1,0,0,0,50.29,24.91ZM15.18,33.73a13.08,13.08,0,0,1,8.42-12.2,15,15,0,0,0-.16,24.34A13.08,13.08,0,0,1,15.18,33.73ZM32.31,46.8a13,13,0,1,1,13-13A13.05,13.05,0,0,1,32.31,46.8Zm15-13a15,15,0,0,0-.9-5.09,5.07,5.07,0,0,1,3.84-1.76h0a4.59,4.59,0,0,1,1,.1,4.87,4.87,0,0,1,.41,1.92V43.29H45.19V41.48A14.9,14.9,0,0,0,47.34,33.76Zm8,13.08H45.19V45.29h8.49V28.93a6.27,6.27,0,0,0,0-.74A5.09,5.09,0,0,1,55.38,32Z"/></svg>