<svg id="Layer_1" data-name="Layer 1" xmlns="http://www.w3.org/2000/svg" viewBox="0 0 72 72"><defs><style>.cls-1{fill:silver;}</style></defs><title>translate_icon</title><path class="cls-1" d="M54.64,27.79H36.11a4.61,4.61,0,0,0-4.6,4.61v4.16a12.7,12.7,0,0,1-5.09-3.41,24.9,24.9,0,0,0,3.21-7.9h4V23.07H27.16V20.2H25v2.87H17.87v2.18h9.52a23.53,23.53,0,0,1-2.46,6.11,19.75,19.75,0,0,1-2.09-3.64l-2,.79a20.42,20.42,0,0,0,2.79,4.75,10,10,0,0,1-7,4l.19,2.17A12,12,0,0,0,25.09,35a14.45,14.45,0,0,0,6.42,3.88v4.53H15.74a2.66,2.66,0,0,1-2.66-2.66V19.22a2.66,2.66,0,0,1,2.66-2.66h20a2.66,2.66,0,0,1,2.66,2.66V27.7h2.18V19.22a4.84,4.84,0,0,0-4.84-4.84h-20a4.84,4.84,0,0,0-4.84,4.84V40.7a4.84,4.84,0,0,0,4.84,4.84H31.51v5a4.6,4.6,0,0,0,4.6,4.6h4.22v6.34A2,2,0,0,0,44,62.54l4.83-7.43h5.8a4.6,4.6,0,0,0,4.6-4.6V32.4A4.61,4.61,0,0,0,54.64,27.79Zm2.42,22.72a2.43,2.43,0,0,1-2.42,2.43H48.47a1.49,1.49,0,0,0-1.26.68l-4.7,7.24V54.44A1.51,1.51,0,0,0,41,52.94H36.11a2.43,2.43,0,0,1-2.43-2.43V32.4A2.43,2.43,0,0,1,36.11,30H54.64a2.43,2.43,0,0,1,2.42,2.43Z"/><path class="cls-1" d="M44.19,32.68l-6.46,16,2,.81,2-5.07h6.74l1.86,5.34L52.45,49l-5.7-16.34Zm-1.51,9.54,2.74-6.76,2.36,6.76Z"/></svg>