<svg id="Layer_1" data-name="Layer 1" xmlns="http://www.w3.org/2000/svg" viewBox="0 0 72 72"><defs><style>.cls-1{fill:silver;}</style></defs><title>trash_icon</title><path class="cls-1" d="M49.62,24H41V21.26a1.88,1.88,0,0,0-1.88-1.88H28.69a1.88,1.88,0,0,0-1.87,1.88V24H18.23v2h3.09l1.84,26.21a3.13,3.13,0,0,0,3.11,2.9H42a3.13,3.13,0,0,0,3.11-2.9L46.9,26h2.72Zm-20.77-2.6H39V24H28.85ZM43,52.1a1.08,1.08,0,0,1-1.08,1H26.27a1.08,1.08,0,0,1-1.08-1L23.37,26H44.86Z"/><path class="cls-1" d="M28.78,48.36a1,1,0,0,0,1-1V31.92a1,1,0,0,0-2,0V47.34A1,1,0,0,0,28.78,48.36Z"/><path class="cls-1" d="M33.92,48.36a1,1,0,0,0,1-1V31.92a1,1,0,0,0-2,0V47.34A1,1,0,0,0,33.92,48.36Z"/><path class="cls-1" d="M39.06,48.36a1,1,0,0,0,1-1V31.92a1,1,0,0,0-2,0V47.34A1,1,0,0,0,39.06,48.36Z"/></svg>