<svg id="Layer_1" data-name="Layer 1" xmlns="http://www.w3.org/2000/svg" viewBox="0 0 72 72"><defs><style>.cls-1{fill:silver;}</style></defs><title>Campus_icon </title><path class="cls-1" d="M53.1,16.61,53,15.72l-37.86-.37,0,1c0,.39-.14,9.78,5.27,15.25A12.55,12.55,0,0,0,28,35.23,19.55,19.55,0,0,0,23.39,45.6a29.74,29.74,0,0,0,0,8.82l.14.82h.83s3.33,0,6.66,0h3c3.82,0,4.49-.09,4.64-.61l.09.06,3.6-5.49.48-9.13h-.1c.61-.71,1.27-1.44,1.95-2.18,2.83-3.12,6-6.64,7.38-10.51A26.61,26.61,0,0,0,53.1,16.61ZM36.84,28.83c2.28-4.16,2.33-8.76,2.25-11.24l4.45,0-.64.05C42.92,18,43.18,23.54,36.84,28.83ZM33.09,30.6a47.06,47.06,0,0,0,.22-13.07l3.77,0C37.2,21.62,36.74,26.81,33.09,30.6Zm-2-.35c-2.72-3.73-3.34-10.51-3.47-12.78l3.64,0A46,46,0,0,1,31.12,30.25Zm-1,2c-6.64-3.3-7.6-11.75-7.72-14.8l3.21,0C25.77,19.91,26.46,28.06,30.15,32.22Zm-13-14.85,3.28,0a26.9,26.9,0,0,0,1,6.45,16.12,16.12,0,0,0,6.4,9.33,10.5,10.5,0,0,1-6-3C18,26.29,17.27,19.83,17.15,17.37Zm21.52,33.8c0-2.61.23-5.92,2-8.49l-.32,5.93ZM50.13,26.8c-1.2,3.45-4.26,6.82-7,9.79A50.92,50.92,0,0,0,39,41.53c-2.46,3.56-2.39,8-2.35,11,0,.26,0,.51,0,.75-2.1,0-7.52,0-11.46,0-.36-3.19-1-14.81,7.92-19.58,11.72-6.28,11.78-14.91,11.74-16l6.29.07A24.52,24.52,0,0,1,50.13,26.8Z"/></svg>