<svg id="Layer_1" data-name="Layer 1" xmlns="http://www.w3.org/2000/svg" viewBox="0 0 72 72"><defs><style>.cls-1{fill:silver;}</style></defs><title>Emergency_icon</title><path class="cls-1" d="M33.91,20.49v-2.4a1,1,0,0,0-2,0v2.42A16,16,0,0,0,17.23,36.27v1l2.64-.06.25-.6a3.29,3.29,0,0,1,2.92-2,4.56,4.56,0,0,1,4,2.25l.29.5H29l.28-.5A4.47,4.47,0,0,1,32,34.84v13.4a1.41,1.41,0,1,1-2.81,0V46.59a1,1,0,0,0-2,0v1.65a3.41,3.41,0,1,0,6.81,0V34.72a4.5,4.5,0,0,1,3.31,2.19l.29.5H39l.29-.5a4.7,4.7,0,0,1,8,0l.29.5h1.58v-1A16,16,0,0,0,33.91,20.49Zm9.34,12.17a6.64,6.64,0,0,0-5,2.21,6.75,6.75,0,0,0-10.1.12A6.67,6.67,0,0,0,23,32.66,4.94,4.94,0,0,0,19.4,34.2,14,14,0,0,1,31.91,22.51V24a1,1,0,0,0,2,0V22.48a14,14,0,0,1,13,11.22A6.74,6.74,0,0,0,43.25,32.66Z"/></svg>