<svg id="Layer_1" data-name="Layer 1" xmlns="http://www.w3.org/2000/svg" viewBox="0 0 72 72"><defs><style>.cls-1{fill:silver;}</style></defs><title>User_icon</title><path class="cls-1" d="M39.17,38.54H29.69a7.12,7.12,0,0,0-7.11,7.11v1.72h2V45.65a5.12,5.12,0,0,1,5.11-5.11h9.48a5.12,5.12,0,0,1,5.11,5.11v1.71h2V45.65A7.12,7.12,0,0,0,39.17,38.54Z"/><path class="cls-1" d="M34.43,36.73a6.32,6.32,0,1,0-6.32-6.32A6.33,6.33,0,0,0,34.43,36.73Zm0-10.64a4.32,4.32,0,1,1-4.32,4.32A4.33,4.33,0,0,1,34.43,26.09Z"/></svg>