<svg id="Layer_1" data-name="Layer 1" xmlns="http://www.w3.org/2000/svg" viewBox="0 0 72 72"><defs><style>.cls-1{fill:silver;}</style></defs><title>Video_icon_1</title><g id="Group_584" data-name="Group 584"><path class="cls-1" d="M32.18,44.65A1.23,1.23,0,0,1,31,43.43V30.5a1.2,1.2,0,0,1,.26-.75A1.23,1.23,0,0,1,33,29.51l8.56,6.57a1.25,1.25,0,0,1-.21,1.75L33,44.39A1.13,1.13,0,0,1,32.18,44.65ZM33,32v9.8l6.33-5Zm7.11,4.22Z"/><g id="Rectangle_212" data-name="Rectangle 212"><path class="cls-1" d="M52.14,50.91H17.65a4,4,0,0,1-4-4V26.82a4,4,0,0,1,4-4H52.14a4,4,0,0,1,4,4V46.91A4,4,0,0,1,52.14,50.91ZM17.65,24.82a2,2,0,0,0-2,2V46.91a2,2,0,0,0,2,2H52.14a2,2,0,0,0,2-2V26.82a2,2,0,0,0-2-2Z"/></g></g></svg>