<svg id="Layer_1" data-name="Layer 1" xmlns="http://www.w3.org/2000/svg" viewBox="0 0 72 72"><defs><style>.cls-1{fill:silver;}</style></defs><title>video_v2_icon</title><path class="cls-1" d="M33.84,18.64A17.72,17.72,0,1,0,51.56,36.35,17.74,17.74,0,0,0,33.84,18.64Zm0,33.19A15.48,15.48,0,1,1,49.32,36.35,15.49,15.49,0,0,1,33.84,51.83Z"/><path class="cls-1" d="M31.56,28.3a1.35,1.35,0,0,0-1-.26,1.37,1.37,0,0,0-1.2,1.36V43.85a1.39,1.39,0,0,0,.41,1,1.35,1.35,0,0,0,.95.39,1.43,1.43,0,0,0,.84-.27l9.35-7.34a1.4,1.4,0,0,0,.23-2Zm0,13.79v-11l7.08,5.4Z"/></svg>