<svg xmlns="http://www.w3.org/2000/svg" viewBox="0 0 630 720" height="720" width="630"><defs><clipPath id="a"><path d="M0 576h504V0H0v576z"/></clipPath></defs><path d="M336.435 60.983v89.327h32.169l-70.459 137.11-70.465-137.11h32.169V60.983H68.464v90.714h36.85L233.985 385.35v149.68h-40.269v90.295H402.57V535.03H362.3V385.35L490.97 151.697h36.853V60.983H336.435zM440.546 642.883h6.254v16.122h3.82v-16.122h6.188V639.7h-16.262v3.183z" fill="#0f284e"/><g clip-path="url(#a)" transform="matrix(1.25 0 0 -1.25 0 720)"><path d="M379.6 64.24l-2.686-7.602c-.354-1.133-.71-2.454-1.098-3.865h-.01a68.995 68.995 0 0 1-1.104 3.913l-2.605 7.554h-4.633l-1.123-15.444h2.971l.549 9.101c.037 1.411.122 2.876.122 4.305h.164c.354-1.392.822-3.213 1.101-4.366l2.776-8.833h3.178l2.776 8.57c.476 1.416.906 3.237 1.284 4.63h.208c.037-1.647.037-3.153.132-4.306l.547-9.1h3.105l-1.245 15.443H379.6z" fill="#0f284e"/></g></svg>