<svg id="Layer_2" data-name="Layer 2" xmlns="http://www.w3.org/2000/svg" viewBox="0 0 215.3 109.94"><defs><style>.cls-1{fill:#fff}</style></defs><title>BYU logo</title><path class="cls-1" d="M252.92 400.38v-.21c7.62-2.12 11.64-6.67 11.64-17.88 0-5.71-1.37-10.79-4.76-14.29-2.86-2.85-6.25-4-12.8-4h-48.65v16.51h5.79v41.05h-5.79V438h48.54c6 0 9.95-1.16 13-4.23 3.39-3.38 5.4-8.26 5.4-15.56.01-12.01-4.23-15.82-12.37-17.83zM225.83 380h11.75c2 0 2.75.32 3.28.84.74.74 1.17 2.12 1.17 5.72s-.53 5.18-1.27 6c-.63.64-1.37.74-3.17.74h-11.76zm15.56 41.16c-.74.74-1.58 1-3.49 1h-12.07v-14.9h12.06c1.91 0 2.75.21 3.49.95s1.27 1.8 1.27 6.57-.52 5.6-1.27 6.34zM381.23 364v16.51h5.37v29.73c0 6.88-.31 8.89-1.27 9.84s-2.75 1.06-6.35 1.06h-3.69c-3.6 0-5.5-.21-6.35-1.06s-1.27-3-1.27-9.84v-29.75H373V364h-31.2v16.51h4v27.83c0 16.4 1.8 21.37 5.82 25.39 3.38 3.39 7.62 4.34 17.14 4.34h16.39c9.52 0 13.75-1 17.14-4.34 4-4 5.82-9 5.82-25.39v-27.85h5.58V364z" transform="translate(-198.35 -341.03)" fill="#fff"/><path class="cls-1" d="M142.08 18.31h7.43V0h-38.62v18.03h6.49L104.44 44.1 91.51 18.03H98V0H59.37v18.31h7.44L91.5 63.86v27.43h-8.13v18.65h42.15V91.29h-8.13V63.86l24.69-45.55z"/><path class="cls-1" d="M334.13 446a.93.93 0 0 0-.58-.94 2.78 2.78 0 0 0-1-.14h-1.31v3.74h.65v-1.47h.52a1.55 1.55 0 0 1 .73.12.92.92 0 0 1 .35.85v.41h.64v-.05a.42.42 0 0 1 0-.19v-.55a1 1 0 0 0-.2-.58.9.9 0 0 0-.64-.37 1.4 1.4 0 0 0 .54-.18.8.8 0 0 0 .3-.65zm-1 .64a1.76 1.76 0 0 1-.63.08h-.6v-1.34h.57a1.76 1.76 0 0 1 .8.14.57.57 0 0 1 .25.54.57.57 0 0 1-.44.55z" transform="translate(-198.35 -341.03)" fill="#fff"/><path class="cls-1" d="M332.58 443.37a3.41 3.41 0 0 0 0 6.82 3.41 3.41 0 1 0 0-6.82zm2.09 5.49a3 3 0 0 1-4.18 0 2.95 2.95 0 0 1 4.18-4.16 3 3 0 0 1 0 4.16z" transform="translate(-198.35 -341.03)" fill="#fff"/></svg>