<svg xmlns="http://www.w3.org/2000/svg" viewBox="0 0 1223.9 108.2"><path d="M53.1 72.9c-2.7 0-4.1-.1-6.3-.1-2.3 0-5 .1-7.8.1-.2 0-.2-.6.1-.6 2.5-.2 3.8-.4 4.6-.9.8-.4 1.3-1.8 1.3-14v-9c0-12.1-.5-13.5-1.3-14-.7-.4-2.1-.6-4.6-.9-.2-.1-.2-.6-.1-.6 2.8 0 5.5.1 7.8.1s3.6-.1 6.3-.1c8.2 0 11.7 4.9 11.7 8.7 0 3.8-2.6 6.9-6.5 8.9C64.9 52 68.5 55.8 68.5 61c0 6.1-4.6 11.9-15.4 11.9zM53 34.3c-2 0-3.8.2-3.9.5-.2.2-.4 2.8-.4 10.1 0 3.6.1 5.4.2 5.5.2.2 1.8.4 4.2.4 4.9 0 7.4-3.1 7.4-7.8-.1-6-4.1-8.7-7.5-8.7zM52.4 52c-2 0-3.4.1-3.5.2-.1.1-.2 1.5-.2 8.7 0 6.1.3 9.1.7 9.6.4.6 2.8 1.1 5.5 1.1 5 0 9.1-3.3 9.1-9C64 56.1 59 52 52.4 52zM121.9 72.8c-3.8 0-5.5-.5-7.9-2.1-3.1-2.2-6.5-6.8-11.4-15.2-3.1.1-5.6.1-8-.1v2c0 12.1.6 13.5 1.4 14 .8.4 2.6.6 5.3.9.3.1.3.6.1.6H85.3c-.2 0-.2-.6.1-.6 2.4-.2 3.5-.4 4.2-.9.7-.4 1.3-1.8 1.3-14v-9c0-12.1-.6-13.5-1.3-14-.7-.4-1.8-.6-4.2-.9-.2-.1-.2-.6-.1-.6 2.7 0 5.2.1 7.5.1s4.7-.1 7.4-.1c9.2 0 13.1 5.1 13.1 9.8 0 4.9-3.1 8.7-7.4 11.3 8.2 12.3 13.3 17.6 17.6 17.6.6 0 1.4 0 1.8-.1.2 0 .2.7.1.7-1.2.5-2.1.6-3.5.6zm-21.8-38.3c-2.1 0-4.7.3-4.9.6-.2.4-.7 4.6-.7 13.5 0 3.7.1 4.9.4 5.1.5.4 2.9.7 5.8.7 5 0 8.1-4.4 8.1-9.2 0-5.9-2.9-10.7-8.7-10.7zM134.6 72.9c-.2 0-.2-.6.1-.6 2.4-.2 3.9-.4 4.7-.9.8-.4 1.3-1.8 1.3-14v-9c0-12.1-.5-13.5-1.3-14-.7-.4-2.3-.6-4.7-.9-.3-.1-.3-.6-.1-.6h16c.2 0 .2.6-.1.6-2.4.2-4 .4-4.7.9-.7.4-1.3 1.8-1.3 14v9c0 12.1.6 13.5 1.3 14 .7.4 2.3.6 4.7.9.2.1.2.6.1.6h-16zM205.6 54.6c-2.4.3-3.2.4-3.9.9-.5.4-.9 1.6-.7 13.8v.6c-3.4 2-8.1 3.4-13.2 3.4-11.7 0-21.3-8.9-21.3-19.8 0-10.5 7.4-20.8 21.1-20.8 6.5 0 10.1 2.2 12.2 1.7.3-.1.4.1.4.2.1 2.2.3 5.5.3 8.9 0 .3-.7.3-.7-.1-.2-1.7-1.1-3.7-2.4-4.9-2.2-2.1-6.3-4.3-10.5-4.3-11.1 0-16 8.8-16 17.5 0 10.3 7.3 19.8 19 19.8 2.7 0 5.5-.6 7.3-1.4-.1-12.9-.4-14.3-.9-14.5-.7-.4-2.3-.6-4.7-.9-.3 0-.3-.6-.1-.6h14.3c0-.1.1.5-.2.5zM249.7 72.9c-.2 0-.2-.6.1-.6 2.4-.2 3.4-.4 4.2-.9.7-.4 1.3-1.8 1.3-14v-4.1h-23.9v4.1c0 12.1.5 13.5 1.3 14 .7.4 1.8.6 4.2.9.2.1.2.6.1.6h-14.9c-.2 0-.2-.6.1-.6 2.4-.2 3.5-.4 4.2-.9.7-.4 1.3-1.8 1.3-14v-9c0-12.1-.6-13.5-1.3-14-.7-.4-1.8-.6-4.2-.9-.2-.1-.2-.6-.1-.6H237c.2 0 .2.6-.1.6-2.4.2-3.4.4-4.2.9-.8.4-1.3 1.8-1.3 14v3.3h23.9v-3.3c0-12.1-.6-13.5-1.3-14-.8-.4-1.8-.6-4.2-.9-.2-.1-.2-.6-.1-.6h14.9c.2 0 .2.6-.1.6-2.4.2-3.4.4-4.2.9-.7.4-1.3 1.8-1.3 14v9c0 12.1.6 13.5 1.3 14 .8.4 1.8.6 4.2.9.2.1.2.6.1.6h-14.9zM301.8 72.9c-.2 0-.2-.6 0-.6 1.9-.2 3.4-.2 3.4-1.2s-1.2-4.4-4.9-13.7l-.1-.2h-12.5l-.1.2c-3.1 8.3-4.2 12.1-4.2 13.3 0 1.1 1.4 1.2 3.9 1.5.2.1.2.6 0 .6h-11.6c-.2 0-.3-.6 0-.6 1.8-.2 3-.4 3.9-1 .6-.4 1.7-1.7 6.1-13.8l3.3-9c1.9-5.2 3.9-10.5 5.4-15.3.2-.4.7-.4.8 0 1.8 5.4 3.4 9.7 5.7 15.3l3.4 9c4.8 12.1 5.6 13.4 6.5 14 1 .6 2 .7 3.7.9.2.1.2.6 0 .6h-12.7zM294 40.1l-5.7 15.7h11.4L294 40.1zM363.3 72.9c-.2 0-.3-.6 0-.6 1.7-.2 3-.2 3.6-.7.6-.4 1-2-.4-14.1L365.1 43 351 73.1c-.1.1-.4.2-.6-.1l-15.2-29.8-1 13.9c-1.1 12.4-.3 13.8.4 14.3.6.5 2.3.6 3.9.8.2.1.2.6 0 .6h-13c-.2 0-.1-.6.1-.6 2.5-.2 3.8-.4 4.5-1 .5-.4 1.3-1.7 2.2-13.8l.6-9c.3-5.2.7-10.5.8-15.3.1-.3.7-.4.8-.1l17.3 34.2 16-34.2c.1-.2.7-.2.7.1.3 5.4.6 9.7 1.2 15.3l.9 9c1.4 12.1 1.7 13.5 2.6 14 .8.4 1.8.6 4.3.9.2.1.4.6.2.6h-14.4zM447.2 34.2c-.6.3-1.4 1.2-5.8 8.6l-3.3 5.5c-1.5 2.4-3 4.8-4.3 7.1v2c0 12.2.6 13.6 1.3 14 .7.4 2.3.6 4.7.9.2.1.2.6.1.6h-16c-.2 0-.2-.6.1-.6 2.4-.2 4-.4 4.7-.9.7-.4 1.3-1.8 1.3-14v-1.8c-1.4-2.4-2.7-4.7-4.4-7.4l-3.4-5.5c-4.7-7.4-5.2-8.4-6-8.7-1-.4-1.9-.4-3.6-.5-.3 0-.2-.6 0-.6h13.2c.2 0 .2.6 0 .6-1.4.1-3 .1-3.4.4-.5.3 0 1.3 4.5 9.4l6.1 10.3 6.8-11.3c4.4-6.9 4.2-7.9 3.8-8.2-.5-.2-2.2-.4-3.8-.5-.2 0-.2-.6 0-.6h11.7c.2 0 .2.6 0 .6-2.1.1-3.4.2-4.3.6zM481.7 73.3c-11.3 0-20-8.7-20-19.8 0-10.6 8.4-20.8 20.9-20.8 11.3 0 20 8.7 20 19.8 0 10.6-8.3 20.8-20.9 20.8zm-.3-38.9c-11 0-15.3 9.3-15.3 17.3 0 10 7 19.9 16.8 19.9 10.9 0 15.2-9.3 15.2-17.3.1-10-6.9-19.9-16.7-19.9zM555 34.7c-.5.4-1 1.7-1 13.8v10.3c0 7.4-5.5 14.5-15.2 14.5-9.6 0-15.4-6.3-15.4-14.3V48.5c0-12.1-.6-13.5-1.3-14-.7-.4-1.8-.6-4.2-.9-.2-.1-.2-.6-.1-.6H533c.2 0 .2.6-.1.6-2.4.2-3.7.4-4.4.9-.8.4-1.3 1.8-1.3 14v9.3c0 7.6 4.9 13 13 13 7.6 0 11.6-5.5 11.6-12.4v-10c0-12.1-.6-13.3-1-13.8-.7-.6-2.2-.8-4.6-1-.3-.1-.2-.6 0-.6h13.1c.2 0 .2.6 0 .6-2.4.3-3.6.5-4.3 1.1zM614.1 35c-.5.5-1.2 1.4-1.1 13.5l.1 9c.1 5.2 0 10.6.3 15.4.1.3-.7.4-1 .1l-30.5-32.5.2 17c.1 11.2.9 12.9 1.7 13.6.6.4 2.8 1 4.5 1 .2 0 .2.8 0 .8h-14.1c-.2 0-.2-.7 0-.8 2.5-.2 3.9-.6 4.5-1.2.5-.5 1.2-1.4 1-13.5l-.1-9c-.1-5.2-.1-10.6-.4-15.4 0-.3.9-.4 1.1-.1l30.6 32.7-.2-17.2c-.1-12.1-1-13-1.7-13.6-.7-.6-2.3-.9-4.9-1-.2-.1-.2-.8 0-.8h14.3c.2 0 .2.7 0 .8-2.4.3-3.6.7-4.3 1.2zM674.4 54.6c-2.4.3-3.2.4-3.9.9-.5.4-.9 1.6-.7 13.8v.6c-3.4 2-8.1 3.4-13.2 3.4-11.7 0-21.3-8.9-21.3-19.8 0-10.5 7.4-20.8 21.1-20.8 6.5 0 10.1 2.2 12.2 1.7.3-.1.4.1.4.2.1 2.2.3 5.5.3 8.9 0 .3-.7.3-.7-.1-.2-1.7-1.1-3.7-2.4-4.9-2.2-2.1-6.3-4.3-10.5-4.3-11.1 0-16 8.8-16 17.5 0 10.3 7.3 19.8 19 19.8 2.7 0 5.5-.6 7.3-1.4-.1-12.9-.4-14.3-.9-14.5-.7-.4-2.3-.6-4.7-.9-.3 0-.3-.6-.1-.6h14.3c0-.1.1.5-.2.5zM752.4 34.7c-.5.4-1 1.7-1 13.8v10.3c0 7.4-5.5 14.5-15.2 14.5-9.6 0-15.4-6.3-15.4-14.3V48.5c0-12.1-.6-13.5-1.3-14-.7-.4-1.8-.6-4.2-.9-.2-.1-.2-.6-.1-.6h15.2c.2 0 .2.6-.1.6-2.4.2-3.7.4-4.4.9-.8.4-1.3 1.8-1.3 14v9.3c0 7.6 4.9 13 13 13 7.6 0 11.6-5.5 11.6-12.4v-10c0-12.1-.6-13.3-1-13.8-.7-.6-2.2-.8-4.6-1-.3-.1-.2-.6 0-.6h13.1c.2 0 .2.6 0 .6-2.4.3-3.6.5-4.3 1.1zM811.5 35c-.5.5-1.2 1.4-1.1 13.5l.1 9c.1 5.2 0 10.6.3 15.4.1.3-.7.4-1 .1l-30.5-32.5.2 17c.1 11.2.9 12.9 1.7 13.6.6.4 2.8 1 4.5 1 .2 0 .2.8 0 .8h-14.1c-.2 0-.2-.7 0-.8 2.5-.2 3.9-.6 4.5-1.2.5-.5 1.2-1.4 1-13.5l-.1-9c-.1-5.2-.1-10.6-.4-15.4 0-.3.9-.4 1.1-.1l30.6 32.7-.2-17.2c-.1-12.1-1-13-1.7-13.6-.7-.6-2.3-.9-4.9-1-.2-.1-.2-.8 0-.8h14.3c.2 0 .2.7 0 .8-2.4.3-3.6.7-4.3 1.2zM833.6 72.9c-.2 0-.2-.6.1-.6 2.4-.2 3.9-.4 4.7-.9.8-.4 1.3-1.8 1.3-14v-9c0-12.1-.5-13.5-1.3-14-.7-.4-2.3-.6-4.7-.9-.3-.1-.3-.6-.1-.6h16c.2 0 .2.6-.1.6-2.4.2-4 .4-4.7.9-.7.4-1.3 1.8-1.3 14v9c0 12.1.6 13.5 1.3 14 .7.4 2.3.6 4.7.9.2.1.2.6.1.6h-16zM901.6 34.7c-.6.5-1.7 1.7-6.6 13.8l-3.6 9c-2 5.2-4.2 10.5-5.8 15.3-.2.4-1.4.4-1.5 0-1.9-5.3-3.6-9.7-5.8-15.3l-3.6-9c-4.5-10.8-5.6-13.2-6.6-13.8-1-.6-2.2-.8-4.1-1-.2-.1-.2-.6 0-.6h13.8c.2 0 .3.6 0 .6-2.3.2-3.8.7-3.8 1.7 0 1.1 1 3.9 4.8 13.2l7 18.4 7.3-18.4c3.3-8.4 4.2-11.5 4.2-12.8 0-1.1-1.4-1.8-4-2-.2-.1-.2-.6 0-.6h11.9c.2 0 .3.6 0 .6-1.8.1-2.8.3-3.6.9zM945.1 72.2c-.3.4-2.2.7-4.7.7-3.7 0-5.6-.2-10.8-.2-3.9 0-5.9.1-10.3.1-.2 0-.2-.6.1-.6 2.4-.2 3.8-.4 4.6-.9.8-.4 1.3-1.8 1.3-14v-9c0-12.1-.5-13.5-1.3-14-.7-.4-2.2-.6-4.6-.9-.2-.1-.2-.6-.1-.6 4.8.1 11.9.1 15.9.1 5.2 0 7.1-.1 9-.3.2 0 .4.1.4.2-.2 2.2-.3 4.6-.7 7.9-.1.2-.7.2-.7-.2 0-1.6-.1-3.1-1-4.1-1-1.1-2.9-2-7.3-2-2.4 0-5 0-5.6.1-.2.6-.2 3.6-.2 7.4V51h5.4c5.8 0 6.6-.9 7-3.1 0-.2.7-.2.7 0-.1 1.7-.3 7.2-.3 8.9 0 .2-.7.2-.7-.1 0-1.2-.3-2.4-.9-3-.6-.6-1.5-1.2-5.8-1.2h-5.4v4.4c0 7.9.4 12.3 1 12.9.5.6 2.8.8 6.3.8 3.9 0 6-1.1 7.1-2.3.9-.9 1.5-2.5 2-4.4.1-.4.7-.1.7.2-.4 4.6-1 8-1.1 8.1zM1000.8 72.8c-3.8 0-5.5-.5-7.9-2.1-3.1-2.2-6.5-6.8-11.4-15.2-3.1.1-5.6.1-8-.1v2c0 12.1.6 13.5 1.4 14 .8.4 2.6.6 5.3.9.3.1.3.6.1.6h-16.1c-.2 0-.2-.6.1-.6 2.4-.2 3.5-.4 4.2-.9.7-.4 1.3-1.8 1.3-14v-9c0-12.1-.6-13.5-1.3-14-.7-.4-1.8-.6-4.2-.9-.2-.1-.2-.6-.1-.6 2.7 0 5.2.1 7.5.1s4.7-.1 7.4-.1c9.2 0 13.1 5.1 13.1 9.8 0 4.9-3.1 8.7-7.4 11.3 8.2 12.3 13.3 17.6 17.6 17.6.6 0 1.4 0 1.8-.1.2 0 .2.7.1.7-1.2.5-2.1.6-3.5.6zM979 34.5c-2.1 0-4.7.3-4.9.6-.2.4-.7 4.6-.7 13.5 0 3.7.1 4.9.4 5.1.5.4 2.9.7 5.8.7 5 0 8.1-4.4 8.1-9.2 0-5.9-2.9-10.7-8.7-10.7zM1023.8 73.2c-6.2 0-9.4-3.4-9.5-3.6-.1-.2-.4-5.4 0-8.5-.1-.3.7-.3.7.1.1 2.3 1 4.8 1.8 6.1 1.8 2.7 4.2 4.4 7.8 4.4 4.8 0 7.7-3.4 7.7-7.9 0-9.2-16.3-10.7-16.3-20.8 0-6.3 4.9-10.3 10.6-10.3 4.7 0 5.5 1.7 7.7 1.1.2-.1.4.1.4.2 0 2.2.1 5 0 8.3-.1.2-.7.2-.7-.1-.1-2-.9-4.4-2.1-5.7-1.4-1.5-3.4-2.4-5.6-2.4-3.9 0-6.8 2.9-6.8 6.7 0 7.7 17 10.9 17 20.9-.1 7.6-6.6 11.5-12.7 11.5zM1055.4 72.9c-.2 0-.2-.6.1-.6 2.4-.2 3.9-.4 4.7-.9.8-.4 1.3-1.8 1.3-14v-9c0-12.1-.5-13.5-1.3-14-.7-.4-2.3-.6-4.7-.9-.3-.1-.3-.6-.1-.6h16c.2 0 .2.6-.1.6-2.4.2-4 .4-4.7.9-.7.4-1.3 1.8-1.3 14v9c0 12.1.6 13.5 1.3 14 .7.4 2.3.6 4.7.9.2.1.2.6.1.6h-16zM1123.7 41.6c-.1.2-.7.2-.7-.1 0-1.5-.3-3.9-1.2-4.7-1.1-1.2-4.1-1.8-10.6-1.8-1.4 0-2.2 0-2.8.1-.2.6-.2 3.6-.2 7.4v15c0 12.1.6 13.5 1.3 14 .7.4 2.3.6 4.7.9.2.1.2.6.1.6h-16c-.2 0-.2-.6.1-.6 2.4-.2 3.9-.4 4.7-.9.7-.4 1.3-1.8 1.3-14v-15c0-3.9-.1-6.8-.2-7.4-.6-.1-1.7-.1-3.1-.1-6.3 0-9.2.6-10.7 1.8-.9.9-1.5 3.4-1.8 4.9 0 .3-.7.1-.7-.1.4-3.1.7-6.5.9-8.6 0-.1.1-.2.4-.2 2.2.4 6.5.7 17.2.7 14.7 0 16.4-.4 17.5-.8.2-.1.4.1.4.2-.1 2.2-.2 5.5-.6 8.7zM1172.8 34.2c-.6.3-1.4 1.2-5.8 8.6l-3.3 5.5c-1.5 2.4-3 4.8-4.3 7.1v2c0 12.2.6 13.6 1.3 14 .7.4 2.3.6 4.7.9.2.1.2.6.1.6h-16c-.2 0-.2-.6.1-.6 2.4-.2 4-.4 4.7-.9.7-.4 1.3-1.8 1.3-14v-1.8c-1.4-2.4-2.7-4.7-4.4-7.4l-3.4-5.5c-4.7-7.4-5.2-8.4-6-8.7-1-.4-1.9-.4-3.6-.5-.3 0-.2-.6 0-.6h13.2c.2 0 .2.6 0 .6-1.4.1-3 .1-3.4.4-.5.3 0 1.3 4.5 9.4l6.1 10.3 6.8-11.3c4.4-6.9 4.2-7.9 3.8-8.2-.5-.2-2.2-.4-3.8-.5-.2 0-.2-.6 0-.6h11.7c.2 0 .2.6 0 .6-2.1.1-3.3.2-4.3.6z"/></svg>