<?xml version="1.0" encoding="utf-8"?>
<!-- Generator: Adobe Illustrator 19.2.0, SVG Export Plug-In . SVG Version: 6.00 Build 0)  -->
<svg version="1.1" id="Layer_1" xmlns="http://www.w3.org/2000/svg" xmlns:xlink="http://www.w3.org/1999/xlink" x="0px" y="0px"
	 viewBox="0 0 928.6 928.6" style="enable-background:new 0 0 928.6 928.6;" xml:space="preserve">
<path fill="#000000" d="M642.9,392.9c0-68.9-24.5-127.7-73.4-176.6S461.7,143,392.9,142.9c-68.8-0.1-127.7,24.4-176.7,73.4
	s-73.4,107.9-73.3,176.6s24.6,127.6,73.3,176.6c48.7,49,107.6,73.5,176.7,73.4s127.9-24.5,176.6-73.4
	C618.2,520.6,642.6,461.8,642.9,392.9L642.9,392.9z M928.6,857.2c0,19.3-7.1,36.1-21.2,50.2c-14.1,14.1-30.9,21.2-50.3,21.2
	c-20.1,0-36.8-7.1-50.2-21.2L615.5,716.5c-66.6,46.1-140.8,69.2-222.6,69.2c-53.2,0-104.1-10.3-152.7-30.9
	c-48.6-20.6-90.4-48.5-125.5-83.7S51.7,594,31,545.5S-0.1,446.1,0,392.9s10.4-104.1,31-152.6s48.5-90.4,83.7-125.6
	s77-63.1,125.5-83.7S339.6,0.1,392.9,0s104.2,10.3,152.6,31s90.2,48.6,125.5,83.7c35.3,35.1,63.2,76.9,83.7,125.6
	c20.5,48.7,30.9,99.5,31,152.6c0,81.9-23.1,156.1-69.2,222.6l191.4,191.4C921.7,820.7,928.6,837.5,928.6,857.2L928.6,857.2z"/>
</svg>
