<?xml version="1.0" encoding="UTF-8" standalone="no"?>
<svg
   xmlns:dc="http://purl.org/dc/elements/1.1/"
   xmlns:cc="http://creativecommons.org/ns#"
   xmlns:rdf="http://www.w3.org/1999/02/22-rdf-syntax-ns#"
   xmlns:svg="http://www.w3.org/2000/svg"
   xmlns="http://www.w3.org/2000/svg"
   viewBox="0 0 630 720"
   height="720"
   width="630"
   xml:space="preserve"
   version="1.1"
   id="svg2"><metadata
     id="metadata8"><rdf:RDF><cc:Work
         rdf:about=""><dc:format>image/svg+xml</dc:format><dc:type
           rdf:resource="http://purl.org/dc/dcmitype/StillImage" /></cc:Work></rdf:RDF></metadata><defs
     id="defs6"><clipPath
       id="clipPath28"
       clipPathUnits="userSpaceOnUse"><path
         id="path30"
         d="M 0,576 504,576 504,0 0,0 0,576 Z" /></clipPath></defs><g
     transform="matrix(1.25,0,0,-1.25,0,720)"
     id="g10"><g
       transform="translate(269.1482,527.2137)"
       id="g12"><path
         id="path18"
         style="fill:#0f284e;fill-opacity:1;fill-rule:nonzero;stroke:none"
         d="m 0,0 0,-71.462 25.735,0 -56.367,-109.688 -56.372,109.688 25.735,0 0,71.462 -153.108,0 0,-72.571 29.48,0 102.937,-186.923 0,-119.744 -32.215,0 0,-72.236 167.083,0 0,72.236 -32.217,0 0,119.744 102.937,186.923 29.482,0 L 153.11,0 0,0 Z" /></g><g
       transform="translate(352.4367,61.6938)"
       id="g20"><path
         id="path22"
         style="fill:#0f284e;fill-opacity:1;fill-rule:nonzero;stroke:none"
         d="m 0,0 5.003,0 0,-12.898 3.057,0 0,12.898 4.95,0 0,2.546 L 0,2.546 0,0 Z" /></g><g
       id="g24"><g
         clip-path="url(#clipPath28)"
         id="g26"><g
           transform="translate(379.6,64.2403)"
           id="g32"><path
             id="path34"
             style="fill:#0f284e;fill-opacity:1;fill-rule:nonzero;stroke:none"
             d="m 0,0 -2.686,-7.602 c -0.354,-1.133 -0.71,-2.454 -1.098,-3.865 l -0.01,0 c -0.401,1.587 -0.735,2.732 -1.104,3.913 L -7.503,0 l -4.633,0 -1.123,-15.444 2.971,0 0.549,9.101 c 0.037,1.411 0.122,2.876 0.122,4.305 l 0.164,0 c 0.354,-1.392 0.822,-3.213 1.101,-4.366 l 2.776,-8.833 3.178,0 2.776,8.57 c 0.476,1.416 0.906,3.237 1.284,4.629 l 0.208,0 C 1.907,-3.684 1.907,-5.19 2.002,-6.343 l 0.547,-9.101 3.105,0 L 4.409,0 0,0 Z" /></g></g></g></g></svg>
