<svg xmlns="http://www.w3.org/2000/svg" viewBox="0 0 928.6 928.6"><path fill="#FFF" d="M642.9 392.9c0-68.9-24.5-127.7-73.4-176.6S461.7 143 392.9 142.9c-68.8-.1-127.7 24.4-176.7 73.4s-73.4 107.9-73.3 176.6 24.6 127.6 73.3 176.6c48.7 49 107.6 73.5 176.7 73.4s127.9-24.5 176.6-73.4c48.7-48.9 73.1-107.7 73.4-176.6zm285.7 464.3c0 19.3-7.1 36.1-21.2 50.2-14.1 14.1-30.9 21.2-50.3 21.2-20.1 0-36.8-7.1-50.2-21.2L615.5 716.5c-66.6 46.1-140.8 69.2-222.6 69.2-53.2 0-104.1-10.3-152.7-30.9-48.6-20.6-90.4-48.5-125.5-83.7S51.7 594 31 545.5-.1 446.1 0 392.9s10.4-104.1 31-152.6 48.5-90.4 83.7-125.6 77-63.1 125.5-83.7S339.6.1 392.9 0s104.2 10.3 152.6 31 90.2 48.6 125.5 83.7 63.2 76.9 83.7 125.6c20.5 48.7 30.9 99.5 31 152.6 0 81.9-23.1 156.1-69.2 222.6l191.4 191.4c13.8 13.8 20.7 30.6 20.7 50.3z"/></svg>