<svg viewBox="0 0 857.1 1000" xmlns="http://www.w3.org/2000/svg"><path fill="#007bb6" d="M132.3 789.1h128.9V401.8H132.3v387.3zm137.2-506.7q-.5-29.1-20.1-48t-51.9-19-52.7 19-20.4 48q0 28.4 19.9 47.7t51.6 19.2h.5q33 0 53-19.2t20.1-47.7zM596 789.1h128.9V567q0-86-40.7-130.1t-107.7-44q-75.9 0-116.7 65.2h1.1v-56.3H332q1.7 36.8 0 387.3h128.9V572.5q0-21.2 3.9-31.2 8.4-19.5 25.2-33.2t41.3-13.7q64.7 0 64.7 87.6v207.1zm261.1-557v535.8q0 66.4-47.1 113.5t-113.6 47.2H160.7q-66.4 0-113.5-47.2T0 767.9V232.1q0-66.4 47.2-113.5t113.5-47.2h535.7q66.4 0 113.6 47.2t47.1 113.5z"/></svg>