<svg viewBox="0 0 857.1 1000" xmlns="http://www.w3.org/2000/svg"><path fill="#002e5d" d="M554.7 665.2q0 48-9.5 109.9-17.3 120-30.7 174.7-12.3 50.2-84.8 50.2t-84.8-50.2q-13.4-54.7-30.7-174.7-9.5-61.4-9.5-109.9 0-93.8 125-93.8t125 93.8zm302.4-236.6q0 133.9-74.7 242.2T587.1 827q-4.5 1.7-8.4-1.7t-3.4-8.3q3.9-26.8 5.6-36.9 2.2-17.8 3.4-26.2.5-5 5-6.7Q678 702 731.9 616.6t53.8-188q0-100.5-50.8-184.5T597.1 113.3 409 72q-69.2 3.9-132.2 34t-108 78.4-71.4 112.8-26 134.2Q72 534 126.7 619.1t143.4 129.2q3.9 1.7 5 6.7 1.7 11.7 3.4 25.1.5 5.1 2.7 18.2t3.4 19.8q.6 5-3.6 8.4t-8.7 1.1q-82.6-32.4-145.6-94.6T29.9 585.7.6 407.4q3.9-79.8 36.8-152.7t86.2-126.6 125.6-87.9 152-39.1q91.5-5.6 176.1 26t145.6 89.5 97.7 139.8 36.5 172.2zm-302.4-17.9q0 51.9-36.6 88.5t-88.4 36.5-88.5-36.5-36.5-88.5 36.5-88.4 88.5-36.6 88.4 36.6 36.6 88.4zm160.7 17.9q0 68.1-29.9 127.5t-81.7 99q-4.5 3.4-8.9 1.2t-5.6-7.9q-3.4-29-16.2-51.3-3.9-5.6 1.7-11.2 32.3-30.1 50.8-70.8t18.4-86.5q0-62-32.7-113.9t-87.9-78.9-118.3-20.4q-74.2 8.4-127.8 63.1t-60.8 128.9q-5.6 51.3 13.1 98.2t55 80.3q5.6 5.6 1.7 11.2-13.4 22.9-16.2 51.9-1.1 5-5.6 7.3t-8.9-1.2q-53-41.3-82.9-102.1T144 422.4q1.6-73.1 38.5-136.1T281.3 185t134.4-41.6q80.4-3.9 149.6 33.5t109.6 104.6 40.5 147.1z"/></svg>